solid OpenSCAD_Model
  facet normal 0 0 -1
    outer loop
      vertex -5.56573 5.52426 0
      vertex -0.641464 0.599991 0
      vertex -1.48999 0.599991 0
    endloop
  endfacet
  facet normal 0 0 -1
    outer loop
      vertex -14 0 0
      vertex -14 0.599991 0
      vertex -11.3385 0.599991 0
    endloop
  endfacet
  facet normal -0 0 -1
    outer loop
      vertex -10.49 0.599991 0
      vertex -14 0 0
      vertex -11.3385 0.599991 0
    endloop
  endfacet
  facet normal 0 -0 -1
    outer loop
      vertex -4.51425 7.42426 0
      vertex -4.09 7 0
      vertex -5.56573 5.52426 0
    endloop
  endfacet
  facet normal 0 0 -1
    outer loop
      vertex -4.51425 7.42426 0
      vertex -5.56573 5.52426 0
      vertex -5.99001 5.10001 0
    endloop
  endfacet
  facet normal 0 0 -1
    outer loop
      vertex 0.751465 0.599991 0
      vertex 1.59998 0.599991 0
      vertex 7 0 0
    endloop
  endfacet
  facet normal 0 0 -1
    outer loop
      vertex -0.641464 0.599991 0
      vertex 0.751465 0.599991 0
      vertex 7 0 0
    endloop
  endfacet
  facet normal 0 -0 -1
    outer loop
      vertex 6.07573 5.92426 0
      vertex 6.5 5.5 0
      vertex 1.59998 0.599991 0
    endloop
  endfacet
  facet normal 0 0 -1
    outer loop
      vertex 6.07573 5.92426 0
      vertex 1.59998 0.599991 0
      vertex 0.751465 0.599991 0
    endloop
  endfacet
  facet normal 0 0 -1
    outer loop
      vertex 1.59998 0.599991 0
      vertex 7 0.599991 0
      vertex 7 0 0
    endloop
  endfacet
  facet normal 0 -0 -1
    outer loop
      vertex -1.48999 0.599991 0
      vertex 7 0 0
      vertex -14 0 0
    endloop
  endfacet
  facet normal 0 0 -1
    outer loop
      vertex -5.99001 5.10001 0
      vertex -10.49 0.599991 0
      vertex -11.3385 0.599991 0
    endloop
  endfacet
  facet normal -0 0 -1
    outer loop
      vertex -1.48999 0.599991 0
      vertex -14 0 0
      vertex -10.49 0.599991 0
    endloop
  endfacet
  facet normal -0 -0 -1
    outer loop
      vertex -0.641464 0.599991 0
      vertex 7 0 0
      vertex -1.48999 0.599991 0
    endloop
  endfacet
  facet normal 0 0 -1
    outer loop
      vertex -4.51425 7.42426 0
      vertex -5.99001 5.10001 0
      vertex -11.3385 0.599991 0
    endloop
  endfacet
  facet normal 0 -0 -1
    outer loop
      vertex -5.56573 5.52426 0
      vertex -1.48999 0.599991 0
      vertex -5.99001 5.10001 0
    endloop
  endfacet
  facet normal 0 -0 1
    outer loop
      vertex -1.48999 0.599991 0.95
      vertex -0.641464 0.599991 0.95
      vertex -5.56573 5.52426 0.95
    endloop
  endfacet
  facet normal 0 0 1
    outer loop
      vertex -11.3385 0.599991 0.95
      vertex -14 0.599991 0.95
      vertex -14 0 0.95
    endloop
  endfacet
  facet normal -0 0 1
    outer loop
      vertex -11.3385 0.599991 0.95
      vertex -14 0 0.95
      vertex -10.49 0.599991 0.95
    endloop
  endfacet
  facet normal 0 0 1
    outer loop
      vertex -5.56573 5.52426 0.95
      vertex -4.09 7 0.95
      vertex -4.51425 7.42426 0.95
    endloop
  endfacet
  facet normal 0 0 1
    outer loop
      vertex -5.99001 5.10001 0.95
      vertex -5.56573 5.52426 0.95
      vertex -4.51425 7.42426 0.95
    endloop
  endfacet
  facet normal 0 0 1
    outer loop
      vertex 7 0 0.95
      vertex 1.59998 0.599991 0.95
      vertex 0.751465 0.599991 0.95
    endloop
  endfacet
  facet normal 0 0 1
    outer loop
      vertex 7 0 0.95
      vertex 0.751465 0.599991 0.95
      vertex -0.641464 0.599991 0.95
    endloop
  endfacet
  facet normal 0 0 1
    outer loop
      vertex 1.59998 0.599991 0.95
      vertex 6.5 5.5 0.95
      vertex 6.07573 5.92426 0.95
    endloop
  endfacet
  facet normal 0 0 1
    outer loop
      vertex 0.751465 0.599991 0.95
      vertex 1.59998 0.599991 0.95
      vertex 6.07573 5.92426 0.95
    endloop
  endfacet
  facet normal 0 -0 1
    outer loop
      vertex 7 0 0.95
      vertex 7 0.599991 0.95
      vertex 1.59998 0.599991 0.95
    endloop
  endfacet
  facet normal 0 0 1
    outer loop
      vertex -14 0 0.95
      vertex 7 0 0.95
      vertex -1.48999 0.599991 0.95
    endloop
  endfacet
  facet normal 0 0 1
    outer loop
      vertex -11.3385 0.599991 0.95
      vertex -10.49 0.599991 0.95
      vertex -5.99001 5.10001 0.95
    endloop
  endfacet
  facet normal -0 0 1
    outer loop
      vertex -10.49 0.599991 0.95
      vertex -14 0 0.95
      vertex -1.48999 0.599991 0.95
    endloop
  endfacet
  facet normal -0 0 1
    outer loop
      vertex -1.48999 0.599991 0.95
      vertex 7 0 0.95
      vertex -0.641464 0.599991 0.95
    endloop
  endfacet
  facet normal 0 0 1
    outer loop
      vertex -11.3385 0.599991 0.95
      vertex -5.99001 5.10001 0.95
      vertex -4.51425 7.42426 0.95
    endloop
  endfacet
  facet normal -0 0 1
    outer loop
      vertex -5.99001 5.10001 0.95
      vertex -1.48999 0.599991 0.95
      vertex -5.56573 5.52426 0.95
    endloop
  endfacet
  facet normal 0 1 0
    outer loop
      vertex -14 0.599991 0
      vertex -14 0.599991 0.95
      vertex -11.3385 0.599991 0
    endloop
  endfacet
  facet normal -0 1 0
    outer loop
      vertex -14 0.599991 0.95
      vertex -11.3385 0.599991 0.95
      vertex -11.3385 0.599991 0
    endloop
  endfacet
  facet normal -0.707107 0.707107 0
    outer loop
      vertex -11.3385 0.599991 0
      vertex -11.3385 0.599991 0.95
      vertex -4.51425 7.42426 0
    endloop
  endfacet
  facet normal -0.707107 0.707107 0
    outer loop
      vertex -11.3385 0.599991 0.95
      vertex -4.51425 7.42426 0.95
      vertex -4.51425 7.42426 0
    endloop
  endfacet
  facet normal 0.707107 0.707107 -0
    outer loop
      vertex -4.51425 7.42426 0
      vertex -4.51425 7.42426 0.95
      vertex -4.09 7 0
    endloop
  endfacet
  facet normal 0.707107 0.707107 0
    outer loop
      vertex -4.51425 7.42426 0.95
      vertex -4.09 7 0.95
      vertex -4.09 7 0
    endloop
  endfacet
  facet normal 0.707107 -0.707107 0
    outer loop
      vertex -4.09 7 0
      vertex -4.09 7 0.95
      vertex -5.56573 5.52426 0
    endloop
  endfacet
  facet normal 0.707107 -0.707107 0
    outer loop
      vertex -4.09 7 0.95
      vertex -5.56573 5.52426 0.95
      vertex -5.56573 5.52426 0
    endloop
  endfacet
  facet normal 0.707107 0.707107 -0
    outer loop
      vertex -5.56573 5.52426 0
      vertex -5.56573 5.52426 0.95
      vertex -0.641464 0.599991 0
    endloop
  endfacet
  facet normal 0.707107 0.707107 0
    outer loop
      vertex -5.56573 5.52426 0.95
      vertex -0.641464 0.599991 0.95
      vertex -0.641464 0.599991 0
    endloop
  endfacet
  facet normal 0 1 0
    outer loop
      vertex -0.641464 0.599991 0
      vertex -0.641464 0.599991 0.95
      vertex 0.751465 0.599991 0
    endloop
  endfacet
  facet normal -0 1 0
    outer loop
      vertex -0.641464 0.599991 0.95
      vertex 0.751465 0.599991 0.95
      vertex 0.751465 0.599991 0
    endloop
  endfacet
  facet normal -0.707107 0.707107 0
    outer loop
      vertex 0.751465 0.599991 0
      vertex 0.751465 0.599991 0.95
      vertex 6.07573 5.92426 0
    endloop
  endfacet
  facet normal -0.707107 0.707107 0
    outer loop
      vertex 0.751465 0.599991 0.95
      vertex 6.07573 5.92426 0.95
      vertex 6.07573 5.92426 0
    endloop
  endfacet
  facet normal 0.707094 0.707119 -0
    outer loop
      vertex 6.07573 5.92426 0
      vertex 6.07573 5.92426 0.95
      vertex 6.5 5.5 0
    endloop
  endfacet
  facet normal 0.707094 0.707119 0
    outer loop
      vertex 6.07573 5.92426 0.95
      vertex 6.5 5.5 0.95
      vertex 6.5 5.5 0
    endloop
  endfacet
  facet normal 0.707106 -0.707108 0
    outer loop
      vertex 6.5 5.5 0
      vertex 6.5 5.5 0.95
      vertex 1.59998 0.599991 0
    endloop
  endfacet
  facet normal 0.707106 -0.707108 0
    outer loop
      vertex 6.5 5.5 0.95
      vertex 1.59998 0.599991 0.95
      vertex 1.59998 0.599991 0
    endloop
  endfacet
  facet normal 0 1 0
    outer loop
      vertex 1.59998 0.599991 0
      vertex 1.59998 0.599991 0.95
      vertex 7 0.599991 0
    endloop
  endfacet
  facet normal -0 1 0
    outer loop
      vertex 1.59998 0.599991 0.95
      vertex 7 0.599991 0.95
      vertex 7 0.599991 0
    endloop
  endfacet
  facet normal 1 0 -0
    outer loop
      vertex 7 0.599991 0
      vertex 7 0.599991 0.95
      vertex 7 0 0
    endloop
  endfacet
  facet normal 1 0 0
    outer loop
      vertex 7 0.599991 0.95
      vertex 7 0 0.95
      vertex 7 0 0
    endloop
  endfacet
  facet normal 0 -1 0
    outer loop
      vertex 7 0 0
      vertex 7 0 0.95
      vertex -14 0 0
    endloop
  endfacet
  facet normal -0 -1 0
    outer loop
      vertex 7 0 0.95
      vertex -14 0 0.95
      vertex -14 0 0
    endloop
  endfacet
  facet normal -1 0 0
    outer loop
      vertex -14 0 0
      vertex -14 0 0.95
      vertex -14 0.599991 0
    endloop
  endfacet
  facet normal -1 0 0
    outer loop
      vertex -14 0 0.95
      vertex -14 0.599991 0.95
      vertex -14 0.599991 0
    endloop
  endfacet
  facet normal -0.707107 -0.707107 0
    outer loop
      vertex -1.48999 0.599991 0
      vertex -5.99001 5.10001 0.95
      vertex -5.99001 5.10001 0
    endloop
  endfacet
  facet normal -0.707107 -0.707107 0
    outer loop
      vertex -5.99001 5.10001 0.95
      vertex -1.48999 0.599991 0
      vertex -1.48999 0.599991 0.95
    endloop
  endfacet
  facet normal 0.707108 -0.707106 0
    outer loop
      vertex -5.99001 5.10001 0
      vertex -10.49 0.599991 0.95
      vertex -10.49 0.599991 0
    endloop
  endfacet
  facet normal 0.707108 -0.707106 0
    outer loop
      vertex -10.49 0.599991 0.95
      vertex -5.99001 5.10001 0
      vertex -5.99001 5.10001 0.95
    endloop
  endfacet
  facet normal 0 1 0
    outer loop
      vertex -10.49 0.599991 0
      vertex -1.48999 0.599991 0.95
      vertex -1.48999 0.599991 0
    endloop
  endfacet
  facet normal 0 1 0
    outer loop
      vertex -1.48999 0.599991 0.95
      vertex -10.49 0.599991 0
      vertex -10.49 0.599991 0.95
    endloop
  endfacet
endsolid OpenSCAD_Model
