solid OpenSCAD_Model
  facet normal -0.83147 -0.55557 0
    outer loop
      vertex -1.89948 -6.49126 -0.799999
      vertex -2.04038 -6.28038 1
      vertex -2.04038 -6.28038 -0.799999
    endloop
  endfacet
  facet normal -0.83147 -0.55557 0
    outer loop
      vertex -2.04038 -6.28038 1
      vertex -1.89948 -6.49126 -0.799999
      vertex -1.89948 -6.49126 1
    endloop
  endfacet
  facet normal -0.980785 -0.195091 0
    outer loop
      vertex -1.85 -6.74 -0.799999
      vertex -1.89948 -6.49126 1
      vertex -1.89948 -6.49126 -0.799999
    endloop
  endfacet
  facet normal -0.980785 -0.195091 0
    outer loop
      vertex -1.89948 -6.49126 1
      vertex -1.85 -6.74 -0.799999
      vertex -1.85 -6.74 1
    endloop
  endfacet
  facet normal -0.555572 -0.831468 0
    outer loop
      vertex -2.25126 -6.13948 -0.799999
      vertex -2.04038 -6.28038 1
      vertex -2.25126 -6.13948 1
    endloop
  endfacet
  facet normal -0.555572 -0.831468 -0
    outer loop
      vertex -2.04038 -6.28038 1
      vertex -2.25126 -6.13948 -0.799999
      vertex -2.04038 -6.28038 -0.799999
    endloop
  endfacet
  facet normal 0.555569 0.83147 -0
    outer loop
      vertex -2.74874 -7.34052 -0.799999
      vertex -2.95962 -7.19962 1
      vertex -2.74874 -7.34052 1
    endloop
  endfacet
  facet normal 0.555569 0.83147 0
    outer loop
      vertex -2.95962 -7.19962 1
      vertex -2.74874 -7.34052 -0.799999
      vertex -2.95962 -7.19962 -0.799999
    endloop
  endfacet
  facet normal 0.83147 0.55557 0
    outer loop
      vertex -2.95962 -7.19962 1
      vertex -3.10052 -6.98874 -0.799999
      vertex -3.10052 -6.98874 1
    endloop
  endfacet
  facet normal 0.83147 0.55557 0
    outer loop
      vertex -3.10052 -6.98874 -0.799999
      vertex -2.95962 -7.19962 1
      vertex -2.95962 -7.19962 -0.799999
    endloop
  endfacet
  facet normal -0.980785 0.195091 0
    outer loop
      vertex -1.89948 -6.98874 -0.799999
      vertex -1.85 -6.74 1
      vertex -1.85 -6.74 -0.799999
    endloop
  endfacet
  facet normal -0.980785 0.195091 0
    outer loop
      vertex -1.85 -6.74 1
      vertex -1.89948 -6.98874 -0.799999
      vertex -1.89948 -6.98874 1
    endloop
  endfacet
  facet normal 0.555572 -0.831468 0
    outer loop
      vertex -2.95962 -6.28038 -0.799999
      vertex -2.74874 -6.13948 1
      vertex -2.95962 -6.28038 1
    endloop
  endfacet
  facet normal 0.555572 -0.831468 0
    outer loop
      vertex -2.74874 -6.13948 1
      vertex -2.95962 -6.28038 -0.799999
      vertex -2.74874 -6.13948 -0.799999
    endloop
  endfacet
  facet normal -0.555569 0.83147 0
    outer loop
      vertex -2.04038 -7.19962 -0.799999
      vertex -2.25126 -7.34052 1
      vertex -2.04038 -7.19962 1
    endloop
  endfacet
  facet normal -0.555569 0.83147 0
    outer loop
      vertex -2.25126 -7.34052 1
      vertex -2.04038 -7.19962 -0.799999
      vertex -2.25126 -7.34052 -0.799999
    endloop
  endfacet
  facet normal -0.195091 0.980785 0
    outer loop
      vertex -2.25126 -7.34052 -0.799999
      vertex -2.5 -7.39 1
      vertex -2.25126 -7.34052 1
    endloop
  endfacet
  facet normal -0.195091 0.980785 0
    outer loop
      vertex -2.5 -7.39 1
      vertex -2.25126 -7.34052 -0.799999
      vertex -2.5 -7.39 -0.799999
    endloop
  endfacet
  facet normal -0.83147 0.55557 0
    outer loop
      vertex -2.04038 -7.19962 -0.799999
      vertex -1.89948 -6.98874 1
      vertex -1.89948 -6.98874 -0.799999
    endloop
  endfacet
  facet normal -0.83147 0.55557 0
    outer loop
      vertex -1.89948 -6.98874 1
      vertex -2.04038 -7.19962 -0.799999
      vertex -2.04038 -7.19962 1
    endloop
  endfacet
  facet normal 0.83147 -0.55557 0
    outer loop
      vertex -3.10052 -6.49126 1
      vertex -2.95962 -6.28038 -0.799999
      vertex -2.95962 -6.28038 1
    endloop
  endfacet
  facet normal 0.83147 -0.55557 0
    outer loop
      vertex -2.95962 -6.28038 -0.799999
      vertex -3.10052 -6.49126 1
      vertex -3.10052 -6.49126 -0.799999
    endloop
  endfacet
  facet normal 0.980785 0.195091 0
    outer loop
      vertex -3.10052 -6.98874 1
      vertex -3.15 -6.74 -0.799999
      vertex -3.15 -6.74 1
    endloop
  endfacet
  facet normal 0.980785 0.195091 0
    outer loop
      vertex -3.15 -6.74 -0.799999
      vertex -3.10052 -6.98874 1
      vertex -3.10052 -6.98874 -0.799999
    endloop
  endfacet
  facet normal -0.195091 -0.980785 0
    outer loop
      vertex -2.5 -6.09 -0.799999
      vertex -2.25126 -6.13948 1
      vertex -2.5 -6.09 1
    endloop
  endfacet
  facet normal -0.195091 -0.980785 -0
    outer loop
      vertex -2.25126 -6.13948 1
      vertex -2.5 -6.09 -0.799999
      vertex -2.25126 -6.13948 -0.799999
    endloop
  endfacet
  facet normal 0.195091 -0.980785 0
    outer loop
      vertex -2.74874 -6.13948 -0.799999
      vertex -2.5 -6.09 1
      vertex -2.74874 -6.13948 1
    endloop
  endfacet
  facet normal 0.195091 -0.980785 0
    outer loop
      vertex -2.5 -6.09 1
      vertex -2.74874 -6.13948 -0.799999
      vertex -2.5 -6.09 -0.799999
    endloop
  endfacet
  facet normal 0.195091 0.980785 -0
    outer loop
      vertex -2.5 -7.39 -0.799999
      vertex -2.74874 -7.34052 1
      vertex -2.5 -7.39 1
    endloop
  endfacet
  facet normal 0.195091 0.980785 0
    outer loop
      vertex -2.74874 -7.34052 1
      vertex -2.5 -7.39 -0.799999
      vertex -2.74874 -7.34052 -0.799999
    endloop
  endfacet
  facet normal 0.980785 -0.195091 0
    outer loop
      vertex -3.15 -6.74 1
      vertex -3.10052 -6.49126 -0.799999
      vertex -3.10052 -6.49126 1
    endloop
  endfacet
  facet normal 0.980785 -0.195091 0
    outer loop
      vertex -3.10052 -6.49126 -0.799999
      vertex -3.15 -6.74 1
      vertex -3.15 -6.74 -0.799999
    endloop
  endfacet
  facet normal -0.83147 -0.55557 0
    outer loop
      vertex 6.30962 -4.89038 -0.799999
      vertex 6.4 -5.02564 0
      vertex 6.30962 -4.89038 1
    endloop
  endfacet
  facet normal -0.83147 -0.55557 -1.21013e-07
    outer loop
      vertex 6.45052 -5.10126 -0.799999
      vertex 6.4 -5.02564 0
      vertex 6.30962 -4.89038 -0.799999
    endloop
  endfacet
  facet normal -0.831469 -0.555571 0
    outer loop
      vertex 6.4 -5.02564 0
      vertex 6.45052 -5.10126 -0.799999
      vertex 6.45052 -5.10126 0
    endloop
  endfacet
  facet normal -0.83147 -0.55557 0
    outer loop
      vertex 6.30962 -4.89038 1
      vertex 6.4 -5.02564 0
      vertex 6.4 -5.02564 1
    endloop
  endfacet
  facet normal -0.980785 -0.195091 0
    outer loop
      vertex 6.5 -5.35 -0.799999
      vertex 6.45052 -5.10126 0
      vertex 6.45052 -5.10126 -0.799999
    endloop
  endfacet
  facet normal -0.980785 -0.195091 0
    outer loop
      vertex 6.45052 -5.10126 0
      vertex 6.5 -5.35 -0.799999
      vertex 6.5 -5.35 0
    endloop
  endfacet
  facet normal -0.55557 -0.83147 0
    outer loop
      vertex 6.09874 -4.74948 -0.799999
      vertex 6.30962 -4.89038 1
      vertex 6.09874 -4.74948 1
    endloop
  endfacet
  facet normal -0.55557 -0.83147 -0
    outer loop
      vertex 6.30962 -4.89038 1
      vertex 6.09874 -4.74948 -0.799999
      vertex 6.30962 -4.89038 -0.799999
    endloop
  endfacet
  facet normal 0.555571 0.831469 0
    outer loop
      vertex 5.60126 -5.95052 0
      vertex 5.60126 -5.95052 -0.799999
      vertex 5.52564 -5.9 0
    endloop
  endfacet
  facet normal 0.55557 0.83147 -0
    outer loop
      vertex 5.52564 -5.9 0
      vertex 5.39038 -5.80962 1
      vertex 5.52564 -5.9 1
    endloop
  endfacet
  facet normal 0.55557 0.83147 -1.21013e-07
    outer loop
      vertex 5.39038 -5.80962 -0.799999
      vertex 5.52564 -5.9 0
      vertex 5.60126 -5.95052 -0.799999
    endloop
  endfacet
  facet normal 0.55557 0.83147 0
    outer loop
      vertex 5.52564 -5.9 0
      vertex 5.39038 -5.80962 -0.799999
      vertex 5.39038 -5.80962 1
    endloop
  endfacet
  facet normal 0.83147 0.55557 0
    outer loop
      vertex 5.39038 -5.80962 1
      vertex 5.24948 -5.59874 -0.799999
      vertex 5.24948 -5.59874 1
    endloop
  endfacet
  facet normal 0.83147 0.55557 0
    outer loop
      vertex 5.24948 -5.59874 -0.799999
      vertex 5.39038 -5.80962 1
      vertex 5.39038 -5.80962 -0.799999
    endloop
  endfacet
  facet normal -0.980785 0.195091 0
    outer loop
      vertex 6.45052 -5.59874 -0.799999
      vertex 6.5 -5.35 0
      vertex 6.5 -5.35 -0.799999
    endloop
  endfacet
  facet normal -0.980785 0.195091 0
    outer loop
      vertex 6.5 -5.35 0
      vertex 6.45052 -5.59874 -0.799999
      vertex 6.45052 -5.59874 0
    endloop
  endfacet
  facet normal 0.55557 -0.83147 0
    outer loop
      vertex 5.39038 -4.89038 -0.799999
      vertex 5.60126 -4.74948 1
      vertex 5.39038 -4.89038 1
    endloop
  endfacet
  facet normal 0.55557 -0.83147 0
    outer loop
      vertex 5.60126 -4.74948 1
      vertex 5.39038 -4.89038 -0.799999
      vertex 5.60126 -4.74948 -0.799999
    endloop
  endfacet
  facet normal -0.55557 0.83147 0
    outer loop
      vertex 6.30962 -5.80962 1
      vertex 6.17435 -5.9 0
      vertex 6.17435 -5.9 1
    endloop
  endfacet
  facet normal -0.55557 0.83147 0
    outer loop
      vertex 6.30962 -5.80962 -0.799999
      vertex 6.17435 -5.9 0
      vertex 6.30962 -5.80962 1
    endloop
  endfacet
  facet normal -0.55557 0.83147 -1.21013e-07
    outer loop
      vertex 6.09874 -5.95052 -0.799999
      vertex 6.17435 -5.9 0
      vertex 6.30962 -5.80962 -0.799999
    endloop
  endfacet
  facet normal -0.555571 0.831469 0
    outer loop
      vertex 6.17435 -5.9 0
      vertex 6.09874 -5.95052 -0.799999
      vertex 6.09874 -5.95052 0
    endloop
  endfacet
  facet normal -0.195091 0.980785 0
    outer loop
      vertex 6.09874 -5.95052 -0.799999
      vertex 5.85 -6 0
      vertex 6.09874 -5.95052 0
    endloop
  endfacet
  facet normal -0.195091 0.980785 0
    outer loop
      vertex 5.85 -6 0
      vertex 6.09874 -5.95052 -0.799999
      vertex 5.85 -6 -0.799999
    endloop
  endfacet
  facet normal -0.831469 0.555571 0
    outer loop
      vertex 6.45052 -5.59874 -0.799999
      vertex 6.4 -5.67435 0
      vertex 6.45052 -5.59874 0
    endloop
  endfacet
  facet normal -0.83147 0.55557 -1.21013e-07
    outer loop
      vertex 6.30962 -5.80962 -0.799999
      vertex 6.4 -5.67435 0
      vertex 6.45052 -5.59874 -0.799999
    endloop
  endfacet
  facet normal -0.83147 0.55557 0
    outer loop
      vertex 6.30962 -5.80962 1
      vertex 6.4 -5.67435 0
      vertex 6.30962 -5.80962 -0.799999
    endloop
  endfacet
  facet normal -0.83147 0.55557 0
    outer loop
      vertex 6.4 -5.67435 0
      vertex 6.30962 -5.80962 1
      vertex 6.4 -5.67435 1
    endloop
  endfacet
  facet normal 0.83147 -0.55557 0
    outer loop
      vertex 5.24948 -5.10126 1
      vertex 5.39038 -4.89038 -0.799999
      vertex 5.39038 -4.89038 1
    endloop
  endfacet
  facet normal 0.83147 -0.55557 0
    outer loop
      vertex 5.39038 -4.89038 -0.799999
      vertex 5.24948 -5.10126 1
      vertex 5.24948 -5.10126 -0.799999
    endloop
  endfacet
  facet normal 0.980786 0.195088 0
    outer loop
      vertex 5.24948 -5.59874 1
      vertex 5.2 -5.35 -0.799999
      vertex 5.2 -5.35 1
    endloop
  endfacet
  facet normal 0.980786 0.195088 0
    outer loop
      vertex 5.2 -5.35 -0.799999
      vertex 5.24948 -5.59874 1
      vertex 5.24948 -5.59874 -0.799999
    endloop
  endfacet
  facet normal -0.195088 -0.980786 0
    outer loop
      vertex 5.85 -4.7 -0.799999
      vertex 6.09874 -4.74948 1
      vertex 5.85 -4.7 1
    endloop
  endfacet
  facet normal -0.195088 -0.980786 -0
    outer loop
      vertex 6.09874 -4.74948 1
      vertex 5.85 -4.7 -0.799999
      vertex 6.09874 -4.74948 -0.799999
    endloop
  endfacet
  facet normal 0.195088 -0.980786 0
    outer loop
      vertex 5.60126 -4.74948 -0.799999
      vertex 5.85 -4.7 1
      vertex 5.60126 -4.74948 1
    endloop
  endfacet
  facet normal 0.195088 -0.980786 0
    outer loop
      vertex 5.85 -4.7 1
      vertex 5.60126 -4.74948 -0.799999
      vertex 5.85 -4.7 -0.799999
    endloop
  endfacet
  facet normal 0.195091 0.980785 -0
    outer loop
      vertex 5.85 -6 -0.799999
      vertex 5.60126 -5.95052 0
      vertex 5.85 -6 0
    endloop
  endfacet
  facet normal 0.195091 0.980785 0
    outer loop
      vertex 5.60126 -5.95052 0
      vertex 5.85 -6 -0.799999
      vertex 5.60126 -5.95052 -0.799999
    endloop
  endfacet
  facet normal 0.980786 -0.195088 0
    outer loop
      vertex 5.2 -5.35 1
      vertex 5.24948 -5.10126 -0.799999
      vertex 5.24948 -5.10126 1
    endloop
  endfacet
  facet normal 0.980786 -0.195088 0
    outer loop
      vertex 5.24948 -5.10126 -0.799999
      vertex 5.2 -5.35 1
      vertex 5.2 -5.35 -0.799999
    endloop
  endfacet
  facet normal -0.83147 -0.55557 0
    outer loop
      vertex 6.4 5.67435 0
      vertex 6.30962 5.80962 1
      vertex 6.30962 5.80962 -0.799999
    endloop
  endfacet
  facet normal -0.83147 -0.555569 -0
    outer loop
      vertex 6.4 5.67435 6
      vertex 6.31605 5.8 1
      vertex 6.4 5.67435 0
    endloop
  endfacet
  facet normal -0.831466 -0.555575 1.00803e-06
    outer loop
      vertex 6.30962 5.80962 1
      vertex 6.4 5.67435 0
      vertex 6.31605 5.8 1
    endloop
  endfacet
  facet normal -0.83147 -0.55557 -1.21013e-07
    outer loop
      vertex 6.45052 5.59874 -0.799999
      vertex 6.4 5.67435 0
      vertex 6.30962 5.80962 -0.799999
    endloop
  endfacet
  facet normal -0.831469 -0.555571 0
    outer loop
      vertex 6.4 5.67435 0
      vertex 6.45052 5.59874 -0.799999
      vertex 6.45052 5.59874 0
    endloop
  endfacet
  facet normal -0.83147 -0.555569 0
    outer loop
      vertex 6.31605 5.8 1
      vertex 6.4 5.67435 6
      vertex 6.31605 5.8 6
    endloop
  endfacet
  facet normal -0.980785 -0.195091 0
    outer loop
      vertex 6.5 5.35 -0.799999
      vertex 6.45052 5.59874 0
      vertex 6.45052 5.59874 -0.799999
    endloop
  endfacet
  facet normal -0.980785 -0.195091 0
    outer loop
      vertex 6.45052 5.59874 0
      vertex 6.5 5.35 -0.799999
      vertex 6.5 5.35 0
    endloop
  endfacet
  facet normal -0.195091 -0.980785 0
    outer loop
      vertex 5.85 6 -0.799999
      vertex 6.09874 5.95052 0
      vertex 5.85 6 0
    endloop
  endfacet
  facet normal -0.195091 -0.980785 -0
    outer loop
      vertex 6.09874 5.95052 0
      vertex 5.85 6 -0.799999
      vertex 6.09874 5.95052 -0.799999
    endloop
  endfacet
  facet normal 0.195088 0.980786 -0
    outer loop
      vertex 5.85 4.7 -0.799999
      vertex 5.60126 4.74948 6
      vertex 5.85 4.7 6
    endloop
  endfacet
  facet normal 0.195088 0.980786 0
    outer loop
      vertex 5.60126 4.74948 6
      vertex 5.85 4.7 -0.799999
      vertex 5.60126 4.74948 -0.799999
    endloop
  endfacet
  facet normal -0.55557 0.83147 0
    outer loop
      vertex 6.30962 4.89038 -0.799999
      vertex 6.09874 4.74948 6
      vertex 6.30962 4.89038 6
    endloop
  endfacet
  facet normal -0.55557 0.83147 0
    outer loop
      vertex 6.09874 4.74948 6
      vertex 6.30962 4.89038 -0.799999
      vertex 6.09874 4.74948 -0.799999
    endloop
  endfacet
  facet normal -0.980785 0.195091 0
    outer loop
      vertex 6.45052 5.10126 -0.799999
      vertex 6.5 5.35 0
      vertex 6.5 5.35 -0.799999
    endloop
  endfacet
  facet normal -0.980785 0.195091 0
    outer loop
      vertex 6.5 5.35 0
      vertex 6.45052 5.10126 -0.799999
      vertex 6.45052 5.10126 0
    endloop
  endfacet
  facet normal 0.55557 -0.83147 0
    outer loop
      vertex 5.39038 5.80962 1
      vertex 5.52564 5.9 0
      vertex 5.52564 5.9 1
    endloop
  endfacet
  facet normal 0.55557 -0.83147 0
    outer loop
      vertex 5.39038 5.80962 -0.799999
      vertex 5.52564 5.9 0
      vertex 5.39038 5.80962 1
    endloop
  endfacet
  facet normal 0.55557 -0.83147 -1.21013e-07
    outer loop
      vertex 5.60126 5.95052 -0.799999
      vertex 5.52564 5.9 0
      vertex 5.39038 5.80962 -0.799999
    endloop
  endfacet
  facet normal 0.555571 -0.831469 0
    outer loop
      vertex 5.52564 5.9 0
      vertex 5.60126 5.95052 -0.799999
      vertex 5.60126 5.95052 0
    endloop
  endfacet
  facet normal 0.195091 -0.980785 0
    outer loop
      vertex 5.60126 5.95052 -0.799999
      vertex 5.85 6 0
      vertex 5.60126 5.95052 0
    endloop
  endfacet
  facet normal 0.195091 -0.980785 0
    outer loop
      vertex 5.85 6 0
      vertex 5.60126 5.95052 -0.799999
      vertex 5.85 6 -0.799999
    endloop
  endfacet
  facet normal 0.83147 0.55557 0
    outer loop
      vertex 5.39038 4.89038 6
      vertex 5.24948 5.10126 -0.799999
      vertex 5.24948 5.10126 6
    endloop
  endfacet
  facet normal 0.83147 0.55557 0
    outer loop
      vertex 5.24948 5.10126 -0.799999
      vertex 5.39038 4.89038 6
      vertex 5.39038 4.89038 -0.799999
    endloop
  endfacet
  facet normal 0.55557 0.83147 -0
    outer loop
      vertex 5.60126 4.74948 -0.799999
      vertex 5.39038 4.89038 6
      vertex 5.60126 4.74948 6
    endloop
  endfacet
  facet normal 0.55557 0.83147 0
    outer loop
      vertex 5.39038 4.89038 6
      vertex 5.60126 4.74948 -0.799999
      vertex 5.39038 4.89038 -0.799999
    endloop
  endfacet
  facet normal -0.831469 0.555571 0
    outer loop
      vertex 6.45052 5.10126 -0.799999
      vertex 6.4 5.02564 0
      vertex 6.45052 5.10126 0
    endloop
  endfacet
  facet normal -0.83147 0.55557 -1.21013e-07
    outer loop
      vertex 6.30962 4.89038 -0.799999
      vertex 6.4 5.02564 0
      vertex 6.45052 5.10126 -0.799999
    endloop
  endfacet
  facet normal -0.83147 0.55557 0
    outer loop
      vertex 6.30962 4.89038 6
      vertex 6.4 5.02564 0
      vertex 6.30962 4.89038 -0.799999
    endloop
  endfacet
  facet normal -0.83147 0.55557 0
    outer loop
      vertex 6.4 5.02564 0
      vertex 6.30962 4.89038 6
      vertex 6.4 5.02564 6
    endloop
  endfacet
  facet normal 0.83147 -0.55557 0
    outer loop
      vertex 5.38395 5.8 6
      vertex 5.24948 5.59874 6
      vertex 5.38395 5.8 1
    endloop
  endfacet
  facet normal 0.831466 -0.555575 0
    outer loop
      vertex 5.38395 5.8 1
      vertex 5.39038 5.80962 -0.799999
      vertex 5.39038 5.80962 1
    endloop
  endfacet
  facet normal 0.83147 -0.55557 0
    outer loop
      vertex 5.24948 5.59874 -0.799999
      vertex 5.38395 5.8 1
      vertex 5.24948 5.59874 6
    endloop
  endfacet
  facet normal 0.83147 -0.55557 3.60023e-08
    outer loop
      vertex 5.38395 5.8 1
      vertex 5.24948 5.59874 -0.799999
      vertex 5.39038 5.80962 -0.799999
    endloop
  endfacet
  facet normal 0.980786 0.195088 0
    outer loop
      vertex 5.24948 5.10126 6
      vertex 5.2 5.35 -0.799999
      vertex 5.2 5.35 6
    endloop
  endfacet
  facet normal 0.980786 0.195088 0
    outer loop
      vertex 5.2 5.35 -0.799999
      vertex 5.24948 5.10126 6
      vertex 5.24948 5.10126 -0.799999
    endloop
  endfacet
  facet normal -0.555571 -0.831469 -0
    outer loop
      vertex 6.09874 5.95052 0
      vertex 6.09874 5.95052 -0.799999
      vertex 6.17435 5.9 0
    endloop
  endfacet
  facet normal -0.55557 -0.83147 0
    outer loop
      vertex 6.17435 5.9 0
      vertex 6.30962 5.80962 1
      vertex 6.17435 5.9 1
    endloop
  endfacet
  facet normal -0.55557 -0.83147 -1.21013e-07
    outer loop
      vertex 6.30962 5.80962 -0.799999
      vertex 6.17435 5.9 0
      vertex 6.09874 5.95052 -0.799999
    endloop
  endfacet
  facet normal -0.55557 -0.83147 0
    outer loop
      vertex 6.17435 5.9 0
      vertex 6.30962 5.80962 -0.799999
      vertex 6.30962 5.80962 1
    endloop
  endfacet
  facet normal -0.195088 0.980786 0
    outer loop
      vertex 6.09874 4.74948 -0.799999
      vertex 5.85 4.7 6
      vertex 6.09874 4.74948 6
    endloop
  endfacet
  facet normal -0.195088 0.980786 0
    outer loop
      vertex 5.85 4.7 6
      vertex 6.09874 4.74948 -0.799999
      vertex 5.85 4.7 -0.799999
    endloop
  endfacet
  facet normal 0.980786 -0.195088 0
    outer loop
      vertex 5.2 5.35 6
      vertex 5.24948 5.59874 -0.799999
      vertex 5.24948 5.59874 6
    endloop
  endfacet
  facet normal 0.980786 -0.195088 0
    outer loop
      vertex 5.24948 5.59874 -0.799999
      vertex 5.2 5.35 6
      vertex 5.2 5.35 -0.799999
    endloop
  endfacet
  facet normal -0.831466 -0.555575 0
    outer loop
      vertex -5.39038 5.80962 -0.799999
      vertex -5.38395 5.8 1
      vertex -5.39038 5.80962 1
    endloop
  endfacet
  facet normal -0.83147 -0.55557 3.60023e-08
    outer loop
      vertex -5.24948 5.59874 -0.799999
      vertex -5.38395 5.8 1
      vertex -5.39038 5.80962 -0.799999
    endloop
  endfacet
  facet normal -0.83147 -0.55557 -0
    outer loop
      vertex -5.24948 5.59874 6
      vertex -5.38395 5.8 1
      vertex -5.24948 5.59874 -0.799999
    endloop
  endfacet
  facet normal -0.83147 -0.55557 0
    outer loop
      vertex -5.38395 5.8 1
      vertex -5.24948 5.59874 6
      vertex -5.38395 5.8 6
    endloop
  endfacet
  facet normal -0.980786 -0.195088 0
    outer loop
      vertex -5.2 5.35 -0.799999
      vertex -5.24948 5.59874 6
      vertex -5.24948 5.59874 -0.799999
    endloop
  endfacet
  facet normal -0.980786 -0.195088 0
    outer loop
      vertex -5.24948 5.59874 6
      vertex -5.2 5.35 -0.799999
      vertex -5.2 5.35 6
    endloop
  endfacet
  facet normal -0.195091 -0.980785 0
    outer loop
      vertex -5.85 6 -0.799999
      vertex -5.60126 5.95052 0
      vertex -5.85 6 0
    endloop
  endfacet
  facet normal -0.195091 -0.980785 -0
    outer loop
      vertex -5.60126 5.95052 0
      vertex -5.85 6 -0.799999
      vertex -5.60126 5.95052 -0.799999
    endloop
  endfacet
  facet normal 0.195088 0.980786 -0
    outer loop
      vertex -5.85 4.7 -0.799999
      vertex -6.09874 4.74948 6
      vertex -5.85 4.7 6
    endloop
  endfacet
  facet normal 0.195088 0.980786 0
    outer loop
      vertex -6.09874 4.74948 6
      vertex -5.85 4.7 -0.799999
      vertex -6.09874 4.74948 -0.799999
    endloop
  endfacet
  facet normal 0.55557 -0.83147 0
    outer loop
      vertex -6.30962 5.80962 1
      vertex -6.17435 5.9 0
      vertex -6.17435 5.9 1
    endloop
  endfacet
  facet normal 0.55557 -0.83147 0
    outer loop
      vertex -6.30962 5.80962 -0.799999
      vertex -6.17435 5.9 0
      vertex -6.30962 5.80962 1
    endloop
  endfacet
  facet normal 0.55557 -0.83147 -1.21013e-07
    outer loop
      vertex -6.09874 5.95052 -0.799999
      vertex -6.17435 5.9 0
      vertex -6.30962 5.80962 -0.799999
    endloop
  endfacet
  facet normal 0.555571 -0.831469 0
    outer loop
      vertex -6.17435 5.9 0
      vertex -6.09874 5.95052 -0.799999
      vertex -6.09874 5.95052 0
    endloop
  endfacet
  facet normal 0.195091 -0.980785 0
    outer loop
      vertex -6.09874 5.95052 -0.799999
      vertex -5.85 6 0
      vertex -6.09874 5.95052 0
    endloop
  endfacet
  facet normal 0.195091 -0.980785 0
    outer loop
      vertex -5.85 6 0
      vertex -6.09874 5.95052 -0.799999
      vertex -5.85 6 -0.799999
    endloop
  endfacet
  facet normal 0.83147 0.55557 0
    outer loop
      vertex -6.4 5.02564 6
      vertex -6.30962 4.89038 6
      vertex -6.4 5.02564 0
    endloop
  endfacet
  facet normal 0.831469 0.555571 0
    outer loop
      vertex -6.4 5.02564 0
      vertex -6.45052 5.10126 -0.799999
      vertex -6.45052 5.10126 0
    endloop
  endfacet
  facet normal 0.83147 0.55557 -1.21013e-07
    outer loop
      vertex -6.4 5.02564 0
      vertex -6.30962 4.89038 -0.799999
      vertex -6.45052 5.10126 -0.799999
    endloop
  endfacet
  facet normal 0.83147 0.55557 -0
    outer loop
      vertex -6.30962 4.89038 -0.799999
      vertex -6.4 5.02564 0
      vertex -6.30962 4.89038 6
    endloop
  endfacet
  facet normal 0.55557 0.83147 -0
    outer loop
      vertex -6.09874 4.74948 -0.799999
      vertex -6.30962 4.89038 6
      vertex -6.09874 4.74948 6
    endloop
  endfacet
  facet normal 0.55557 0.83147 0
    outer loop
      vertex -6.30962 4.89038 6
      vertex -6.09874 4.74948 -0.799999
      vertex -6.30962 4.89038 -0.799999
    endloop
  endfacet
  facet normal -0.980786 0.195088 0
    outer loop
      vertex -5.24948 5.10126 -0.799999
      vertex -5.2 5.35 6
      vertex -5.2 5.35 -0.799999
    endloop
  endfacet
  facet normal -0.980786 0.195088 0
    outer loop
      vertex -5.2 5.35 6
      vertex -5.24948 5.10126 -0.799999
      vertex -5.24948 5.10126 6
    endloop
  endfacet
  facet normal -0.55557 0.83147 0
    outer loop
      vertex -5.39038 4.89038 -0.799999
      vertex -5.60126 4.74948 6
      vertex -5.39038 4.89038 6
    endloop
  endfacet
  facet normal -0.55557 0.83147 0
    outer loop
      vertex -5.60126 4.74948 6
      vertex -5.39038 4.89038 -0.799999
      vertex -5.60126 4.74948 -0.799999
    endloop
  endfacet
  facet normal -0.83147 0.55557 0
    outer loop
      vertex -5.39038 4.89038 -0.799999
      vertex -5.24948 5.10126 6
      vertex -5.24948 5.10126 -0.799999
    endloop
  endfacet
  facet normal -0.83147 0.55557 0
    outer loop
      vertex -5.24948 5.10126 6
      vertex -5.39038 4.89038 -0.799999
      vertex -5.39038 4.89038 6
    endloop
  endfacet
  facet normal 0.83147 -0.555569 0
    outer loop
      vertex -6.31605 5.8 6
      vertex -6.4 5.67435 6
      vertex -6.31605 5.8 1
    endloop
  endfacet
  facet normal 0.831466 -0.555575 1.00803e-06
    outer loop
      vertex -6.4 5.67435 0
      vertex -6.30962 5.80962 1
      vertex -6.31605 5.8 1
    endloop
  endfacet
  facet normal 0.83147 -0.555569 0
    outer loop
      vertex -6.4 5.67435 0
      vertex -6.31605 5.8 1
      vertex -6.4 5.67435 6
    endloop
  endfacet
  facet normal 0.83147 -0.55557 0
    outer loop
      vertex -6.30962 5.80962 1
      vertex -6.4 5.67435 0
      vertex -6.30962 5.80962 -0.799999
    endloop
  endfacet
  facet normal 0.831469 -0.555571 0
    outer loop
      vertex -6.45052 5.59874 -0.799999
      vertex -6.4 5.67435 0
      vertex -6.45052 5.59874 0
    endloop
  endfacet
  facet normal 0.83147 -0.55557 -1.21013e-07
    outer loop
      vertex -6.4 5.67435 0
      vertex -6.45052 5.59874 -0.799999
      vertex -6.30962 5.80962 -0.799999
    endloop
  endfacet
  facet normal 0.980785 0.195091 0
    outer loop
      vertex -6.45052 5.10126 0
      vertex -6.5 5.35 -0.799999
      vertex -6.5 5.35 0
    endloop
  endfacet
  facet normal 0.980785 0.195091 0
    outer loop
      vertex -6.5 5.35 -0.799999
      vertex -6.45052 5.10126 0
      vertex -6.45052 5.10126 -0.799999
    endloop
  endfacet
  facet normal -0.555571 -0.831469 -0
    outer loop
      vertex -5.60126 5.95052 0
      vertex -5.60126 5.95052 -0.799999
      vertex -5.52564 5.9 0
    endloop
  endfacet
  facet normal -0.55557 -0.83147 0
    outer loop
      vertex -5.52564 5.9 0
      vertex -5.39038 5.80962 1
      vertex -5.52564 5.9 1
    endloop
  endfacet
  facet normal -0.55557 -0.83147 -1.21013e-07
    outer loop
      vertex -5.39038 5.80962 -0.799999
      vertex -5.52564 5.9 0
      vertex -5.60126 5.95052 -0.799999
    endloop
  endfacet
  facet normal -0.55557 -0.83147 0
    outer loop
      vertex -5.52564 5.9 0
      vertex -5.39038 5.80962 -0.799999
      vertex -5.39038 5.80962 1
    endloop
  endfacet
  facet normal -0.195088 0.980786 0
    outer loop
      vertex -5.60126 4.74948 -0.799999
      vertex -5.85 4.7 6
      vertex -5.60126 4.74948 6
    endloop
  endfacet
  facet normal -0.195088 0.980786 0
    outer loop
      vertex -5.85 4.7 6
      vertex -5.60126 4.74948 -0.799999
      vertex -5.85 4.7 -0.799999
    endloop
  endfacet
  facet normal 0.980785 -0.195091 0
    outer loop
      vertex -6.5 5.35 0
      vertex -6.45052 5.59874 -0.799999
      vertex -6.45052 5.59874 0
    endloop
  endfacet
  facet normal 0.980785 -0.195091 0
    outer loop
      vertex -6.45052 5.59874 -0.799999
      vertex -6.5 5.35 0
      vertex -6.5 5.35 -0.799999
    endloop
  endfacet
  facet normal -1 0 0
    outer loop
      vertex -6.4 5.02564 0
      vertex -6.4 1.3 1
      vertex -6.4 5.02564 6
    endloop
  endfacet
  facet normal -1 0 0
    outer loop
      vertex -6.4 -5.9 0
      vertex -6.4 1.3 1
      vertex -6.4 5.02564 0
    endloop
  endfacet
  facet normal -1 -0 0
    outer loop
      vertex -6.4 1.3 1
      vertex -6.4 -5.9 0
      vertex -6.4 -5.9 1
    endloop
  endfacet
  facet normal -1 -0 0
    outer loop
      vertex -6.4 5.02564 6
      vertex -6.4 1.3 1
      vertex -6.4 1.3 6
    endloop
  endfacet
  facet normal -1 0 0
    outer loop
      vertex -6.4 5.9 0
      vertex -6.4 5.8 1
      vertex -6.4 5.9 1
    endloop
  endfacet
  facet normal -1 0 0
    outer loop
      vertex -6.4 5.67435 0
      vertex -6.4 5.8 1
      vertex -6.4 5.9 0
    endloop
  endfacet
  facet normal -1 0 0
    outer loop
      vertex -6.4 5.67435 6
      vertex -6.4 5.8 1
      vertex -6.4 5.67435 0
    endloop
  endfacet
  facet normal -1 0 0
    outer loop
      vertex -6.4 5.8 1
      vertex -6.4 5.67435 6
      vertex -6.4 5.8 6
    endloop
  endfacet
  facet normal 0 0 1
    outer loop
      vertex 6.4 1.3 1
      vertex 6.30962 -4.89038 1
      vertex 6.4 -5.02564 1
    endloop
  endfacet
  facet normal 0 0 1
    outer loop
      vertex 6.4 1.3 1
      vertex 6.09874 -4.74948 1
      vertex 6.30962 -4.89038 1
    endloop
  endfacet
  facet normal 0 0 1
    outer loop
      vertex 6.4 1.3 1
      vertex 5.85 -4.7 1
      vertex 6.09874 -4.74948 1
    endloop
  endfacet
  facet normal 0 0 1
    outer loop
      vertex 6.4 1.3 1
      vertex 5.60126 -4.74948 1
      vertex 5.85 -4.7 1
    endloop
  endfacet
  facet normal 0 0 1
    outer loop
      vertex 6.4 1.3 1
      vertex 5.39038 -4.89038 1
      vertex 5.60126 -4.74948 1
    endloop
  endfacet
  facet normal 0 0 1
    outer loop
      vertex 3.9 -5.9 1
      vertex 5.39038 -4.89038 1
      vertex 6.4 1.3 1
    endloop
  endfacet
  facet normal 0 0 1
    outer loop
      vertex 5.39038 -4.89038 1
      vertex 3.9 -5.9 1
      vertex 5.24948 -5.10126 1
    endloop
  endfacet
  facet normal 0 0 1
    outer loop
      vertex 5.24948 -5.10126 1
      vertex 3.9 -5.9 1
      vertex 5.2 -5.35 1
    endloop
  endfacet
  facet normal 0 0 1
    outer loop
      vertex 3.9 -5.9 1
      vertex -1.85 -6.74 1
      vertex 3.9 -8.48 1
    endloop
  endfacet
  facet normal 0 0 1
    outer loop
      vertex -2.25126 -6.13948 1
      vertex 3.9 -5.9 1
      vertex 6.4 1.3 1
    endloop
  endfacet
  facet normal 0 0 1
    outer loop
      vertex 3.9 -5.9 1
      vertex -1.89948 -6.49126 1
      vertex -1.85 -6.74 1
    endloop
  endfacet
  facet normal 0 0 1
    outer loop
      vertex 3.9 -5.9 1
      vertex -2.04038 -6.28038 1
      vertex -1.89948 -6.49126 1
    endloop
  endfacet
  facet normal 0 0 1
    outer loop
      vertex 3.9 -5.9 1
      vertex -2.25126 -6.13948 1
      vertex -2.04038 -6.28038 1
    endloop
  endfacet
  facet normal -0 0 1
    outer loop
      vertex -6.4 1.3 1
      vertex -2.25126 -6.13948 1
      vertex 6.4 1.3 1
    endloop
  endfacet
  facet normal 0 0 1
    outer loop
      vertex -2.25126 -6.13948 1
      vertex -6.4 1.3 1
      vertex -2.5 -6.09 1
    endloop
  endfacet
  facet normal -0 -0 1
    outer loop
      vertex -3.9 -5.9 1
      vertex -2.5 -6.09 1
      vertex -6.4 1.3 1
    endloop
  endfacet
  facet normal 0 0 1
    outer loop
      vertex -3.10052 -6.49126 1
      vertex -3.9 -5.9 1
      vertex -3.15 -6.74 1
    endloop
  endfacet
  facet normal 0 0 1
    outer loop
      vertex -2.95962 -6.28038 1
      vertex -3.9 -5.9 1
      vertex -3.10052 -6.49126 1
    endloop
  endfacet
  facet normal 0 0 1
    outer loop
      vertex -2.5 -6.09 1
      vertex -3.9 -5.9 1
      vertex -2.74874 -6.13948 1
    endloop
  endfacet
  facet normal 0 0 1
    outer loop
      vertex -2.74874 -6.13948 1
      vertex -3.9 -5.9 1
      vertex -2.95962 -6.28038 1
    endloop
  endfacet
  facet normal 0 0 1
    outer loop
      vertex -3.9 -5.9 1
      vertex -6.4 1.3 1
      vertex -6.4 -5.9 1
    endloop
  endfacet
  facet normal 0 0 1
    outer loop
      vertex 5.39038 -5.80962 1
      vertex 3.9 -5.9 1
      vertex 5.52564 -5.9 1
    endloop
  endfacet
  facet normal 0 0 1
    outer loop
      vertex 5.24948 -5.59874 1
      vertex 3.9 -5.9 1
      vertex 5.39038 -5.80962 1
    endloop
  endfacet
  facet normal 0 0 1
    outer loop
      vertex 3.9 -5.9 1
      vertex 5.24948 -5.59874 1
      vertex 5.2 -5.35 1
    endloop
  endfacet
  facet normal -0 0 1
    outer loop
      vertex -1.89948 -6.98874 1
      vertex 3.9 -8.48 1
      vertex -1.85 -6.74 1
    endloop
  endfacet
  facet normal -0 0 1
    outer loop
      vertex -2.04038 -7.19962 1
      vertex 3.9 -8.48 1
      vertex -1.89948 -6.98874 1
    endloop
  endfacet
  facet normal -0 0 1
    outer loop
      vertex -2.25126 -7.34052 1
      vertex 3.9 -8.48 1
      vertex -2.04038 -7.19962 1
    endloop
  endfacet
  facet normal 0 0 1
    outer loop
      vertex -3.9 -8.48 1
      vertex -2.25126 -7.34052 1
      vertex -2.5 -7.39 1
    endloop
  endfacet
  facet normal 0 0 1
    outer loop
      vertex -3.9 -5.9 1
      vertex -3.10052 -6.98874 1
      vertex -3.15 -6.74 1
    endloop
  endfacet
  facet normal 0 0 1
    outer loop
      vertex -3.9 -8.48 1
      vertex -3.10052 -6.98874 1
      vertex -3.9 -5.9 1
    endloop
  endfacet
  facet normal 0 0 1
    outer loop
      vertex -2.25126 -7.34052 1
      vertex -3.9 -8.48 1
      vertex 3.9 -8.48 1
    endloop
  endfacet
  facet normal 0 0 1
    outer loop
      vertex -2.74874 -7.34052 1
      vertex -3.9 -8.48 1
      vertex -2.5 -7.39 1
    endloop
  endfacet
  facet normal 0 0 1
    outer loop
      vertex -2.95962 -7.19962 1
      vertex -3.9 -8.48 1
      vertex -2.74874 -7.34052 1
    endloop
  endfacet
  facet normal 0 0 1
    outer loop
      vertex -3.10052 -6.98874 1
      vertex -3.9 -8.48 1
      vertex -2.95962 -7.19962 1
    endloop
  endfacet
  facet normal -0 0 1
    outer loop
      vertex 6.30962 -5.80962 1
      vertex 6.4 -5.9 1
      vertex 6.4 -5.67435 1
    endloop
  endfacet
  facet normal 0 0 1
    outer loop
      vertex 6.4 -5.9 1
      vertex 6.30962 -5.80962 1
      vertex 6.17435 -5.9 1
    endloop
  endfacet
  facet normal -0 0 1
    outer loop
      vertex 6.30962 5.80962 1
      vertex 6.4 5.8 1
      vertex 6.4 5.9 1
    endloop
  endfacet
  facet normal 0 0 1
    outer loop
      vertex 6.4 5.8 1
      vertex 6.30962 5.80962 1
      vertex 6.31605 5.8 1
    endloop
  endfacet
  facet normal 0 -0 1
    outer loop
      vertex 6.30962 5.80962 1
      vertex 6.4 5.9 1
      vertex 6.17435 5.9 1
    endloop
  endfacet
  facet normal -0 0 1
    outer loop
      vertex -6.4 5.9 1
      vertex -6.30962 5.80962 1
      vertex -6.17435 5.9 1
    endloop
  endfacet
  facet normal 0 0 1
    outer loop
      vertex -6.4 5.8 1
      vertex -6.30962 5.80962 1
      vertex -6.4 5.9 1
    endloop
  endfacet
  facet normal 0 0 1
    outer loop
      vertex -6.30962 5.80962 1
      vertex -6.4 5.8 1
      vertex -6.31605 5.8 1
    endloop
  endfacet
  facet normal 0 0 1
    outer loop
      vertex 5.39038 5.80962 1
      vertex -5.38395 5.8 1
      vertex 5.38395 5.8 1
    endloop
  endfacet
  facet normal 0 0 1
    outer loop
      vertex -5.39038 5.80962 1
      vertex 5.39038 5.80962 1
      vertex 5.52564 5.9 1
    endloop
  endfacet
  facet normal 0 0 1
    outer loop
      vertex 5.39038 5.80962 1
      vertex -5.39038 5.80962 1
      vertex -5.38395 5.8 1
    endloop
  endfacet
  facet normal 0 -0 1
    outer loop
      vertex -5.39038 5.80962 1
      vertex 5.52564 5.9 1
      vertex -5.52564 5.9 1
    endloop
  endfacet
  facet normal 1 0 0
    outer loop
      vertex 6.4 1.3 1
      vertex 6.4 5.02564 6
      vertex 6.4 1.3 6
    endloop
  endfacet
  facet normal 1 0 0
    outer loop
      vertex 6.4 5.02564 6
      vertex 6.4 1.3 1
      vertex 6.4 5.02564 0
    endloop
  endfacet
  facet normal 1 0 0
    outer loop
      vertex 6.4 -5.02564 0
      vertex 6.4 1.3 1
      vertex 6.4 -5.02564 1
    endloop
  endfacet
  facet normal 1 0 0
    outer loop
      vertex 6.4 1.3 1
      vertex 6.4 -5.02564 0
      vertex 6.4 5.02564 0
    endloop
  endfacet
  facet normal 1 0 0
    outer loop
      vertex 6.4 5.8 6
      vertex 6.4 5.67435 6
      vertex 6.4 5.8 1
    endloop
  endfacet
  facet normal 1 -0 0
    outer loop
      vertex 6.4 5.8 1
      vertex 6.4 5.9 0
      vertex 6.4 5.9 1
    endloop
  endfacet
  facet normal 1 0 0
    outer loop
      vertex 6.4 5.8 1
      vertex 6.4 5.67435 0
      vertex 6.4 5.9 0
    endloop
  endfacet
  facet normal 1 0 0
    outer loop
      vertex 6.4 5.67435 0
      vertex 6.4 5.8 1
      vertex 6.4 5.67435 6
    endloop
  endfacet
  facet normal 1 -0 0
    outer loop
      vertex 6.4 -5.9 1
      vertex 6.4 -5.67435 0
      vertex 6.4 -5.67435 1
    endloop
  endfacet
  facet normal 1 0 0
    outer loop
      vertex 6.4 -5.67435 0
      vertex 6.4 -5.9 1
      vertex 6.4 -5.9 0
    endloop
  endfacet
  facet normal 0 1 -0
    outer loop
      vertex 6.4 5.9 0
      vertex 6.17435 5.9 1
      vertex 6.4 5.9 1
    endloop
  endfacet
  facet normal 0 1 0
    outer loop
      vertex 6.17435 5.9 1
      vertex 6.4 5.9 0
      vertex 6.17435 5.9 0
    endloop
  endfacet
  facet normal 0 1 -0
    outer loop
      vertex -6.17435 5.9 0
      vertex -6.4 5.9 1
      vertex -6.17435 5.9 1
    endloop
  endfacet
  facet normal 0 1 0
    outer loop
      vertex -6.4 5.9 1
      vertex -6.17435 5.9 0
      vertex -6.4 5.9 0
    endloop
  endfacet
  facet normal 0 1 -0
    outer loop
      vertex 5.52564 5.9 0
      vertex -5.52564 5.9 1
      vertex 5.52564 5.9 1
    endloop
  endfacet
  facet normal 0 1 0
    outer loop
      vertex -5.52564 5.9 1
      vertex 5.52564 5.9 0
      vertex -5.52564 5.9 0
    endloop
  endfacet
  facet normal 0 0 1
    outer loop
      vertex -7.98 -7.48 0
      vertex -6.4 5.02564 0
      vertex -6.45052 5.10126 0
    endloop
  endfacet
  facet normal 0 0 1
    outer loop
      vertex -3.9 -5.9 0
      vertex -5.2 -7.48 0
      vertex -3.9 -8.48 0
    endloop
  endfacet
  facet normal -0 0 1
    outer loop
      vertex -6.4 -5.9 0
      vertex -5.2 -7.48 0
      vertex -3.9 -5.9 0
    endloop
  endfacet
  facet normal 0 0 1
    outer loop
      vertex -7.98 7.48 0
      vertex -6.45052 5.10126 0
      vertex -6.5 5.35 0
    endloop
  endfacet
  facet normal 0 0 1
    outer loop
      vertex -6.45052 5.10126 0
      vertex -7.98 7.48 0
      vertex -7.98 -7.48 0
    endloop
  endfacet
  facet normal 0 0 1
    outer loop
      vertex -6.4 -5.9 0
      vertex -7.98 -7.48 0
      vertex -5.2 -7.48 0
    endloop
  endfacet
  facet normal 0 0 1
    outer loop
      vertex -6.4 5.02564 0
      vertex -7.98 -7.48 0
      vertex -6.4 -5.9 0
    endloop
  endfacet
  facet normal -0 0 1
    outer loop
      vertex 6.45052 -5.10126 0
      vertex 7.98 -7.48 0
      vertex 6.45052 5.10126 0
    endloop
  endfacet
  facet normal 0 0 1
    outer loop
      vertex 7.98 -7.48 0
      vertex 6.45052 -5.10126 0
      vertex 6.5 -5.35 0
    endloop
  endfacet
  facet normal -0 0 1
    outer loop
      vertex 6.4 5.02564 0
      vertex 6.45052 -5.10126 0
      vertex 6.45052 5.10126 0
    endloop
  endfacet
  facet normal 0 0 1
    outer loop
      vertex 6.45052 -5.10126 0
      vertex 6.4 5.02564 0
      vertex 6.4 -5.02564 0
    endloop
  endfacet
  facet normal 0 0 1
    outer loop
      vertex 6.45052 5.10126 0
      vertex 7.98 7.48 0
      vertex 6.5 5.35 0
    endloop
  endfacet
  facet normal 0 0 1
    outer loop
      vertex 7.98 7.48 0
      vertex 6.45052 5.59874 0
      vertex 6.5 5.35 0
    endloop
  endfacet
  facet normal 0 0 1
    outer loop
      vertex 7.98 7.48 0
      vertex 6.4 5.9 0
      vertex 6.45052 5.59874 0
    endloop
  endfacet
  facet normal -0 0 1
    outer loop
      vertex 6.09874 5.95052 0
      vertex 6.4 5.9 0
      vertex 7.98 7.48 0
    endloop
  endfacet
  facet normal 0 0 1
    outer loop
      vertex 6.4 5.9 0
      vertex 6.09874 5.95052 0
      vertex 6.17435 5.9 0
    endloop
  endfacet
  facet normal 0 0 1
    outer loop
      vertex 7.98 7.48 0
      vertex 5.85 6 0
      vertex 6.09874 5.95052 0
    endloop
  endfacet
  facet normal 0 0 1
    outer loop
      vertex 7.98 7.48 0
      vertex 5.60126 5.95052 0
      vertex 5.85 6 0
    endloop
  endfacet
  facet normal 0 0 1
    outer loop
      vertex 5.60126 5.95052 0
      vertex -5.52564 5.9 0
      vertex 5.52564 5.9 0
    endloop
  endfacet
  facet normal 0 0 1
    outer loop
      vertex -5.60126 5.95052 0
      vertex 5.60126 5.95052 0
      vertex 7.98 7.48 0
    endloop
  endfacet
  facet normal 0 0 1
    outer loop
      vertex 5.60126 5.95052 0
      vertex -5.60126 5.95052 0
      vertex -5.52564 5.9 0
    endloop
  endfacet
  facet normal -0 0 1
    outer loop
      vertex -7.98 7.48 0
      vertex -5.60126 5.95052 0
      vertex 7.98 7.48 0
    endloop
  endfacet
  facet normal 0 0 1
    outer loop
      vertex -6.09874 5.95052 0
      vertex -6.4 5.9 0
      vertex -6.17435 5.9 0
    endloop
  endfacet
  facet normal 0 0 1
    outer loop
      vertex -7.98 7.48 0
      vertex -6.09874 5.95052 0
      vertex -5.85 6 0
    endloop
  endfacet
  facet normal 0 0 1
    outer loop
      vertex -6.4 5.9 0
      vertex -6.45052 5.59874 0
      vertex -6.4 5.67435 0
    endloop
  endfacet
  facet normal 0 0 1
    outer loop
      vertex -7.98 7.48 0
      vertex -6.45052 5.59874 0
      vertex -6.4 5.9 0
    endloop
  endfacet
  facet normal 0 0 1
    outer loop
      vertex -6.45052 5.59874 0
      vertex -7.98 7.48 0
      vertex -6.5 5.35 0
    endloop
  endfacet
  facet normal 0 0 1
    outer loop
      vertex -6.09874 5.95052 0
      vertex -7.98 7.48 0
      vertex -6.4 5.9 0
    endloop
  endfacet
  facet normal 0 0 1
    outer loop
      vertex -5.60126 5.95052 0
      vertex -7.98 7.48 0
      vertex -5.85 6 0
    endloop
  endfacet
  facet normal 0 0 1
    outer loop
      vertex 7.98 7.48 0
      vertex 6.45052 5.10126 0
      vertex 7.98 -7.48 0
    endloop
  endfacet
  facet normal -0 0 1
    outer loop
      vertex 6.45052 -5.59874 0
      vertex 7.98 -7.48 0
      vertex 6.5 -5.35 0
    endloop
  endfacet
  facet normal 0 0 1
    outer loop
      vertex 6.4 -5.9 0
      vertex 6.45052 -5.59874 0
      vertex 6.4 -5.67435 0
    endloop
  endfacet
  facet normal 0 0 1
    outer loop
      vertex 6.45052 -5.59874 0
      vertex 6.4 -5.9 0
      vertex 7.98 -7.48 0
    endloop
  endfacet
  facet normal 0 0 1
    outer loop
      vertex 6.09874 -5.95052 0
      vertex 6.4 -5.9 0
      vertex 6.17435 -5.9 0
    endloop
  endfacet
  facet normal 0 0 1
    outer loop
      vertex 5.2 -7.48 0
      vertex 6.4 -5.9 0
      vertex 6.09874 -5.95052 0
    endloop
  endfacet
  facet normal 0 0 1
    outer loop
      vertex 5.2 -7.48 0
      vertex 6.09874 -5.95052 0
      vertex 5.85 -6 0
    endloop
  endfacet
  facet normal 0 0 1
    outer loop
      vertex 5.2 -7.48 0
      vertex 5.85 -6 0
      vertex 5.60126 -5.95052 0
    endloop
  endfacet
  facet normal 0 0 1
    outer loop
      vertex 6.4 -5.9 0
      vertex 5.2 -7.48 0
      vertex 7.98 -7.48 0
    endloop
  endfacet
  facet normal 0 0 1
    outer loop
      vertex 5.52564 -5.9 0
      vertex 5.2 -7.48 0
      vertex 5.60126 -5.95052 0
    endloop
  endfacet
  facet normal -0 0 1
    outer loop
      vertex 3.9 -5.9 0
      vertex 5.2 -7.48 0
      vertex 5.52564 -5.9 0
    endloop
  endfacet
  facet normal 0 0 1
    outer loop
      vertex 3.9 -8.48 0
      vertex 5.2 -7.48 0
      vertex 3.9 -5.9 0
    endloop
  endfacet
  facet normal 0 0 1
    outer loop
      vertex 5.2 -7.48 0
      vertex 3.9 -8.48 0
      vertex 5.2 -14 0
    endloop
  endfacet
  facet normal -0 0 1
    outer loop
      vertex -3.9 -8.48 0
      vertex 5.2 -14 0
      vertex 3.9 -8.48 0
    endloop
  endfacet
  facet normal 0 0 1
    outer loop
      vertex -3.9 -8.48 0
      vertex -5.2 -14 0
      vertex 5.2 -14 0
    endloop
  endfacet
  facet normal 0 0 1
    outer loop
      vertex -5.2 -14 0
      vertex -3.9 -8.48 0
      vertex -5.2 -7.48 0
    endloop
  endfacet
  facet normal 0 0 1
    outer loop
      vertex 6.45052 5.59874 0
      vertex 6.4 5.9 0
      vertex 6.4 5.67435 0
    endloop
  endfacet
  facet normal 0 -1 0
    outer loop
      vertex -6.4 -5.9 0
      vertex -3.9 -5.9 1
      vertex -6.4 -5.9 1
    endloop
  endfacet
  facet normal 0 -1 -0
    outer loop
      vertex -3.9 -5.9 1
      vertex -6.4 -5.9 0
      vertex -3.9 -5.9 0
    endloop
  endfacet
  facet normal 0 -1 0
    outer loop
      vertex 6.17435 -5.9 0
      vertex 6.4 -5.9 1
      vertex 6.17435 -5.9 1
    endloop
  endfacet
  facet normal 0 -1 -0
    outer loop
      vertex 6.4 -5.9 1
      vertex 6.17435 -5.9 0
      vertex 6.4 -5.9 0
    endloop
  endfacet
  facet normal 0 -1 0
    outer loop
      vertex 3.9 -5.9 0
      vertex 5.52564 -5.9 1
      vertex 3.9 -5.9 1
    endloop
  endfacet
  facet normal 0 -1 -0
    outer loop
      vertex 5.52564 -5.9 1
      vertex 3.9 -5.9 0
      vertex 5.52564 -5.9 0
    endloop
  endfacet
  facet normal -1 0 0
    outer loop
      vertex -3.9 -8.48 0
      vertex -3.9 -5.9 1
      vertex -3.9 -5.9 0
    endloop
  endfacet
  facet normal -1 -0 0
    outer loop
      vertex -3.9 -5.9 1
      vertex -3.9 -8.48 0
      vertex -3.9 -8.48 1
    endloop
  endfacet
  facet normal 1 -0 0
    outer loop
      vertex 3.9 -8.48 1
      vertex 3.9 -5.9 0
      vertex 3.9 -5.9 1
    endloop
  endfacet
  facet normal 1 0 0
    outer loop
      vertex 3.9 -5.9 0
      vertex 3.9 -8.48 1
      vertex 3.9 -8.48 0
    endloop
  endfacet
  facet normal 0 -1 0
    outer loop
      vertex -3.9 -8.48 0
      vertex 3.9 -8.48 1
      vertex -3.9 -8.48 1
    endloop
  endfacet
  facet normal 0 -1 -0
    outer loop
      vertex 3.9 -8.48 1
      vertex -3.9 -8.48 0
      vertex 3.9 -8.48 0
    endloop
  endfacet
  facet normal 0 0 1
    outer loop
      vertex 5.24948 5.59874 6
      vertex -5.2 5.35 6
      vertex 5.2 5.35 6
    endloop
  endfacet
  facet normal 0 0 1
    outer loop
      vertex -5.24948 5.59874 6
      vertex 5.24948 5.59874 6
      vertex 5.38395 5.8 6
    endloop
  endfacet
  facet normal 0 0 1
    outer loop
      vertex 5.24948 5.59874 6
      vertex -5.24948 5.59874 6
      vertex -5.2 5.35 6
    endloop
  endfacet
  facet normal 0 -0 1
    outer loop
      vertex -5.24948 5.59874 6
      vertex 5.38395 5.8 6
      vertex -5.38395 5.8 6
    endloop
  endfacet
  facet normal -0 0 1
    outer loop
      vertex 6.30962 4.89038 6
      vertex 6.4 1.3 6
      vertex 6.4 5.02564 6
    endloop
  endfacet
  facet normal -0 0 1
    outer loop
      vertex 6.09874 4.74948 6
      vertex 6.4 1.3 6
      vertex 6.30962 4.89038 6
    endloop
  endfacet
  facet normal -0 0 1
    outer loop
      vertex 5.85 4.7 6
      vertex 6.4 1.3 6
      vertex 6.09874 4.74948 6
    endloop
  endfacet
  facet normal 0 0 1
    outer loop
      vertex 5.60126 4.74948 6
      vertex 6.4 1.3 6
      vertex 5.85 4.7 6
    endloop
  endfacet
  facet normal 0 0 1
    outer loop
      vertex 5.39038 4.89038 6
      vertex 6.4 1.3 6
      vertex 5.60126 4.74948 6
    endloop
  endfacet
  facet normal 0 0 1
    outer loop
      vertex 5.24948 5.10126 6
      vertex 6.4 1.3 6
      vertex 5.39038 4.89038 6
    endloop
  endfacet
  facet normal -0 0 1
    outer loop
      vertex -5.2 5.35 6
      vertex 5.24948 5.10126 6
      vertex 5.2 5.35 6
    endloop
  endfacet
  facet normal 0 0 1
    outer loop
      vertex -5.24948 5.10126 6
      vertex 5.24948 5.10126 6
      vertex -5.2 5.35 6
    endloop
  endfacet
  facet normal 0 0 1
    outer loop
      vertex 5.24948 5.10126 6
      vertex -5.24948 5.10126 6
      vertex 6.4 1.3 6
    endloop
  endfacet
  facet normal -0 0 1
    outer loop
      vertex -5.39038 4.89038 6
      vertex 6.4 1.3 6
      vertex -5.24948 5.10126 6
    endloop
  endfacet
  facet normal 0 0 1
    outer loop
      vertex -6.4 1.3 6
      vertex -5.39038 4.89038 6
      vertex -5.60126 4.74948 6
    endloop
  endfacet
  facet normal 0 0 1
    outer loop
      vertex -6.4 1.3 6
      vertex -5.60126 4.74948 6
      vertex -5.85 4.7 6
    endloop
  endfacet
  facet normal 0 0 1
    outer loop
      vertex -6.4 1.3 6
      vertex -5.85 4.7 6
      vertex -6.09874 4.74948 6
    endloop
  endfacet
  facet normal 0 0 1
    outer loop
      vertex -5.39038 4.89038 6
      vertex -6.4 1.3 6
      vertex 6.4 1.3 6
    endloop
  endfacet
  facet normal 0 0 1
    outer loop
      vertex -6.30962 4.89038 6
      vertex -6.4 1.3 6
      vertex -6.09874 4.74948 6
    endloop
  endfacet
  facet normal 0 0 1
    outer loop
      vertex -6.4 1.3 6
      vertex -6.30962 4.89038 6
      vertex -6.4 5.02564 6
    endloop
  endfacet
  facet normal 0 0 1
    outer loop
      vertex 6.4 5.8 6
      vertex 6.31605 5.8 6
      vertex 6.4 5.67435 6
    endloop
  endfacet
  facet normal -0 0 1
    outer loop
      vertex -6.4 5.8 6
      vertex -6.4 5.67435 6
      vertex -6.31605 5.8 6
    endloop
  endfacet
  facet normal 0 -1 0
    outer loop
      vertex -6.4 1.3 1
      vertex 6.4 1.3 6
      vertex -6.4 1.3 6
    endloop
  endfacet
  facet normal 0 -1 -0
    outer loop
      vertex 6.4 1.3 6
      vertex -6.4 1.3 1
      vertex 6.4 1.3 1
    endloop
  endfacet
  facet normal 0 1 -0
    outer loop
      vertex 6.4 5.8 1
      vertex 6.31605 5.8 6
      vertex 6.4 5.8 6
    endloop
  endfacet
  facet normal 0 1 0
    outer loop
      vertex 6.31605 5.8 6
      vertex 6.4 5.8 1
      vertex 6.31605 5.8 1
    endloop
  endfacet
  facet normal 0 1 -0
    outer loop
      vertex -6.31605 5.8 1
      vertex -6.4 5.8 6
      vertex -6.31605 5.8 6
    endloop
  endfacet
  facet normal 0 1 0
    outer loop
      vertex -6.4 5.8 6
      vertex -6.31605 5.8 1
      vertex -6.4 5.8 1
    endloop
  endfacet
  facet normal 0 1 -0
    outer loop
      vertex 5.38395 5.8 1
      vertex -5.38395 5.8 6
      vertex 5.38395 5.8 6
    endloop
  endfacet
  facet normal 0 1 0
    outer loop
      vertex -5.38395 5.8 6
      vertex 5.38395 5.8 1
      vertex -5.38395 5.8 1
    endloop
  endfacet
  facet normal -1 0 0
    outer loop
      vertex -7.98 -7.48 -0.799999
      vertex -7.98 7.48 0
      vertex -7.98 7.48 -0.799999
    endloop
  endfacet
  facet normal -1 -0 0
    outer loop
      vertex -7.98 7.48 0
      vertex -7.98 -7.48 -0.799999
      vertex -7.98 -7.48 0
    endloop
  endfacet
  facet normal 1 -0 0
    outer loop
      vertex 7.98 -7.48 0
      vertex 7.98 7.48 -0.799999
      vertex 7.98 7.48 0
    endloop
  endfacet
  facet normal 1 0 0
    outer loop
      vertex 7.98 7.48 -0.799999
      vertex 7.98 -7.48 0
      vertex 7.98 -7.48 -0.799999
    endloop
  endfacet
  facet normal -0 0 -1
    outer loop
      vertex 5.2 5.35 -0.799999
      vertex -5.24948 5.10126 -0.799999
      vertex -5.2 5.35 -0.799999
    endloop
  endfacet
  facet normal 0 0 -1
    outer loop
      vertex -2.95962 -6.28038 -0.799999
      vertex -5.39038 4.89038 -0.799999
      vertex -5.24948 5.10126 -0.799999
    endloop
  endfacet
  facet normal 0 0 -1
    outer loop
      vertex -2.95962 -6.28038 -0.799999
      vertex -5.60126 4.74948 -0.799999
      vertex -5.39038 4.89038 -0.799999
    endloop
  endfacet
  facet normal 0 0 -1
    outer loop
      vertex -2.95962 -6.28038 -0.799999
      vertex -5.85 4.7 -0.799999
      vertex -5.60126 4.74948 -0.799999
    endloop
  endfacet
  facet normal -0 0 -1
    outer loop
      vertex -2.95962 -6.28038 -0.799999
      vertex -7.98 -7.48 -0.799999
      vertex -5.85 4.7 -0.799999
    endloop
  endfacet
  facet normal -0 0 -1
    outer loop
      vertex -5.85 4.7 -0.799999
      vertex -7.98 -7.48 -0.799999
      vertex -6.09874 4.74948 -0.799999
    endloop
  endfacet
  facet normal -0 0 -1
    outer loop
      vertex -6.09874 4.74948 -0.799999
      vertex -7.98 -7.48 -0.799999
      vertex -6.30962 4.89038 -0.799999
    endloop
  endfacet
  facet normal -0 0 -1
    outer loop
      vertex -6.30962 4.89038 -0.799999
      vertex -7.98 -7.48 -0.799999
      vertex -6.45052 5.10126 -0.799999
    endloop
  endfacet
  facet normal 0 0 -1
    outer loop
      vertex -7.98 7.48 -0.799999
      vertex -6.45052 5.10126 -0.799999
      vertex -7.98 -7.48 -0.799999
    endloop
  endfacet
  facet normal 0 0 -1
    outer loop
      vertex -2.04038 -7.19962 -0.799999
      vertex 5.2 -7.48 -0.799999
      vertex 5.2 -14 -0.799999
    endloop
  endfacet
  facet normal 0 -0 -1
    outer loop
      vertex -1.85 -6.74 -0.799999
      vertex 5.2 -7.48 -0.799999
      vertex -1.89948 -6.98874 -0.799999
    endloop
  endfacet
  facet normal 0 0 -1
    outer loop
      vertex 5.2 -5.35 -0.799999
      vertex -1.85 -6.74 -0.799999
      vertex -1.89948 -6.49126 -0.799999
    endloop
  endfacet
  facet normal 0 0 -1
    outer loop
      vertex 5.2 -7.48 -0.799999
      vertex -1.85 -6.74 -0.799999
      vertex 5.2 -5.35 -0.799999
    endloop
  endfacet
  facet normal 0 0 -1
    outer loop
      vertex 5.2 -7.48 -0.799999
      vertex -2.04038 -7.19962 -0.799999
      vertex -1.89948 -6.98874 -0.799999
    endloop
  endfacet
  facet normal 0 0 -1
    outer loop
      vertex 5.2 -14 -0.799999
      vertex -2.25126 -7.34052 -0.799999
      vertex -2.04038 -7.19962 -0.799999
    endloop
  endfacet
  facet normal 0 0 -1
    outer loop
      vertex -5.2 -14 -0.799999
      vertex -2.25126 -7.34052 -0.799999
      vertex 5.2 -14 -0.799999
    endloop
  endfacet
  facet normal 0 0 -1
    outer loop
      vertex -2.25126 -7.34052 -0.799999
      vertex -5.2 -14 -0.799999
      vertex -2.5 -7.39 -0.799999
    endloop
  endfacet
  facet normal -0 0 -1
    outer loop
      vertex -2.5 -7.39 -0.799999
      vertex -5.2 -14 -0.799999
      vertex -2.74874 -7.34052 -0.799999
    endloop
  endfacet
  facet normal -0 0 -1
    outer loop
      vertex -2.95962 -7.19962 -0.799999
      vertex -5.2 -7.48 -0.799999
      vertex -3.10052 -6.98874 -0.799999
    endloop
  endfacet
  facet normal -0 0 -1
    outer loop
      vertex -2.74874 -7.34052 -0.799999
      vertex -5.2 -7.48 -0.799999
      vertex -2.95962 -7.19962 -0.799999
    endloop
  endfacet
  facet normal 0 0 -1
    outer loop
      vertex -5.2 -7.48 -0.799999
      vertex -2.74874 -7.34052 -0.799999
      vertex -5.2 -14 -0.799999
    endloop
  endfacet
  facet normal 0 0 -1
    outer loop
      vertex 6.45052 5.10126 -0.799999
      vertex 7.98 7.48 -0.799999
      vertex 6.45052 -5.10126 -0.799999
    endloop
  endfacet
  facet normal 0 0 -1
    outer loop
      vertex 7.98 7.48 -0.799999
      vertex 6.45052 5.10126 -0.799999
      vertex 6.5 5.35 -0.799999
    endloop
  endfacet
  facet normal 0 0 -1
    outer loop
      vertex 6.30962 -4.89038 -0.799999
      vertex 6.45052 5.10126 -0.799999
      vertex 6.45052 -5.10126 -0.799999
    endloop
  endfacet
  facet normal 0 0 -1
    outer loop
      vertex 6.30962 -4.89038 -0.799999
      vertex 6.30962 4.89038 -0.799999
      vertex 6.45052 5.10126 -0.799999
    endloop
  endfacet
  facet normal 0 0 -1
    outer loop
      vertex 6.09874 -4.74948 -0.799999
      vertex 6.30962 4.89038 -0.799999
      vertex 6.30962 -4.89038 -0.799999
    endloop
  endfacet
  facet normal 0 0 -1
    outer loop
      vertex 6.09874 -4.74948 -0.799999
      vertex 6.09874 4.74948 -0.799999
      vertex 6.30962 4.89038 -0.799999
    endloop
  endfacet
  facet normal 0 0 -1
    outer loop
      vertex 5.85 -4.7 -0.799999
      vertex 6.09874 4.74948 -0.799999
      vertex 6.09874 -4.74948 -0.799999
    endloop
  endfacet
  facet normal 0 0 -1
    outer loop
      vertex 5.85 -4.7 -0.799999
      vertex 5.85 4.7 -0.799999
      vertex 6.09874 4.74948 -0.799999
    endloop
  endfacet
  facet normal 0 0 -1
    outer loop
      vertex 5.60126 -4.74948 -0.799999
      vertex 5.85 4.7 -0.799999
      vertex 5.85 -4.7 -0.799999
    endloop
  endfacet
  facet normal 0 0 -1
    outer loop
      vertex 5.60126 -4.74948 -0.799999
      vertex 5.60126 4.74948 -0.799999
      vertex 5.85 4.7 -0.799999
    endloop
  endfacet
  facet normal 0 0 -1
    outer loop
      vertex 5.39038 -4.89038 -0.799999
      vertex 5.60126 4.74948 -0.799999
      vertex 5.60126 -4.74948 -0.799999
    endloop
  endfacet
  facet normal 0 0 -1
    outer loop
      vertex 5.39038 -4.89038 -0.799999
      vertex 5.39038 4.89038 -0.799999
      vertex 5.60126 4.74948 -0.799999
    endloop
  endfacet
  facet normal 0 0 -1
    outer loop
      vertex 5.24948 -5.10126 -0.799999
      vertex 5.39038 4.89038 -0.799999
      vertex 5.39038 -4.89038 -0.799999
    endloop
  endfacet
  facet normal 0 0 -1
    outer loop
      vertex 5.24948 -5.10126 -0.799999
      vertex 5.24948 5.10126 -0.799999
      vertex 5.39038 4.89038 -0.799999
    endloop
  endfacet
  facet normal 0 0 -1
    outer loop
      vertex 5.2 -5.35 -0.799999
      vertex 5.24948 5.10126 -0.799999
      vertex 5.24948 -5.10126 -0.799999
    endloop
  endfacet
  facet normal -0 0 -1
    outer loop
      vertex 5.24948 5.10126 -0.799999
      vertex 5.2 -5.35 -0.799999
      vertex 5.2 5.35 -0.799999
    endloop
  endfacet
  facet normal 0 0 -1
    outer loop
      vertex 6.45052 -5.10126 -0.799999
      vertex 7.98 -7.48 -0.799999
      vertex 6.5 -5.35 -0.799999
    endloop
  endfacet
  facet normal 0 0 -1
    outer loop
      vertex 7.98 -7.48 -0.799999
      vertex 6.45052 -5.59874 -0.799999
      vertex 6.5 -5.35 -0.799999
    endloop
  endfacet
  facet normal 0 0 -1
    outer loop
      vertex 7.98 -7.48 -0.799999
      vertex 6.30962 -5.80962 -0.799999
      vertex 6.45052 -5.59874 -0.799999
    endloop
  endfacet
  facet normal 0 0 -1
    outer loop
      vertex 7.98 -7.48 -0.799999
      vertex 6.09874 -5.95052 -0.799999
      vertex 6.30962 -5.80962 -0.799999
    endloop
  endfacet
  facet normal 0 0 -1
    outer loop
      vertex 5.2 -7.48 -0.799999
      vertex 6.09874 -5.95052 -0.799999
      vertex 7.98 -7.48 -0.799999
    endloop
  endfacet
  facet normal 0 0 -1
    outer loop
      vertex 6.09874 -5.95052 -0.799999
      vertex 5.2 -7.48 -0.799999
      vertex 5.85 -6 -0.799999
    endloop
  endfacet
  facet normal -0 0 -1
    outer loop
      vertex 5.85 -6 -0.799999
      vertex 5.2 -7.48 -0.799999
      vertex 5.60126 -5.95052 -0.799999
    endloop
  endfacet
  facet normal 0 0 -1
    outer loop
      vertex 5.2 -7.48 -0.799999
      vertex 5.39038 -5.80962 -0.799999
      vertex 5.60126 -5.95052 -0.799999
    endloop
  endfacet
  facet normal 0 0 -1
    outer loop
      vertex 5.2 -7.48 -0.799999
      vertex 5.24948 -5.59874 -0.799999
      vertex 5.39038 -5.80962 -0.799999
    endloop
  endfacet
  facet normal -0 0 -1
    outer loop
      vertex 5.24948 -5.59874 -0.799999
      vertex 5.2 -7.48 -0.799999
      vertex 5.2 -5.35 -0.799999
    endloop
  endfacet
  facet normal 0 0 -1
    outer loop
      vertex 7.98 -7.48 -0.799999
      vertex 6.45052 -5.10126 -0.799999
      vertex 7.98 7.48 -0.799999
    endloop
  endfacet
  facet normal 0 0 -1
    outer loop
      vertex 6.45052 5.59874 -0.799999
      vertex 7.98 7.48 -0.799999
      vertex 6.5 5.35 -0.799999
    endloop
  endfacet
  facet normal 0 0 -1
    outer loop
      vertex 6.30962 5.80962 -0.799999
      vertex 7.98 7.48 -0.799999
      vertex 6.45052 5.59874 -0.799999
    endloop
  endfacet
  facet normal 0 0 -1
    outer loop
      vertex 6.09874 5.95052 -0.799999
      vertex 7.98 7.48 -0.799999
      vertex 6.30962 5.80962 -0.799999
    endloop
  endfacet
  facet normal 0 0 -1
    outer loop
      vertex 5.85 6 -0.799999
      vertex 7.98 7.48 -0.799999
      vertex 6.09874 5.95052 -0.799999
    endloop
  endfacet
  facet normal 0 0 -1
    outer loop
      vertex 5.60126 5.95052 -0.799999
      vertex 7.98 7.48 -0.799999
      vertex 5.85 6 -0.799999
    endloop
  endfacet
  facet normal 0 0 -1
    outer loop
      vertex -2.04038 -6.28038 -0.799999
      vertex 5.2 -5.35 -0.799999
      vertex -1.89948 -6.49126 -0.799999
    endloop
  endfacet
  facet normal 0 0 -1
    outer loop
      vertex -2.25126 -6.13948 -0.799999
      vertex 5.2 -5.35 -0.799999
      vertex -2.04038 -6.28038 -0.799999
    endloop
  endfacet
  facet normal -0 0 -1
    outer loop
      vertex 5.2 -5.35 -0.799999
      vertex -2.25126 -6.13948 -0.799999
      vertex 5.2 5.35 -0.799999
    endloop
  endfacet
  facet normal 0 0 -1
    outer loop
      vertex -5.24948 5.10126 -0.799999
      vertex 5.2 5.35 -0.799999
      vertex -2.25126 -6.13948 -0.799999
    endloop
  endfacet
  facet normal 0 0 -1
    outer loop
      vertex -5.24948 5.10126 -0.799999
      vertex -2.25126 -6.13948 -0.799999
      vertex -2.5 -6.09 -0.799999
    endloop
  endfacet
  facet normal 0 0 -1
    outer loop
      vertex -5.24948 5.10126 -0.799999
      vertex -2.5 -6.09 -0.799999
      vertex -2.74874 -6.13948 -0.799999
    endloop
  endfacet
  facet normal 0 0 -1
    outer loop
      vertex 5.2 5.35 -0.799999
      vertex -5.2 5.35 -0.799999
      vertex 5.24948 5.59874 -0.799999
    endloop
  endfacet
  facet normal 0 0 -1
    outer loop
      vertex -5.24948 5.10126 -0.799999
      vertex -2.74874 -6.13948 -0.799999
      vertex -2.95962 -6.28038 -0.799999
    endloop
  endfacet
  facet normal -0 0 -1
    outer loop
      vertex -3.10052 -6.98874 -0.799999
      vertex -5.2 -7.48 -0.799999
      vertex -3.15 -6.74 -0.799999
    endloop
  endfacet
  facet normal -0 0 -1
    outer loop
      vertex -3.15 -6.74 -0.799999
      vertex -5.2 -7.48 -0.799999
      vertex -3.10052 -6.49126 -0.799999
    endloop
  endfacet
  facet normal 0 0 -1
    outer loop
      vertex -5.2 -7.48 -0.799999
      vertex -2.95962 -6.28038 -0.799999
      vertex -3.10052 -6.49126 -0.799999
    endloop
  endfacet
  facet normal 0 0 -1
    outer loop
      vertex -7.98 -7.48 -0.799999
      vertex -2.95962 -6.28038 -0.799999
      vertex -5.2 -7.48 -0.799999
    endloop
  endfacet
  facet normal 0 0 -1
    outer loop
      vertex -5.24948 5.59874 -0.799999
      vertex 5.24948 5.59874 -0.799999
      vertex -5.2 5.35 -0.799999
    endloop
  endfacet
  facet normal 0 0 -1
    outer loop
      vertex 5.24948 5.59874 -0.799999
      vertex -5.24948 5.59874 -0.799999
      vertex 5.39038 5.80962 -0.799999
    endloop
  endfacet
  facet normal 0 0 -1
    outer loop
      vertex -5.39038 5.80962 -0.799999
      vertex 5.39038 5.80962 -0.799999
      vertex -5.24948 5.59874 -0.799999
    endloop
  endfacet
  facet normal 0 0 -1
    outer loop
      vertex 5.39038 5.80962 -0.799999
      vertex -5.39038 5.80962 -0.799999
      vertex 5.60126 5.95052 -0.799999
    endloop
  endfacet
  facet normal 0 0 -1
    outer loop
      vertex -5.60126 5.95052 -0.799999
      vertex 5.60126 5.95052 -0.799999
      vertex -5.39038 5.80962 -0.799999
    endloop
  endfacet
  facet normal 0 0 -1
    outer loop
      vertex 5.60126 5.95052 -0.799999
      vertex -5.60126 5.95052 -0.799999
      vertex 7.98 7.48 -0.799999
    endloop
  endfacet
  facet normal 0 0 -1
    outer loop
      vertex -7.98 7.48 -0.799999
      vertex -5.60126 5.95052 -0.799999
      vertex -5.85 6 -0.799999
    endloop
  endfacet
  facet normal 0 0 -1
    outer loop
      vertex -5.60126 5.95052 -0.799999
      vertex -7.98 7.48 -0.799999
      vertex 7.98 7.48 -0.799999
    endloop
  endfacet
  facet normal 0 0 -1
    outer loop
      vertex -6.09874 5.95052 -0.799999
      vertex -7.98 7.48 -0.799999
      vertex -5.85 6 -0.799999
    endloop
  endfacet
  facet normal 0 0 -1
    outer loop
      vertex -6.30962 5.80962 -0.799999
      vertex -7.98 7.48 -0.799999
      vertex -6.09874 5.95052 -0.799999
    endloop
  endfacet
  facet normal 0 0 -1
    outer loop
      vertex -6.45052 5.59874 -0.799999
      vertex -7.98 7.48 -0.799999
      vertex -6.30962 5.80962 -0.799999
    endloop
  endfacet
  facet normal 0 0 -1
    outer loop
      vertex -6.5 5.35 -0.799999
      vertex -7.98 7.48 -0.799999
      vertex -6.45052 5.59874 -0.799999
    endloop
  endfacet
  facet normal 0 0 -1
    outer loop
      vertex -6.45052 5.10126 -0.799999
      vertex -7.98 7.48 -0.799999
      vertex -6.5 5.35 -0.799999
    endloop
  endfacet
  facet normal 0 -1 0
    outer loop
      vertex -7.98 -7.48 -0.799999
      vertex -5.2 -7.48 0
      vertex -7.98 -7.48 0
    endloop
  endfacet
  facet normal 0 -1 -0
    outer loop
      vertex -5.2 -7.48 0
      vertex -7.98 -7.48 -0.799999
      vertex -5.2 -7.48 -0.799999
    endloop
  endfacet
  facet normal 0 -1 0
    outer loop
      vertex 5.2 -7.48 -0.799999
      vertex 7.98 -7.48 0
      vertex 5.2 -7.48 0
    endloop
  endfacet
  facet normal 0 -1 -0
    outer loop
      vertex 7.98 -7.48 0
      vertex 5.2 -7.48 -0.799999
      vertex 7.98 -7.48 -0.799999
    endloop
  endfacet
  facet normal 0 1 -0
    outer loop
      vertex 7.98 7.48 -0.799999
      vertex -7.98 7.48 0
      vertex 7.98 7.48 0
    endloop
  endfacet
  facet normal 0 1 0
    outer loop
      vertex -7.98 7.48 0
      vertex 7.98 7.48 -0.799999
      vertex -7.98 7.48 -0.799999
    endloop
  endfacet
  facet normal -1 0 0
    outer loop
      vertex -5.2 -14 -0.799999
      vertex -5.2 -7.48 0
      vertex -5.2 -7.48 -0.799999
    endloop
  endfacet
  facet normal -1 -0 0
    outer loop
      vertex -5.2 -7.48 0
      vertex -5.2 -14 -0.799999
      vertex -5.2 -14 0
    endloop
  endfacet
  facet normal 1 -0 0
    outer loop
      vertex 5.2 -14 0
      vertex 5.2 -7.48 -0.799999
      vertex 5.2 -7.48 0
    endloop
  endfacet
  facet normal 1 0 0
    outer loop
      vertex 5.2 -7.48 -0.799999
      vertex 5.2 -14 0
      vertex 5.2 -14 -0.799999
    endloop
  endfacet
  facet normal 0 -1 0
    outer loop
      vertex -5.2 -14 -0.799999
      vertex 5.2 -14 0
      vertex -5.2 -14 0
    endloop
  endfacet
  facet normal 0 -1 -0
    outer loop
      vertex 5.2 -14 0
      vertex -5.2 -14 -0.799999
      vertex 5.2 -14 -0.799999
    endloop
  endfacet
endsolid OpenSCAD_Model
