solid OpenSCAD_Model
  facet normal 0 0 1
    outer loop
      vertex -4.59619 4.94975 0.33
      vertex -0.154029 8.33125 0.33
      vertex 7.49401e-16 9.54594 0.33
    endloop
  endfacet
  facet normal 0 0 1
    outer loop
      vertex -0.154029 8.33125 0.33
      vertex -4.59619 4.94975 0.33
      vertex -4.06586 4.41942 0.33
    endloop
  endfacet
  facet normal -0 0 1
    outer loop
      vertex -0.154029 8.33125 0.33
      vertex 0.595971 1.1263 0.33
      vertex 0.595971 8.94997 0.33
    endloop
  endfacet
  facet normal 0 0 1
    outer loop
      vertex -0.154029 0.507582 0.33
      vertex 0.595971 1.1263 0.33
      vertex -0.154029 8.33125 0.33
    endloop
  endfacet
  facet normal 0 0 1
    outer loop
      vertex -0.154029 8.33125 0.33
      vertex 0.595971 8.94997 0.33
      vertex 7.49401e-16 9.54594 0.33
    endloop
  endfacet
  facet normal 0 0 1
    outer loop
      vertex 0.595971 1.1263 0.33
      vertex -0.154029 0.507582 0.33
      vertex 0.595971 0.0656405 0.33
    endloop
  endfacet
  facet normal 0 0 1
    outer loop
      vertex 0.595971 0.0656405 0.33
      vertex -0.154029 0.507582 0.33
      vertex 0.595971 -0.242417 0.33
    endloop
  endfacet
  facet normal 0 0 1
    outer loop
      vertex 0.595971 1.1263 0.33
      vertex 4.35378 3.82345 0.33
      vertex 4.35378 4.88411 0.33
    endloop
  endfacet
  facet normal 0 0 1
    outer loop
      vertex 4.35378 3.82345 0.33
      vertex 0.595971 1.1263 0.33
      vertex 0.595971 0.0656405 0.33
    endloop
  endfacet
  facet normal -0 0 1
    outer loop
      vertex 4.35378 3.82345 0.33
      vertex 5.10378 -3.38151 0.33
      vertex 5.10378 4.44217 0.33
    endloop
  endfacet
  facet normal -0 0 1
    outer loop
      vertex 4.35378 4.88411 0.33
      vertex 5.10378 4.44217 0.33
      vertex 4.35378 5.19216 0.33
    endloop
  endfacet
  facet normal 0 0 1
    outer loop
      vertex 4.35378 3.82345 0.33
      vertex 5.10378 4.44217 0.33
      vertex 4.35378 4.88411 0.33
    endloop
  endfacet
  facet normal 0 0 1
    outer loop
      vertex 5.10378 -3.38151 0.33
      vertex 4.35378 3.82345 0.33
      vertex 4.35378 -4.00022 0.33
    endloop
  endfacet
  facet normal 0 0 1
    outer loop
      vertex 5.10378 -3.38151 0.33
      vertex 4.35378 -4.00022 0.33
      vertex 4.94975 -4.59619 0.33
    endloop
  endfacet
  facet normal 0 0 1
    outer loop
      vertex 5.10378 -3.38151 0.33
      vertex 9.54594 -7.49401e-16 0.33
      vertex 9.01561 0.53033 0.33
    endloop
  endfacet
  facet normal 0 0 1
    outer loop
      vertex 9.54594 -7.49401e-16 0.33
      vertex 5.10378 -3.38151 0.33
      vertex 4.94975 -4.59619 0.33
    endloop
  endfacet
  facet normal 0.707107 0.707107 0
    outer loop
      vertex 9.01561 0.53033 0.33
      vertex 9.54594 -7.49401e-16 0.33
      vertex 9.01561 0.53033 0.209999
    endloop
  endfacet
  facet normal 0.707107 0.707107 0
    outer loop
      vertex 4.35378 5.19216 0.33
      vertex 5.10378 4.44217 0.33
      vertex 4.35378 5.19216 0.209999
    endloop
  endfacet
  facet normal 0.707107 0.707107 -0
    outer loop
      vertex 0.595971 8.94997 0.209999
      vertex 7.49401e-16 9.54594 0.33
      vertex 0.595971 8.94997 0.33
    endloop
  endfacet
  facet normal 0.707107 0.707107 0
    outer loop
      vertex 7.49401e-16 9.54594 0.33
      vertex 0.595971 8.94997 0.209999
      vertex 7.49401e-16 9.54594 -0.209999
    endloop
  endfacet
  facet normal 0.707107 0.707107 -6.86535e-07
    outer loop
      vertex 4.35378 5.19216 0.209999
      vertex 7.49401e-16 9.54594 -0.209999
      vertex 0.595971 8.94997 0.209999
    endloop
  endfacet
  facet normal 0.707107 0.707107 -0
    outer loop
      vertex 5.10378 4.44217 0.209999
      vertex 4.35378 5.19216 0.209999
      vertex 5.10378 4.44217 0.33
    endloop
  endfacet
  facet normal 0.707107 0.707107 -8.02801e-07
    outer loop
      vertex 5.10378 4.44217 0.209999
      vertex 7.49401e-16 9.54594 -0.209999
      vertex 4.35378 5.19216 0.209999
    endloop
  endfacet
  facet normal 0.707107 0.707107 -5.74891e-07
    outer loop
      vertex 9.54594 -7.49401e-16 -0.209999
      vertex 5.10378 4.44217 0.209999
      vertex 9.01561 0.53033 0.209999
    endloop
  endfacet
  facet normal 0.707107 0.707107 -8.02801e-07
    outer loop
      vertex 5.10378 4.44217 0.209999
      vertex 9.54594 -7.49401e-16 -0.209999
      vertex 7.49401e-16 9.54594 -0.209999
    endloop
  endfacet
  facet normal 0.707107 0.707107 -0
    outer loop
      vertex 9.54594 -7.49401e-16 -0.209999
      vertex 9.01561 0.53033 0.209999
      vertex 9.54594 -7.49401e-16 0.33
    endloop
  endfacet
  facet normal 0.707107 -0.707107 0
    outer loop
      vertex 4.94975 -4.59619 0.33
      vertex 9.54594 -7.49401e-16 -0.209999
      vertex 9.54594 -7.49401e-16 0.33
    endloop
  endfacet
  facet normal 0.707107 -0.707107 0
    outer loop
      vertex 9.54594 -7.49401e-16 -0.209999
      vertex 4.94975 -4.59619 0.33
      vertex 4.94975 -4.59619 -0.209999
    endloop
  endfacet
  facet normal -0.707107 0.707107 0
    outer loop
      vertex 5.10378 -3.38151 0.209999
      vertex 9.01561 0.53033 0.33
      vertex 9.01561 0.53033 0.209999
    endloop
  endfacet
  facet normal -0.707107 0.707107 0
    outer loop
      vertex 9.01561 0.53033 0.33
      vertex 5.10378 -3.38151 0.209999
      vertex 5.10378 -3.38151 0.33
    endloop
  endfacet
  facet normal -0.707107 0.707107 0
    outer loop
      vertex 0.595971 1.1263 0.209999
      vertex 4.35378 4.88411 0.33
      vertex 4.35378 4.88411 0.209999
    endloop
  endfacet
  facet normal -0.707107 0.707107 0
    outer loop
      vertex 4.35378 4.88411 0.33
      vertex 0.595971 1.1263 0.209999
      vertex 0.595971 1.1263 0.33
    endloop
  endfacet
  facet normal 0.707107 -0.707107 0
    outer loop
      vertex 0.595971 0.0656405 0.33
      vertex 4.35378 3.82345 0.209999
      vertex 4.35378 3.82345 0.33
    endloop
  endfacet
  facet normal 0.707107 -0.707107 0
    outer loop
      vertex 4.35378 3.82345 0.209999
      vertex 0.595971 0.0656405 0.33
      vertex 0.595971 0.0656405 0.209999
    endloop
  endfacet
  facet normal -0.707107 -0.707107 0
    outer loop
      vertex -4.59619 4.94975 -0.209999
      vertex -4.06586 4.41942 0.209999
      vertex -4.59619 4.94975 0.33
    endloop
  endfacet
  facet normal -0.707107 -0.707107 -2.04068e-08
    outer loop
      vertex -4.59619 4.94975 -0.209999
      vertex -0.154029 0.507582 0.209999
      vertex -4.06586 4.41942 0.209999
    endloop
  endfacet
  facet normal -0.707107 -0.707107 0
    outer loop
      vertex -0.154029 0.507582 0.209999
      vertex 0.595971 -0.242417 0.209999
      vertex -0.154029 0.507582 0.33
    endloop
  endfacet
  facet normal -0.707107 -0.707107 2.99116e-07
    outer loop
      vertex -4.59619 4.94975 -0.209999
      vertex 0.595971 -0.242417 0.209999
      vertex -0.154029 0.507582 0.209999
    endloop
  endfacet
  facet normal -0.707107 -0.707107 1.25438e-07
    outer loop
      vertex 4.94975 -4.59619 -0.209999
      vertex 0.595971 -0.242417 0.209999
      vertex -4.59619 4.94975 -0.209999
    endloop
  endfacet
  facet normal -0.707107 -0.707107 -1.98938e-08
    outer loop
      vertex 0.595971 -0.242417 0.209999
      vertex 4.94975 -4.59619 -0.209999
      vertex 4.35378 -4.00022 0.209999
    endloop
  endfacet
  facet normal -0.707107 -0.707107 -0
    outer loop
      vertex 4.94975 -4.59619 0.33
      vertex 4.35378 -4.00022 0.209999
      vertex 4.94975 -4.59619 -0.209999
    endloop
  endfacet
  facet normal -0.707107 -0.707107 0
    outer loop
      vertex 4.35378 -4.00022 0.209999
      vertex 4.94975 -4.59619 0.33
      vertex 4.35378 -4.00022 0.33
    endloop
  endfacet
  facet normal -0.707107 -0.707107 0
    outer loop
      vertex -4.59619 4.94975 0.33
      vertex -4.06586 4.41942 0.209999
      vertex -4.06586 4.41942 0.33
    endloop
  endfacet
  facet normal -0.707107 -0.707107 0
    outer loop
      vertex -0.154029 0.507582 0.33
      vertex 0.595971 -0.242417 0.209999
      vertex 0.595971 -0.242417 0.33
    endloop
  endfacet
  facet normal 0.707107 -0.707107 0
    outer loop
      vertex -4.06586 4.41942 0.209999
      vertex -0.154029 8.33125 0.33
      vertex -4.06586 4.41942 0.33
    endloop
  endfacet
  facet normal 0.707107 -0.707107 0
    outer loop
      vertex -0.154029 8.33125 0.33
      vertex -4.06586 4.41942 0.209999
      vertex -0.154029 8.33125 0.209999
    endloop
  endfacet
  facet normal -0.707107 0.707107 0
    outer loop
      vertex 7.49401e-16 9.54594 -0.209999
      vertex -4.59619 4.94975 0.33
      vertex 7.49401e-16 9.54594 0.33
    endloop
  endfacet
  facet normal -0.707107 0.707107 0
    outer loop
      vertex -4.59619 4.94975 0.33
      vertex 7.49401e-16 9.54594 -0.209999
      vertex -4.59619 4.94975 -0.209999
    endloop
  endfacet
  facet normal -1 0 0
    outer loop
      vertex 4.35378 -4.00022 0.209999
      vertex 4.35378 3.82345 0.33
      vertex 4.35378 3.82345 0.209999
    endloop
  endfacet
  facet normal -1 -0 0
    outer loop
      vertex 4.35378 3.82345 0.33
      vertex 4.35378 -4.00022 0.209999
      vertex 4.35378 -4.00022 0.33
    endloop
  endfacet
  facet normal -1 0 0
    outer loop
      vertex 4.35378 4.88411 0.209999
      vertex 4.35378 5.19216 0.33
      vertex 4.35378 5.19216 0.209999
    endloop
  endfacet
  facet normal -1 -0 0
    outer loop
      vertex 4.35378 5.19216 0.33
      vertex 4.35378 4.88411 0.209999
      vertex 4.35378 4.88411 0.33
    endloop
  endfacet
  facet normal 1 -0 0
    outer loop
      vertex 5.10378 -3.38151 0.33
      vertex 5.10378 4.44217 0.209999
      vertex 5.10378 4.44217 0.33
    endloop
  endfacet
  facet normal 1 0 0
    outer loop
      vertex 5.10378 4.44217 0.209999
      vertex 5.10378 -3.38151 0.33
      vertex 5.10378 -3.38151 0.209999
    endloop
  endfacet
  facet normal -1 0 0
    outer loop
      vertex -0.154029 0.507582 0.209999
      vertex -0.154029 8.33125 0.33
      vertex -0.154029 8.33125 0.209999
    endloop
  endfacet
  facet normal -1 -0 0
    outer loop
      vertex -0.154029 8.33125 0.33
      vertex -0.154029 0.507582 0.209999
      vertex -0.154029 0.507582 0.33
    endloop
  endfacet
  facet normal 1 -0 0
    outer loop
      vertex 0.595971 -0.242417 0.33
      vertex 0.595971 0.0656405 0.209999
      vertex 0.595971 0.0656405 0.33
    endloop
  endfacet
  facet normal 1 0 0
    outer loop
      vertex 0.595971 0.0656405 0.209999
      vertex 0.595971 -0.242417 0.33
      vertex 0.595971 -0.242417 0.209999
    endloop
  endfacet
  facet normal 1 -0 0
    outer loop
      vertex 0.595971 1.1263 0.33
      vertex 0.595971 8.94997 0.209999
      vertex 0.595971 8.94997 0.33
    endloop
  endfacet
  facet normal 1 0 0
    outer loop
      vertex 0.595971 8.94997 0.209999
      vertex 0.595971 1.1263 0.33
      vertex 0.595971 1.1263 0.209999
    endloop
  endfacet
  facet normal -0 0 1
    outer loop
      vertex -4.06586 4.41942 0.209999
      vertex -0.154029 0.507582 0.209999
      vertex -0.154029 8.33125 0.209999
    endloop
  endfacet
  facet normal -0 0 1
    outer loop
      vertex 0.595971 0.0656405 0.209999
      vertex 4.35378 -4.00022 0.209999
      vertex 4.35378 3.82345 0.209999
    endloop
  endfacet
  facet normal 0 0 1
    outer loop
      vertex 4.35378 -4.00022 0.209999
      vertex 0.595971 0.0656405 0.209999
      vertex 0.595971 -0.242417 0.209999
    endloop
  endfacet
  facet normal 0 0 1
    outer loop
      vertex 5.10378 4.44217 0.209999
      vertex 5.10378 -3.38151 0.209999
      vertex 9.01561 0.53033 0.209999
    endloop
  endfacet
  facet normal 0 0 1
    outer loop
      vertex 0.595971 8.94997 0.209999
      vertex 4.35378 4.88411 0.209999
      vertex 4.35378 5.19216 0.209999
    endloop
  endfacet
  facet normal 0 0 1
    outer loop
      vertex 4.35378 4.88411 0.209999
      vertex 0.595971 8.94997 0.209999
      vertex 0.595971 1.1263 0.209999
    endloop
  endfacet
  facet normal 0 0 -1
    outer loop
      vertex 4.94975 -4.59619 -0.209999
      vertex 7.49401e-16 9.54594 -0.209999
      vertex 9.54594 -7.49401e-16 -0.209999
    endloop
  endfacet
  facet normal 0 -0 -1
    outer loop
      vertex 7.49401e-16 9.54594 -0.209999
      vertex 4.94975 -4.59619 -0.209999
      vertex -4.59619 4.94975 -0.209999
    endloop
  endfacet
endsolid OpenSCAD_Model
