solid OpenSCAD_Model
  facet normal 0.707107 -0.707107 0
    outer loop
      vertex -2.91682 -2.91682 0.23999
      vertex -3.44715 -3.44715 0.23999
      vertex -2.91682 -2.91682 0
    endloop
  endfacet
  facet normal 0.707107 -0.707107 0
    outer loop
      vertex -1.85616 -1.85616 0.23999
      vertex -2.38649 -2.38649 0.23999
      vertex -1.85616 -1.85616 0
    endloop
  endfacet
  facet normal 0.707107 -0.707107 0
    outer loop
      vertex -0.795495 -0.795495 0.23999
      vertex -1.32583 -1.32583 0.23999
      vertex -0.795495 -0.795495 0
    endloop
  endfacet
  facet normal 0.707107 -0.707107 0
    outer loop
      vertex 0.265165 0.265165 0.23999
      vertex -0.265165 -0.265165 0.23999
      vertex 0.265165 0.265165 0
    endloop
  endfacet
  facet normal 0.707107 -0.707107 0
    outer loop
      vertex 1.32583 1.32583 0.23999
      vertex 0.795495 0.795495 0.23999
      vertex 1.32583 1.32583 0
    endloop
  endfacet
  facet normal 0.707107 -0.707107 0
    outer loop
      vertex 2.38649 2.38649 0.23999
      vertex 1.85616 1.85616 0.23999
      vertex 2.38649 2.38649 0
    endloop
  endfacet
  facet normal 0.707107 -0.707107 0
    outer loop
      vertex 3.44715 3.44715 0.23999
      vertex 2.91682 2.91682 0.23999
      vertex 3.44715 3.44715 0
    endloop
  endfacet
  facet normal 0.707107 -0.707107 0
    outer loop
      vertex 3.97748 3.97748 0
      vertex 4.50781 4.50781 0
      vertex 4.50781 4.50781 0.23999
    endloop
  endfacet
  facet normal 0.707107 -0.707107 0
    outer loop
      vertex 3.97748 3.97748 0
      vertex 4.50781 4.50781 0.23999
      vertex 3.97748 3.97748 0.23999
    endloop
  endfacet
  facet normal 0.707107 -0.707107 0
    outer loop
      vertex 4.50781 4.50781 0
      vertex 3.97748 3.97748 0
      vertex 4.24264 4.24264 -1
    endloop
  endfacet
  facet normal 0.707107 -0.707107 0
    outer loop
      vertex 3.44715 3.44715 0
      vertex 4.24264 4.24264 -1
      vertex 3.97748 3.97748 0
    endloop
  endfacet
  facet normal 0.707107 -0.707107 0
    outer loop
      vertex 2.91682 2.91682 0
      vertex 3.44715 3.44715 0
      vertex 2.91682 2.91682 0.23999
    endloop
  endfacet
  facet normal 0.707107 -0.707107 0
    outer loop
      vertex 3.44715 3.44715 0
      vertex 2.91682 2.91682 0
      vertex 4.24264 4.24264 -1
    endloop
  endfacet
  facet normal 0.707107 -0.707107 0
    outer loop
      vertex 2.38649 2.38649 0
      vertex 4.24264 4.24264 -1
      vertex 2.91682 2.91682 0
    endloop
  endfacet
  facet normal 0.707107 -0.707107 0
    outer loop
      vertex 1.85616 1.85616 0
      vertex 2.38649 2.38649 0
      vertex 1.85616 1.85616 0.23999
    endloop
  endfacet
  facet normal 0.707107 -0.707107 0
    outer loop
      vertex 2.38649 2.38649 0
      vertex 1.85616 1.85616 0
      vertex 4.24264 4.24264 -1
    endloop
  endfacet
  facet normal 0.707107 -0.707107 0
    outer loop
      vertex 1.32583 1.32583 0
      vertex 4.24264 4.24264 -1
      vertex 1.85616 1.85616 0
    endloop
  endfacet
  facet normal 0.707107 -0.707107 0
    outer loop
      vertex 0.795495 0.795495 0
      vertex 1.32583 1.32583 0
      vertex 0.795495 0.795495 0.23999
    endloop
  endfacet
  facet normal 0.707107 -0.707107 0
    outer loop
      vertex 0.795495 0.795495 0
      vertex 4.24264 4.24264 -1
      vertex 1.32583 1.32583 0
    endloop
  endfacet
  facet normal 0.707107 -0.707107 0
    outer loop
      vertex 0.265165 0.265165 0
      vertex 4.24264 4.24264 -1
      vertex 0.795495 0.795495 0
    endloop
  endfacet
  facet normal 0.707107 -0.707107 0
    outer loop
      vertex -0.265165 -0.265165 0
      vertex 0.265165 0.265165 0
      vertex -0.265165 -0.265165 0.23999
    endloop
  endfacet
  facet normal 0.707107 -0.707107 0
    outer loop
      vertex -0.265165 -0.265165 0
      vertex 4.24264 4.24264 -1
      vertex 0.265165 0.265165 0
    endloop
  endfacet
  facet normal 0.707107 -0.707107 0
    outer loop
      vertex -4.24264 -4.24264 -1
      vertex -0.265165 -0.265165 0
      vertex -0.795495 -0.795495 0
    endloop
  endfacet
  facet normal 0.707107 -0.707107 0
    outer loop
      vertex -1.32583 -1.32583 0
      vertex -0.795495 -0.795495 0
      vertex -1.32583 -1.32583 0.23999
    endloop
  endfacet
  facet normal 0.707107 -0.707107 0
    outer loop
      vertex -4.24264 -4.24264 -1
      vertex -0.795495 -0.795495 0
      vertex -1.32583 -1.32583 0
    endloop
  endfacet
  facet normal 0.707107 -0.707107 0
    outer loop
      vertex -4.24264 -4.24264 -1
      vertex -1.32583 -1.32583 0
      vertex -1.85616 -1.85616 0
    endloop
  endfacet
  facet normal 0.707107 -0.707107 0
    outer loop
      vertex -2.38649 -2.38649 0
      vertex -1.85616 -1.85616 0
      vertex -2.38649 -2.38649 0.23999
    endloop
  endfacet
  facet normal 0.707107 -0.707107 0
    outer loop
      vertex -4.24264 -4.24264 -1
      vertex -1.85616 -1.85616 0
      vertex -2.38649 -2.38649 0
    endloop
  endfacet
  facet normal 0.707107 -0.707107 0
    outer loop
      vertex -4.24264 -4.24264 -1
      vertex -2.38649 -2.38649 0
      vertex -2.91682 -2.91682 0
    endloop
  endfacet
  facet normal 0.707107 -0.707107 0
    outer loop
      vertex -3.44715 -3.44715 0
      vertex -2.91682 -2.91682 0
      vertex -3.44715 -3.44715 0.23999
    endloop
  endfacet
  facet normal 0.707107 -0.707107 0
    outer loop
      vertex -4.24264 -4.24264 -1
      vertex -2.91682 -2.91682 0
      vertex -3.44715 -3.44715 0
    endloop
  endfacet
  facet normal 0.707107 -0.707107 0
    outer loop
      vertex -4.24264 -4.24264 -1
      vertex -3.44715 -3.44715 0
      vertex -3.97748 -3.97748 0
    endloop
  endfacet
  facet normal 0.707107 -0.707107 0
    outer loop
      vertex -0.265165 -0.265165 0
      vertex -4.24264 -4.24264 -1
      vertex 4.24264 4.24264 -1
    endloop
  endfacet
  facet normal 0.707107 -0.707107 0
    outer loop
      vertex 4.94975 4.94975 0
      vertex 4.50781 4.50781 0
      vertex 4.24264 4.24264 -1
    endloop
  endfacet
  facet normal 0.707107 -0.707107 0
    outer loop
      vertex -4.50781 -4.50781 0
      vertex -3.97748 -3.97748 0
      vertex -3.97748 -3.97748 0.23999
    endloop
  endfacet
  facet normal 0.707107 -0.707107 0
    outer loop
      vertex -4.50781 -4.50781 0
      vertex -3.97748 -3.97748 0.23999
      vertex -4.50781 -4.50781 0.23999
    endloop
  endfacet
  facet normal 0.707107 -0.707107 0
    outer loop
      vertex -3.97748 -3.97748 0
      vertex -4.50781 -4.50781 0
      vertex -4.24264 -4.24264 -1
    endloop
  endfacet
  facet normal 0.707107 -0.707107 0
    outer loop
      vertex -4.24264 -4.24264 -1
      vertex -4.50781 -4.50781 0
      vertex -4.94975 -4.94975 0
    endloop
  endfacet
  facet normal 4.32978e-17 -4.32978e-17 1
    outer loop
      vertex -20.7512 11.7356 1.40661e-15
      vertex -4.94975 -4.94975 0
      vertex -4.50781 -4.50781 0
    endloop
  endfacet
  facet normal 4.32979e-17 -4.32977e-17 1
    outer loop
      vertex -4.94975 -4.94975 0
      vertex -20.7512 11.7356 1.40661e-15
      vertex -21.1932 11.2937 1.40661e-15
    endloop
  endfacet
  facet normal -0.707107 -0.707107 2.8099e-06
    outer loop
      vertex -4.50781 -4.50781 0
      vertex -20.6495 11.6339 0.23999
      vertex -20.7512 11.7356 1.40661e-15
    endloop
  endfacet
  facet normal -0.707107 -0.707107 0
    outer loop
      vertex -20.6495 11.6339 0.23999
      vertex -4.50781 -4.50781 0
      vertex -4.50781 -4.50781 0.23999
    endloop
  endfacet
  facet normal 0 0 1
    outer loop
      vertex -20.1192 12.1642 0.23999
      vertex -4.50781 -4.50781 0.23999
      vertex -3.97748 -3.97748 0.23999
    endloop
  endfacet
  facet normal 0 0 1
    outer loop
      vertex -4.50781 -4.50781 0.23999
      vertex -20.1192 12.1642 0.23999
      vertex -20.6495 11.6339 0.23999
    endloop
  endfacet
  facet normal 0.707107 0.707107 -0
    outer loop
      vertex -3.97748 -3.97748 0
      vertex -20.1192 12.1642 0.23999
      vertex -3.97748 -3.97748 0.23999
    endloop
  endfacet
  facet normal 0.707107 0.707107 0
    outer loop
      vertex -20.1192 12.1642 0.23999
      vertex -3.97748 -3.97748 0
      vertex -20.2209 12.2659 1.40661e-15
    endloop
  endfacet
  facet normal 4.32978e-17 -4.32978e-17 1
    outer loop
      vertex -19.6906 12.7963 1.40661e-15
      vertex -3.97748 -3.97748 0
      vertex -3.44715 -3.44715 0
    endloop
  endfacet
  facet normal 4.32978e-17 -4.32978e-17 1
    outer loop
      vertex -3.97748 -3.97748 0
      vertex -19.6906 12.7963 1.40661e-15
      vertex -20.2209 12.2659 1.40661e-15
    endloop
  endfacet
  facet normal -0.707107 -0.707107 0
    outer loop
      vertex -3.44715 -3.44715 0
      vertex -19.5888 12.6946 0.23999
      vertex -19.6906 12.7963 1.40661e-15
    endloop
  endfacet
  facet normal -0.707107 -0.707107 0
    outer loop
      vertex -19.5888 12.6946 0.23999
      vertex -3.44715 -3.44715 0
      vertex -3.44715 -3.44715 0.23999
    endloop
  endfacet
  facet normal 0 0 1
    outer loop
      vertex -19.0585 13.2249 0.23999
      vertex -3.44715 -3.44715 0.23999
      vertex -2.91682 -2.91682 0.23999
    endloop
  endfacet
  facet normal 0 0 1
    outer loop
      vertex -3.44715 -3.44715 0.23999
      vertex -19.0585 13.2249 0.23999
      vertex -19.5888 12.6946 0.23999
    endloop
  endfacet
  facet normal 0.707107 0.707107 -0
    outer loop
      vertex -2.91682 -2.91682 0
      vertex -19.0585 13.2249 0.23999
      vertex -2.91682 -2.91682 0.23999
    endloop
  endfacet
  facet normal 0.707107 0.707107 -2.80111e-06
    outer loop
      vertex -19.0585 13.2249 0.23999
      vertex -2.91682 -2.91682 0
      vertex -19.1602 13.3266 1.40661e-15
    endloop
  endfacet
  facet normal 4.32978e-17 -4.32978e-17 1
    outer loop
      vertex -18.6299 13.8569 1.40661e-15
      vertex -2.91682 -2.91682 0
      vertex -2.38649 -2.38649 0
    endloop
  endfacet
  facet normal 4.32978e-17 -4.32978e-17 1
    outer loop
      vertex -2.91682 -2.91682 0
      vertex -18.6299 13.8569 1.40661e-15
      vertex -19.1602 13.3266 1.40661e-15
    endloop
  endfacet
  facet normal -0.707107 -0.707107 -8.79754e-09
    outer loop
      vertex -2.38649 -2.38649 0
      vertex -18.5282 13.7552 0.23999
      vertex -18.6299 13.8569 1.40661e-15
    endloop
  endfacet
  facet normal -0.707107 -0.707107 0
    outer loop
      vertex -18.5282 13.7552 0.23999
      vertex -2.38649 -2.38649 0
      vertex -2.38649 -2.38649 0.23999
    endloop
  endfacet
  facet normal 0 0 1
    outer loop
      vertex -17.9979 14.2855 0.23999
      vertex -2.38649 -2.38649 0.23999
      vertex -1.85616 -1.85616 0.23999
    endloop
  endfacet
  facet normal 0 0 1
    outer loop
      vertex -2.38649 -2.38649 0.23999
      vertex -17.9979 14.2855 0.23999
      vertex -18.5282 13.7552 0.23999
    endloop
  endfacet
  facet normal 0.707107 0.707107 -0
    outer loop
      vertex -1.85616 -1.85616 0
      vertex -17.9979 14.2855 0.23999
      vertex -1.85616 -1.85616 0.23999
    endloop
  endfacet
  facet normal 0.707107 0.707107 2.79671e-06
    outer loop
      vertex -17.9979 14.2855 0.23999
      vertex -1.85616 -1.85616 0
      vertex -18.0996 14.3873 1.40661e-15
    endloop
  endfacet
  facet normal 4.32978e-17 -4.32978e-17 1
    outer loop
      vertex -17.5692 14.9176 1.40661e-15
      vertex -1.85616 -1.85616 0
      vertex -1.32583 -1.32583 0
    endloop
  endfacet
  facet normal 4.32978e-17 -4.32978e-17 1
    outer loop
      vertex -1.85616 -1.85616 0
      vertex -17.5692 14.9176 1.40661e-15
      vertex -18.0996 14.3873 1.40661e-15
    endloop
  endfacet
  facet normal -0.707107 -0.707107 1.75951e-08
    outer loop
      vertex -1.32583 -1.32583 0
      vertex -17.4675 14.8159 0.23999
      vertex -17.5692 14.9176 1.40661e-15
    endloop
  endfacet
  facet normal -0.707107 -0.707107 0
    outer loop
      vertex -17.4675 14.8159 0.23999
      vertex -1.32583 -1.32583 0
      vertex -1.32583 -1.32583 0.23999
    endloop
  endfacet
  facet normal 0 0 1
    outer loop
      vertex -16.9372 15.3462 0.23999
      vertex -1.32583 -1.32583 0.23999
      vertex -0.795495 -0.795495 0.23999
    endloop
  endfacet
  facet normal 0 0 1
    outer loop
      vertex -1.32583 -1.32583 0.23999
      vertex -16.9372 15.3462 0.23999
      vertex -17.4675 14.8159 0.23999
    endloop
  endfacet
  facet normal 0.707107 0.707107 -0
    outer loop
      vertex -0.795495 -0.795495 0
      vertex -16.9372 15.3462 0.23999
      vertex -0.795495 -0.795495 0.23999
    endloop
  endfacet
  facet normal 0.707107 0.707107 1.31963e-08
    outer loop
      vertex -16.9372 15.3462 0.23999
      vertex -0.795495 -0.795495 0
      vertex -17.0389 15.4479 1.40661e-15
    endloop
  endfacet
  facet normal 4.32978e-17 -4.32978e-17 1
    outer loop
      vertex -16.5086 15.9782 1.40661e-15
      vertex -0.795495 -0.795495 0
      vertex -0.265165 -0.265165 0
    endloop
  endfacet
  facet normal 4.32978e-17 -4.32978e-17 1
    outer loop
      vertex -0.795495 -0.795495 0
      vertex -16.5086 15.9782 1.40661e-15
      vertex -17.0389 15.4479 1.40661e-15
    endloop
  endfacet
  facet normal -0.707107 -0.707107 -2.80331e-06
    outer loop
      vertex -0.265165 -0.265165 0
      vertex -16.4069 15.8765 0.23999
      vertex -16.5086 15.9782 1.40661e-15
    endloop
  endfacet
  facet normal -0.707107 -0.707107 0
    outer loop
      vertex -16.4069 15.8765 0.23999
      vertex -0.265165 -0.265165 0
      vertex -0.265165 -0.265165 0.23999
    endloop
  endfacet
  facet normal 0 0 1
    outer loop
      vertex -15.8765 16.4069 0.23999
      vertex -0.265165 -0.265165 0.23999
      vertex 0.265165 0.265165 0.23999
    endloop
  endfacet
  facet normal 0 0 1
    outer loop
      vertex -0.265165 -0.265165 0.23999
      vertex -15.8765 16.4069 0.23999
      vertex -16.4069 15.8765 0.23999
    endloop
  endfacet
  facet normal 0.707107 0.707107 -0
    outer loop
      vertex 0.265165 0.265165 0
      vertex -15.8765 16.4069 0.23999
      vertex 0.265165 0.265165 0.23999
    endloop
  endfacet
  facet normal 0.707107 0.707107 -2.80331e-06
    outer loop
      vertex -15.8765 16.4069 0.23999
      vertex 0.265165 0.265165 0
      vertex -15.9782 16.5086 1.40661e-15
    endloop
  endfacet
  facet normal 4.32978e-17 -4.32978e-17 1
    outer loop
      vertex -15.4479 17.0389 1.40661e-15
      vertex 0.265165 0.265165 0
      vertex 0.795495 0.795495 0
    endloop
  endfacet
  facet normal 4.32978e-17 -4.32978e-17 1
    outer loop
      vertex 0.265165 0.265165 0
      vertex -15.4479 17.0389 1.40661e-15
      vertex -15.9782 16.5086 1.40661e-15
    endloop
  endfacet
  facet normal -0.707107 -0.707107 1.31963e-08
    outer loop
      vertex 0.795495 0.795495 0
      vertex -15.3462 16.9372 0.23999
      vertex -15.4479 17.0389 1.40661e-15
    endloop
  endfacet
  facet normal -0.707107 -0.707107 0
    outer loop
      vertex -15.3462 16.9372 0.23999
      vertex 0.795495 0.795495 0
      vertex 0.795495 0.795495 0.23999
    endloop
  endfacet
  facet normal 0 0 1
    outer loop
      vertex -14.8159 17.4675 0.23999
      vertex 0.795495 0.795495 0.23999
      vertex 1.32583 1.32583 0.23999
    endloop
  endfacet
  facet normal 0 0 1
    outer loop
      vertex 0.795495 0.795495 0.23999
      vertex -14.8159 17.4675 0.23999
      vertex -15.3462 16.9372 0.23999
    endloop
  endfacet
  facet normal 0.707107 0.707107 -0
    outer loop
      vertex 1.32583 1.32583 0
      vertex -14.8159 17.4675 0.23999
      vertex 1.32583 1.32583 0.23999
    endloop
  endfacet
  facet normal 0.707107 0.707107 1.75951e-08
    outer loop
      vertex -14.8159 17.4675 0.23999
      vertex 1.32583 1.32583 0
      vertex -14.9176 17.5692 1.40661e-15
    endloop
  endfacet
  facet normal 4.32978e-17 -4.32978e-17 1
    outer loop
      vertex -14.3873 18.0996 1.40661e-15
      vertex 1.32583 1.32583 0
      vertex 1.85616 1.85616 0
    endloop
  endfacet
  facet normal 4.32978e-17 -4.32978e-17 1
    outer loop
      vertex 1.32583 1.32583 0
      vertex -14.3873 18.0996 1.40661e-15
      vertex -14.9176 17.5692 1.40661e-15
    endloop
  endfacet
  facet normal -0.707107 -0.707107 2.79671e-06
    outer loop
      vertex 1.85616 1.85616 0
      vertex -14.2855 17.9979 0.23999
      vertex -14.3873 18.0996 1.40661e-15
    endloop
  endfacet
  facet normal -0.707107 -0.707107 0
    outer loop
      vertex -14.2855 17.9979 0.23999
      vertex 1.85616 1.85616 0
      vertex 1.85616 1.85616 0.23999
    endloop
  endfacet
  facet normal 0 0 1
    outer loop
      vertex -13.7552 18.5282 0.23999
      vertex 1.85616 1.85616 0.23999
      vertex 2.38649 2.38649 0.23999
    endloop
  endfacet
  facet normal 0 0 1
    outer loop
      vertex 1.85616 1.85616 0.23999
      vertex -13.7552 18.5282 0.23999
      vertex -14.2855 17.9979 0.23999
    endloop
  endfacet
  facet normal 0.707107 0.707107 -0
    outer loop
      vertex 2.38649 2.38649 0
      vertex -13.7552 18.5282 0.23999
      vertex 2.38649 2.38649 0.23999
    endloop
  endfacet
  facet normal 0.707107 0.707107 -8.79754e-09
    outer loop
      vertex -13.7552 18.5282 0.23999
      vertex 2.38649 2.38649 0
      vertex -13.8569 18.6299 1.40661e-15
    endloop
  endfacet
  facet normal 4.32978e-17 -4.32978e-17 1
    outer loop
      vertex -13.3266 19.1602 1.40661e-15
      vertex 2.38649 2.38649 0
      vertex 2.91682 2.91682 0
    endloop
  endfacet
  facet normal 4.32978e-17 -4.32978e-17 1
    outer loop
      vertex 2.38649 2.38649 0
      vertex -13.3266 19.1602 1.40661e-15
      vertex -13.8569 18.6299 1.40661e-15
    endloop
  endfacet
  facet normal -0.707107 -0.707107 -2.80111e-06
    outer loop
      vertex 2.91682 2.91682 0
      vertex -13.2249 19.0585 0.23999
      vertex -13.3266 19.1602 1.40661e-15
    endloop
  endfacet
  facet normal -0.707107 -0.707107 0
    outer loop
      vertex -13.2249 19.0585 0.23999
      vertex 2.91682 2.91682 0
      vertex 2.91682 2.91682 0.23999
    endloop
  endfacet
  facet normal 0 0 1
    outer loop
      vertex -12.6946 19.5888 0.23999
      vertex 2.91682 2.91682 0.23999
      vertex 3.44715 3.44715 0.23999
    endloop
  endfacet
  facet normal 0 0 1
    outer loop
      vertex 2.91682 2.91682 0.23999
      vertex -12.6946 19.5888 0.23999
      vertex -13.2249 19.0585 0.23999
    endloop
  endfacet
  facet normal 0.707107 0.707107 -0
    outer loop
      vertex 3.44715 3.44715 0
      vertex -12.6946 19.5888 0.23999
      vertex 3.44715 3.44715 0.23999
    endloop
  endfacet
  facet normal 0.707107 0.707107 0
    outer loop
      vertex -12.6946 19.5888 0.23999
      vertex 3.44715 3.44715 0
      vertex -12.7963 19.6906 1.40661e-15
    endloop
  endfacet
  facet normal 4.32978e-17 -4.32978e-17 1
    outer loop
      vertex -12.2659 20.2209 1.40661e-15
      vertex 3.44715 3.44715 0
      vertex 3.97748 3.97748 0
    endloop
  endfacet
  facet normal 4.32978e-17 -4.32978e-17 1
    outer loop
      vertex 3.44715 3.44715 0
      vertex -12.2659 20.2209 1.40661e-15
      vertex -12.7963 19.6906 1.40661e-15
    endloop
  endfacet
  facet normal -0.707107 -0.707107 0
    outer loop
      vertex 3.97748 3.97748 0
      vertex -12.1642 20.1192 0.23999
      vertex -12.2659 20.2209 1.40661e-15
    endloop
  endfacet
  facet normal -0.707107 -0.707107 0
    outer loop
      vertex -12.1642 20.1192 0.23999
      vertex 3.97748 3.97748 0
      vertex 3.97748 3.97748 0.23999
    endloop
  endfacet
  facet normal 0 0 1
    outer loop
      vertex -11.6339 20.6495 0.23999
      vertex 3.97748 3.97748 0.23999
      vertex 4.50781 4.50781 0.23999
    endloop
  endfacet
  facet normal 0 0 1
    outer loop
      vertex 3.97748 3.97748 0.23999
      vertex -11.6339 20.6495 0.23999
      vertex -12.1642 20.1192 0.23999
    endloop
  endfacet
  facet normal 0.707107 0.707107 -0
    outer loop
      vertex 4.50781 4.50781 0
      vertex -11.6339 20.6495 0.23999
      vertex 4.50781 4.50781 0.23999
    endloop
  endfacet
  facet normal 0.707107 0.707107 2.8099e-06
    outer loop
      vertex -11.6339 20.6495 0.23999
      vertex 4.50781 4.50781 0
      vertex -11.7356 20.7512 1.40661e-15
    endloop
  endfacet
  facet normal 4.32978e-17 -4.32978e-17 1
    outer loop
      vertex -11.2937 21.1932 1.40661e-15
      vertex 4.50781 4.50781 0
      vertex 4.94975 4.94975 0
    endloop
  endfacet
  facet normal 4.32977e-17 -4.32979e-17 1
    outer loop
      vertex 4.50781 4.50781 0
      vertex -11.2937 21.1932 1.40661e-15
      vertex -11.7356 20.7512 1.40661e-15
    endloop
  endfacet
  facet normal 0.5 0.5 -0.707107
    outer loop
      vertex 4.24264 4.24264 -1
      vertex -11.2937 21.1932 1.40661e-15
      vertex 4.94975 4.94975 0
    endloop
  endfacet
  facet normal 0.5 0.5 -0.707107
    outer loop
      vertex -12.3736 20.8588 -1
      vertex -11.2937 21.1932 1.40661e-15
      vertex 4.24264 4.24264 -1
    endloop
  endfacet
  facet normal 0.500003 0.499995 -0.707108
    outer loop
      vertex -11.2937 21.1932 1.40661e-15
      vertex -12.3736 20.8588 -1
      vertex -11.7789 21.0716 -0.429049
    endloop
  endfacet
  facet normal 0 0 -1
    outer loop
      vertex -4.24264 -4.24264 -1
      vertex -12.3736 20.8588 -1
      vertex 4.24264 4.24264 -1
    endloop
  endfacet
  facet normal 0 -0 -1
    outer loop
      vertex -12.3736 20.8588 -1
      vertex -4.24264 -4.24264 -1
      vertex -20.8588 12.3736 -1
    endloop
  endfacet
  facet normal -0.5 -0.5 -0.707107
    outer loop
      vertex -21.1932 11.2937 1.40661e-15
      vertex -4.24264 -4.24264 -1
      vertex -4.94975 -4.94975 0
    endloop
  endfacet
  facet normal -0.5 -0.5 -0.707107
    outer loop
      vertex -4.24264 -4.24264 -1
      vertex -21.1932 11.2937 1.40661e-15
      vertex -20.8588 12.3736 -1
    endloop
  endfacet
  facet normal -0.499995 -0.500003 -0.707108
    outer loop
      vertex -20.8588 12.3736 -1
      vertex -21.1932 11.2937 1.40661e-15
      vertex -21.0716 11.7789 -0.429049
    endloop
  endfacet
  facet normal -0.606508 0.606505 0.514101
    outer loop
      vertex -21.0716 11.7789 -0.429049
      vertex -21.1932 11.2937 1.40661e-15
      vertex -20.7512 11.7356 1.40661e-15
    endloop
  endfacet
  facet normal -0.606505 0.606508 0.514101
    outer loop
      vertex -11.7789 21.0716 -0.429049
      vertex -11.7356 20.7512 1.40661e-15
      vertex -11.2937 21.1932 1.40661e-15
    endloop
  endfacet
  facet normal -0.606505 0.606503 0.514107
    outer loop
      vertex -11.7356 20.7512 1.40661e-15
      vertex -12.2659 20.2209 1.40661e-15
      vertex -11.6339 20.6495 0.23999
    endloop
  endfacet
  facet normal -0.606507 0.606506 0.514101
    outer loop
      vertex -11.7789 21.0716 -0.429049
      vertex -12.2659 20.2209 1.40661e-15
      vertex -11.7356 20.7512 1.40661e-15
    endloop
  endfacet
  facet normal -0.606507 0.606506 0.514101
    outer loop
      vertex -11.7789 21.0716 -0.429049
      vertex -12.7963 19.6906 1.40661e-15
      vertex -12.2659 20.2209 1.40661e-15
    endloop
  endfacet
  facet normal -0.606505 0.606507 0.514102
    outer loop
      vertex -12.7963 19.6906 1.40661e-15
      vertex -13.3266 19.1602 1.40661e-15
      vertex -12.6946 19.5888 0.23999
    endloop
  endfacet
  facet normal -0.606503 0.606505 0.514107
    outer loop
      vertex -11.7789 21.0716 -0.429049
      vertex -13.3266 19.1602 1.40661e-15
      vertex -12.7963 19.6906 1.40661e-15
    endloop
  endfacet
  facet normal -0.606508 0.606507 0.514098
    outer loop
      vertex -11.7789 21.0716 -0.429049
      vertex -13.8569 18.6299 1.40661e-15
      vertex -13.3266 19.1602 1.40661e-15
    endloop
  endfacet
  facet normal -0.606506 0.606506 0.514102
    outer loop
      vertex -13.8569 18.6299 1.40661e-15
      vertex -14.3873 18.0996 1.40661e-15
      vertex -13.7552 18.5282 0.23999
    endloop
  endfacet
  facet normal -0.606506 0.606506 0.514102
    outer loop
      vertex -11.7789 21.0716 -0.429049
      vertex -14.3873 18.0996 1.40661e-15
      vertex -13.8569 18.6299 1.40661e-15
    endloop
  endfacet
  facet normal -0.606509 0.606508 0.514097
    outer loop
      vertex -11.7789 21.0716 -0.429049
      vertex -14.9176 17.5692 1.40661e-15
      vertex -14.3873 18.0996 1.40661e-15
    endloop
  endfacet
  facet normal -0.606506 0.606507 0.514102
    outer loop
      vertex -14.9176 17.5692 1.40661e-15
      vertex -15.4479 17.0389 1.40661e-15
      vertex -14.8159 17.4675 0.23999
    endloop
  endfacet
  facet normal -0.606502 0.606504 0.514109
    outer loop
      vertex -11.7789 21.0716 -0.429049
      vertex -15.4479 17.0389 1.40661e-15
      vertex -14.9176 17.5692 1.40661e-15
    endloop
  endfacet
  facet normal -0.606506 0.606506 0.514102
    outer loop
      vertex -11.7789 21.0716 -0.429049
      vertex -15.9782 16.5086 1.40661e-15
      vertex -15.4479 17.0389 1.40661e-15
    endloop
  endfacet
  facet normal -0.606505 0.606505 0.514103
    outer loop
      vertex -15.9782 16.5086 1.40661e-15
      vertex -16.5086 15.9782 1.40661e-15
      vertex -15.8765 16.4069 0.23999
    endloop
  endfacet
  facet normal -0.606506 0.606506 0.514102
    outer loop
      vertex -11.7789 21.0716 -0.429049
      vertex -16.5086 15.9782 1.40661e-15
      vertex -15.9782 16.5086 1.40661e-15
    endloop
  endfacet
  facet normal -0.606506 0.606506 0.514102
    outer loop
      vertex -21.0716 11.7789 -0.429049
      vertex -16.5086 15.9782 1.40661e-15
      vertex -11.7789 21.0716 -0.429049
    endloop
  endfacet
  facet normal -0.606507 0.606506 0.514102
    outer loop
      vertex -17.0389 15.4479 1.40661e-15
      vertex -17.5692 14.9176 1.40661e-15
      vertex -16.9372 15.3462 0.23999
    endloop
  endfacet
  facet normal -0.606506 0.606506 0.514102
    outer loop
      vertex -16.5086 15.9782 1.40661e-15
      vertex -21.0716 11.7789 -0.429049
      vertex -17.0389 15.4479 1.40661e-15
    endloop
  endfacet
  facet normal -0.606504 0.606502 0.514109
    outer loop
      vertex -17.0389 15.4479 1.40661e-15
      vertex -21.0716 11.7789 -0.429049
      vertex -17.5692 14.9176 1.40661e-15
    endloop
  endfacet
  facet normal -0.606505 0.606505 0.514103
    outer loop
      vertex -18.0996 14.3873 1.40661e-15
      vertex -18.6299 13.8569 1.40661e-15
      vertex -17.9979 14.2855 0.23999
    endloop
  endfacet
  facet normal -0.606508 0.606509 0.514097
    outer loop
      vertex -17.5692 14.9176 1.40661e-15
      vertex -21.0716 11.7789 -0.429049
      vertex -18.0996 14.3873 1.40661e-15
    endloop
  endfacet
  facet normal -0.606506 0.606506 0.514102
    outer loop
      vertex -18.0996 14.3873 1.40661e-15
      vertex -21.0716 11.7789 -0.429049
      vertex -18.6299 13.8569 1.40661e-15
    endloop
  endfacet
  facet normal -0.606505 0.606503 0.514107
    outer loop
      vertex -19.1602 13.3266 1.40661e-15
      vertex -19.6906 12.7963 1.40661e-15
      vertex -19.0585 13.2249 0.23999
    endloop
  endfacet
  facet normal -0.606507 0.606508 0.514098
    outer loop
      vertex -18.6299 13.8569 1.40661e-15
      vertex -21.0716 11.7789 -0.429049
      vertex -19.1602 13.3266 1.40661e-15
    endloop
  endfacet
  facet normal -0.606505 0.606503 0.514107
    outer loop
      vertex -19.1602 13.3266 1.40661e-15
      vertex -21.0716 11.7789 -0.429049
      vertex -19.6906 12.7963 1.40661e-15
    endloop
  endfacet
  facet normal -0.606506 0.606507 0.514101
    outer loop
      vertex -19.6906 12.7963 1.40661e-15
      vertex -21.0716 11.7789 -0.429049
      vertex -20.2209 12.2659 1.40661e-15
    endloop
  endfacet
  facet normal -0.606506 0.606507 0.514101
    outer loop
      vertex -20.7512 11.7356 1.40661e-15
      vertex -20.2209 12.2659 1.40661e-15
      vertex -21.0716 11.7789 -0.429049
    endloop
  endfacet
  facet normal -0.606506 0.606507 0.514102
    outer loop
      vertex -20.2209 12.2659 1.40661e-15
      vertex -20.7512 11.7356 1.40661e-15
      vertex -20.1192 12.1642 0.23999
    endloop
  endfacet
  facet normal -0.606505 0.606503 0.514107
    outer loop
      vertex -20.1192 12.1642 0.23999
      vertex -20.7512 11.7356 1.40661e-15
      vertex -20.6495 11.6339 0.23999
    endloop
  endfacet
  facet normal -0.606505 0.606507 0.514102
    outer loop
      vertex -11.6339 20.6495 0.23999
      vertex -12.2659 20.2209 1.40661e-15
      vertex -12.1642 20.1192 0.23999
    endloop
  endfacet
  facet normal -0.606505 0.606503 0.514107
    outer loop
      vertex -12.6946 19.5888 0.23999
      vertex -13.3266 19.1602 1.40661e-15
      vertex -13.2249 19.0585 0.23999
    endloop
  endfacet
  facet normal -0.606506 0.606505 0.514103
    outer loop
      vertex -13.7552 18.5282 0.23999
      vertex -14.3873 18.0996 1.40661e-15
      vertex -14.2855 17.9979 0.23999
    endloop
  endfacet
  facet normal -0.606506 0.606507 0.514102
    outer loop
      vertex -14.8159 17.4675 0.23999
      vertex -15.4479 17.0389 1.40661e-15
      vertex -15.3462 16.9372 0.23999
    endloop
  endfacet
  facet normal -0.606505 0.606505 0.514103
    outer loop
      vertex -15.8765 16.4069 0.23999
      vertex -16.5086 15.9782 1.40661e-15
      vertex -16.4069 15.8765 0.23999
    endloop
  endfacet
  facet normal -0.606507 0.606506 0.514102
    outer loop
      vertex -16.9372 15.3462 0.23999
      vertex -17.5692 14.9176 1.40661e-15
      vertex -17.4675 14.8159 0.23999
    endloop
  endfacet
  facet normal -0.606506 0.606507 0.514102
    outer loop
      vertex -17.9979 14.2855 0.23999
      vertex -18.6299 13.8569 1.40661e-15
      vertex -18.5282 13.7552 0.23999
    endloop
  endfacet
  facet normal -0.606506 0.606507 0.514102
    outer loop
      vertex -19.0585 13.2249 0.23999
      vertex -19.6906 12.7963 1.40661e-15
      vertex -19.5888 12.6946 0.23999
    endloop
  endfacet
  facet normal -0.639217 0.639217 0.427556
    outer loop
      vertex -20.8588 12.3736 -1
      vertex -11.7789 21.0716 -0.429049
      vertex -12.3736 20.8588 -1
    endloop
  endfacet
  facet normal -0.639217 0.639217 0.427556
    outer loop
      vertex -11.7789 21.0716 -0.429049
      vertex -20.8588 12.3736 -1
      vertex -21.0716 11.7789 -0.429049
    endloop
  endfacet
endsolid OpenSCAD_Model
