solid OpenSCAD_Model
  facet normal 0.707107 -0.707107 0
    outer loop
      vertex -2.91682 -2.91682 0.23999
      vertex -3.44715 -3.44715 0.23999
      vertex -2.91682 -2.91682 0
    endloop
  endfacet
  facet normal 0.707107 -0.707107 0
    outer loop
      vertex -1.85616 -1.85616 0.23999
      vertex -2.38649 -2.38649 0.23999
      vertex -1.85616 -1.85616 0
    endloop
  endfacet
  facet normal 0.707107 -0.707107 0
    outer loop
      vertex -0.795495 -0.795495 0.23999
      vertex -1.32583 -1.32583 0.23999
      vertex -0.795495 -0.795495 0
    endloop
  endfacet
  facet normal 0.707107 -0.707107 0
    outer loop
      vertex 0.265165 0.265165 0.23999
      vertex -0.265165 -0.265165 0.23999
      vertex 0.265165 0.265165 0
    endloop
  endfacet
  facet normal 0.707107 -0.707107 0
    outer loop
      vertex 1.32583 1.32583 0.23999
      vertex 0.795495 0.795495 0.23999
      vertex 1.32583 1.32583 0
    endloop
  endfacet
  facet normal 0.707107 -0.707107 0
    outer loop
      vertex 2.38649 2.38649 0.23999
      vertex 1.85616 1.85616 0.23999
      vertex 2.38649 2.38649 0
    endloop
  endfacet
  facet normal 0.707107 -0.707107 0
    outer loop
      vertex 3.44715 3.44715 0.23999
      vertex 2.91682 2.91682 0.23999
      vertex 3.44715 3.44715 0
    endloop
  endfacet
  facet normal 0.707107 -0.707107 0
    outer loop
      vertex 3.97748 3.97748 0
      vertex 4.50781 4.50781 0
      vertex 4.50781 4.50781 0.23999
    endloop
  endfacet
  facet normal 0.707107 -0.707107 0
    outer loop
      vertex 3.97748 3.97748 0
      vertex 4.50781 4.50781 0.23999
      vertex 3.97748 3.97748 0.23999
    endloop
  endfacet
  facet normal 0.707107 -0.707107 0
    outer loop
      vertex 4.50781 4.50781 0
      vertex 3.97748 3.97748 0
      vertex 4.24264 4.24264 -1
    endloop
  endfacet
  facet normal 0.707107 -0.707107 0
    outer loop
      vertex 3.44715 3.44715 0
      vertex 4.24264 4.24264 -1
      vertex 3.97748 3.97748 0
    endloop
  endfacet
  facet normal 0.707107 -0.707107 0
    outer loop
      vertex 2.91682 2.91682 0
      vertex 3.44715 3.44715 0
      vertex 2.91682 2.91682 0.23999
    endloop
  endfacet
  facet normal 0.707107 -0.707107 0
    outer loop
      vertex 3.44715 3.44715 0
      vertex 2.91682 2.91682 0
      vertex 4.24264 4.24264 -1
    endloop
  endfacet
  facet normal 0.707107 -0.707107 0
    outer loop
      vertex 2.38649 2.38649 0
      vertex 4.24264 4.24264 -1
      vertex 2.91682 2.91682 0
    endloop
  endfacet
  facet normal 0.707107 -0.707107 0
    outer loop
      vertex 1.85616 1.85616 0
      vertex 2.38649 2.38649 0
      vertex 1.85616 1.85616 0.23999
    endloop
  endfacet
  facet normal 0.707107 -0.707107 0
    outer loop
      vertex 2.38649 2.38649 0
      vertex 1.85616 1.85616 0
      vertex 4.24264 4.24264 -1
    endloop
  endfacet
  facet normal 0.707107 -0.707107 0
    outer loop
      vertex 1.32583 1.32583 0
      vertex 4.24264 4.24264 -1
      vertex 1.85616 1.85616 0
    endloop
  endfacet
  facet normal 0.707107 -0.707107 0
    outer loop
      vertex 0.795495 0.795495 0
      vertex 1.32583 1.32583 0
      vertex 0.795495 0.795495 0.23999
    endloop
  endfacet
  facet normal 0.707107 -0.707107 0
    outer loop
      vertex 0.795495 0.795495 0
      vertex 4.24264 4.24264 -1
      vertex 1.32583 1.32583 0
    endloop
  endfacet
  facet normal 0.707107 -0.707107 0
    outer loop
      vertex 0.265165 0.265165 0
      vertex 4.24264 4.24264 -1
      vertex 0.795495 0.795495 0
    endloop
  endfacet
  facet normal 0.707107 -0.707107 0
    outer loop
      vertex -0.265165 -0.265165 0
      vertex 0.265165 0.265165 0
      vertex -0.265165 -0.265165 0.23999
    endloop
  endfacet
  facet normal 0.707107 -0.707107 0
    outer loop
      vertex -0.265165 -0.265165 0
      vertex 4.24264 4.24264 -1
      vertex 0.265165 0.265165 0
    endloop
  endfacet
  facet normal 0.707107 -0.707107 0
    outer loop
      vertex -4.24264 -4.24264 -1
      vertex -0.265165 -0.265165 0
      vertex -0.795495 -0.795495 0
    endloop
  endfacet
  facet normal 0.707107 -0.707107 0
    outer loop
      vertex -1.32583 -1.32583 0
      vertex -0.795495 -0.795495 0
      vertex -1.32583 -1.32583 0.23999
    endloop
  endfacet
  facet normal 0.707107 -0.707107 0
    outer loop
      vertex -4.24264 -4.24264 -1
      vertex -0.795495 -0.795495 0
      vertex -1.32583 -1.32583 0
    endloop
  endfacet
  facet normal 0.707107 -0.707107 0
    outer loop
      vertex -4.24264 -4.24264 -1
      vertex -1.32583 -1.32583 0
      vertex -1.85616 -1.85616 0
    endloop
  endfacet
  facet normal 0.707107 -0.707107 0
    outer loop
      vertex -2.38649 -2.38649 0
      vertex -1.85616 -1.85616 0
      vertex -2.38649 -2.38649 0.23999
    endloop
  endfacet
  facet normal 0.707107 -0.707107 0
    outer loop
      vertex -4.24264 -4.24264 -1
      vertex -1.85616 -1.85616 0
      vertex -2.38649 -2.38649 0
    endloop
  endfacet
  facet normal 0.707107 -0.707107 0
    outer loop
      vertex -4.24264 -4.24264 -1
      vertex -2.38649 -2.38649 0
      vertex -2.91682 -2.91682 0
    endloop
  endfacet
  facet normal 0.707107 -0.707107 0
    outer loop
      vertex -3.44715 -3.44715 0
      vertex -2.91682 -2.91682 0
      vertex -3.44715 -3.44715 0.23999
    endloop
  endfacet
  facet normal 0.707107 -0.707107 0
    outer loop
      vertex -4.24264 -4.24264 -1
      vertex -2.91682 -2.91682 0
      vertex -3.44715 -3.44715 0
    endloop
  endfacet
  facet normal 0.707107 -0.707107 0
    outer loop
      vertex -4.24264 -4.24264 -1
      vertex -3.44715 -3.44715 0
      vertex -3.97748 -3.97748 0
    endloop
  endfacet
  facet normal 0.707107 -0.707107 0
    outer loop
      vertex -0.265165 -0.265165 0
      vertex -4.24264 -4.24264 -1
      vertex 4.24264 4.24264 -1
    endloop
  endfacet
  facet normal 0.707107 -0.707107 0
    outer loop
      vertex 4.94975 4.94975 0
      vertex 4.50781 4.50781 0
      vertex 4.24264 4.24264 -1
    endloop
  endfacet
  facet normal 0.707107 -0.707107 0
    outer loop
      vertex -4.50781 -4.50781 0
      vertex -3.97748 -3.97748 0
      vertex -3.97748 -3.97748 0.23999
    endloop
  endfacet
  facet normal 0.707107 -0.707107 0
    outer loop
      vertex -4.50781 -4.50781 0
      vertex -3.97748 -3.97748 0.23999
      vertex -4.50781 -4.50781 0.23999
    endloop
  endfacet
  facet normal 0.707107 -0.707107 0
    outer loop
      vertex -3.97748 -3.97748 0
      vertex -4.50781 -4.50781 0
      vertex -4.24264 -4.24264 -1
    endloop
  endfacet
  facet normal 0.707107 -0.707107 0
    outer loop
      vertex -4.24264 -4.24264 -1
      vertex -4.50781 -4.50781 0
      vertex -4.94975 -4.94975 0
    endloop
  endfacet
  facet normal 4.32978e-17 -4.32978e-17 1
    outer loop
      vertex -20.7512 11.7356 1.40661e-15
      vertex -4.94975 -4.94975 0
      vertex -4.50781 -4.50781 0
    endloop
  endfacet
  facet normal 4.32979e-17 -4.32977e-17 1
    outer loop
      vertex -4.94975 -4.94975 0
      vertex -20.7512 11.7356 1.40661e-15
      vertex -21.1932 11.2937 1.40661e-15
    endloop
  endfacet
  facet normal -0.707107 -0.707107 2.8099e-06
    outer loop
      vertex -4.50781 -4.50781 0
      vertex -20.6495 11.6339 0.23999
      vertex -20.7512 11.7356 1.40661e-15
    endloop
  endfacet
  facet normal -0.707107 -0.707107 0
    outer loop
      vertex -20.6495 11.6339 0.23999
      vertex -4.50781 -4.50781 0
      vertex -4.50781 -4.50781 0.23999
    endloop
  endfacet
  facet normal 0 0 1
    outer loop
      vertex -20.1192 12.1642 0.23999
      vertex -4.50781 -4.50781 0.23999
      vertex -3.97748 -3.97748 0.23999
    endloop
  endfacet
  facet normal 0 0 1
    outer loop
      vertex -4.50781 -4.50781 0.23999
      vertex -20.1192 12.1642 0.23999
      vertex -20.6495 11.6339 0.23999
    endloop
  endfacet
  facet normal 0.707107 0.707107 -0
    outer loop
      vertex -3.97748 -3.97748 0
      vertex -20.1192 12.1642 0.23999
      vertex -3.97748 -3.97748 0.23999
    endloop
  endfacet
  facet normal 0.707107 0.707107 0
    outer loop
      vertex -20.1192 12.1642 0.23999
      vertex -3.97748 -3.97748 0
      vertex -20.2209 12.2659 1.40661e-15
    endloop
  endfacet
  facet normal 4.32978e-17 -4.32978e-17 1
    outer loop
      vertex -19.6906 12.7963 1.40661e-15
      vertex -3.97748 -3.97748 0
      vertex -3.44715 -3.44715 0
    endloop
  endfacet
  facet normal 4.32978e-17 -4.32978e-17 1
    outer loop
      vertex -3.97748 -3.97748 0
      vertex -19.6906 12.7963 1.40661e-15
      vertex -20.2209 12.2659 1.40661e-15
    endloop
  endfacet
  facet normal -0.707107 -0.707107 0
    outer loop
      vertex -3.44715 -3.44715 0
      vertex -19.5888 12.6946 0.23999
      vertex -19.6906 12.7963 1.40661e-15
    endloop
  endfacet
  facet normal -0.707107 -0.707107 0
    outer loop
      vertex -19.5888 12.6946 0.23999
      vertex -3.44715 -3.44715 0
      vertex -3.44715 -3.44715 0.23999
    endloop
  endfacet
  facet normal 0 0 1
    outer loop
      vertex -19.0585 13.2249 0.23999
      vertex -3.44715 -3.44715 0.23999
      vertex -2.91682 -2.91682 0.23999
    endloop
  endfacet
  facet normal 0 0 1
    outer loop
      vertex -3.44715 -3.44715 0.23999
      vertex -19.0585 13.2249 0.23999
      vertex -19.5888 12.6946 0.23999
    endloop
  endfacet
  facet normal 0.707107 0.707107 -0
    outer loop
      vertex -2.91682 -2.91682 0
      vertex -19.0585 13.2249 0.23999
      vertex -2.91682 -2.91682 0.23999
    endloop
  endfacet
  facet normal 0.707107 0.707107 -2.80111e-06
    outer loop
      vertex -19.0585 13.2249 0.23999
      vertex -2.91682 -2.91682 0
      vertex -19.1602 13.3266 1.40661e-15
    endloop
  endfacet
  facet normal 4.32978e-17 -4.32978e-17 1
    outer loop
      vertex -16.3518 11.5789 1.20934e-15
      vertex -18.6299 13.8569 1.40661e-15
      vertex -16.617 11.3137 1.20934e-15
    endloop
  endfacet
  facet normal 4.32979e-17 -4.32977e-17 1
    outer loop
      vertex -11.3137 6.01041 7.50096e-16
      vertex -2.38649 -2.38649 0
      vertex -11.0485 6.27557 7.50096e-16
    endloop
  endfacet
  facet normal 4.32978e-17 -4.32978e-17 1
    outer loop
      vertex -2.38649 -2.38649 0
      vertex -11.3137 6.01041 7.50096e-16
      vertex -2.91682 -2.91682 0
    endloop
  endfacet
  facet normal 4.32979e-17 -4.32977e-17 1
    outer loop
      vertex -19.1602 13.3266 1.40661e-15
      vertex -11.3137 6.01041 7.50096e-16
      vertex -16.617 11.3137 1.20934e-15
    endloop
  endfacet
  facet normal 4.32977e-17 -4.32979e-17 1
    outer loop
      vertex -11.3137 6.01041 7.50096e-16
      vertex -19.1602 13.3266 1.40661e-15
      vertex -2.91682 -2.91682 0
    endloop
  endfacet
  facet normal 4.32978e-17 -4.32979e-17 1
    outer loop
      vertex -19.1602 13.3266 1.40661e-15
      vertex -16.617 11.3137 1.20934e-15
      vertex -18.6299 13.8569 1.40661e-15
    endloop
  endfacet
  facet normal -0.707107 -0.707107 0
    outer loop
      vertex -11.0485 6.27557 7.50096e-16
      vertex -2.38649 -2.38649 0.23999
      vertex -11.0485 6.27557 0.23999
    endloop
  endfacet
  facet normal -0.707107 -0.707107 -0
    outer loop
      vertex -2.38649 -2.38649 0.23999
      vertex -11.0485 6.27557 7.50096e-16
      vertex -2.38649 -2.38649 0
    endloop
  endfacet
  facet normal -0.707107 -0.707107 0
    outer loop
      vertex -16.3518 11.5789 1.20934e-15
      vertex -18.5282 13.7552 0.23999
      vertex -18.6299 13.8569 1.40661e-15
    endloop
  endfacet
  facet normal -0.707107 -0.707107 0
    outer loop
      vertex -18.5282 13.7552 0.23999
      vertex -16.3518 11.5789 1.20934e-15
      vertex -16.3518 11.5789 0.23999
    endloop
  endfacet
  facet normal 0 0 1
    outer loop
      vertex -10.5182 6.8059 0.23999
      vertex -2.38649 -2.38649 0.23999
      vertex -1.85616 -1.85616 0.23999
    endloop
  endfacet
  facet normal 0 0 1
    outer loop
      vertex -2.38649 -2.38649 0.23999
      vertex -10.5182 6.8059 0.23999
      vertex -11.0485 6.27557 0.23999
    endloop
  endfacet
  facet normal 0 0 1
    outer loop
      vertex -17.9979 14.2855 0.23999
      vertex -16.3518 11.5789 0.23999
      vertex -15.8215 12.1092 0.23999
    endloop
  endfacet
  facet normal 0 0 1
    outer loop
      vertex -16.3518 11.5789 0.23999
      vertex -17.9979 14.2855 0.23999
      vertex -18.5282 13.7552 0.23999
    endloop
  endfacet
  facet normal 0.707107 0.707107 0
    outer loop
      vertex -1.85616 -1.85616 0.23999
      vertex -10.5182 6.8059 7.50096e-16
      vertex -10.5182 6.8059 0.23999
    endloop
  endfacet
  facet normal 0.707107 0.707107 0
    outer loop
      vertex -10.5182 6.8059 7.50096e-16
      vertex -1.85616 -1.85616 0.23999
      vertex -1.85616 -1.85616 0
    endloop
  endfacet
  facet normal 0.707107 0.707107 -0
    outer loop
      vertex -15.8215 12.1092 1.20934e-15
      vertex -17.9979 14.2855 0.23999
      vertex -15.8215 12.1092 0.23999
    endloop
  endfacet
  facet normal 0.707107 0.707107 2.68444e-06
    outer loop
      vertex -17.9979 14.2855 0.23999
      vertex -15.8215 12.1092 1.20934e-15
      vertex -18.0996 14.3873 1.40661e-15
    endloop
  endfacet
  facet normal 4.32978e-17 -4.32978e-17 1
    outer loop
      vertex -9.98788 7.33623 7.50096e-16
      vertex -1.85616 -1.85616 0
      vertex -1.32583 -1.32583 0
    endloop
  endfacet
  facet normal 4.32978e-17 -4.32978e-17 1
    outer loop
      vertex -1.85616 -1.85616 0
      vertex -9.98788 7.33623 7.50096e-16
      vertex -10.5182 6.8059 7.50096e-16
    endloop
  endfacet
  facet normal 4.32979e-17 -4.32978e-17 1
    outer loop
      vertex -17.5692 14.9176 1.40661e-15
      vertex -15.8215 12.1092 1.20934e-15
      vertex -15.2912 12.6395 1.20934e-15
    endloop
  endfacet
  facet normal 4.32978e-17 -4.32978e-17 1
    outer loop
      vertex -15.8215 12.1092 1.20934e-15
      vertex -17.5692 14.9176 1.40661e-15
      vertex -18.0996 14.3873 1.40661e-15
    endloop
  endfacet
  facet normal -0.707107 -0.707107 0
    outer loop
      vertex -1.32583 -1.32583 0
      vertex -9.98788 7.33623 0.23999
      vertex -9.98788 7.33623 7.50096e-16
    endloop
  endfacet
  facet normal -0.707107 -0.707107 0
    outer loop
      vertex -9.98788 7.33623 0.23999
      vertex -1.32583 -1.32583 0
      vertex -1.32583 -1.32583 0.23999
    endloop
  endfacet
  facet normal -0.707107 -0.707107 1.2546e-07
    outer loop
      vertex -15.2912 12.6395 1.20934e-15
      vertex -17.4675 14.8159 0.23999
      vertex -17.5692 14.9176 1.40661e-15
    endloop
  endfacet
  facet normal -0.707107 -0.707107 0
    outer loop
      vertex -17.4675 14.8159 0.23999
      vertex -15.2912 12.6395 1.20934e-15
      vertex -15.2912 12.6395 0.23999
    endloop
  endfacet
  facet normal 0 0 1
    outer loop
      vertex -9.45755 7.86656 0.23999
      vertex -1.32583 -1.32583 0.23999
      vertex -0.795495 -0.795495 0.23999
    endloop
  endfacet
  facet normal 0 0 1
    outer loop
      vertex -1.32583 -1.32583 0.23999
      vertex -9.45755 7.86656 0.23999
      vertex -9.98788 7.33623 0.23999
    endloop
  endfacet
  facet normal 0 0 1
    outer loop
      vertex -16.9372 15.3462 0.23999
      vertex -15.2912 12.6395 0.23999
      vertex -14.7609 13.1699 0.23999
    endloop
  endfacet
  facet normal 0 0 1
    outer loop
      vertex -15.2912 12.6395 0.23999
      vertex -16.9372 15.3462 0.23999
      vertex -17.4675 14.8159 0.23999
    endloop
  endfacet
  facet normal 0.707107 0.707107 0
    outer loop
      vertex -0.795495 -0.795495 0.23999
      vertex -9.45755 7.86656 7.50096e-16
      vertex -9.45755 7.86656 0.23999
    endloop
  endfacet
  facet normal 0.707107 0.707107 0
    outer loop
      vertex -9.45755 7.86656 7.50096e-16
      vertex -0.795495 -0.795495 0.23999
      vertex -0.795495 -0.795495 0
    endloop
  endfacet
  facet normal 0.707107 0.707107 -0
    outer loop
      vertex -14.7609 13.1699 1.20934e-15
      vertex -16.9372 15.3462 0.23999
      vertex -14.7609 13.1699 0.23999
    endloop
  endfacet
  facet normal 0.707107 0.707107 1.2546e-07
    outer loop
      vertex -16.9372 15.3462 0.23999
      vertex -14.7609 13.1699 1.20934e-15
      vertex -17.0389 15.4479 1.40661e-15
    endloop
  endfacet
  facet normal 4.32978e-17 -4.32978e-17 1
    outer loop
      vertex -8.92722 8.39689 7.50096e-16
      vertex -0.795495 -0.795495 0
      vertex -0.265165 -0.265165 0
    endloop
  endfacet
  facet normal 4.32978e-17 -4.32978e-17 1
    outer loop
      vertex -0.795495 -0.795495 0
      vertex -8.92722 8.39689 7.50096e-16
      vertex -9.45755 7.86656 7.50096e-16
    endloop
  endfacet
  facet normal 4.32979e-17 -4.32978e-17 1
    outer loop
      vertex -16.5086 15.9782 1.40661e-15
      vertex -14.7609 13.1699 1.20934e-15
      vertex -14.2305 13.7002 1.20934e-15
    endloop
  endfacet
  facet normal 4.32978e-17 -4.32978e-17 1
    outer loop
      vertex -14.7609 13.1699 1.20934e-15
      vertex -16.5086 15.9782 1.40661e-15
      vertex -17.0389 15.4479 1.40661e-15
    endloop
  endfacet
  facet normal -0.707107 -0.707107 0
    outer loop
      vertex -0.265165 -0.265165 0
      vertex -8.92722 8.39689 0.23999
      vertex -8.92722 8.39689 7.50096e-16
    endloop
  endfacet
  facet normal -0.707107 -0.707107 0
    outer loop
      vertex -8.92722 8.39689 0.23999
      vertex -0.265165 -0.265165 0
      vertex -0.265165 -0.265165 0.23999
    endloop
  endfacet
  facet normal -0.707107 -0.707107 -2.8099e-06
    outer loop
      vertex -14.2305 13.7002 1.20934e-15
      vertex -16.4069 15.8765 0.23999
      vertex -16.5086 15.9782 1.40661e-15
    endloop
  endfacet
  facet normal -0.707107 -0.707107 0
    outer loop
      vertex -16.4069 15.8765 0.23999
      vertex -14.2305 13.7002 1.20934e-15
      vertex -14.2305 13.7002 0.23999
    endloop
  endfacet
  facet normal 0 0 1
    outer loop
      vertex -8.39689 8.92722 0.23999
      vertex -0.265165 -0.265165 0.23999
      vertex 0.265165 0.265165 0.23999
    endloop
  endfacet
  facet normal 0 0 1
    outer loop
      vertex -0.265165 -0.265165 0.23999
      vertex -8.39689 8.92722 0.23999
      vertex -8.92722 8.39689 0.23999
    endloop
  endfacet
  facet normal 0 0 1
    outer loop
      vertex -15.8765 16.4069 0.23999
      vertex -14.2305 13.7002 0.23999
      vertex -13.7002 14.2305 0.23999
    endloop
  endfacet
  facet normal 0 0 1
    outer loop
      vertex -14.2305 13.7002 0.23999
      vertex -15.8765 16.4069 0.23999
      vertex -16.4069 15.8765 0.23999
    endloop
  endfacet
  facet normal 0.707107 0.707107 0
    outer loop
      vertex 0.265165 0.265165 0.23999
      vertex -8.39689 8.92722 7.50096e-16
      vertex -8.39689 8.92722 0.23999
    endloop
  endfacet
  facet normal 0.707107 0.707107 0
    outer loop
      vertex -8.39689 8.92722 7.50096e-16
      vertex 0.265165 0.265165 0.23999
      vertex 0.265165 0.265165 0
    endloop
  endfacet
  facet normal 0.707107 0.707107 -0
    outer loop
      vertex -13.7002 14.2305 1.20934e-15
      vertex -15.8765 16.4069 0.23999
      vertex -13.7002 14.2305 0.23999
    endloop
  endfacet
  facet normal 0.707107 0.707107 -2.8099e-06
    outer loop
      vertex -15.8765 16.4069 0.23999
      vertex -13.7002 14.2305 1.20934e-15
      vertex -15.9782 16.5086 1.40661e-15
    endloop
  endfacet
  facet normal 4.32978e-17 -4.32978e-17 1
    outer loop
      vertex -7.86656 9.45755 7.50096e-16
      vertex 0.265165 0.265165 0
      vertex 0.795495 0.795495 0
    endloop
  endfacet
  facet normal 4.32978e-17 -4.32978e-17 1
    outer loop
      vertex 0.265165 0.265165 0
      vertex -7.86656 9.45755 7.50096e-16
      vertex -8.39689 8.92722 7.50096e-16
    endloop
  endfacet
  facet normal 4.32978e-17 -4.32978e-17 1
    outer loop
      vertex -15.4479 17.0389 1.40661e-15
      vertex -13.7002 14.2305 1.20934e-15
      vertex -13.1699 14.7609 1.20934e-15
    endloop
  endfacet
  facet normal 4.32978e-17 -4.32978e-17 1
    outer loop
      vertex -13.7002 14.2305 1.20934e-15
      vertex -15.4479 17.0389 1.40661e-15
      vertex -15.9782 16.5086 1.40661e-15
    endloop
  endfacet
  facet normal -0.707107 -0.707107 0
    outer loop
      vertex 0.795495 0.795495 0
      vertex -7.86656 9.45755 0.23999
      vertex -7.86656 9.45755 7.50096e-16
    endloop
  endfacet
  facet normal -0.707107 -0.707107 0
    outer loop
      vertex -7.86656 9.45755 0.23999
      vertex 0.795495 0.795495 0
      vertex 0.795495 0.795495 0.23999
    endloop
  endfacet
  facet normal -0.707107 -0.707107 1.2546e-07
    outer loop
      vertex -13.1699 14.7609 1.20934e-15
      vertex -15.3462 16.9372 0.23999
      vertex -15.4479 17.0389 1.40661e-15
    endloop
  endfacet
  facet normal -0.707107 -0.707107 0
    outer loop
      vertex -15.3462 16.9372 0.23999
      vertex -13.1699 14.7609 1.20934e-15
      vertex -13.1699 14.7609 0.23999
    endloop
  endfacet
  facet normal 0 0 1
    outer loop
      vertex -7.33623 9.98788 0.23999
      vertex 0.795495 0.795495 0.23999
      vertex 1.32583 1.32583 0.23999
    endloop
  endfacet
  facet normal 0 0 1
    outer loop
      vertex 0.795495 0.795495 0.23999
      vertex -7.33623 9.98788 0.23999
      vertex -7.86656 9.45755 0.23999
    endloop
  endfacet
  facet normal 0 0 1
    outer loop
      vertex -14.8159 17.4675 0.23999
      vertex -13.1699 14.7609 0.23999
      vertex -12.6395 15.2912 0.23999
    endloop
  endfacet
  facet normal 0 0 1
    outer loop
      vertex -13.1699 14.7609 0.23999
      vertex -14.8159 17.4675 0.23999
      vertex -15.3462 16.9372 0.23999
    endloop
  endfacet
  facet normal 0.707107 0.707107 0
    outer loop
      vertex 1.32583 1.32583 0.23999
      vertex -7.33623 9.98788 7.50096e-16
      vertex -7.33623 9.98788 0.23999
    endloop
  endfacet
  facet normal 0.707107 0.707107 0
    outer loop
      vertex -7.33623 9.98788 7.50096e-16
      vertex 1.32583 1.32583 0.23999
      vertex 1.32583 1.32583 0
    endloop
  endfacet
  facet normal 0.707107 0.707107 -0
    outer loop
      vertex -12.6395 15.2912 1.20934e-15
      vertex -14.8159 17.4675 0.23999
      vertex -12.6395 15.2912 0.23999
    endloop
  endfacet
  facet normal 0.707107 0.707107 1.2546e-07
    outer loop
      vertex -14.8159 17.4675 0.23999
      vertex -12.6395 15.2912 1.20934e-15
      vertex -14.9176 17.5692 1.40661e-15
    endloop
  endfacet
  facet normal 4.32978e-17 -4.32978e-17 1
    outer loop
      vertex -6.8059 10.5182 7.50096e-16
      vertex 1.32583 1.32583 0
      vertex 1.85616 1.85616 0
    endloop
  endfacet
  facet normal 4.32978e-17 -4.32978e-17 1
    outer loop
      vertex 1.32583 1.32583 0
      vertex -6.8059 10.5182 7.50096e-16
      vertex -7.33623 9.98788 7.50096e-16
    endloop
  endfacet
  facet normal 4.32978e-17 -4.32978e-17 1
    outer loop
      vertex -14.3873 18.0996 1.40661e-15
      vertex -12.6395 15.2912 1.20934e-15
      vertex -12.1092 15.8215 1.20934e-15
    endloop
  endfacet
  facet normal 4.32979e-17 -4.32978e-17 1
    outer loop
      vertex -12.6395 15.2912 1.20934e-15
      vertex -14.3873 18.0996 1.40661e-15
      vertex -14.9176 17.5692 1.40661e-15
    endloop
  endfacet
  facet normal -0.707107 -0.707107 0
    outer loop
      vertex 1.85616 1.85616 0
      vertex -6.8059 10.5182 0.23999
      vertex -6.8059 10.5182 7.50096e-16
    endloop
  endfacet
  facet normal -0.707107 -0.707107 0
    outer loop
      vertex -6.8059 10.5182 0.23999
      vertex 1.85616 1.85616 0
      vertex 1.85616 1.85616 0.23999
    endloop
  endfacet
  facet normal -0.707107 -0.707107 2.68444e-06
    outer loop
      vertex -12.1092 15.8215 1.20934e-15
      vertex -14.2855 17.9979 0.23999
      vertex -14.3873 18.0996 1.40661e-15
    endloop
  endfacet
  facet normal -0.707107 -0.707107 0
    outer loop
      vertex -14.2855 17.9979 0.23999
      vertex -12.1092 15.8215 1.20934e-15
      vertex -12.1092 15.8215 0.23999
    endloop
  endfacet
  facet normal 0 0 1
    outer loop
      vertex -6.27557 11.0485 0.23999
      vertex 1.85616 1.85616 0.23999
      vertex 2.38649 2.38649 0.23999
    endloop
  endfacet
  facet normal 0 0 1
    outer loop
      vertex 1.85616 1.85616 0.23999
      vertex -6.27557 11.0485 0.23999
      vertex -6.8059 10.5182 0.23999
    endloop
  endfacet
  facet normal 0 0 1
    outer loop
      vertex -13.7552 18.5282 0.23999
      vertex -12.1092 15.8215 0.23999
      vertex -11.5789 16.3518 0.23999
    endloop
  endfacet
  facet normal 0 0 1
    outer loop
      vertex -12.1092 15.8215 0.23999
      vertex -13.7552 18.5282 0.23999
      vertex -14.2855 17.9979 0.23999
    endloop
  endfacet
  facet normal 0.707107 0.707107 0
    outer loop
      vertex 2.38649 2.38649 0.23999
      vertex -6.27557 11.0485 7.50096e-16
      vertex -6.27557 11.0485 0.23999
    endloop
  endfacet
  facet normal 0.707107 0.707107 0
    outer loop
      vertex -6.27557 11.0485 7.50096e-16
      vertex 2.38649 2.38649 0.23999
      vertex 2.38649 2.38649 0
    endloop
  endfacet
  facet normal 0.707107 0.707107 -0
    outer loop
      vertex -11.5789 16.3518 1.20934e-15
      vertex -13.7552 18.5282 0.23999
      vertex -11.5789 16.3518 0.23999
    endloop
  endfacet
  facet normal 0.707107 0.707107 0
    outer loop
      vertex -13.7552 18.5282 0.23999
      vertex -11.5789 16.3518 1.20934e-15
      vertex -13.8569 18.6299 1.40661e-15
    endloop
  endfacet
  facet normal 4.32978e-17 -4.32978e-17 1
    outer loop
      vertex 2.91682 2.91682 0
      vertex -6.01041 11.3137 7.50096e-16
      vertex 2.38649 2.38649 0
    endloop
  endfacet
  facet normal 4.32979e-17 -4.32977e-17 1
    outer loop
      vertex -13.3266 19.1602 1.40661e-15
      vertex -6.01041 11.3137 7.50096e-16
      vertex 2.91682 2.91682 0
    endloop
  endfacet
  facet normal 4.32977e-17 -4.32979e-17 1
    outer loop
      vertex -6.01041 11.3137 7.50096e-16
      vertex -13.3266 19.1602 1.40661e-15
      vertex -11.3137 16.617 1.20934e-15
    endloop
  endfacet
  facet normal 4.32979e-17 -4.32978e-17 1
    outer loop
      vertex -13.8569 18.6299 1.40661e-15
      vertex -11.3137 16.617 1.20934e-15
      vertex -13.3266 19.1602 1.40661e-15
    endloop
  endfacet
  facet normal 4.32978e-17 -4.32978e-17 1
    outer loop
      vertex -11.3137 16.617 1.20934e-15
      vertex -13.8569 18.6299 1.40661e-15
      vertex -11.5789 16.3518 1.20934e-15
    endloop
  endfacet
  facet normal 4.32977e-17 -4.32979e-17 1
    outer loop
      vertex 2.38649 2.38649 0
      vertex -6.01041 11.3137 7.50096e-16
      vertex -6.27557 11.0485 7.50096e-16
    endloop
  endfacet
  facet normal -0.707107 -0.707107 -2.80111e-06
    outer loop
      vertex 2.91682 2.91682 0
      vertex -13.2249 19.0585 0.23999
      vertex -13.3266 19.1602 1.40661e-15
    endloop
  endfacet
  facet normal -0.707107 -0.707107 0
    outer loop
      vertex -13.2249 19.0585 0.23999
      vertex 2.91682 2.91682 0
      vertex 2.91682 2.91682 0.23999
    endloop
  endfacet
  facet normal 0 0 1
    outer loop
      vertex -12.6946 19.5888 0.23999
      vertex 2.91682 2.91682 0.23999
      vertex 3.44715 3.44715 0.23999
    endloop
  endfacet
  facet normal 0 0 1
    outer loop
      vertex 2.91682 2.91682 0.23999
      vertex -12.6946 19.5888 0.23999
      vertex -13.2249 19.0585 0.23999
    endloop
  endfacet
  facet normal 0.707107 0.707107 -0
    outer loop
      vertex 3.44715 3.44715 0
      vertex -12.6946 19.5888 0.23999
      vertex 3.44715 3.44715 0.23999
    endloop
  endfacet
  facet normal 0.707107 0.707107 0
    outer loop
      vertex -12.6946 19.5888 0.23999
      vertex 3.44715 3.44715 0
      vertex -12.7963 19.6906 1.40661e-15
    endloop
  endfacet
  facet normal 4.32978e-17 -4.32978e-17 1
    outer loop
      vertex -12.2659 20.2209 1.40661e-15
      vertex 3.44715 3.44715 0
      vertex 3.97748 3.97748 0
    endloop
  endfacet
  facet normal 4.32978e-17 -4.32978e-17 1
    outer loop
      vertex 3.44715 3.44715 0
      vertex -12.2659 20.2209 1.40661e-15
      vertex -12.7963 19.6906 1.40661e-15
    endloop
  endfacet
  facet normal -0.707107 -0.707107 0
    outer loop
      vertex 3.97748 3.97748 0
      vertex -12.1642 20.1192 0.23999
      vertex -12.2659 20.2209 1.40661e-15
    endloop
  endfacet
  facet normal -0.707107 -0.707107 0
    outer loop
      vertex -12.1642 20.1192 0.23999
      vertex 3.97748 3.97748 0
      vertex 3.97748 3.97748 0.23999
    endloop
  endfacet
  facet normal 0 0 1
    outer loop
      vertex -11.6339 20.6495 0.23999
      vertex 3.97748 3.97748 0.23999
      vertex 4.50781 4.50781 0.23999
    endloop
  endfacet
  facet normal 0 0 1
    outer loop
      vertex 3.97748 3.97748 0.23999
      vertex -11.6339 20.6495 0.23999
      vertex -12.1642 20.1192 0.23999
    endloop
  endfacet
  facet normal 0.707107 0.707107 -0
    outer loop
      vertex 4.50781 4.50781 0
      vertex -11.6339 20.6495 0.23999
      vertex 4.50781 4.50781 0.23999
    endloop
  endfacet
  facet normal 0.707107 0.707107 2.8099e-06
    outer loop
      vertex -11.6339 20.6495 0.23999
      vertex 4.50781 4.50781 0
      vertex -11.7356 20.7512 1.40661e-15
    endloop
  endfacet
  facet normal 4.32978e-17 -4.32978e-17 1
    outer loop
      vertex -11.2937 21.1932 1.40661e-15
      vertex 4.50781 4.50781 0
      vertex 4.94975 4.94975 0
    endloop
  endfacet
  facet normal 4.32977e-17 -4.32979e-17 1
    outer loop
      vertex 4.50781 4.50781 0
      vertex -11.2937 21.1932 1.40661e-15
      vertex -11.7356 20.7512 1.40661e-15
    endloop
  endfacet
  facet normal 0.5 0.5 -0.707107
    outer loop
      vertex 4.24264 4.24264 -1
      vertex -11.2937 21.1932 1.40661e-15
      vertex 4.94975 4.94975 0
    endloop
  endfacet
  facet normal 0.5 0.5 -0.707107
    outer loop
      vertex -12.3736 20.8588 -1
      vertex -11.2937 21.1932 1.40661e-15
      vertex 4.24264 4.24264 -1
    endloop
  endfacet
  facet normal 0.500003 0.499995 -0.707108
    outer loop
      vertex -11.2937 21.1932 1.40661e-15
      vertex -12.3736 20.8588 -1
      vertex -11.7789 21.0716 -0.429049
    endloop
  endfacet
  facet normal 0 0 -1
    outer loop
      vertex -4.24264 -4.24264 -1
      vertex -11.3137 7.07107 -1
      vertex -7.07107 11.3137 -1
    endloop
  endfacet
  facet normal 0 0 -1
    outer loop
      vertex -20.8588 12.3736 -1
      vertex -11.3137 7.07107 -1
      vertex -4.24264 -4.24264 -1
    endloop
  endfacet
  facet normal 0 0 -1
    outer loop
      vertex -11.3137 7.07107 -1
      vertex -20.8588 12.3736 -1
      vertex -15.5563 11.3137 -1
    endloop
  endfacet
  facet normal 0 0 -1
    outer loop
      vertex -7.07107 11.3137 -1
      vertex 4.24264 4.24264 -1
      vertex -4.24264 -4.24264 -1
    endloop
  endfacet
  facet normal 0 0 -1
    outer loop
      vertex -12.3736 20.8588 -1
      vertex -7.07107 11.3137 -1
      vertex -11.3137 15.5563 -1
    endloop
  endfacet
  facet normal 0 0 -1
    outer loop
      vertex -7.07107 11.3137 -1
      vertex -12.3736 20.8588 -1
      vertex 4.24264 4.24264 -1
    endloop
  endfacet
  facet normal 0 0 -1
    outer loop
      vertex -15.5563 11.3137 -1
      vertex -12.3736 20.8588 -1
      vertex -11.3137 15.5563 -1
    endloop
  endfacet
  facet normal 0 0 -1
    outer loop
      vertex -12.3736 20.8588 -1
      vertex -15.5563 11.3137 -1
      vertex -20.8588 12.3736 -1
    endloop
  endfacet
  facet normal -0.5 -0.5 -0.707107
    outer loop
      vertex -21.1932 11.2937 1.40661e-15
      vertex -4.24264 -4.24264 -1
      vertex -4.94975 -4.94975 0
    endloop
  endfacet
  facet normal -0.5 -0.5 -0.707107
    outer loop
      vertex -4.24264 -4.24264 -1
      vertex -21.1932 11.2937 1.40661e-15
      vertex -20.8588 12.3736 -1
    endloop
  endfacet
  facet normal -0.499995 -0.500003 -0.707108
    outer loop
      vertex -20.8588 12.3736 -1
      vertex -21.1932 11.2937 1.40661e-15
      vertex -21.0716 11.7789 -0.429049
    endloop
  endfacet
  facet normal -0.606508 0.606505 0.514101
    outer loop
      vertex -21.0716 11.7789 -0.429049
      vertex -21.1932 11.2937 1.40661e-15
      vertex -20.7512 11.7356 1.40661e-15
    endloop
  endfacet
  facet normal -0.606505 0.606508 0.514101
    outer loop
      vertex -11.7789 21.0716 -0.429049
      vertex -11.7356 20.7512 1.40661e-15
      vertex -11.2937 21.1932 1.40661e-15
    endloop
  endfacet
  facet normal -0.606505 0.606503 0.514107
    outer loop
      vertex -11.7356 20.7512 1.40661e-15
      vertex -12.2659 20.2209 1.40661e-15
      vertex -11.6339 20.6495 0.23999
    endloop
  endfacet
  facet normal -0.606507 0.606506 0.514101
    outer loop
      vertex -11.7789 21.0716 -0.429049
      vertex -12.2659 20.2209 1.40661e-15
      vertex -11.7356 20.7512 1.40661e-15
    endloop
  endfacet
  facet normal -0.606507 0.606506 0.514101
    outer loop
      vertex -11.7789 21.0716 -0.429049
      vertex -12.7963 19.6906 1.40661e-15
      vertex -12.2659 20.2209 1.40661e-15
    endloop
  endfacet
  facet normal -0.606505 0.606507 0.514102
    outer loop
      vertex -12.7963 19.6906 1.40661e-15
      vertex -13.3266 19.1602 1.40661e-15
      vertex -12.6946 19.5888 0.23999
    endloop
  endfacet
  facet normal -0.606503 0.606505 0.514107
    outer loop
      vertex -11.7789 21.0716 -0.429049
      vertex -13.3266 19.1602 1.40661e-15
      vertex -12.7963 19.6906 1.40661e-15
    endloop
  endfacet
  facet normal -0.606508 0.606507 0.514098
    outer loop
      vertex -11.7789 21.0716 -0.429049
      vertex -13.8569 18.6299 1.40661e-15
      vertex -13.3266 19.1602 1.40661e-15
    endloop
  endfacet
  facet normal -0.606506 0.606506 0.514102
    outer loop
      vertex -13.8569 18.6299 1.40661e-15
      vertex -14.3873 18.0996 1.40661e-15
      vertex -13.7552 18.5282 0.23999
    endloop
  endfacet
  facet normal -0.606506 0.606506 0.514102
    outer loop
      vertex -11.7789 21.0716 -0.429049
      vertex -14.3873 18.0996 1.40661e-15
      vertex -13.8569 18.6299 1.40661e-15
    endloop
  endfacet
  facet normal -0.606509 0.606508 0.514097
    outer loop
      vertex -11.7789 21.0716 -0.429049
      vertex -14.9176 17.5692 1.40661e-15
      vertex -14.3873 18.0996 1.40661e-15
    endloop
  endfacet
  facet normal -0.606506 0.606507 0.514102
    outer loop
      vertex -14.9176 17.5692 1.40661e-15
      vertex -15.4479 17.0389 1.40661e-15
      vertex -14.8159 17.4675 0.23999
    endloop
  endfacet
  facet normal -0.606502 0.606504 0.514109
    outer loop
      vertex -11.7789 21.0716 -0.429049
      vertex -15.4479 17.0389 1.40661e-15
      vertex -14.9176 17.5692 1.40661e-15
    endloop
  endfacet
  facet normal -0.606506 0.606506 0.514102
    outer loop
      vertex -11.7789 21.0716 -0.429049
      vertex -15.9782 16.5086 1.40661e-15
      vertex -15.4479 17.0389 1.40661e-15
    endloop
  endfacet
  facet normal -0.606505 0.606505 0.514103
    outer loop
      vertex -15.9782 16.5086 1.40661e-15
      vertex -16.5086 15.9782 1.40661e-15
      vertex -15.8765 16.4069 0.23999
    endloop
  endfacet
  facet normal -0.606506 0.606506 0.514102
    outer loop
      vertex -11.7789 21.0716 -0.429049
      vertex -16.5086 15.9782 1.40661e-15
      vertex -15.9782 16.5086 1.40661e-15
    endloop
  endfacet
  facet normal -0.606506 0.606506 0.514102
    outer loop
      vertex -21.0716 11.7789 -0.429049
      vertex -16.5086 15.9782 1.40661e-15
      vertex -11.7789 21.0716 -0.429049
    endloop
  endfacet
  facet normal -0.606507 0.606506 0.514102
    outer loop
      vertex -17.0389 15.4479 1.40661e-15
      vertex -17.5692 14.9176 1.40661e-15
      vertex -16.9372 15.3462 0.23999
    endloop
  endfacet
  facet normal -0.606506 0.606506 0.514102
    outer loop
      vertex -16.5086 15.9782 1.40661e-15
      vertex -21.0716 11.7789 -0.429049
      vertex -17.0389 15.4479 1.40661e-15
    endloop
  endfacet
  facet normal -0.606504 0.606502 0.514109
    outer loop
      vertex -17.0389 15.4479 1.40661e-15
      vertex -21.0716 11.7789 -0.429049
      vertex -17.5692 14.9176 1.40661e-15
    endloop
  endfacet
  facet normal -0.606505 0.606505 0.514103
    outer loop
      vertex -18.0996 14.3873 1.40661e-15
      vertex -18.6299 13.8569 1.40661e-15
      vertex -17.9979 14.2855 0.23999
    endloop
  endfacet
  facet normal -0.606508 0.606509 0.514097
    outer loop
      vertex -17.5692 14.9176 1.40661e-15
      vertex -21.0716 11.7789 -0.429049
      vertex -18.0996 14.3873 1.40661e-15
    endloop
  endfacet
  facet normal -0.606506 0.606506 0.514102
    outer loop
      vertex -18.0996 14.3873 1.40661e-15
      vertex -21.0716 11.7789 -0.429049
      vertex -18.6299 13.8569 1.40661e-15
    endloop
  endfacet
  facet normal -0.606505 0.606503 0.514107
    outer loop
      vertex -19.1602 13.3266 1.40661e-15
      vertex -19.6906 12.7963 1.40661e-15
      vertex -19.0585 13.2249 0.23999
    endloop
  endfacet
  facet normal -0.606507 0.606508 0.514098
    outer loop
      vertex -18.6299 13.8569 1.40661e-15
      vertex -21.0716 11.7789 -0.429049
      vertex -19.1602 13.3266 1.40661e-15
    endloop
  endfacet
  facet normal -0.606505 0.606503 0.514107
    outer loop
      vertex -19.1602 13.3266 1.40661e-15
      vertex -21.0716 11.7789 -0.429049
      vertex -19.6906 12.7963 1.40661e-15
    endloop
  endfacet
  facet normal -0.606506 0.606507 0.514101
    outer loop
      vertex -19.6906 12.7963 1.40661e-15
      vertex -21.0716 11.7789 -0.429049
      vertex -20.2209 12.2659 1.40661e-15
    endloop
  endfacet
  facet normal -0.606506 0.606507 0.514101
    outer loop
      vertex -20.7512 11.7356 1.40661e-15
      vertex -20.2209 12.2659 1.40661e-15
      vertex -21.0716 11.7789 -0.429049
    endloop
  endfacet
  facet normal -0.606506 0.606507 0.514102
    outer loop
      vertex -20.2209 12.2659 1.40661e-15
      vertex -20.7512 11.7356 1.40661e-15
      vertex -20.1192 12.1642 0.23999
    endloop
  endfacet
  facet normal -0.606505 0.606503 0.514107
    outer loop
      vertex -20.1192 12.1642 0.23999
      vertex -20.7512 11.7356 1.40661e-15
      vertex -20.6495 11.6339 0.23999
    endloop
  endfacet
  facet normal -0.606505 0.606507 0.514102
    outer loop
      vertex -11.6339 20.6495 0.23999
      vertex -12.2659 20.2209 1.40661e-15
      vertex -12.1642 20.1192 0.23999
    endloop
  endfacet
  facet normal -0.606505 0.606503 0.514107
    outer loop
      vertex -12.6946 19.5888 0.23999
      vertex -13.3266 19.1602 1.40661e-15
      vertex -13.2249 19.0585 0.23999
    endloop
  endfacet
  facet normal -0.606506 0.606505 0.514103
    outer loop
      vertex -13.7552 18.5282 0.23999
      vertex -14.3873 18.0996 1.40661e-15
      vertex -14.2855 17.9979 0.23999
    endloop
  endfacet
  facet normal -0.606506 0.606507 0.514102
    outer loop
      vertex -14.8159 17.4675 0.23999
      vertex -15.4479 17.0389 1.40661e-15
      vertex -15.3462 16.9372 0.23999
    endloop
  endfacet
  facet normal -0.606505 0.606505 0.514103
    outer loop
      vertex -15.8765 16.4069 0.23999
      vertex -16.5086 15.9782 1.40661e-15
      vertex -16.4069 15.8765 0.23999
    endloop
  endfacet
  facet normal -0.606507 0.606506 0.514102
    outer loop
      vertex -16.9372 15.3462 0.23999
      vertex -17.5692 14.9176 1.40661e-15
      vertex -17.4675 14.8159 0.23999
    endloop
  endfacet
  facet normal -0.606506 0.606507 0.514102
    outer loop
      vertex -17.9979 14.2855 0.23999
      vertex -18.6299 13.8569 1.40661e-15
      vertex -18.5282 13.7552 0.23999
    endloop
  endfacet
  facet normal -0.606506 0.606507 0.514102
    outer loop
      vertex -19.0585 13.2249 0.23999
      vertex -19.6906 12.7963 1.40661e-15
      vertex -19.5888 12.6946 0.23999
    endloop
  endfacet
  facet normal -0.639217 0.639217 0.427556
    outer loop
      vertex -20.8588 12.3736 -1
      vertex -11.7789 21.0716 -0.429049
      vertex -12.3736 20.8588 -1
    endloop
  endfacet
  facet normal -0.639217 0.639217 0.427556
    outer loop
      vertex -11.7789 21.0716 -0.429049
      vertex -20.8588 12.3736 -1
      vertex -21.0716 11.7789 -0.429049
    endloop
  endfacet
  facet normal 0.707107 0.707107 0
    outer loop
      vertex -6.01041 11.3137 0.48
      vertex -11.3137 16.617 1.20934e-15
      vertex -11.3137 16.617 0.48
    endloop
  endfacet
  facet normal 0.707107 0.707107 0
    outer loop
      vertex -11.3137 16.617 1.20934e-15
      vertex -6.01041 11.3137 0.48
      vertex -6.01041 11.3137 7.50096e-16
    endloop
  endfacet
  facet normal -0.707107 0.707107 0
    outer loop
      vertex -16.3518 11.5789 1.20934e-15
      vertex -16.617 11.3137 1.20934e-15
      vertex -16.3518 11.5789 0.23999
    endloop
  endfacet
  facet normal -0.707107 0.707106 0
    outer loop
      vertex -15.2912 12.6395 1.20934e-15
      vertex -15.8215 12.1092 1.20934e-15
      vertex -15.2912 12.6395 0.23999
    endloop
  endfacet
  facet normal -0.707107 0.707106 0
    outer loop
      vertex -14.2305 13.7002 1.20934e-15
      vertex -14.7609 13.1699 1.20934e-15
      vertex -14.2305 13.7002 0.23999
    endloop
  endfacet
  facet normal -0.707106 0.707107 0
    outer loop
      vertex -13.1699 14.7609 1.20934e-15
      vertex -13.7002 14.2305 1.20934e-15
      vertex -13.1699 14.7609 0.23999
    endloop
  endfacet
  facet normal -0.707106 0.707107 0
    outer loop
      vertex -12.1092 15.8215 1.20934e-15
      vertex -12.6395 15.2912 1.20934e-15
      vertex -12.1092 15.8215 0.23999
    endloop
  endfacet
  facet normal -0.707107 0.707107 0
    outer loop
      vertex -11.5789 16.3518 0.23999
      vertex -11.3137 16.617 1.20934e-15
      vertex -11.5789 16.3518 1.20934e-15
    endloop
  endfacet
  facet normal -0.707107 0.707107 0
    outer loop
      vertex -11.3137 16.617 1.20934e-15
      vertex -11.5789 16.3518 0.23999
      vertex -11.3137 16.617 0.48
    endloop
  endfacet
  facet normal -0.707107 0.707106 1.40484e-06
    outer loop
      vertex -12.1092 15.8215 0.23999
      vertex -11.3137 16.617 0.48
      vertex -11.5789 16.3518 0.23999
    endloop
  endfacet
  facet normal -0.707106 0.707107 0
    outer loop
      vertex -12.6395 15.2912 0.23999
      vertex -12.1092 15.8215 0.23999
      vertex -12.6395 15.2912 1.20934e-15
    endloop
  endfacet
  facet normal -0.707106 0.707107 -7.0242e-06
    outer loop
      vertex -12.6395 15.2912 0.23999
      vertex -11.3137 16.617 0.48
      vertex -12.1092 15.8215 0.23999
    endloop
  endfacet
  facet normal -0.707107 0.707106 7.0242e-06
    outer loop
      vertex -13.1699 14.7609 0.23999
      vertex -11.3137 16.617 0.48
      vertex -12.6395 15.2912 0.23999
    endloop
  endfacet
  facet normal -0.707106 0.707107 0
    outer loop
      vertex -13.7002 14.2305 0.23999
      vertex -13.1699 14.7609 0.23999
      vertex -13.7002 14.2305 1.20934e-15
    endloop
  endfacet
  facet normal -0.707106 0.707107 -1.26436e-05
    outer loop
      vertex -13.7002 14.2305 0.23999
      vertex -11.3137 16.617 0.48
      vertex -13.1699 14.7609 0.23999
    endloop
  endfacet
  facet normal -0.707107 0.707107 0
    outer loop
      vertex -14.2305 13.7002 0.23999
      vertex -11.3137 16.617 0.48
      vertex -13.7002 14.2305 0.23999
    endloop
  endfacet
  facet normal -0.707107 0.707106 0
    outer loop
      vertex -14.7609 13.1699 0.23999
      vertex -14.2305 13.7002 0.23999
      vertex -14.7609 13.1699 1.20934e-15
    endloop
  endfacet
  facet normal -0.707107 0.707106 -1.26436e-05
    outer loop
      vertex -16.617 11.3137 0.48
      vertex -14.2305 13.7002 0.23999
      vertex -14.7609 13.1699 0.23999
    endloop
  endfacet
  facet normal -0.707106 0.707107 7.0242e-06
    outer loop
      vertex -16.617 11.3137 0.48
      vertex -14.7609 13.1699 0.23999
      vertex -15.2912 12.6395 0.23999
    endloop
  endfacet
  facet normal -0.707107 0.707106 0
    outer loop
      vertex -15.8215 12.1092 0.23999
      vertex -15.2912 12.6395 0.23999
      vertex -15.8215 12.1092 1.20934e-15
    endloop
  endfacet
  facet normal -0.707107 0.707106 -7.0242e-06
    outer loop
      vertex -16.617 11.3137 0.48
      vertex -15.2912 12.6395 0.23999
      vertex -15.8215 12.1092 0.23999
    endloop
  endfacet
  facet normal -0.707106 0.707107 1.40484e-06
    outer loop
      vertex -16.617 11.3137 0.48
      vertex -15.8215 12.1092 0.23999
      vertex -16.3518 11.5789 0.23999
    endloop
  endfacet
  facet normal -0.707107 0.707107 0
    outer loop
      vertex -14.2305 13.7002 0.23999
      vertex -16.617 11.3137 0.48
      vertex -11.3137 16.617 0.48
    endloop
  endfacet
  facet normal -0.707107 0.707107 0
    outer loop
      vertex -16.617 11.3137 0.48
      vertex -16.3518 11.5789 0.23999
      vertex -16.617 11.3137 1.20934e-15
    endloop
  endfacet
  facet normal -0.707107 -0.707107 0
    outer loop
      vertex -16.617 11.3137 1.20934e-15
      vertex -11.3137 6.01041 0.48
      vertex -16.617 11.3137 0.48
    endloop
  endfacet
  facet normal -0.707107 -0.707107 -0
    outer loop
      vertex -11.3137 6.01041 0.48
      vertex -16.617 11.3137 1.20934e-15
      vertex -11.3137 6.01041 7.50096e-16
    endloop
  endfacet
  facet normal 0.707106 -0.707108 0
    outer loop
      vertex -6.01041 11.3137 0.48
      vertex -6.27557 11.0485 0.23999
      vertex -6.01041 11.3137 7.50096e-16
    endloop
  endfacet
  facet normal 0.707107 -0.707106 -3.5121e-06
    outer loop
      vertex -6.01041 11.3137 0.48
      vertex -6.8059 10.5182 0.23999
      vertex -6.27557 11.0485 0.23999
    endloop
  endfacet
  facet normal 0.707107 -0.707107 0
    outer loop
      vertex -6.8059 10.5182 0.23999
      vertex -7.33623 9.98788 0.23999
      vertex -6.8059 10.5182 7.50096e-16
    endloop
  endfacet
  facet normal 0.707107 -0.707107 -1.40484e-06
    outer loop
      vertex -6.01041 11.3137 0.48
      vertex -7.33623 9.98788 0.23999
      vertex -6.8059 10.5182 0.23999
    endloop
  endfacet
  facet normal 0.707107 -0.707106 -4.91694e-06
    outer loop
      vertex -6.01041 11.3137 0.48
      vertex -7.86656 9.45755 0.23999
      vertex -7.33623 9.98788 0.23999
    endloop
  endfacet
  facet normal 0.707106 -0.707107 0
    outer loop
      vertex -7.86656 9.45755 0.23999
      vertex -8.39689 8.92722 0.23999
      vertex -7.86656 9.45755 7.50096e-16
    endloop
  endfacet
  facet normal 0.707106 -0.707107 9.83388e-06
    outer loop
      vertex -6.01041 11.3137 0.48
      vertex -8.39689 8.92722 0.23999
      vertex -7.86656 9.45755 0.23999
    endloop
  endfacet
  facet normal 0.707107 -0.707107 -2.80968e-06
    outer loop
      vertex -6.01041 11.3137 0.48
      vertex -8.92722 8.39689 0.23999
      vertex -8.39689 8.92722 0.23999
    endloop
  endfacet
  facet normal 0.707107 -0.707106 0
    outer loop
      vertex -8.92722 8.39689 0.23999
      vertex -9.45755 7.86656 0.23999
      vertex -8.92722 8.39689 7.50096e-16
    endloop
  endfacet
  facet normal 0.707107 -0.707107 -2.80968e-06
    outer loop
      vertex -11.3137 6.01041 0.48
      vertex -8.92722 8.39689 0.23999
      vertex -6.01041 11.3137 0.48
    endloop
  endfacet
  facet normal 0.707107 -0.707106 9.83388e-06
    outer loop
      vertex -8.92722 8.39689 0.23999
      vertex -11.3137 6.01041 0.48
      vertex -9.45755 7.86656 0.23999
    endloop
  endfacet
  facet normal 0.707107 -0.707107 0
    outer loop
      vertex -9.98788 7.33623 0.23999
      vertex -10.5182 6.8059 0.23999
      vertex -9.98788 7.33623 7.50096e-16
    endloop
  endfacet
  facet normal 0.707106 -0.707107 -4.91694e-06
    outer loop
      vertex -9.45755 7.86656 0.23999
      vertex -11.3137 6.01041 0.48
      vertex -9.98788 7.33623 0.23999
    endloop
  endfacet
  facet normal 0.707107 -0.707107 -1.40484e-06
    outer loop
      vertex -9.98788 7.33623 0.23999
      vertex -11.3137 6.01041 0.48
      vertex -10.5182 6.8059 0.23999
    endloop
  endfacet
  facet normal 0.707106 -0.707107 -3.5121e-06
    outer loop
      vertex -10.5182 6.8059 0.23999
      vertex -11.3137 6.01041 0.48
      vertex -11.0485 6.27557 0.23999
    endloop
  endfacet
  facet normal 0.707108 -0.707106 0
    outer loop
      vertex -11.3137 6.01041 7.50096e-16
      vertex -11.0485 6.27557 0.23999
      vertex -11.3137 6.01041 0.48
    endloop
  endfacet
  facet normal 0.707108 -0.707106 0
    outer loop
      vertex -11.0485 6.27557 0.23999
      vertex -11.3137 6.01041 7.50096e-16
      vertex -11.0485 6.27557 7.50096e-16
    endloop
  endfacet
  facet normal 0.707106 -0.707108 0
    outer loop
      vertex -6.01041 11.3137 7.50096e-16
      vertex -6.27557 11.0485 0.23999
      vertex -6.27557 11.0485 7.50096e-16
    endloop
  endfacet
  facet normal 0.707107 -0.707107 0
    outer loop
      vertex -6.8059 10.5182 7.50096e-16
      vertex -7.33623 9.98788 0.23999
      vertex -7.33623 9.98788 7.50096e-16
    endloop
  endfacet
  facet normal 0.707106 -0.707107 0
    outer loop
      vertex -7.86656 9.45755 7.50096e-16
      vertex -8.39689 8.92722 0.23999
      vertex -8.39689 8.92722 7.50096e-16
    endloop
  endfacet
  facet normal 0.707107 -0.707106 0
    outer loop
      vertex -8.92722 8.39689 7.50096e-16
      vertex -9.45755 7.86656 0.23999
      vertex -9.45755 7.86656 7.50096e-16
    endloop
  endfacet
  facet normal 0.707107 -0.707107 0
    outer loop
      vertex -9.98788 7.33623 7.50096e-16
      vertex -10.5182 6.8059 0.23999
      vertex -10.5182 6.8059 7.50096e-16
    endloop
  endfacet
  facet normal 0 0 1
    outer loop
      vertex -10.6066 11.3137 0.48
      vertex -9.54594 8.83883 0.48
      vertex -8.83883 9.54594 0.48
    endloop
  endfacet
  facet normal 0 0 1
    outer loop
      vertex -11.3137 10.6066 0.48
      vertex -10.6066 11.3137 0.48
      vertex -11.3137 12.0208 0.48
    endloop
  endfacet
  facet normal 0 0 1
    outer loop
      vertex -10.6066 11.3137 0.48
      vertex -11.3137 10.6066 0.48
      vertex -9.54594 8.83883 0.48
    endloop
  endfacet
  facet normal 0 0 1
    outer loop
      vertex -11.3137 12.0208 0.48
      vertex -12.0208 11.3137 0.48
      vertex -11.3137 10.6066 0.48
    endloop
  endfacet
  facet normal 0 0 1
    outer loop
      vertex -13.0815 13.7886 0.48
      vertex -12.0208 11.3137 0.48
      vertex -11.3137 12.0208 0.48
    endloop
  endfacet
  facet normal 0 0 1
    outer loop
      vertex -12.0208 11.3137 0.48
      vertex -13.0815 13.7886 0.48
      vertex -13.7886 13.0815 0.48
    endloop
  endfacet
  facet normal 0 0 1
    outer loop
      vertex -6.01041 11.3137 0.48
      vertex -8.83883 13.0815 0.48
      vertex -7.07107 11.3137 0.48
    endloop
  endfacet
  facet normal 0 0 1
    outer loop
      vertex -6.01041 11.3137 0.48
      vertex -9.54594 13.7886 0.48
      vertex -8.83883 13.0815 0.48
    endloop
  endfacet
  facet normal 0 0 1
    outer loop
      vertex -11.3137 16.617 0.48
      vertex -9.54594 13.7886 0.48
      vertex -6.01041 11.3137 0.48
    endloop
  endfacet
  facet normal 0 0 1
    outer loop
      vertex -11.3137 16.617 0.48
      vertex -11.3137 15.5563 0.48
      vertex -9.54594 13.7886 0.48
    endloop
  endfacet
  facet normal 0 0 1
    outer loop
      vertex -11.3137 16.617 0.48
      vertex -13.0815 13.7886 0.48
      vertex -11.3137 15.5563 0.48
    endloop
  endfacet
  facet normal 0 0 1
    outer loop
      vertex -11.3137 16.617 0.48
      vertex -13.7886 13.0815 0.48
      vertex -13.0815 13.7886 0.48
    endloop
  endfacet
  facet normal 0 0 1
    outer loop
      vertex -16.617 11.3137 0.48
      vertex -13.7886 13.0815 0.48
      vertex -11.3137 16.617 0.48
    endloop
  endfacet
  facet normal 0 0 1
    outer loop
      vertex -13.7886 13.0815 0.48
      vertex -16.617 11.3137 0.48
      vertex -15.5563 11.3137 0.48
    endloop
  endfacet
  facet normal 0 0 1
    outer loop
      vertex -8.83883 9.54594 0.48
      vertex -6.01041 11.3137 0.48
      vertex -7.07107 11.3137 0.48
    endloop
  endfacet
  facet normal 0 0 1
    outer loop
      vertex -9.54594 8.83883 0.48
      vertex -6.01041 11.3137 0.48
      vertex -8.83883 9.54594 0.48
    endloop
  endfacet
  facet normal 0 0 1
    outer loop
      vertex -11.3137 6.01041 0.48
      vertex -9.54594 8.83883 0.48
      vertex -11.3137 7.07107 0.48
    endloop
  endfacet
  facet normal -0 0 1
    outer loop
      vertex -9.54594 8.83883 0.48
      vertex -11.3137 6.01041 0.48
      vertex -6.01041 11.3137 0.48
    endloop
  endfacet
  facet normal 0 0 1
    outer loop
      vertex -13.0815 8.83883 0.48
      vertex -11.3137 6.01041 0.48
      vertex -11.3137 7.07107 0.48
    endloop
  endfacet
  facet normal 0 0 1
    outer loop
      vertex -13.7886 9.54594 0.48
      vertex -11.3137 6.01041 0.48
      vertex -13.0815 8.83883 0.48
    endloop
  endfacet
  facet normal -0 0 1
    outer loop
      vertex -16.617 11.3137 0.48
      vertex -13.7886 9.54594 0.48
      vertex -15.5563 11.3137 0.48
    endloop
  endfacet
  facet normal 0 0 1
    outer loop
      vertex -13.7886 9.54594 0.48
      vertex -16.617 11.3137 0.48
      vertex -11.3137 6.01041 0.48
    endloop
  endfacet
  facet normal 0 0 1
    outer loop
      vertex -9.54594 13.7886 0.48
      vertex -10.6066 11.3137 0.48
      vertex -8.83883 13.0815 0.48
    endloop
  endfacet
  facet normal 0 -0 1
    outer loop
      vertex -10.6066 11.3137 0.48
      vertex -9.54594 13.7886 0.48
      vertex -11.3137 12.0208 0.48
    endloop
  endfacet
  facet normal 0 0 1
    outer loop
      vertex -12.0208 11.3137 0.48
      vertex -13.0815 8.83883 0.48
      vertex -11.3137 10.6066 0.48
    endloop
  endfacet
  facet normal 0 -0 1
    outer loop
      vertex -13.0815 8.83883 0.48
      vertex -12.0208 11.3137 0.48
      vertex -13.7886 9.54594 0.48
    endloop
  endfacet
  facet normal -0.707107 -0.707107 0
    outer loop
      vertex -11.3137 15.5563 -1
      vertex -9.54594 13.7886 -0.02
      vertex -11.3137 15.5563 0.48
    endloop
  endfacet
  facet normal -0.707107 -0.707107 0
    outer loop
      vertex -11.3137 15.5563 -1
      vertex -8.83883 13.0815 -0.02
      vertex -9.54594 13.7886 -0.02
    endloop
  endfacet
  facet normal -0.707107 -0.707107 0
    outer loop
      vertex -7.07107 11.3137 -1
      vertex -8.83883 13.0815 -0.02
      vertex -11.3137 15.5563 -1
    endloop
  endfacet
  facet normal -0.707107 -0.707107 -0
    outer loop
      vertex -7.07107 11.3137 0.48
      vertex -8.83883 13.0815 -0.02
      vertex -7.07107 11.3137 -1
    endloop
  endfacet
  facet normal -0.707107 -0.707107 0
    outer loop
      vertex -8.83883 13.0815 -0.02
      vertex -7.07107 11.3137 0.48
      vertex -8.83883 13.0815 0.48
    endloop
  endfacet
  facet normal -0.707107 -0.707107 0
    outer loop
      vertex -11.3137 15.5563 0.48
      vertex -9.54594 13.7886 -0.02
      vertex -9.54594 13.7886 0.48
    endloop
  endfacet
  facet normal 0.707107 -0.707107 0
    outer loop
      vertex -13.7886 13.0815 0.48
      vertex -15.5563 11.3137 0.48
      vertex -13.7886 13.0815 -0.02
    endloop
  endfacet
  facet normal 0.707107 -0.707107 0
    outer loop
      vertex -13.0815 13.7886 -0.02
      vertex -11.3137 15.5563 0.48
      vertex -13.0815 13.7886 0.48
    endloop
  endfacet
  facet normal 0.707107 -0.707107 0
    outer loop
      vertex -11.3137 15.5563 0.48
      vertex -13.0815 13.7886 -0.02
      vertex -11.3137 15.5563 -1
    endloop
  endfacet
  facet normal 0.707107 -0.707107 0
    outer loop
      vertex -13.7886 13.0815 -0.02
      vertex -11.3137 15.5563 -1
      vertex -13.0815 13.7886 -0.02
    endloop
  endfacet
  facet normal 0.707107 -0.707107 0
    outer loop
      vertex -15.5563 11.3137 -1
      vertex -13.7886 13.0815 -0.02
      vertex -15.5563 11.3137 0.48
    endloop
  endfacet
  facet normal 0.707107 -0.707107 0
    outer loop
      vertex -13.7886 13.0815 -0.02
      vertex -15.5563 11.3137 -1
      vertex -11.3137 15.5563 -1
    endloop
  endfacet
  facet normal 0.707107 0.707107 0
    outer loop
      vertex -13.0815 8.83883 0.48
      vertex -11.3137 7.07107 0.48
      vertex -13.0815 8.83883 -0.02
    endloop
  endfacet
  facet normal 0.707107 0.707107 -0
    outer loop
      vertex -13.7886 9.54594 -0.02
      vertex -15.5563 11.3137 0.48
      vertex -13.7886 9.54594 0.48
    endloop
  endfacet
  facet normal 0.707107 0.707107 0
    outer loop
      vertex -15.5563 11.3137 0.48
      vertex -13.7886 9.54594 -0.02
      vertex -15.5563 11.3137 -1
    endloop
  endfacet
  facet normal 0.707107 0.707107 0
    outer loop
      vertex -13.0815 8.83883 -0.02
      vertex -15.5563 11.3137 -1
      vertex -13.7886 9.54594 -0.02
    endloop
  endfacet
  facet normal 0.707107 0.707107 -0
    outer loop
      vertex -11.3137 7.07107 -1
      vertex -13.0815 8.83883 -0.02
      vertex -11.3137 7.07107 0.48
    endloop
  endfacet
  facet normal 0.707107 0.707107 0
    outer loop
      vertex -13.0815 8.83883 -0.02
      vertex -11.3137 7.07107 -1
      vertex -15.5563 11.3137 -1
    endloop
  endfacet
  facet normal -0.707107 0.707107 0
    outer loop
      vertex -7.07107 11.3137 -1
      vertex -8.83883 9.54594 -0.02
      vertex -7.07107 11.3137 0.48
    endloop
  endfacet
  facet normal -0.707107 0.707107 0
    outer loop
      vertex -7.07107 11.3137 -1
      vertex -9.54594 8.83883 -0.02
      vertex -8.83883 9.54594 -0.02
    endloop
  endfacet
  facet normal -0.707107 0.707107 0
    outer loop
      vertex -11.3137 7.07107 -1
      vertex -9.54594 8.83883 -0.02
      vertex -7.07107 11.3137 -1
    endloop
  endfacet
  facet normal -0.707107 0.707107 0
    outer loop
      vertex -11.3137 7.07107 0.48
      vertex -9.54594 8.83883 -0.02
      vertex -11.3137 7.07107 -1
    endloop
  endfacet
  facet normal -0.707107 0.707107 0
    outer loop
      vertex -9.54594 8.83883 -0.02
      vertex -11.3137 7.07107 0.48
      vertex -9.54594 8.83883 0.48
    endloop
  endfacet
  facet normal -0.707107 0.707107 0
    outer loop
      vertex -7.07107 11.3137 0.48
      vertex -8.83883 9.54594 -0.02
      vertex -8.83883 9.54594 0.48
    endloop
  endfacet
  facet normal -0.707107 0.707107 0
    outer loop
      vertex -11.3137 12.0208 -0.02
      vertex -9.54594 13.7886 0.48
      vertex -9.54594 13.7886 -0.02
    endloop
  endfacet
  facet normal -0.707107 0.707107 0
    outer loop
      vertex -9.54594 13.7886 0.48
      vertex -11.3137 12.0208 -0.02
      vertex -11.3137 12.0208 0.48
    endloop
  endfacet
  facet normal -0.707107 0.707107 0
    outer loop
      vertex -13.7886 9.54594 -0.02
      vertex -12.0208 11.3137 0.48
      vertex -12.0208 11.3137 -0.02
    endloop
  endfacet
  facet normal -0.707107 0.707107 0
    outer loop
      vertex -12.0208 11.3137 0.48
      vertex -13.7886 9.54594 -0.02
      vertex -13.7886 9.54594 0.48
    endloop
  endfacet
  facet normal 0.707107 -0.707107 0
    outer loop
      vertex -10.6066 11.3137 0.48
      vertex -8.83883 13.0815 -0.02
      vertex -8.83883 13.0815 0.48
    endloop
  endfacet
  facet normal 0.707107 -0.707107 0
    outer loop
      vertex -8.83883 13.0815 -0.02
      vertex -10.6066 11.3137 0.48
      vertex -10.6066 11.3137 -0.02
    endloop
  endfacet
  facet normal 0.707107 -0.707107 0
    outer loop
      vertex -13.0815 8.83883 0.48
      vertex -11.3137 10.6066 -0.02
      vertex -11.3137 10.6066 0.48
    endloop
  endfacet
  facet normal 0.707107 -0.707107 0
    outer loop
      vertex -11.3137 10.6066 -0.02
      vertex -13.0815 8.83883 0.48
      vertex -13.0815 8.83883 -0.02
    endloop
  endfacet
  facet normal 0 0 -1
    outer loop
      vertex -9.54594 8.83883 -0.02
      vertex -10.6066 11.3137 -0.02
      vertex -8.83883 9.54594 -0.02
    endloop
  endfacet
  facet normal 0 -0 -1
    outer loop
      vertex -10.6066 11.3137 -0.02
      vertex -9.54594 8.83883 -0.02
      vertex -11.3137 10.6066 -0.02
    endloop
  endfacet
  facet normal 0 0 -1
    outer loop
      vertex -10.6066 11.3137 -0.02
      vertex -9.54594 13.7886 -0.02
      vertex -8.83883 13.0815 -0.02
    endloop
  endfacet
  facet normal 0 0 -1
    outer loop
      vertex -11.3137 12.0208 -0.02
      vertex -10.6066 11.3137 -0.02
      vertex -11.3137 10.6066 -0.02
    endloop
  endfacet
  facet normal 0 0 -1
    outer loop
      vertex -10.6066 11.3137 -0.02
      vertex -11.3137 12.0208 -0.02
      vertex -9.54594 13.7886 -0.02
    endloop
  endfacet
  facet normal 0 0 -1
    outer loop
      vertex -11.3137 10.6066 -0.02
      vertex -12.0208 11.3137 -0.02
      vertex -11.3137 12.0208 -0.02
    endloop
  endfacet
  facet normal 0 0 -1
    outer loop
      vertex -13.0815 8.83883 -0.02
      vertex -12.0208 11.3137 -0.02
      vertex -11.3137 10.6066 -0.02
    endloop
  endfacet
  facet normal 0 0 -1
    outer loop
      vertex -12.0208 11.3137 -0.02
      vertex -13.0815 8.83883 -0.02
      vertex -13.7886 9.54594 -0.02
    endloop
  endfacet
  facet normal 0 0 -1
    outer loop
      vertex -12.0208 11.3137 -0.02
      vertex -13.0815 13.7886 -0.02
      vertex -11.3137 12.0208 -0.02
    endloop
  endfacet
  facet normal 0 -0 -1
    outer loop
      vertex -13.0815 13.7886 -0.02
      vertex -12.0208 11.3137 -0.02
      vertex -13.7886 13.0815 -0.02
    endloop
  endfacet
  facet normal 0.707107 0.707107 0
    outer loop
      vertex -11.3137 12.0208 0.48
      vertex -13.0815 13.7886 -0.02
      vertex -13.0815 13.7886 0.48
    endloop
  endfacet
  facet normal 0.707107 0.707107 0
    outer loop
      vertex -13.0815 13.7886 -0.02
      vertex -11.3137 12.0208 0.48
      vertex -11.3137 12.0208 -0.02
    endloop
  endfacet
  facet normal 0.707107 0.707107 0
    outer loop
      vertex -8.83883 9.54594 0.48
      vertex -10.6066 11.3137 -0.02
      vertex -10.6066 11.3137 0.48
    endloop
  endfacet
  facet normal 0.707107 0.707107 0
    outer loop
      vertex -10.6066 11.3137 -0.02
      vertex -8.83883 9.54594 0.48
      vertex -8.83883 9.54594 -0.02
    endloop
  endfacet
  facet normal -0.707107 -0.707107 0
    outer loop
      vertex -12.0208 11.3137 -0.02
      vertex -13.7886 13.0815 0.48
      vertex -13.7886 13.0815 -0.02
    endloop
  endfacet
  facet normal -0.707107 -0.707107 0
    outer loop
      vertex -13.7886 13.0815 0.48
      vertex -12.0208 11.3137 -0.02
      vertex -12.0208 11.3137 0.48
    endloop
  endfacet
  facet normal -0.707107 -0.707107 0
    outer loop
      vertex -9.54594 8.83883 -0.02
      vertex -11.3137 10.6066 0.48
      vertex -11.3137 10.6066 -0.02
    endloop
  endfacet
  facet normal -0.707107 -0.707107 0
    outer loop
      vertex -11.3137 10.6066 0.48
      vertex -9.54594 8.83883 -0.02
      vertex -9.54594 8.83883 0.48
    endloop
  endfacet
endsolid OpenSCAD_Model
