solid OpenSCAD_Model
  facet normal 0.707107 -0.707107 0
    outer loop
      vertex 3.35876 3.35876 0.48
      vertex 2.82843 2.82843 0.48
      vertex 3.35876 3.35876 0
    endloop
  endfacet
  facet normal 0.707107 -0.707107 0
    outer loop
      vertex 3.97748 3.97748 0.23999
      vertex 3.44715 3.44715 0.23999
      vertex 3.97748 3.97748 0
    endloop
  endfacet
  facet normal 0.707107 -0.707107 0
    outer loop
      vertex 4.50781 4.50781 0
      vertex 5.03814 5.03814 0
      vertex 5.03814 5.03814 0.23999
    endloop
  endfacet
  facet normal 0.707107 -0.707107 0
    outer loop
      vertex 4.50781 4.50781 0
      vertex 5.03814 5.03814 0.23999
      vertex 4.50781 4.50781 0.23999
    endloop
  endfacet
  facet normal 0.707107 -0.707107 0
    outer loop
      vertex 5.03814 5.03814 0
      vertex 4.50781 4.50781 0
      vertex 4.59619 4.59619 -1
    endloop
  endfacet
  facet normal 0.707107 -0.707107 0
    outer loop
      vertex 3.97748 3.97748 0
      vertex 4.59619 4.59619 -1
      vertex 4.50781 4.50781 0
    endloop
  endfacet
  facet normal 0.707107 -0.707107 0
    outer loop
      vertex 3.44715 3.44715 0
      vertex 3.97748 3.97748 0
      vertex 3.44715 3.44715 0.23999
    endloop
  endfacet
  facet normal 0.707107 -0.707107 0
    outer loop
      vertex 3.97748 3.97748 0
      vertex 3.44715 3.44715 0
      vertex 4.59619 4.59619 -1
    endloop
  endfacet
  facet normal 0.707107 -0.707107 0
    outer loop
      vertex 2.82843 2.82843 -1
      vertex 3.44715 3.44715 0
      vertex 3.35876 3.35876 0
    endloop
  endfacet
  facet normal 0.707107 -0.707107 0
    outer loop
      vertex 3.44715 3.44715 0
      vertex 2.82843 2.82843 -1
      vertex 4.59619 4.59619 -1
    endloop
  endfacet
  facet normal 0.707107 -0.707107 0
    outer loop
      vertex 2.82843 2.82843 -1
      vertex 3.35876 3.35876 0
      vertex 2.82843 2.82843 0.48
    endloop
  endfacet
  facet normal 0.707107 -0.707107 0
    outer loop
      vertex 5.3033 5.3033 0
      vertex 5.03814 5.03814 0
      vertex 4.59619 4.59619 -1
    endloop
  endfacet
  facet normal 0.707107 -0.707107 0
    outer loop
      vertex -3.44715 -3.44715 0.23999
      vertex -3.97748 -3.97748 0.23999
      vertex -3.44715 -3.44715 0
    endloop
  endfacet
  facet normal 0.707107 -0.707107 0
    outer loop
      vertex -3.35876 -3.35876 0
      vertex -2.82843 -2.82843 0.48
      vertex -3.35876 -3.35876 0.48
    endloop
  endfacet
  facet normal 0.707107 -0.707107 0
    outer loop
      vertex -2.82843 -2.82843 0.48
      vertex -3.35876 -3.35876 0
      vertex -2.82843 -2.82843 -1
    endloop
  endfacet
  facet normal 0.707107 -0.707107 0
    outer loop
      vertex -3.44715 -3.44715 0
      vertex -2.82843 -2.82843 -1
      vertex -3.35876 -3.35876 0
    endloop
  endfacet
  facet normal 0.707107 -0.707107 0
    outer loop
      vertex -3.97748 -3.97748 0
      vertex -3.44715 -3.44715 0
      vertex -3.97748 -3.97748 0.23999
    endloop
  endfacet
  facet normal 0.707107 -0.707107 0
    outer loop
      vertex -3.44715 -3.44715 0
      vertex -3.97748 -3.97748 0
      vertex -2.82843 -2.82843 -1
    endloop
  endfacet
  facet normal 0.707107 -0.707107 0
    outer loop
      vertex -4.59619 -4.59619 -1
      vertex -3.97748 -3.97748 0
      vertex -4.50781 -4.50781 0
    endloop
  endfacet
  facet normal 0.707107 -0.707107 0
    outer loop
      vertex -3.97748 -3.97748 0
      vertex -4.59619 -4.59619 -1
      vertex -2.82843 -2.82843 -1
    endloop
  endfacet
  facet normal 0.707107 -0.707107 0
    outer loop
      vertex -5.03814 -5.03814 0
      vertex -4.50781 -4.50781 0
      vertex -4.50781 -4.50781 0.23999
    endloop
  endfacet
  facet normal 0.707107 -0.707107 0
    outer loop
      vertex -5.03814 -5.03814 0
      vertex -4.50781 -4.50781 0.23999
      vertex -5.03814 -5.03814 0.23999
    endloop
  endfacet
  facet normal 0.707107 -0.707107 0
    outer loop
      vertex -4.50781 -4.50781 0
      vertex -5.03814 -5.03814 0
      vertex -4.59619 -4.59619 -1
    endloop
  endfacet
  facet normal 0.707107 -0.707107 0
    outer loop
      vertex -4.59619 -4.59619 -1
      vertex -5.03814 -5.03814 0
      vertex -5.3033 -5.3033 0
    endloop
  endfacet
  facet normal 4.32979e-17 -4.32977e-17 1
    outer loop
      vertex -21.5467 10.9401 1.40661e-15
      vertex -5.03814 -5.03814 0
      vertex -21.4405 11.3642 1.42037e-15
    endloop
  endfacet
  facet normal 4.32978e-17 -4.32978e-17 1
    outer loop
      vertex -5.03814 -5.03814 0
      vertex -21.5467 10.9401 1.40661e-15
      vertex -5.3033 -5.3033 0
    endloop
  endfacet
  facet normal -0.707107 -0.707107 0
    outer loop
      vertex -5.03814 -5.03814 0
      vertex -21.4405 11.3642 0.23999
      vertex -21.4405 11.3642 1.42037e-15
    endloop
  endfacet
  facet normal -0.707107 -0.707107 0
    outer loop
      vertex -21.4405 11.3642 0.23999
      vertex -5.03814 -5.03814 0
      vertex -5.03814 -5.03814 0.23999
    endloop
  endfacet
  facet normal -0 0 1
    outer loop
      vertex -21.4405 11.3642 0.23999
      vertex -4.50781 -4.50781 0.23999
      vertex -21.1658 12.1502 0.23999
    endloop
  endfacet
  facet normal 0 0 1
    outer loop
      vertex -21.4405 11.3642 0.23999
      vertex -21.1658 12.1502 0.23999
      vertex -21.4252 11.4253 0.23999
    endloop
  endfacet
  facet normal 0 0 1
    outer loop
      vertex -4.50781 -4.50781 0.23999
      vertex -21.4405 11.3642 0.23999
      vertex -5.03814 -5.03814 0.23999
    endloop
  endfacet
  facet normal 0.707107 0.707107 0
    outer loop
      vertex -4.50781 -4.50781 0.23999
      vertex -21.1658 12.1502 1.44251e-15
      vertex -21.1658 12.1502 0.23999
    endloop
  endfacet
  facet normal 0.707107 0.707107 0
    outer loop
      vertex -21.1658 12.1502 1.44251e-15
      vertex -4.50781 -4.50781 0.23999
      vertex -4.50781 -4.50781 0
    endloop
  endfacet
  facet normal 4.32978e-17 -4.32978e-17 1
    outer loop
      vertex -21.1658 12.1502 1.44251e-15
      vertex -3.97748 -3.97748 0
      vertex -20.8769 12.922 1.46342e-15
    endloop
  endfacet
  facet normal 4.33012e-17 -4.3299e-17 1
    outer loop
      vertex -21.1658 12.1502 1.44251e-15
      vertex -20.8769 12.922 1.46342e-15
      vertex -20.9293 12.8113 1.46089e-15
    endloop
  endfacet
  facet normal 4.32978e-17 -4.32978e-17 1
    outer loop
      vertex -3.97748 -3.97748 0
      vertex -21.1658 12.1502 1.44251e-15
      vertex -4.50781 -4.50781 0
    endloop
  endfacet
  facet normal -0.707107 -0.707107 0
    outer loop
      vertex -3.97748 -3.97748 0
      vertex -20.8769 12.922 0.23999
      vertex -20.8769 12.922 1.46342e-15
    endloop
  endfacet
  facet normal -0.707107 -0.707107 0
    outer loop
      vertex -20.8769 12.922 0.23999
      vertex -3.97748 -3.97748 0
      vertex -3.97748 -3.97748 0.23999
    endloop
  endfacet
  facet normal -0 0 1
    outer loop
      vertex -20.8769 12.922 0.23999
      vertex -3.44715 -3.44715 0.23999
      vertex -20.5364 13.6421 0.23999
    endloop
  endfacet
  facet normal 0 0 1
    outer loop
      vertex -3.44715 -3.44715 0.23999
      vertex -20.8769 12.922 0.23999
      vertex -3.97748 -3.97748 0.23999
    endloop
  endfacet
  facet normal 0.707107 0.707107 0
    outer loop
      vertex -3.44715 -3.44715 0.23999
      vertex -20.5364 13.6421 1.47985e-15
      vertex -20.5364 13.6421 0.23999
    endloop
  endfacet
  facet normal 0.707107 0.707107 0
    outer loop
      vertex -20.5364 13.6421 1.47985e-15
      vertex -3.44715 -3.44715 0.23999
      vertex -3.44715 -3.44715 0
    endloop
  endfacet
  facet normal 4.32976e-17 -4.3298e-17 1
    outer loop
      vertex -20.2999 14.142 1.49126e-15
      vertex -17.5893 11.7557 1.27057e-15
      vertex -20.1784 14.3447 1.49478e-15
    endloop
  endfacet
  facet normal 4.32978e-17 -4.32978e-17 1
    outer loop
      vertex -18.0312 11.3137 1.27057e-15
      vertex -3.44715 -3.44715 0
      vertex -3.35876 -3.35876 0
    endloop
  endfacet
  facet normal 4.32979e-17 -4.32977e-17 1
    outer loop
      vertex -20.5364 13.6421 1.47985e-15
      vertex -17.5893 11.7557 1.27057e-15
      vertex -20.2999 14.142 1.49126e-15
    endloop
  endfacet
  facet normal 4.3298e-17 -4.32976e-17 1
    outer loop
      vertex -18.0312 11.3137 1.27057e-15
      vertex -20.5364 13.6421 1.47985e-15
      vertex -3.44715 -3.44715 0
    endloop
  endfacet
  facet normal 4.32978e-17 -4.32978e-17 1
    outer loop
      vertex -17.5893 11.7557 1.27057e-15
      vertex -20.5364 13.6421 1.47985e-15
      vertex -18.0312 11.3137 1.27057e-15
    endloop
  endfacet
  facet normal -0.707107 -0.707107 0
    outer loop
      vertex -20.1784 14.3447 1.49478e-15
      vertex -17.5893 11.7557 0.23999
      vertex -20.1784 14.3447 0.23999
    endloop
  endfacet
  facet normal -0.707107 -0.707107 -0
    outer loop
      vertex -17.5893 11.7557 0.23999
      vertex -20.1784 14.3447 1.49478e-15
      vertex -17.5893 11.7557 1.27057e-15
    endloop
  endfacet
  facet normal -0 0 1
    outer loop
      vertex -20.1784 14.3447 0.23999
      vertex -17.059 12.286 0.23999
      vertex -19.7809 15.0079 0.23999
    endloop
  endfacet
  facet normal 0 0 1
    outer loop
      vertex -17.059 12.286 0.23999
      vertex -20.1784 14.3447 0.23999
      vertex -17.5893 11.7557 0.23999
    endloop
  endfacet
  facet normal 0.707107 0.707107 0
    outer loop
      vertex -17.059 12.286 0.23999
      vertex -19.7809 15.0079 1.50628e-15
      vertex -19.7809 15.0079 0.23999
    endloop
  endfacet
  facet normal 0.707107 0.707107 0
    outer loop
      vertex -19.7809 15.0079 1.50628e-15
      vertex -17.059 12.286 0.23999
      vertex -17.059 12.286 1.27057e-15
    endloop
  endfacet
  facet normal 4.32978e-17 -4.32978e-17 1
    outer loop
      vertex -19.5431 15.4046 1.51316e-15
      vertex -16.5286 12.8163 1.27057e-15
      vertex -19.3616 15.6493 1.5159e-15
    endloop
  endfacet
  facet normal 4.32979e-17 -4.32977e-17 1
    outer loop
      vertex -19.7809 15.0079 1.50628e-15
      vertex -16.5286 12.8163 1.27057e-15
      vertex -19.5431 15.4046 1.51316e-15
    endloop
  endfacet
  facet normal 4.32979e-17 -4.32977e-17 1
    outer loop
      vertex -16.5286 12.8163 1.27057e-15
      vertex -19.7809 15.0079 1.50628e-15
      vertex -17.059 12.286 1.27057e-15
    endloop
  endfacet
  facet normal -0.707107 -0.707107 0
    outer loop
      vertex -19.3616 15.6493 1.5159e-15
      vertex -16.5286 12.8163 0.23999
      vertex -19.3616 15.6493 0.23999
    endloop
  endfacet
  facet normal -0.707107 -0.707107 -0
    outer loop
      vertex -16.5286 12.8163 0.23999
      vertex -19.3616 15.6493 1.5159e-15
      vertex -16.5286 12.8163 1.27057e-15
    endloop
  endfacet
  facet normal -0 0 1
    outer loop
      vertex -19.3616 15.6493 0.23999
      vertex -15.9983 13.3466 0.23999
      vertex -18.91 16.2583 0.23999
    endloop
  endfacet
  facet normal 0 0 1
    outer loop
      vertex -15.9983 13.3466 0.23999
      vertex -19.3616 15.6493 0.23999
      vertex -16.5286 12.8163 0.23999
    endloop
  endfacet
  facet normal 0.707107 0.707107 0
    outer loop
      vertex -15.9983 13.3466 0.23999
      vertex -18.91 16.2583 1.52271e-15
      vertex -18.91 16.2583 0.23999
    endloop
  endfacet
  facet normal 0.707107 0.707107 0
    outer loop
      vertex -18.91 16.2583 1.52271e-15
      vertex -15.9983 13.3466 0.23999
      vertex -15.9983 13.3466 1.27057e-15
    endloop
  endfacet
  facet normal 4.32978e-17 -4.32978e-17 1
    outer loop
      vertex -18.6662 16.587 1.52639e-15
      vertex -15.468 13.877 1.27057e-15
      vertex -18.4341 16.8431 1.52742e-15
    endloop
  endfacet
  facet normal 4.32977e-17 -4.3298e-17 1
    outer loop
      vertex -18.91 16.2583 1.52271e-15
      vertex -15.468 13.877 1.27057e-15
      vertex -18.6662 16.587 1.52639e-15
    endloop
  endfacet
  facet normal 4.32978e-17 -4.32978e-17 1
    outer loop
      vertex -15.468 13.877 1.27057e-15
      vertex -18.91 16.2583 1.52271e-15
      vertex -15.9983 13.3466 1.27057e-15
    endloop
  endfacet
  facet normal -0.707107 -0.707107 0
    outer loop
      vertex -15.468 13.877 1.27057e-15
      vertex -18.4341 16.8431 0.23999
      vertex -18.4341 16.8431 1.52742e-15
    endloop
  endfacet
  facet normal -0.707107 -0.707107 0
    outer loop
      vertex -18.4341 16.8431 0.23999
      vertex -15.468 13.877 1.27057e-15
      vertex -15.468 13.877 0.23999
    endloop
  endfacet
  facet normal -0 0 1
    outer loop
      vertex -18.4341 16.8431 0.23999
      vertex -14.9376 14.4073 0.23999
      vertex -17.9298 17.3995 0.23999
    endloop
  endfacet
  facet normal 0 0 1
    outer loop
      vertex -14.9376 14.4073 0.23999
      vertex -18.4341 16.8431 0.23999
      vertex -15.468 13.877 0.23999
    endloop
  endfacet
  facet normal 0.707107 0.707107 0
    outer loop
      vertex -14.9376 14.4073 0.23999
      vertex -17.9298 17.3995 1.52968e-15
      vertex -17.9298 17.3995 0.23999
    endloop
  endfacet
  facet normal 0.707107 0.707107 0
    outer loop
      vertex -17.9298 17.3995 1.52968e-15
      vertex -14.9376 14.4073 0.23999
      vertex -14.9376 14.4073 1.27057e-15
    endloop
  endfacet
  facet normal 4.32977e-17 -4.32979e-17 1
    outer loop
      vertex -17.6777 17.6777 1.53081e-15
      vertex -14.4073 14.9376 1.27057e-15
      vertex -17.3995 17.9298 1.52968e-15
    endloop
  endfacet
  facet normal 4.32978e-17 -4.32978e-17 1
    outer loop
      vertex -14.4073 14.9376 1.27057e-15
      vertex -17.6777 17.6777 1.53081e-15
      vertex -14.9376 14.4073 1.27057e-15
    endloop
  endfacet
  facet normal 4.32979e-17 -4.32977e-17 1
    outer loop
      vertex -14.9376 14.4073 1.27057e-15
      vertex -17.6777 17.6777 1.53081e-15
      vertex -17.9298 17.3995 1.52968e-15
    endloop
  endfacet
  facet normal -0.707107 -0.707107 0
    outer loop
      vertex -14.4073 14.9376 1.27057e-15
      vertex -17.3995 17.9298 0.23999
      vertex -17.3995 17.9298 1.52968e-15
    endloop
  endfacet
  facet normal -0.707107 -0.707107 0
    outer loop
      vertex -17.3995 17.9298 0.23999
      vertex -14.4073 14.9376 1.27057e-15
      vertex -14.4073 14.9376 0.23999
    endloop
  endfacet
  facet normal 0 0 1
    outer loop
      vertex -16.8431 18.4341 0.23999
      vertex -14.4073 14.9376 0.23999
      vertex -13.877 15.468 0.23999
    endloop
  endfacet
  facet normal 0 0 1
    outer loop
      vertex -14.4073 14.9376 0.23999
      vertex -16.8431 18.4341 0.23999
      vertex -17.3995 17.9298 0.23999
    endloop
  endfacet
  facet normal 0.707107 0.707107 0
    outer loop
      vertex -13.877 15.468 0.23999
      vertex -16.8431 18.4341 1.52742e-15
      vertex -16.8431 18.4341 0.23999
    endloop
  endfacet
  facet normal 0.707107 0.707107 0
    outer loop
      vertex -16.8431 18.4341 1.52742e-15
      vertex -13.877 15.468 0.23999
      vertex -13.877 15.468 1.27057e-15
    endloop
  endfacet
  facet normal 4.32978e-17 -4.32978e-17 1
    outer loop
      vertex -16.2583 18.91 1.52271e-15
      vertex -13.877 15.468 1.27057e-15
      vertex -13.3466 15.9983 1.27057e-15
    endloop
  endfacet
  facet normal 4.3298e-17 -4.32977e-17 1
    outer loop
      vertex -16.587 18.6662 1.52639e-15
      vertex -13.877 15.468 1.27057e-15
      vertex -16.2583 18.91 1.52271e-15
    endloop
  endfacet
  facet normal 4.32978e-17 -4.32978e-17 1
    outer loop
      vertex -13.877 15.468 1.27057e-15
      vertex -16.587 18.6662 1.52639e-15
      vertex -16.8431 18.4341 1.52742e-15
    endloop
  endfacet
  facet normal -0.707107 -0.707107 0
    outer loop
      vertex -16.2583 18.91 1.52271e-15
      vertex -13.3466 15.9983 0.23999
      vertex -16.2583 18.91 0.23999
    endloop
  endfacet
  facet normal -0.707107 -0.707107 -0
    outer loop
      vertex -13.3466 15.9983 0.23999
      vertex -16.2583 18.91 1.52271e-15
      vertex -13.3466 15.9983 1.27057e-15
    endloop
  endfacet
  facet normal 0 0 1
    outer loop
      vertex -15.6493 19.3616 0.23999
      vertex -13.3466 15.9983 0.23999
      vertex -12.8163 16.5286 0.23999
    endloop
  endfacet
  facet normal 0 0 1
    outer loop
      vertex -13.3466 15.9983 0.23999
      vertex -15.6493 19.3616 0.23999
      vertex -16.2583 18.91 0.23999
    endloop
  endfacet
  facet normal 0.707107 0.707107 0
    outer loop
      vertex -12.8163 16.5286 0.23999
      vertex -15.6493 19.3616 1.5159e-15
      vertex -15.6493 19.3616 0.23999
    endloop
  endfacet
  facet normal 0.707107 0.707107 0
    outer loop
      vertex -15.6493 19.3616 1.5159e-15
      vertex -12.8163 16.5286 0.23999
      vertex -12.8163 16.5286 1.27057e-15
    endloop
  endfacet
  facet normal 4.32977e-17 -4.32979e-17 1
    outer loop
      vertex -15.0079 19.7809 1.50628e-15
      vertex -12.8163 16.5286 1.27057e-15
      vertex -12.286 17.059 1.27057e-15
    endloop
  endfacet
  facet normal 4.32977e-17 -4.32979e-17 1
    outer loop
      vertex -15.4046 19.5431 1.51316e-15
      vertex -12.8163 16.5286 1.27057e-15
      vertex -15.0079 19.7809 1.50628e-15
    endloop
  endfacet
  facet normal 4.32978e-17 -4.32978e-17 1
    outer loop
      vertex -12.8163 16.5286 1.27057e-15
      vertex -15.4046 19.5431 1.51316e-15
      vertex -15.6493 19.3616 1.5159e-15
    endloop
  endfacet
  facet normal -0.707107 -0.707107 0
    outer loop
      vertex -12.286 17.059 1.27057e-15
      vertex -15.0079 19.7809 0.23999
      vertex -15.0079 19.7809 1.50628e-15
    endloop
  endfacet
  facet normal -0.707107 -0.707107 0
    outer loop
      vertex -15.0079 19.7809 0.23999
      vertex -12.286 17.059 1.27057e-15
      vertex -12.286 17.059 0.23999
    endloop
  endfacet
  facet normal 0 0 1
    outer loop
      vertex -14.3447 20.1784 0.23999
      vertex -12.286 17.059 0.23999
      vertex -11.7557 17.5893 0.23999
    endloop
  endfacet
  facet normal 0 0 1
    outer loop
      vertex -12.286 17.059 0.23999
      vertex -14.3447 20.1784 0.23999
      vertex -15.0079 19.7809 0.23999
    endloop
  endfacet
  facet normal 0.707107 0.707107 0
    outer loop
      vertex -11.7557 17.5893 0.23999
      vertex -14.3447 20.1784 1.49478e-15
      vertex -14.3447 20.1784 0.23999
    endloop
  endfacet
  facet normal 0.707107 0.707107 0
    outer loop
      vertex -14.3447 20.1784 1.49478e-15
      vertex -11.7557 17.5893 0.23999
      vertex -11.7557 17.5893 1.27057e-15
    endloop
  endfacet
  facet normal 4.32978e-17 -4.32978e-17 1
    outer loop
      vertex 3.44715 3.44715 0
      vertex -11.3137 18.0312 1.27057e-15
      vertex 3.35876 3.35876 0
    endloop
  endfacet
  facet normal 4.32976e-17 -4.3298e-17 1
    outer loop
      vertex -13.6421 20.5364 1.47985e-15
      vertex -11.3137 18.0312 1.27057e-15
      vertex 3.44715 3.44715 0
    endloop
  endfacet
  facet normal 4.32978e-17 -4.32978e-17 1
    outer loop
      vertex -13.6421 20.5364 1.47985e-15
      vertex -11.7557 17.5893 1.27057e-15
      vertex -11.3137 18.0312 1.27057e-15
    endloop
  endfacet
  facet normal 4.32977e-17 -4.32979e-17 1
    outer loop
      vertex -14.142 20.2999 1.49126e-15
      vertex -11.7557 17.5893 1.27057e-15
      vertex -13.6421 20.5364 1.47985e-15
    endloop
  endfacet
  facet normal 4.3298e-17 -4.32976e-17 1
    outer loop
      vertex -11.7557 17.5893 1.27057e-15
      vertex -14.142 20.2999 1.49126e-15
      vertex -14.3447 20.1784 1.49478e-15
    endloop
  endfacet
  facet normal -0.707107 -0.707107 0
    outer loop
      vertex 3.44715 3.44715 0
      vertex -13.6421 20.5364 0.23999
      vertex -13.6421 20.5364 1.47985e-15
    endloop
  endfacet
  facet normal -0.707107 -0.707107 0
    outer loop
      vertex -13.6421 20.5364 0.23999
      vertex 3.44715 3.44715 0
      vertex 3.44715 3.44715 0.23999
    endloop
  endfacet
  facet normal 0 0 1
    outer loop
      vertex -12.922 20.8769 0.23999
      vertex 3.44715 3.44715 0.23999
      vertex 3.97748 3.97748 0.23999
    endloop
  endfacet
  facet normal 0 0 1
    outer loop
      vertex 3.44715 3.44715 0.23999
      vertex -12.922 20.8769 0.23999
      vertex -13.6421 20.5364 0.23999
    endloop
  endfacet
  facet normal 0.707107 0.707107 0
    outer loop
      vertex 3.97748 3.97748 0.23999
      vertex -12.922 20.8769 1.46342e-15
      vertex -12.922 20.8769 0.23999
    endloop
  endfacet
  facet normal 0.707107 0.707107 0
    outer loop
      vertex -12.922 20.8769 1.46342e-15
      vertex 3.97748 3.97748 0.23999
      vertex 3.97748 3.97748 0
    endloop
  endfacet
  facet normal 4.32978e-17 -4.32978e-17 1
    outer loop
      vertex -12.1502 21.1658 1.44251e-15
      vertex 3.97748 3.97748 0
      vertex 4.50781 4.50781 0
    endloop
  endfacet
  facet normal 4.3299e-17 -4.33012e-17 1
    outer loop
      vertex -12.922 20.8769 1.46342e-15
      vertex -12.1502 21.1658 1.44251e-15
      vertex -12.8113 20.9293 1.46089e-15
    endloop
  endfacet
  facet normal 4.32978e-17 -4.32978e-17 1
    outer loop
      vertex -12.1502 21.1658 1.44251e-15
      vertex -12.922 20.8769 1.46342e-15
      vertex 3.97748 3.97748 0
    endloop
  endfacet
  facet normal -0.707107 -0.707107 0
    outer loop
      vertex -12.1502 21.1658 1.44251e-15
      vertex 4.50781 4.50781 0.23999
      vertex -12.1502 21.1658 0.23999
    endloop
  endfacet
  facet normal -0.707107 -0.707107 -0
    outer loop
      vertex 4.50781 4.50781 0.23999
      vertex -12.1502 21.1658 1.44251e-15
      vertex 4.50781 4.50781 0
    endloop
  endfacet
  facet normal 0 0 1
    outer loop
      vertex -11.3642 21.4405 0.23999
      vertex 4.50781 4.50781 0.23999
      vertex 5.03814 5.03814 0.23999
    endloop
  endfacet
  facet normal 0 0 1
    outer loop
      vertex -12.1502 21.1658 0.23999
      vertex -11.3642 21.4405 0.23999
      vertex -11.4253 21.4252 0.23999
    endloop
  endfacet
  facet normal 0 0 1
    outer loop
      vertex -11.3642 21.4405 0.23999
      vertex -12.1502 21.1658 0.23999
      vertex 4.50781 4.50781 0.23999
    endloop
  endfacet
  facet normal 0.707107 0.707107 0
    outer loop
      vertex 5.03814 5.03814 0.23999
      vertex -11.3642 21.4405 1.42037e-15
      vertex -11.3642 21.4405 0.23999
    endloop
  endfacet
  facet normal 0.707107 0.707107 0
    outer loop
      vertex -11.3642 21.4405 1.42037e-15
      vertex 5.03814 5.03814 0.23999
      vertex 5.03814 5.03814 0
    endloop
  endfacet
  facet normal 4.32978e-17 -4.32978e-17 1
    outer loop
      vertex -10.9401 21.5467 1.40661e-15
      vertex 5.03814 5.03814 0
      vertex 5.3033 5.3033 0
    endloop
  endfacet
  facet normal 4.32977e-17 -4.32979e-17 1
    outer loop
      vertex 5.03814 5.03814 0
      vertex -10.9401 21.5467 1.40661e-15
      vertex -11.3642 21.4405 1.42037e-15
    endloop
  endfacet
  facet normal 0.5 0.5 -0.707107
    outer loop
      vertex 4.59619 4.59619 -1
      vertex -10.9401 21.5467 1.40661e-15
      vertex 5.3033 5.3033 0
    endloop
  endfacet
  facet normal 0.5 0.5 -0.707107
    outer loop
      vertex -12.02 21.2124 -1
      vertex -10.9401 21.5467 1.40661e-15
      vertex 4.59619 4.59619 -1
    endloop
  endfacet
  facet normal 0.499998 0.500003 -0.707106
    outer loop
      vertex -10.9401 21.5467 1.40661e-15
      vertex -12.02 21.2124 -1
      vertex -11.4253 21.4252 -0.429049
    endloop
  endfacet
  facet normal 0 0 -1
    outer loop
      vertex -4.59619 -4.59619 -1
      vertex -16.9706 11.3137 -1
      vertex -2.82843 -2.82843 -1
    endloop
  endfacet
  facet normal 0 0 -1
    outer loop
      vertex -16.9706 11.3137 -1
      vertex -18.6662 16.587 -1
      vertex -17.6777 17.6777 -1
    endloop
  endfacet
  facet normal 0 0 -1
    outer loop
      vertex -16.9706 11.3137 -1
      vertex -19.5431 15.4046 -1
      vertex -18.6662 16.587 -1
    endloop
  endfacet
  facet normal 0 0 -1
    outer loop
      vertex -16.9706 11.3137 -1
      vertex -20.2999 14.142 -1
      vertex -19.5431 15.4046 -1
    endloop
  endfacet
  facet normal 0 0 -1
    outer loop
      vertex -21.2124 12.02 -1
      vertex -16.9706 11.3137 -1
      vertex -4.59619 -4.59619 -1
    endloop
  endfacet
  facet normal 0 -0 -1
    outer loop
      vertex -20.9293 12.8113 -1
      vertex -16.9706 11.3137 -1
      vertex -21.2124 12.02 -1
    endloop
  endfacet
  facet normal 0 0 -1
    outer loop
      vertex -16.9706 11.3137 -1
      vertex -20.9293 12.8113 -1
      vertex -20.2999 14.142 -1
    endloop
  endfacet
  facet normal 0 0 -1
    outer loop
      vertex -11.3137 16.9706 -1
      vertex 4.59619 4.59619 -1
      vertex 2.82843 2.82843 -1
    endloop
  endfacet
  facet normal 0 0 -1
    outer loop
      vertex -11.3137 16.9706 -1
      vertex -12.02 21.2124 -1
      vertex 4.59619 4.59619 -1
    endloop
  endfacet
  facet normal 0 0 -1
    outer loop
      vertex -11.3137 16.9706 -1
      vertex -12.8113 20.9293 -1
      vertex -12.02 21.2124 -1
    endloop
  endfacet
  facet normal 0 0 -1
    outer loop
      vertex -11.3137 16.9706 -1
      vertex -14.142 20.2999 -1
      vertex -12.8113 20.9293 -1
    endloop
  endfacet
  facet normal 0 0 -1
    outer loop
      vertex -11.3137 16.9706 -1
      vertex -15.4046 19.5431 -1
      vertex -14.142 20.2999 -1
    endloop
  endfacet
  facet normal 0 0 -1
    outer loop
      vertex -11.3137 16.9706 -1
      vertex -16.587 18.6662 -1
      vertex -15.4046 19.5431 -1
    endloop
  endfacet
  facet normal 0 0 -1
    outer loop
      vertex -17.6777 17.6777 -1
      vertex -11.3137 16.9706 -1
      vertex -16.9706 11.3137 -1
    endloop
  endfacet
  facet normal 0 0 -1
    outer loop
      vertex -11.3137 16.9706 -1
      vertex -17.6777 17.6777 -1
      vertex -16.587 18.6662 -1
    endloop
  endfacet
  facet normal -0.5 -0.5 -0.707107
    outer loop
      vertex -21.5467 10.9401 1.40661e-15
      vertex -4.59619 -4.59619 -1
      vertex -5.3033 -5.3033 0
    endloop
  endfacet
  facet normal -0.5 -0.5 -0.707107
    outer loop
      vertex -4.59619 -4.59619 -1
      vertex -21.5467 10.9401 1.40661e-15
      vertex -21.2124 12.02 -1
    endloop
  endfacet
  facet normal -0.500003 -0.499998 -0.707106
    outer loop
      vertex -21.2124 12.02 -1
      vertex -21.5467 10.9401 1.40661e-15
      vertex -21.4252 11.4253 -0.429049
    endloop
  endfacet
  facet normal -0.671559 0.740951 0
    outer loop
      vertex -16.8431 18.4341 0.23999
      vertex -17.3995 17.9298 1.52968e-15
      vertex -17.3995 17.9298 0.23999
    endloop
  endfacet
  facet normal -0.671559 0.740951 0
    outer loop
      vertex -17.3995 17.9298 1.52968e-15
      vertex -16.8431 18.4341 0.23999
      vertex -16.8431 18.4341 1.52742e-15
    endloop
  endfacet
  facet normal -0.671559 0.740951 1.09085e-07
    outer loop
      vertex -16.587 18.6662 -1
      vertex -17.3995 17.9298 1.52968e-15
      vertex -16.8431 18.4341 1.52742e-15
    endloop
  endfacet
  facet normal -0.671559 0.740951 0
    outer loop
      vertex -16.587 18.6662 -1
      vertex -16.8431 18.4341 1.52742e-15
      vertex -16.587 18.6662 1.52639e-15
    endloop
  endfacet
  facet normal -0.671559 0.740951 5.0492e-07
    outer loop
      vertex -17.3995 17.9298 1.52968e-15
      vertex -16.587 18.6662 -1
      vertex -17.6777 17.6777 -1
    endloop
  endfacet
  facet normal -0.671558 0.740952 0
    outer loop
      vertex -17.3995 17.9298 1.52968e-15
      vertex -17.6777 17.6777 -1
      vertex -17.6777 17.6777 1.53081e-15
    endloop
  endfacet
  facet normal -0.242963 0.970036 0
    outer loop
      vertex -11.3642 21.4405 1.42037e-15
      vertex -11.4253 21.4252 0.23999
      vertex -11.3642 21.4405 0.23999
    endloop
  endfacet
  facet normal -0.242963 0.970036 0
    outer loop
      vertex -11.3642 21.4405 1.42037e-15
      vertex -11.4253 21.4252 -0.429049
      vertex -11.4253 21.4252 0.23999
    endloop
  endfacet
  facet normal -0.242981 0.970031 2.75316e-06
    outer loop
      vertex -11.4253 21.4252 -0.429049
      vertex -11.3642 21.4405 1.42037e-15
      vertex -10.9401 21.5467 1.40661e-15
    endloop
  endfacet
  facet normal -0.90399 0.427555 0
    outer loop
      vertex -20.2999 14.142 -1
      vertex -20.5364 13.6421 1.47985e-15
      vertex -20.2999 14.142 1.49126e-15
    endloop
  endfacet
  facet normal -0.90399 0.427554 0
    outer loop
      vertex -20.5364 13.6421 1.47985e-15
      vertex -20.8769 12.922 1.46342e-15
      vertex -20.5364 13.6421 0.23999
    endloop
  endfacet
  facet normal -0.903989 0.427555 9.74115e-08
    outer loop
      vertex -20.9293 12.8113 -1
      vertex -20.5364 13.6421 1.47985e-15
      vertex -20.2999 14.142 -1
    endloop
  endfacet
  facet normal -0.90399 0.427554 4.08492e-07
    outer loop
      vertex -20.5364 13.6421 1.47985e-15
      vertex -20.9293 12.8113 -1
      vertex -20.8769 12.922 1.46342e-15
    endloop
  endfacet
  facet normal -0.903988 0.427557 0
    outer loop
      vertex -20.8769 12.922 1.46342e-15
      vertex -20.9293 12.8113 -1
      vertex -20.9293 12.8113 1.46089e-15
    endloop
  endfacet
  facet normal -0.90399 0.427554 0
    outer loop
      vertex -20.5364 13.6421 0.23999
      vertex -20.8769 12.922 1.46342e-15
      vertex -20.8769 12.922 0.23999
    endloop
  endfacet
  facet normal -0.514103 0.857728 0
    outer loop
      vertex -14.3447 20.1784 0.23999
      vertex -15.0079 19.7809 1.50628e-15
      vertex -15.0079 19.7809 0.23999
    endloop
  endfacet
  facet normal -0.514103 0.857728 0
    outer loop
      vertex -15.0079 19.7809 1.50628e-15
      vertex -14.3447 20.1784 0.23999
      vertex -14.3447 20.1784 1.49478e-15
    endloop
  endfacet
  facet normal -0.514103 0.857728 -2.87398e-08
    outer loop
      vertex -14.142 20.2999 -1
      vertex -15.0079 19.7809 1.50628e-15
      vertex -14.3447 20.1784 1.49478e-15
    endloop
  endfacet
  facet normal -0.514103 0.857729 0
    outer loop
      vertex -14.142 20.2999 -1
      vertex -14.3447 20.1784 1.49478e-15
      vertex -14.142 20.2999 1.49126e-15
    endloop
  endfacet
  facet normal -0.514103 0.857728 -1.90817e-08
    outer loop
      vertex -15.0079 19.7809 1.50628e-15
      vertex -14.142 20.2999 -1
      vertex -15.4046 19.5431 -1
    endloop
  endfacet
  facet normal -0.514103 0.857728 0
    outer loop
      vertex -15.0079 19.7809 1.50628e-15
      vertex -15.4046 19.5431 -1
      vertex -15.4046 19.5431 1.51316e-15
    endloop
  endfacet
  facet normal -0.970036 0.242963 0
    outer loop
      vertex -21.4252 11.4253 -0.429049
      vertex -21.4405 11.3642 1.42037e-15
      vertex -21.4252 11.4253 0.23999
    endloop
  endfacet
  facet normal -0.970031 0.242981 2.75316e-06
    outer loop
      vertex -21.4405 11.3642 1.42037e-15
      vertex -21.4252 11.4253 -0.429049
      vertex -21.5467 10.9401 1.40661e-15
    endloop
  endfacet
  facet normal -0.970036 0.242963 0
    outer loop
      vertex -21.4252 11.4253 0.23999
      vertex -21.4405 11.3642 1.42037e-15
      vertex -21.4405 11.3642 0.23999
    endloop
  endfacet
  facet normal -0.595699 0.803207 0
    outer loop
      vertex -15.6493 19.3616 0.23999
      vertex -16.2583 18.91 1.52271e-15
      vertex -16.2583 18.91 0.23999
    endloop
  endfacet
  facet normal -0.595699 0.803207 0
    outer loop
      vertex -16.2583 18.91 1.52271e-15
      vertex -15.6493 19.3616 0.23999
      vertex -15.6493 19.3616 1.5159e-15
    endloop
  endfacet
  facet normal -0.595698 0.803208 0
    outer loop
      vertex -15.4046 19.5431 -1
      vertex -15.6493 19.3616 1.5159e-15
      vertex -15.4046 19.5431 1.51316e-15
    endloop
  endfacet
  facet normal -0.595699 0.803207 -3.26709e-07
    outer loop
      vertex -15.4046 19.5431 -1
      vertex -16.2583 18.91 1.52271e-15
      vertex -15.6493 19.3616 1.5159e-15
    endloop
  endfacet
  facet normal -0.5957 0.803207 -5.38978e-07
    outer loop
      vertex -16.587 18.6662 -1
      vertex -16.2583 18.91 1.52271e-15
      vertex -15.4046 19.5431 -1
    endloop
  endfacet
  facet normal -0.595701 0.803207 0
    outer loop
      vertex -16.2583 18.91 1.52271e-15
      vertex -16.587 18.6662 -1
      vertex -16.587 18.6662 1.52639e-15
    endloop
  endfacet
  facet normal -0.803207 0.595701 0
    outer loop
      vertex -18.6662 16.587 -1
      vertex -18.91 16.2583 1.52271e-15
      vertex -18.6662 16.587 1.52639e-15
    endloop
  endfacet
  facet normal -0.803207 0.595699 0
    outer loop
      vertex -18.91 16.2583 1.52271e-15
      vertex -19.3616 15.6493 1.5159e-15
      vertex -18.91 16.2583 0.23999
    endloop
  endfacet
  facet normal -0.803207 0.5957 -5.38978e-07
    outer loop
      vertex -19.5431 15.4046 -1
      vertex -18.91 16.2583 1.52271e-15
      vertex -18.6662 16.587 -1
    endloop
  endfacet
  facet normal -0.803207 0.595699 -3.26709e-07
    outer loop
      vertex -18.91 16.2583 1.52271e-15
      vertex -19.5431 15.4046 -1
      vertex -19.3616 15.6493 1.5159e-15
    endloop
  endfacet
  facet normal -0.803208 0.595698 0
    outer loop
      vertex -19.3616 15.6493 1.5159e-15
      vertex -19.5431 15.4046 -1
      vertex -19.5431 15.4046 1.51316e-15
    endloop
  endfacet
  facet normal -0.803207 0.595699 0
    outer loop
      vertex -18.91 16.2583 0.23999
      vertex -19.3616 15.6493 1.5159e-15
      vertex -19.3616 15.6493 0.23999
    endloop
  endfacet
  facet normal -0.857728 0.514103 0
    outer loop
      vertex -19.5431 15.4046 -1
      vertex -19.7809 15.0079 1.50628e-15
      vertex -19.5431 15.4046 1.51316e-15
    endloop
  endfacet
  facet normal -0.857728 0.514103 0
    outer loop
      vertex -19.7809 15.0079 1.50628e-15
      vertex -20.1784 14.3447 1.49478e-15
      vertex -19.7809 15.0079 0.23999
    endloop
  endfacet
  facet normal -0.857728 0.514103 -1.90817e-08
    outer loop
      vertex -20.2999 14.142 -1
      vertex -19.7809 15.0079 1.50628e-15
      vertex -19.5431 15.4046 -1
    endloop
  endfacet
  facet normal -0.857728 0.514103 -2.87398e-08
    outer loop
      vertex -19.7809 15.0079 1.50628e-15
      vertex -20.2999 14.142 -1
      vertex -20.1784 14.3447 1.49478e-15
    endloop
  endfacet
  facet normal -0.857729 0.514103 0
    outer loop
      vertex -20.1784 14.3447 1.49478e-15
      vertex -20.2999 14.142 -1
      vertex -20.2999 14.142 1.49126e-15
    endloop
  endfacet
  facet normal -0.857728 0.514103 0
    outer loop
      vertex -19.7809 15.0079 0.23999
      vertex -20.1784 14.3447 1.49478e-15
      vertex -20.1784 14.3447 0.23999
    endloop
  endfacet
  facet normal -0.427554 0.90399 0
    outer loop
      vertex -12.922 20.8769 0.23999
      vertex -13.6421 20.5364 1.47985e-15
      vertex -13.6421 20.5364 0.23999
    endloop
  endfacet
  facet normal -0.427554 0.90399 0
    outer loop
      vertex -13.6421 20.5364 1.47985e-15
      vertex -12.922 20.8769 0.23999
      vertex -12.922 20.8769 1.46342e-15
    endloop
  endfacet
  facet normal -0.427554 0.90399 4.08492e-07
    outer loop
      vertex -12.8113 20.9293 -1
      vertex -13.6421 20.5364 1.47985e-15
      vertex -12.922 20.8769 1.46342e-15
    endloop
  endfacet
  facet normal -0.427557 0.903988 0
    outer loop
      vertex -12.8113 20.9293 -1
      vertex -12.922 20.8769 1.46342e-15
      vertex -12.8113 20.9293 1.46089e-15
    endloop
  endfacet
  facet normal -0.427555 0.903989 9.74115e-08
    outer loop
      vertex -13.6421 20.5364 1.47985e-15
      vertex -12.8113 20.9293 -1
      vertex -14.142 20.2999 -1
    endloop
  endfacet
  facet normal -0.427555 0.90399 0
    outer loop
      vertex -13.6421 20.5364 1.47985e-15
      vertex -14.142 20.2999 -1
      vertex -14.142 20.2999 1.49126e-15
    endloop
  endfacet
  facet normal -0.740952 0.671558 0
    outer loop
      vertex -17.6777 17.6777 -1
      vertex -17.9298 17.3995 1.52968e-15
      vertex -17.6777 17.6777 1.53081e-15
    endloop
  endfacet
  facet normal -0.740951 0.671559 0
    outer loop
      vertex -17.9298 17.3995 1.52968e-15
      vertex -18.4341 16.8431 1.52742e-15
      vertex -17.9298 17.3995 0.23999
    endloop
  endfacet
  facet normal -0.740951 0.671559 5.0492e-07
    outer loop
      vertex -18.6662 16.587 -1
      vertex -17.9298 17.3995 1.52968e-15
      vertex -17.6777 17.6777 -1
    endloop
  endfacet
  facet normal -0.740951 0.671559 1.09085e-07
    outer loop
      vertex -17.9298 17.3995 1.52968e-15
      vertex -18.6662 16.587 -1
      vertex -18.4341 16.8431 1.52742e-15
    endloop
  endfacet
  facet normal -0.740951 0.671559 0
    outer loop
      vertex -18.4341 16.8431 1.52742e-15
      vertex -18.6662 16.587 -1
      vertex -18.6662 16.587 1.52639e-15
    endloop
  endfacet
  facet normal -0.740951 0.671559 0
    outer loop
      vertex -17.9298 17.3995 0.23999
      vertex -18.4341 16.8431 1.52742e-15
      vertex -18.4341 16.8431 0.23999
    endloop
  endfacet
  facet normal -0.941544 0.336889 0
    outer loop
      vertex -20.9293 12.8113 -1
      vertex -21.1658 12.1502 1.44251e-15
      vertex -20.9293 12.8113 1.46089e-15
    endloop
  endfacet
  facet normal -0.941544 0.336891 1.18591e-06
    outer loop
      vertex -21.2124 12.02 -1
      vertex -21.1658 12.1502 1.44251e-15
      vertex -20.9293 12.8113 -1
    endloop
  endfacet
  facet normal -0.941544 0.336891 1.12971e-06
    outer loop
      vertex -21.4252 11.4253 -0.429049
      vertex -21.1658 12.1502 1.44251e-15
      vertex -21.2124 12.02 -1
    endloop
  endfacet
  facet normal -0.941543 0.336892 0
    outer loop
      vertex -21.4252 11.4253 0.23999
      vertex -21.1658 12.1502 1.44251e-15
      vertex -21.4252 11.4253 -0.429049
    endloop
  endfacet
  facet normal -0.941543 0.336892 0
    outer loop
      vertex -21.1658 12.1502 1.44251e-15
      vertex -21.4252 11.4253 0.23999
      vertex -21.1658 12.1502 0.23999
    endloop
  endfacet
  facet normal -0.336892 0.941543 0
    outer loop
      vertex -11.4253 21.4252 0.23999
      vertex -12.1502 21.1658 1.44251e-15
      vertex -12.1502 21.1658 0.23999
    endloop
  endfacet
  facet normal -0.336892 0.941543 0
    outer loop
      vertex -12.1502 21.1658 1.44251e-15
      vertex -11.4253 21.4252 0.23999
      vertex -11.4253 21.4252 -0.429049
    endloop
  endfacet
  facet normal -0.336891 0.941544 1.12971e-06
    outer loop
      vertex -12.02 21.2124 -1
      vertex -12.1502 21.1658 1.44251e-15
      vertex -11.4253 21.4252 -0.429049
    endloop
  endfacet
  facet normal -0.336891 0.941544 1.18591e-06
    outer loop
      vertex -12.8113 20.9293 -1
      vertex -12.1502 21.1658 1.44251e-15
      vertex -12.02 21.2124 -1
    endloop
  endfacet
  facet normal -0.336889 0.941544 0
    outer loop
      vertex -12.1502 21.1658 1.44251e-15
      vertex -12.8113 20.9293 -1
      vertex -12.8113 20.9293 1.46089e-15
    endloop
  endfacet
  facet normal 0.707107 0.707107 0
    outer loop
      vertex 3.35876 3.35876 0.48
      vertex -11.3137 18.0312 1.27057e-15
      vertex -11.3137 18.0312 0.48
    endloop
  endfacet
  facet normal 0.707107 0.707107 0
    outer loop
      vertex -11.3137 18.0312 1.27057e-15
      vertex 3.35876 3.35876 0.48
      vertex 3.35876 3.35876 0
    endloop
  endfacet
  facet normal -0.707107 0.707107 0
    outer loop
      vertex -17.5893 11.7557 1.27057e-15
      vertex -18.0312 11.3137 1.27057e-15
      vertex -17.5893 11.7557 0.23999
    endloop
  endfacet
  facet normal -0.707108 0.707106 0
    outer loop
      vertex -16.5286 12.8163 1.27057e-15
      vertex -17.059 12.286 1.27057e-15
      vertex -16.5286 12.8163 0.23999
    endloop
  endfacet
  facet normal -0.707107 0.707107 0
    outer loop
      vertex -15.468 13.877 1.27057e-15
      vertex -15.9983 13.3466 1.27057e-15
      vertex -15.468 13.877 0.23999
    endloop
  endfacet
  facet normal -0.707107 0.707107 0
    outer loop
      vertex -14.4073 14.9376 1.27057e-15
      vertex -14.9376 14.4073 1.27057e-15
      vertex -14.4073 14.9376 0.23999
    endloop
  endfacet
  facet normal -0.707107 0.707107 0
    outer loop
      vertex -13.3466 15.9983 1.27057e-15
      vertex -13.877 15.468 1.27057e-15
      vertex -13.3466 15.9983 0.23999
    endloop
  endfacet
  facet normal -0.707106 0.707108 0
    outer loop
      vertex -12.286 17.059 1.27057e-15
      vertex -12.8163 16.5286 1.27057e-15
      vertex -12.286 17.059 0.23999
    endloop
  endfacet
  facet normal -0.707107 0.707107 0
    outer loop
      vertex -11.7557 17.5893 0.23999
      vertex -11.3137 18.0312 1.27057e-15
      vertex -11.7557 17.5893 1.27057e-15
    endloop
  endfacet
  facet normal -0.707107 0.707107 0
    outer loop
      vertex -11.3137 18.0312 1.27057e-15
      vertex -11.7557 17.5893 0.23999
      vertex -11.3137 18.0312 0.48
    endloop
  endfacet
  facet normal -0.707107 0.707106 2.3414e-06
    outer loop
      vertex -12.286 17.059 0.23999
      vertex -11.3137 18.0312 0.48
      vertex -11.7557 17.5893 0.23999
    endloop
  endfacet
  facet normal -0.707106 0.707108 0
    outer loop
      vertex -12.8163 16.5286 0.23999
      vertex -12.286 17.059 0.23999
      vertex -12.8163 16.5286 1.27057e-15
    endloop
  endfacet
  facet normal -0.707106 0.707108 -1.31119e-05
    outer loop
      vertex -12.8163 16.5286 0.23999
      vertex -11.3137 18.0312 0.48
      vertex -12.286 17.059 0.23999
    endloop
  endfacet
  facet normal -0.707107 0.707106 1.07704e-05
    outer loop
      vertex -13.3466 15.9983 0.23999
      vertex -11.3137 18.0312 0.48
      vertex -12.8163 16.5286 0.23999
    endloop
  endfacet
  facet normal -0.707107 0.707107 0
    outer loop
      vertex -13.877 15.468 0.23999
      vertex -13.3466 15.9983 0.23999
      vertex -13.877 15.468 1.27057e-15
    endloop
  endfacet
  facet normal -0.707107 0.707107 0
    outer loop
      vertex -13.877 15.468 0.23999
      vertex -11.3137 18.0312 0.48
      vertex -13.3466 15.9983 0.23999
    endloop
  endfacet
  facet normal -0.707107 0.707107 0
    outer loop
      vertex -14.4073 14.9376 0.23999
      vertex -11.3137 18.0312 0.48
      vertex -13.877 15.468 0.23999
    endloop
  endfacet
  facet normal -0.707107 0.707107 0
    outer loop
      vertex -14.9376 14.4073 0.23999
      vertex -14.4073 14.9376 0.23999
      vertex -14.9376 14.4073 1.27057e-15
    endloop
  endfacet
  facet normal -0.707107 0.707107 0
    outer loop
      vertex -14.9376 14.4073 0.23999
      vertex -11.3137 18.0312 0.48
      vertex -14.4073 14.9376 0.23999
    endloop
  endfacet
  facet normal -0.707107 0.707107 0
    outer loop
      vertex -18.0312 11.3137 0.48
      vertex -14.9376 14.4073 0.23999
      vertex -15.468 13.877 0.23999
    endloop
  endfacet
  facet normal -0.707107 0.707107 0
    outer loop
      vertex -15.9983 13.3466 0.23999
      vertex -15.468 13.877 0.23999
      vertex -15.9983 13.3466 1.27057e-15
    endloop
  endfacet
  facet normal -0.707107 0.707107 0
    outer loop
      vertex -18.0312 11.3137 0.48
      vertex -15.468 13.877 0.23999
      vertex -15.9983 13.3466 0.23999
    endloop
  endfacet
  facet normal -0.707106 0.707107 1.07704e-05
    outer loop
      vertex -18.0312 11.3137 0.48
      vertex -15.9983 13.3466 0.23999
      vertex -16.5286 12.8163 0.23999
    endloop
  endfacet
  facet normal -0.707108 0.707106 0
    outer loop
      vertex -17.059 12.286 0.23999
      vertex -16.5286 12.8163 0.23999
      vertex -17.059 12.286 1.27057e-15
    endloop
  endfacet
  facet normal -0.707108 0.707106 -1.31119e-05
    outer loop
      vertex -18.0312 11.3137 0.48
      vertex -16.5286 12.8163 0.23999
      vertex -17.059 12.286 0.23999
    endloop
  endfacet
  facet normal -0.707106 0.707107 2.3414e-06
    outer loop
      vertex -18.0312 11.3137 0.48
      vertex -17.059 12.286 0.23999
      vertex -17.5893 11.7557 0.23999
    endloop
  endfacet
  facet normal -0.707107 0.707107 0
    outer loop
      vertex -14.9376 14.4073 0.23999
      vertex -18.0312 11.3137 0.48
      vertex -11.3137 18.0312 0.48
    endloop
  endfacet
  facet normal -0.707107 0.707107 0
    outer loop
      vertex -18.0312 11.3137 0.48
      vertex -17.5893 11.7557 0.23999
      vertex -18.0312 11.3137 1.27057e-15
    endloop
  endfacet
  facet normal -0.707107 -0.707107 0
    outer loop
      vertex -18.0312 11.3137 1.27057e-15
      vertex -3.35876 -3.35876 0.48
      vertex -18.0312 11.3137 0.48
    endloop
  endfacet
  facet normal -0.707107 -0.707107 -0
    outer loop
      vertex -3.35876 -3.35876 0.48
      vertex -18.0312 11.3137 1.27057e-15
      vertex -3.35876 -3.35876 0
    endloop
  endfacet
  facet normal -0 0 1
    outer loop
      vertex -11.3137 16.9706 0.48
      vertex 3.35876 3.35876 0.48
      vertex -11.3137 18.0312 0.48
    endloop
  endfacet
  facet normal 0 0 1
    outer loop
      vertex 3.35876 3.35876 0.48
      vertex -11.3137 16.9706 0.48
      vertex 2.82843 2.82843 0.48
    endloop
  endfacet
  facet normal 0 0 1
    outer loop
      vertex -11.3137 18.0312 0.48
      vertex -16.9706 11.3137 0.48
      vertex -11.3137 16.9706 0.48
    endloop
  endfacet
  facet normal 0 -0 1
    outer loop
      vertex -16.9706 11.3137 0.48
      vertex -11.3137 18.0312 0.48
      vertex -18.0312 11.3137 0.48
    endloop
  endfacet
  facet normal 0 0 1
    outer loop
      vertex -16.9706 11.3137 0.48
      vertex -3.35876 -3.35876 0.48
      vertex -2.82843 -2.82843 0.48
    endloop
  endfacet
  facet normal 0 0 1
    outer loop
      vertex -3.35876 -3.35876 0.48
      vertex -16.9706 11.3137 0.48
      vertex -18.0312 11.3137 0.48
    endloop
  endfacet
  facet normal -0.707107 -0.707107 0
    outer loop
      vertex -11.3137 16.9706 -1
      vertex 2.82843 2.82843 0.48
      vertex -11.3137 16.9706 0.48
    endloop
  endfacet
  facet normal -0.707107 -0.707107 -0
    outer loop
      vertex 2.82843 2.82843 0.48
      vertex -11.3137 16.9706 -1
      vertex 2.82843 2.82843 -1
    endloop
  endfacet
  facet normal 0.707107 -0.707107 0
    outer loop
      vertex -11.3137 16.9706 0.48
      vertex -15.6447 12.6395 -0.259999
      vertex -11.3137 16.9706 -1
    endloop
  endfacet
  facet normal 0.707107 -0.707107 -5.37737e-09
    outer loop
      vertex -11.3137 16.9706 0.48
      vertex -15.646 12.6383 -0.223243
      vertex -15.6447 12.6395 -0.259999
    endloop
  endfacet
  facet normal 0.707107 -0.707107 -1.60509e-08
    outer loop
      vertex -11.3137 16.9706 0.48
      vertex -15.6498 12.6344 -0.186841
      vertex -15.646 12.6383 -0.223243
    endloop
  endfacet
  facet normal 0.707107 -0.707107 -2.68153e-08
    outer loop
      vertex -11.3137 16.9706 0.48
      vertex -15.6562 12.6281 -0.151143
      vertex -15.6498 12.6344 -0.186841
    endloop
  endfacet
  facet normal 0.707107 -0.707107 -3.78985e-08
    outer loop
      vertex -11.3137 16.9706 0.48
      vertex -15.6649 12.6193 -0.116493
      vertex -15.6562 12.6281 -0.151143
    endloop
  endfacet
  facet normal 0.707107 -0.707107 -4.95581e-08
    outer loop
      vertex -11.3137 16.9706 0.48
      vertex -15.676 12.6082 -0.0832262
      vertex -15.6649 12.6193 -0.116493
    endloop
  endfacet
  facet normal 0.707107 -0.707107 -6.21169e-08
    outer loop
      vertex -11.3137 16.9706 0.48
      vertex -15.6894 12.5948 -0.0516605
      vertex -15.676 12.6082 -0.0832262
    endloop
  endfacet
  facet normal 0.707107 -0.707107 -7.59787e-08
    outer loop
      vertex -11.3137 16.9706 0.48
      vertex -15.7049 12.5793 -0.0221024
      vertex -15.6894 12.5948 -0.0516605
    endloop
  endfacet
  facet normal 0.707107 -0.707107 -9.17063e-08
    outer loop
      vertex -11.3137 16.9706 0.48
      vertex -15.7224 12.5619 0.00516415
      vertex -15.7049 12.5793 -0.0221024
    endloop
  endfacet
  facet normal 0.707107 -0.707107 -1.10078e-07
    outer loop
      vertex -11.3137 16.9706 0.48
      vertex -15.7417 12.5426 0.0298786
      vertex -15.7224 12.5619 0.00516415
    endloop
  endfacet
  facet normal 0.707107 -0.707107 -1.32369e-07
    outer loop
      vertex -11.3137 16.9706 0.48
      vertex -15.7626 12.5217 0.0518007
      vertex -15.7417 12.5426 0.0298786
    endloop
  endfacet
  facet normal 0.707107 -0.707107 -1.60596e-07
    outer loop
      vertex -11.3137 16.9706 0.48
      vertex -15.7849 12.4994 0.0707197
      vertex -15.7626 12.5217 0.0518007
    endloop
  endfacet
  facet normal 0.707107 -0.707107 -1.98335e-07
    outer loop
      vertex -11.3137 16.9706 0.48
      vertex -15.8084 12.4758 0.0864544
      vertex -15.7849 12.4994 0.0707197
    endloop
  endfacet
  facet normal 0.707107 -0.707107 -2.52761e-07
    outer loop
      vertex -11.3137 16.9706 0.48
      vertex -15.8329 12.4513 0.0988522
      vertex -15.8084 12.4758 0.0864544
    endloop
  endfacet
  facet normal 0.707107 -0.707107 -3.40242e-07
    outer loop
      vertex -11.3137 16.9706 0.48
      vertex -15.8582 12.4261 0.107794
      vertex -15.8329 12.4513 0.0988522
    endloop
  endfacet
  facet normal 0.707107 -0.707107 -1.81177e-06
    outer loop
      vertex -16.9706 11.3137 0.48
      vertex -15.8582 12.4261 0.107794
      vertex -11.3137 16.9706 0.48
    endloop
  endfacet
  facet normal 0.707106 -0.707107 -4.85649e-06
    outer loop
      vertex -15.8582 12.4261 0.107794
      vertex -16.9706 11.3137 0.48
      vertex -15.8839 12.4004 0.113194
    endloop
  endfacet
  facet normal 0.707107 -0.707107 -2.31507e-06
    outer loop
      vertex -15.8839 12.4004 0.113194
      vertex -16.9706 11.3137 0.48
      vertex -15.9099 12.3744 0.115
    endloop
  endfacet
  facet normal 0.707107 -0.707106 -2.85493e-08
    outer loop
      vertex -16.1738 12.1105 -0.223243
      vertex -16.9706 11.3137 0.48
      vertex -16.1751 12.1092 -0.259999
    endloop
  endfacet
  facet normal 0.7071 -0.707114 -1.70368e-05
    outer loop
      vertex -16.17 12.1143 -0.186841
      vertex -16.9706 11.3137 0.48
      vertex -16.1738 12.1105 -0.223243
    endloop
  endfacet
  facet normal 0.707107 -0.707107 0
    outer loop
      vertex -16.1636 12.1206 -0.151143
      vertex -16.9706 11.3137 0.48
      vertex -16.17 12.1143 -0.186841
    endloop
  endfacet
  facet normal 0.707107 -0.707107 0
    outer loop
      vertex -16.1549 12.1294 -0.116493
      vertex -16.9706 11.3137 0.48
      vertex -16.1636 12.1206 -0.151143
    endloop
  endfacet
  facet normal 0.707113 -0.707101 1.62873e-05
    outer loop
      vertex -16.1438 12.1405 -0.0832262
      vertex -16.9706 11.3137 0.48
      vertex -16.1549 12.1294 -0.116493
    endloop
  endfacet
  facet normal 0.707107 -0.707106 -2.6823e-07
    outer loop
      vertex -16.1304 12.1539 -0.0516605
      vertex -16.9706 11.3137 0.48
      vertex -16.1438 12.1405 -0.0832262
    endloop
  endfacet
  facet normal 0.707107 -0.707106 -3.16037e-07
    outer loop
      vertex -16.1149 12.1694 -0.0221024
      vertex -16.9706 11.3137 0.48
      vertex -16.1304 12.1539 -0.0516605
    endloop
  endfacet
  facet normal 0.707107 -0.707106 -3.67047e-07
    outer loop
      vertex -16.0974 12.1869 0.00516415
      vertex -16.9706 11.3137 0.48
      vertex -16.1149 12.1694 -0.0221024
    endloop
  endfacet
  facet normal 0.707107 -0.707107 -4.23046e-07
    outer loop
      vertex -16.0781 12.2062 0.0298786
      vertex -16.9706 11.3137 0.48
      vertex -16.0974 12.1869 0.00516415
    endloop
  endfacet
  facet normal 0.707107 -0.707107 -4.86482e-07
    outer loop
      vertex -16.0572 12.2271 0.0518007
      vertex -16.9706 11.3137 0.48
      vertex -16.0781 12.2062 0.0298786
    endloop
  endfacet
  facet normal 0.707112 -0.707101 2.23892e-05
    outer loop
      vertex -16.0349 12.2494 0.0707197
      vertex -16.9706 11.3137 0.48
      vertex -16.0572 12.2271 0.0518007
    endloop
  endfacet
  facet normal 0.707107 -0.707106 -1.30291e-06
    outer loop
      vertex -16.0114 12.2729 0.0864544
      vertex -16.9706 11.3137 0.48
      vertex -16.0349 12.2494 0.0707197
    endloop
  endfacet
  facet normal 0.707101 -0.707113 -3.15718e-05
    outer loop
      vertex -15.9869 12.2974 0.0988522
      vertex -16.9706 11.3137 0.48
      vertex -16.0114 12.2729 0.0864544
    endloop
  endfacet
  facet normal 0.707107 -0.707107 -9.24263e-07
    outer loop
      vertex -15.9616 12.3226 0.107794
      vertex -16.9706 11.3137 0.48
      vertex -15.9869 12.2974 0.0988522
    endloop
  endfacet
  facet normal 0.707107 -0.707107 -1.155e-06
    outer loop
      vertex -15.9359 12.3484 0.113194
      vertex -16.9706 11.3137 0.48
      vertex -15.9616 12.3226 0.107794
    endloop
  endfacet
  facet normal 0.707107 -0.707107 -1.53711e-06
    outer loop
      vertex -15.9099 12.3744 0.115
      vertex -16.9706 11.3137 0.48
      vertex -15.9359 12.3484 0.113194
    endloop
  endfacet
  facet normal 0.707107 -0.707107 5.37737e-09
    outer loop
      vertex -15.646 12.6383 -0.296756
      vertex -11.3137 16.9706 -1
      vertex -15.6447 12.6395 -0.259999
    endloop
  endfacet
  facet normal 0.707107 -0.707107 1.60505e-08
    outer loop
      vertex -15.6498 12.6344 -0.333158
      vertex -11.3137 16.9706 -1
      vertex -15.646 12.6383 -0.296756
    endloop
  endfacet
  facet normal 0.707107 -0.707107 2.68153e-08
    outer loop
      vertex -15.6562 12.6281 -0.368856
      vertex -11.3137 16.9706 -1
      vertex -15.6498 12.6344 -0.333158
    endloop
  endfacet
  facet normal 0.707107 -0.707107 3.78985e-08
    outer loop
      vertex -15.6649 12.6193 -0.403506
      vertex -11.3137 16.9706 -1
      vertex -15.6562 12.6281 -0.368856
    endloop
  endfacet
  facet normal 0.707107 -0.707107 4.95581e-08
    outer loop
      vertex -15.676 12.6082 -0.436773
      vertex -11.3137 16.9706 -1
      vertex -15.6649 12.6193 -0.403506
    endloop
  endfacet
  facet normal 0.707107 -0.707107 6.21186e-08
    outer loop
      vertex -15.6894 12.5948 -0.468338
      vertex -11.3137 16.9706 -1
      vertex -15.676 12.6082 -0.436773
    endloop
  endfacet
  facet normal 0.707107 -0.707107 7.59764e-08
    outer loop
      vertex -15.7049 12.5793 -0.497897
      vertex -11.3137 16.9706 -1
      vertex -15.6894 12.5948 -0.468338
    endloop
  endfacet
  facet normal 0.707107 -0.707107 9.17033e-08
    outer loop
      vertex -15.7224 12.5619 -0.525165
      vertex -11.3137 16.9706 -1
      vertex -15.7049 12.5793 -0.497897
    endloop
  endfacet
  facet normal 0.707107 -0.707107 1.10082e-07
    outer loop
      vertex -15.7417 12.5426 -0.549878
      vertex -11.3137 16.9706 -1
      vertex -15.7224 12.5619 -0.525165
    endloop
  endfacet
  facet normal 0.707107 -0.707107 1.32369e-07
    outer loop
      vertex -15.7626 12.5217 -0.5718
      vertex -11.3137 16.9706 -1
      vertex -15.7417 12.5426 -0.549878
    endloop
  endfacet
  facet normal 0.707107 -0.707107 1.60588e-07
    outer loop
      vertex -15.7849 12.4994 -0.59072
      vertex -11.3137 16.9706 -1
      vertex -15.7626 12.5217 -0.5718
    endloop
  endfacet
  facet normal 0.707107 -0.707107 1.98346e-07
    outer loop
      vertex -15.8084 12.4758 -0.606454
      vertex -11.3137 16.9706 -1
      vertex -15.7849 12.4994 -0.59072
    endloop
  endfacet
  facet normal 0.707107 -0.707107 2.52744e-07
    outer loop
      vertex -15.8329 12.4513 -0.618853
      vertex -11.3137 16.9706 -1
      vertex -15.8084 12.4758 -0.606454
    endloop
  endfacet
  facet normal 0.707107 -0.707107 3.40242e-07
    outer loop
      vertex -15.8582 12.4261 -0.627794
      vertex -11.3137 16.9706 -1
      vertex -15.8329 12.4513 -0.618853
    endloop
  endfacet
  facet normal 0.707106 -0.707107 4.85649e-06
    outer loop
      vertex -16.9706 11.3137 -1
      vertex -15.8582 12.4261 -0.627794
      vertex -15.8839 12.4004 -0.633194
    endloop
  endfacet
  facet normal 0.707107 -0.707107 2.31475e-06
    outer loop
      vertex -16.9706 11.3137 -1
      vertex -15.8839 12.4004 -0.633194
      vertex -15.9099 12.3744 -0.634999
    endloop
  endfacet
  facet normal 0.707107 -0.707107 1.53724e-06
    outer loop
      vertex -16.9706 11.3137 -1
      vertex -15.9099 12.3744 -0.634999
      vertex -15.9359 12.3484 -0.633194
    endloop
  endfacet
  facet normal 0.707107 -0.707106 0
    outer loop
      vertex -16.9706 11.3137 -1
      vertex -16.1751 12.1092 -0.259999
      vertex -16.9706 11.3137 0.48
    endloop
  endfacet
  facet normal 0.707107 -0.707106 2.85493e-08
    outer loop
      vertex -16.1751 12.1092 -0.259999
      vertex -16.9706 11.3137 -1
      vertex -16.1738 12.1105 -0.296756
    endloop
  endfacet
  facet normal 0.7071 -0.707114 1.70364e-05
    outer loop
      vertex -16.1738 12.1105 -0.296756
      vertex -16.9706 11.3137 -1
      vertex -16.17 12.1143 -0.333158
    endloop
  endfacet
  facet normal 0.707107 -0.707107 0
    outer loop
      vertex -16.17 12.1143 -0.333158
      vertex -16.9706 11.3137 -1
      vertex -16.1636 12.1206 -0.368856
    endloop
  endfacet
  facet normal 0.707107 -0.707107 0
    outer loop
      vertex -16.1636 12.1206 -0.368856
      vertex -16.9706 11.3137 -1
      vertex -16.1549 12.1294 -0.403506
    endloop
  endfacet
  facet normal 0.707113 -0.707101 -1.62873e-05
    outer loop
      vertex -16.1549 12.1294 -0.403506
      vertex -16.9706 11.3137 -1
      vertex -16.1438 12.1405 -0.436773
    endloop
  endfacet
  facet normal 0.707107 -0.707106 2.68236e-07
    outer loop
      vertex -16.1438 12.1405 -0.436773
      vertex -16.9706 11.3137 -1
      vertex -16.1304 12.1539 -0.468338
    endloop
  endfacet
  facet normal 0.707107 -0.707106 3.16029e-07
    outer loop
      vertex -16.1304 12.1539 -0.468338
      vertex -16.9706 11.3137 -1
      vertex -16.1149 12.1694 -0.497897
    endloop
  endfacet
  facet normal 0.707107 -0.707106 3.67037e-07
    outer loop
      vertex -16.1149 12.1694 -0.497897
      vertex -16.9706 11.3137 -1
      vertex -16.0974 12.1869 -0.525165
    endloop
  endfacet
  facet normal 0.707107 -0.707107 1.81177e-06
    outer loop
      vertex -15.8582 12.4261 -0.627794
      vertex -16.9706 11.3137 -1
      vertex -11.3137 16.9706 -1
    endloop
  endfacet
  facet normal 0.707107 -0.707107 1.155e-06
    outer loop
      vertex -15.9616 12.3226 -0.627794
      vertex -16.9706 11.3137 -1
      vertex -15.9359 12.3484 -0.633194
    endloop
  endfacet
  facet normal 0.707107 -0.707107 9.24263e-07
    outer loop
      vertex -15.9869 12.2974 -0.618853
      vertex -16.9706 11.3137 -1
      vertex -15.9616 12.3226 -0.627794
    endloop
  endfacet
  facet normal 0.707101 -0.707113 3.15704e-05
    outer loop
      vertex -16.0114 12.2729 -0.606454
      vertex -16.9706 11.3137 -1
      vertex -15.9869 12.2974 -0.618853
    endloop
  endfacet
  facet normal 0.707107 -0.707106 1.30296e-06
    outer loop
      vertex -16.0349 12.2494 -0.59072
      vertex -16.9706 11.3137 -1
      vertex -16.0114 12.2729 -0.606454
    endloop
  endfacet
  facet normal 0.707112 -0.707101 -2.23885e-05
    outer loop
      vertex -16.0572 12.2271 -0.5718
      vertex -16.9706 11.3137 -1
      vertex -16.0349 12.2494 -0.59072
    endloop
  endfacet
  facet normal 0.707107 -0.707107 4.86482e-07
    outer loop
      vertex -16.0781 12.2062 -0.549878
      vertex -16.9706 11.3137 -1
      vertex -16.0572 12.2271 -0.5718
    endloop
  endfacet
  facet normal 0.707107 -0.707107 4.23058e-07
    outer loop
      vertex -16.0974 12.1869 -0.525165
      vertex -16.9706 11.3137 -1
      vertex -16.0781 12.2062 -0.549878
    endloop
  endfacet
  facet normal 0.707107 0.707107 0
    outer loop
      vertex -2.82843 -2.82843 0.48
      vertex -16.9706 11.3137 -1
      vertex -16.9706 11.3137 0.48
    endloop
  endfacet
  facet normal 0.707107 0.707107 0
    outer loop
      vertex -16.9706 11.3137 -1
      vertex -2.82843 -2.82843 0.48
      vertex -2.82843 -2.82843 -1
    endloop
  endfacet
  facet normal 0.421227 0.421227 -0.803203
    outer loop
      vertex -16.0781 12.2062 0.0298786
      vertex -16.4108 12.5806 0.0518007
      vertex -16.0572 12.2271 0.0518007
    endloop
  endfacet
  facet normal 0.421227 0.421227 -0.803203
    outer loop
      vertex -16.4108 12.5806 0.0518007
      vertex -16.0781 12.2062 0.0298786
      vertex -16.4317 12.5597 0.0298786
    endloop
  endfacet
  facet normal 0.706253 0.706255 0.0490907
    outer loop
      vertex -16.5286 12.4628 -0.259999
      vertex -16.1738 12.1105 -0.296756
      vertex -16.5273 12.464 -0.296756
    endloop
  endfacet
  facet normal 0.706254 0.706254 0.049109
    outer loop
      vertex -16.1738 12.1105 -0.296756
      vertex -16.5286 12.4628 -0.259999
      vertex -16.1751 12.1092 -0.259999
    endloop
  endfacet
  facet normal -0.302336 -0.302336 -0.903984
    outer loop
      vertex -15.8084 12.4758 0.0864544
      vertex -16.1385 12.8529 0.0707197
      vertex -15.7849 12.4994 0.0707197
    endloop
  endfacet
  facet normal -0.302336 -0.302336 -0.903984
    outer loop
      vertex -16.1385 12.8529 0.0707197
      vertex -15.8084 12.4758 0.0864544
      vertex -16.162 12.8294 0.0864544
    endloop
  endfacet
  facet normal -0.665775 -0.665777 -0.336874
    outer loop
      vertex -15.6562 12.6281 -0.151143
      vertex -16.0185 12.9729 -0.116493
      vertex -16.0097 12.9817 -0.151143
    endloop
  endfacet
  facet normal -0.665769 -0.665767 -0.336906
    outer loop
      vertex -16.0185 12.9729 -0.116493
      vertex -15.6562 12.6281 -0.151143
      vertex -15.6649 12.6193 -0.116493
    endloop
  endfacet
  facet normal -0.238233 -0.238233 0.941536
    outer loop
      vertex -16.162 12.8294 -0.606454
      vertex -15.8329 12.4513 -0.618853
      vertex -15.8084 12.4758 -0.606454
    endloop
  endfacet
  facet normal -0.238233 -0.238233 0.941536
    outer loop
      vertex -15.8329 12.4513 -0.618853
      vertex -16.162 12.8294 -0.606454
      vertex -16.1865 12.8049 -0.618853
    endloop
  endfacet
  facet normal 0.639213 0.639213 -0.427566
    outer loop
      vertex -16.1438 12.1405 -0.0832262
      vertex -16.5084 12.4829 -0.116493
      vertex -16.4973 12.4941 -0.0832262
    endloop
  endfacet
  facet normal 0.639213 0.639213 -0.427566
    outer loop
      vertex -16.5084 12.4829 -0.116493
      vertex -16.1438 12.1405 -0.0832262
      vertex -16.1549 12.1294 -0.116493
    endloop
  endfacet
  facet normal 0.606506 0.606508 -0.514099
    outer loop
      vertex -16.1438 12.1405 -0.0832262
      vertex -16.4839 12.5074 -0.0516605
      vertex -16.1304 12.1539 -0.0516605
    endloop
  endfacet
  facet normal 0.606513 0.606513 -0.514086
    outer loop
      vertex -16.4839 12.5074 -0.0516605
      vertex -16.1438 12.1405 -0.0832262
      vertex -16.4973 12.4941 -0.0832262
    endloop
  endfacet
  facet normal 0.238213 0.238213 -0.941546
    outer loop
      vertex -16.0114 12.2729 0.0864544
      vertex -16.3404 12.6509 0.0988522
      vertex -15.9869 12.2974 0.0988522
    endloop
  endfacet
  facet normal 0.238217 0.238217 -0.941544
    outer loop
      vertex -16.3404 12.6509 0.0988522
      vertex -16.0114 12.2729 0.0864544
      vertex -16.3649 12.6264 0.0864544
    endloop
  endfacet
  facet normal -0.567955 -0.567954 -0.595698
    outer loop
      vertex -15.7049 12.5793 -0.0221024
      vertex -16.043 12.9484 -0.0516605
      vertex -15.6894 12.5948 -0.0516605
    endloop
  endfacet
  facet normal -0.567948 -0.567948 -0.59571
    outer loop
      vertex -16.043 12.9484 -0.0516605
      vertex -15.7049 12.5793 -0.0221024
      vertex -16.0585 12.9329 -0.0221024
    endloop
  endfacet
  facet normal -0.171805 -0.171805 -0.970034
    outer loop
      vertex -15.8582 12.4261 0.107794
      vertex -16.1865 12.8049 0.0988522
      vertex -15.8329 12.4513 0.0988522
    endloop
  endfacet
  facet normal -0.171805 -0.171805 -0.970034
    outer loop
      vertex -16.1865 12.8049 0.0988522
      vertex -15.8582 12.4261 0.107794
      vertex -16.2117 12.7797 0.107794
    endloop
  endfacet
  facet normal 0.56796 0.567962 0.595685
    outer loop
      vertex -16.4684 12.5229 -0.497897
      vertex -16.1304 12.1539 -0.468338
      vertex -16.1149 12.1694 -0.497897
    endloop
  endfacet
  facet normal 0.56796 0.567962 0.595685
    outer loop
      vertex -16.1304 12.1539 -0.468338
      vertex -16.4684 12.5229 -0.497897
      vertex -16.4839 12.5074 -0.468338
    endloop
  endfacet
  facet normal 0.665776 0.665776 0.336874
    outer loop
      vertex -16.5172 12.4742 -0.368856
      vertex -16.1549 12.1294 -0.403506
      vertex -16.5084 12.4829 -0.403506
    endloop
  endfacet
  facet normal 0.665776 0.665776 0.336874
    outer loop
      vertex -16.1549 12.1294 -0.403506
      vertex -16.5172 12.4742 -0.368856
      vertex -16.1636 12.1206 -0.368856
    endloop
  endfacet
  facet normal -0.0346884 -0.0346883 0.998796
    outer loop
      vertex -16.2375 12.7539 -0.633194
      vertex -15.9099 12.3744 -0.634999
      vertex -15.8839 12.4004 -0.633194
    endloop
  endfacet
  facet normal -0.0346877 -0.0346877 0.998796
    outer loop
      vertex -15.9099 12.3744 -0.634999
      vertex -16.2375 12.7539 -0.633194
      vertex -16.2635 12.7279 -0.634999
    endloop
  endfacet
  facet normal -0.421227 -0.421227 0.803203
    outer loop
      vertex -16.0952 12.8961 -0.549878
      vertex -15.7626 12.5217 -0.5718
      vertex -15.7417 12.5426 -0.549878
    endloop
  endfacet
  facet normal -0.421214 -0.421216 0.803216
    outer loop
      vertex -15.7626 12.5217 -0.5718
      vertex -16.0952 12.8961 -0.549878
      vertex -16.1161 12.8752 -0.5718
    endloop
  endfacet
  facet normal -0.523921 -0.523921 0.671576
    outer loop
      vertex -16.0585 12.9329 -0.497897
      vertex -15.7224 12.5619 -0.525165
      vertex -15.7049 12.5793 -0.497897
    endloop
  endfacet
  facet normal -0.523921 -0.523921 0.671576
    outer loop
      vertex -15.7224 12.5619 -0.525165
      vertex -16.0585 12.9329 -0.497897
      vertex -16.076 12.9154 -0.525165
    endloop
  endfacet
  facet normal 0.699452 0.699452 -0.146744
    outer loop
      vertex -16.17 12.1143 -0.186841
      vertex -16.5273 12.464 -0.223243
      vertex -16.5235 12.4679 -0.186841
    endloop
  endfacet
  facet normal 0.699453 0.699455 -0.146726
    outer loop
      vertex -16.5273 12.464 -0.223243
      vertex -16.17 12.1143 -0.186841
      vertex -16.1738 12.1105 -0.223243
    endloop
  endfacet
  facet normal 0.685916 0.685916 -0.24298
    outer loop
      vertex -16.1636 12.1206 -0.151143
      vertex -16.5235 12.4679 -0.186841
      vertex -16.5172 12.4742 -0.151143
    endloop
  endfacet
  facet normal 0.685916 0.685916 -0.24298
    outer loop
      vertex -16.5235 12.4679 -0.186841
      vertex -16.1636 12.1206 -0.151143
      vertex -16.17 12.1143 -0.186841
    endloop
  endfacet
  facet normal 0.665776 0.665776 -0.336874
    outer loop
      vertex -16.1549 12.1294 -0.116493
      vertex -16.5172 12.4742 -0.151143
      vertex -16.5084 12.4829 -0.116493
    endloop
  endfacet
  facet normal 0.665776 0.665776 -0.336874
    outer loop
      vertex -16.5172 12.4742 -0.151143
      vertex -16.1549 12.1294 -0.116493
      vertex -16.1636 12.1206 -0.151143
    endloop
  endfacet
  facet normal 0.523925 0.523925 -0.671569
    outer loop
      vertex -16.1149 12.1694 -0.0221024
      vertex -16.451 12.5404 0.00516415
      vertex -16.0974 12.1869 0.00516415
    endloop
  endfacet
  facet normal 0.523918 0.52392 -0.671579
    outer loop
      vertex -16.451 12.5404 0.00516415
      vertex -16.1149 12.1694 -0.0221024
      vertex -16.4684 12.5229 -0.0221024
    endloop
  endfacet
  facet normal 0.567954 0.567955 -0.595698
    outer loop
      vertex -16.1304 12.1539 -0.0516605
      vertex -16.4684 12.5229 -0.0221024
      vertex -16.1149 12.1694 -0.0221024
    endloop
  endfacet
  facet normal 0.567954 0.567955 -0.595698
    outer loop
      vertex -16.4684 12.5229 -0.0221024
      vertex -16.1304 12.1539 -0.0516605
      vertex -16.4839 12.5074 -0.0516605
    endloop
  endfacet
  facet normal 0.474866 0.474866 -0.740948
    outer loop
      vertex -16.0974 12.1869 0.00516415
      vertex -16.4317 12.5597 0.0298786
      vertex -16.0781 12.2062 0.0298786
    endloop
  endfacet
  facet normal 0.474866 0.474866 -0.740948
    outer loop
      vertex -16.4317 12.5597 0.0298786
      vertex -16.0974 12.1869 0.00516415
      vertex -16.451 12.5404 0.00516415
    endloop
  endfacet
  facet normal 0.363516 0.363515 -0.857737
    outer loop
      vertex -16.0572 12.2271 0.0518007
      vertex -16.3885 12.6029 0.0707197
      vertex -16.0349 12.2494 0.0707197
    endloop
  endfacet
  facet normal 0.36351 0.36351 -0.857742
    outer loop
      vertex -16.3885 12.6029 0.0707197
      vertex -16.0572 12.2271 0.0518007
      vertex -16.4108 12.5806 0.0518007
    endloop
  endfacet
  facet normal -0.0347066 -0.0347065 -0.998795
    outer loop
      vertex -15.9099 12.3744 0.115
      vertex -16.2375 12.7539 0.113194
      vertex -15.8839 12.4004 0.113194
    endloop
  endfacet
  facet normal -0.034706 -0.034706 -0.998795
    outer loop
      vertex -16.2375 12.7539 0.113194
      vertex -15.9099 12.3744 0.115
      vertex -16.2635 12.7279 0.115
    endloop
  endfacet
  facet normal 0.302336 0.302335 -0.903984
    outer loop
      vertex -16.0349 12.2494 0.0707197
      vertex -16.3649 12.6264 0.0864544
      vertex -16.0114 12.2729 0.0864544
    endloop
  endfacet
  facet normal 0.302336 0.302335 -0.903984
    outer loop
      vertex -16.3649 12.6264 0.0864544
      vertex -16.0349 12.2494 0.0707197
      vertex -16.3885 12.6029 0.0707197
    endloop
  endfacet
  facet normal 0.171812 0.171812 -0.970032
    outer loop
      vertex -15.9869 12.2974 0.0988522
      vertex -16.3152 12.6762 0.107794
      vertex -15.9616 12.3226 0.107794
    endloop
  endfacet
  facet normal 0.171812 0.171812 -0.970032
    outer loop
      vertex -16.3152 12.6762 0.107794
      vertex -15.9869 12.2974 0.0988522
      vertex -16.3404 12.6509 0.0988522
    endloop
  endfacet
  facet normal 0.103752 0.103751 -0.989177
    outer loop
      vertex -15.9616 12.3226 0.107794
      vertex -16.2894 12.7019 0.113194
      vertex -15.9359 12.3484 0.113194
    endloop
  endfacet
  facet normal 0.10375 0.10375 -0.989177
    outer loop
      vertex -16.2894 12.7019 0.113194
      vertex -15.9616 12.3226 0.107794
      vertex -16.3152 12.6762 0.107794
    endloop
  endfacet
  facet normal -0.706255 -0.706257 0.0490359
    outer loop
      vertex -15.9996 12.9918 -0.296756
      vertex -15.6447 12.6395 -0.259999
      vertex -15.9983 12.9931 -0.259999
    endloop
  endfacet
  facet normal -0.706256 -0.706254 0.0490725
    outer loop
      vertex -15.6447 12.6395 -0.259999
      vertex -15.9996 12.9918 -0.296756
      vertex -15.646 12.6383 -0.296756
    endloop
  endfacet
  facet normal -0.685915 -0.685917 -0.24298
    outer loop
      vertex -16.0034 12.988 -0.186841
      vertex -15.6562 12.6281 -0.151143
      vertex -16.0097 12.9817 -0.151143
    endloop
  endfacet
  facet normal -0.685915 -0.685917 -0.24298
    outer loop
      vertex -15.6562 12.6281 -0.151143
      vertex -16.0034 12.988 -0.186841
      vertex -15.6498 12.6344 -0.186841
    endloop
  endfacet
  facet normal -0.699453 -0.699451 -0.146744
    outer loop
      vertex -15.646 12.6383 -0.223243
      vertex -16.0034 12.988 -0.186841
      vertex -15.9996 12.9918 -0.223243
    endloop
  endfacet
  facet normal -0.699455 -0.699457 -0.146708
    outer loop
      vertex -16.0034 12.988 -0.186841
      vertex -15.646 12.6383 -0.223243
      vertex -15.6498 12.6344 -0.186841
    endloop
  endfacet
  facet normal -0.639214 -0.639213 -0.427566
    outer loop
      vertex -15.6649 12.6193 -0.116493
      vertex -16.0296 12.9618 -0.0832262
      vertex -16.0185 12.9729 -0.116493
    endloop
  endfacet
  facet normal -0.639218 -0.639218 -0.427551
    outer loop
      vertex -16.0296 12.9618 -0.0832262
      vertex -15.6649 12.6193 -0.116493
      vertex -15.676 12.6082 -0.0832262
    endloop
  endfacet
  facet normal -0.606513 -0.606513 -0.514086
    outer loop
      vertex -15.676 12.6082 -0.0832262
      vertex -16.043 12.9484 -0.0516605
      vertex -16.0296 12.9618 -0.0832262
    endloop
  endfacet
  facet normal -0.606508 -0.606506 -0.514099
    outer loop
      vertex -16.043 12.9484 -0.0516605
      vertex -15.676 12.6082 -0.0832262
      vertex -15.6894 12.5948 -0.0516605
    endloop
  endfacet
  facet normal -0.238217 -0.238217 -0.941544
    outer loop
      vertex -15.8329 12.4513 0.0988522
      vertex -16.162 12.8294 0.0864544
      vertex -15.8084 12.4758 0.0864544
    endloop
  endfacet
  facet normal -0.238217 -0.238217 -0.941544
    outer loop
      vertex -16.162 12.8294 0.0864544
      vertex -15.8329 12.4513 0.0988522
      vertex -16.1865 12.8049 0.0988522
    endloop
  endfacet
  facet normal -0.103752 -0.103752 -0.989177
    outer loop
      vertex -15.8839 12.4004 0.113194
      vertex -16.2117 12.7797 0.107794
      vertex -15.8582 12.4261 0.107794
    endloop
  endfacet
  facet normal -0.103754 -0.103753 -0.989177
    outer loop
      vertex -16.2117 12.7797 0.107794
      vertex -15.8839 12.4004 0.113194
      vertex -16.2375 12.7539 0.113194
    endloop
  endfacet
  facet normal -0.421227 -0.421227 -0.803203
    outer loop
      vertex -15.7626 12.5217 0.0518007
      vertex -16.0952 12.8961 0.0298786
      vertex -15.7417 12.5426 0.0298786
    endloop
  endfacet
  facet normal -0.421214 -0.421216 -0.803216
    outer loop
      vertex -16.0952 12.8961 0.0298786
      vertex -15.7626 12.5217 0.0518007
      vertex -16.1161 12.8752 0.0518007
    endloop
  endfacet
  facet normal -0.474879 -0.474879 -0.740932
    outer loop
      vertex -15.7417 12.5426 0.0298786
      vertex -16.076 12.9154 0.00516415
      vertex -15.7224 12.5619 0.00516415
    endloop
  endfacet
  facet normal -0.474879 -0.474879 -0.740932
    outer loop
      vertex -16.076 12.9154 0.00516415
      vertex -15.7417 12.5426 0.0298786
      vertex -16.0952 12.8961 0.0298786
    endloop
  endfacet
  facet normal -0.363509 -0.363511 -0.857742
    outer loop
      vertex -15.7849 12.4994 0.0707197
      vertex -16.1161 12.8752 0.0518007
      vertex -15.7626 12.5217 0.0518007
    endloop
  endfacet
  facet normal -0.363521 -0.363521 -0.857732
    outer loop
      vertex -16.1161 12.8752 0.0518007
      vertex -15.7849 12.4994 0.0707197
      vertex -16.1385 12.8529 0.0707197
    endloop
  endfacet
  facet normal -0.523912 -0.523912 -0.671589
    outer loop
      vertex -15.7224 12.5619 0.00516415
      vertex -16.0585 12.9329 -0.0221024
      vertex -15.7049 12.5793 -0.0221024
    endloop
  endfacet
  facet normal -0.523912 -0.523912 -0.671589
    outer loop
      vertex -16.0585 12.9329 -0.0221024
      vertex -15.7224 12.5619 0.00516415
      vertex -16.076 12.9154 0.00516415
    endloop
  endfacet
  facet normal 0.706253 0.706255 -0.0490907
    outer loop
      vertex -16.1738 12.1105 -0.223243
      vertex -16.5286 12.4628 -0.259999
      vertex -16.5273 12.464 -0.223243
    endloop
  endfacet
  facet normal 0.706254 0.706254 -0.049109
    outer loop
      vertex -16.5286 12.4628 -0.259999
      vertex -16.1738 12.1105 -0.223243
      vertex -16.1751 12.1092 -0.259999
    endloop
  endfacet
  facet normal 0.699452 0.699452 0.14674
    outer loop
      vertex -16.5273 12.464 -0.296756
      vertex -16.17 12.1143 -0.333158
      vertex -16.5235 12.4679 -0.333158
    endloop
  endfacet
  facet normal 0.699453 0.699455 0.146722
    outer loop
      vertex -16.17 12.1143 -0.333158
      vertex -16.5273 12.464 -0.296756
      vertex -16.1738 12.1105 -0.296756
    endloop
  endfacet
  facet normal 0.103752 0.103751 0.989177
    outer loop
      vertex -16.2894 12.7019 -0.633194
      vertex -15.9616 12.3226 -0.627794
      vertex -15.9359 12.3484 -0.633194
    endloop
  endfacet
  facet normal 0.10375 0.10375 0.989177
    outer loop
      vertex -15.9616 12.3226 -0.627794
      vertex -16.2894 12.7019 -0.633194
      vertex -16.3152 12.6762 -0.627794
    endloop
  endfacet
  facet normal 0.606507 0.606509 0.514097
    outer loop
      vertex -16.4973 12.4941 -0.436773
      vertex -16.1304 12.1539 -0.468338
      vertex -16.4839 12.5074 -0.468338
    endloop
  endfacet
  facet normal 0.606502 0.606502 0.514111
    outer loop
      vertex -16.1304 12.1539 -0.468338
      vertex -16.4973 12.4941 -0.436773
      vertex -16.1438 12.1405 -0.436773
    endloop
  endfacet
  facet normal 0.171812 0.171812 0.970032
    outer loop
      vertex -16.3152 12.6762 -0.627794
      vertex -15.9869 12.2974 -0.618853
      vertex -15.9616 12.3226 -0.627794
    endloop
  endfacet
  facet normal 0.171812 0.171812 0.970032
    outer loop
      vertex -15.9869 12.2974 -0.618853
      vertex -16.3152 12.6762 -0.627794
      vertex -16.3404 12.6509 -0.618853
    endloop
  endfacet
  facet normal 0.238229 0.238229 0.941538
    outer loop
      vertex -16.3404 12.6509 -0.618853
      vertex -16.0114 12.2729 -0.606454
      vertex -15.9869 12.2974 -0.618853
    endloop
  endfacet
  facet normal 0.238234 0.238233 0.941536
    outer loop
      vertex -16.0114 12.2729 -0.606454
      vertex -16.3404 12.6509 -0.618853
      vertex -16.3649 12.6264 -0.606454
    endloop
  endfacet
  facet normal 0.523934 0.523934 0.671556
    outer loop
      vertex -16.451 12.5404 -0.525165
      vertex -16.1149 12.1694 -0.497897
      vertex -16.0974 12.1869 -0.525165
    endloop
  endfacet
  facet normal 0.523926 0.523928 0.671566
    outer loop
      vertex -16.1149 12.1694 -0.497897
      vertex -16.451 12.5404 -0.525165
      vertex -16.4684 12.5229 -0.497897
    endloop
  endfacet
  facet normal 0.474856 0.474856 0.740961
    outer loop
      vertex -16.4317 12.5597 -0.549878
      vertex -16.0974 12.1869 -0.525165
      vertex -16.0781 12.2062 -0.549878
    endloop
  endfacet
  facet normal 0.474856 0.474856 0.740961
    outer loop
      vertex -16.0974 12.1869 -0.525165
      vertex -16.4317 12.5597 -0.549878
      vertex -16.451 12.5404 -0.525165
    endloop
  endfacet
  facet normal 0.363529 0.363528 0.857726
    outer loop
      vertex -16.3885 12.6029 -0.59072
      vertex -16.0572 12.2271 -0.5718
      vertex -16.0349 12.2494 -0.59072
    endloop
  endfacet
  facet normal 0.363523 0.363523 0.857731
    outer loop
      vertex -16.0572 12.2271 -0.5718
      vertex -16.3885 12.6029 -0.59072
      vertex -16.4108 12.5806 -0.5718
    endloop
  endfacet
  facet normal 0.0346883 0.0346883 0.998796
    outer loop
      vertex -16.2635 12.7279 -0.634999
      vertex -15.9359 12.3484 -0.633194
      vertex -15.9099 12.3744 -0.634999
    endloop
  endfacet
  facet normal 0.034689 0.0346889 0.998796
    outer loop
      vertex -15.9359 12.3484 -0.633194
      vertex -16.2635 12.7279 -0.634999
      vertex -16.2894 12.7019 -0.633194
    endloop
  endfacet
  facet normal -0.171805 -0.171805 0.970034
    outer loop
      vertex -16.1865 12.8049 -0.618853
      vertex -15.8582 12.4261 -0.627794
      vertex -15.8329 12.4513 -0.618853
    endloop
  endfacet
  facet normal -0.171805 -0.171805 0.970034
    outer loop
      vertex -15.8582 12.4261 -0.627794
      vertex -16.1865 12.8049 -0.618853
      vertex -16.2117 12.7797 -0.627794
    endloop
  endfacet
  facet normal -0.302321 -0.302321 0.903994
    outer loop
      vertex -16.1385 12.8529 -0.59072
      vertex -15.8084 12.4758 -0.606454
      vertex -15.7849 12.4994 -0.59072
    endloop
  endfacet
  facet normal -0.302321 -0.302321 0.903994
    outer loop
      vertex -15.8084 12.4758 -0.606454
      vertex -16.1385 12.8529 -0.59072
      vertex -16.162 12.8294 -0.606454
    endloop
  endfacet
  facet normal -0.685915 -0.685917 0.24298
    outer loop
      vertex -15.6562 12.6281 -0.368856
      vertex -16.0034 12.988 -0.333158
      vertex -16.0097 12.9817 -0.368856
    endloop
  endfacet
  facet normal -0.685915 -0.685917 0.24298
    outer loop
      vertex -16.0034 12.988 -0.333158
      vertex -15.6562 12.6281 -0.368856
      vertex -15.6498 12.6344 -0.333158
    endloop
  endfacet
  facet normal -0.665775 -0.665777 0.336874
    outer loop
      vertex -16.0185 12.9729 -0.403506
      vertex -15.6562 12.6281 -0.368856
      vertex -16.0097 12.9817 -0.368856
    endloop
  endfacet
  facet normal -0.665769 -0.665767 0.336906
    outer loop
      vertex -15.6562 12.6281 -0.368856
      vertex -16.0185 12.9729 -0.403506
      vertex -15.6649 12.6193 -0.403506
    endloop
  endfacet
  facet normal -0.699453 -0.699451 0.14674
    outer loop
      vertex -16.0034 12.988 -0.333158
      vertex -15.646 12.6383 -0.296756
      vertex -15.9996 12.9918 -0.296756
    endloop
  endfacet
  facet normal -0.699455 -0.699457 0.146704
    outer loop
      vertex -15.646 12.6383 -0.296756
      vertex -16.0034 12.988 -0.333158
      vertex -15.6498 12.6344 -0.333158
    endloop
  endfacet
  facet normal -0.606508 -0.606508 0.514097
    outer loop
      vertex -16.043 12.9484 -0.468338
      vertex -15.676 12.6082 -0.436773
      vertex -16.0296 12.9618 -0.436773
    endloop
  endfacet
  facet normal -0.606503 -0.606502 0.514111
    outer loop
      vertex -15.676 12.6082 -0.436773
      vertex -16.043 12.9484 -0.468338
      vertex -15.6894 12.5948 -0.468338
    endloop
  endfacet
  facet normal 0.0347066 0.0347066 -0.998795
    outer loop
      vertex -15.9359 12.3484 0.113194
      vertex -16.2635 12.7279 0.115
      vertex -15.9099 12.3744 0.115
    endloop
  endfacet
  facet normal 0.0347073 0.0347072 -0.998795
    outer loop
      vertex -16.2635 12.7279 0.115
      vertex -15.9359 12.3484 0.113194
      vertex -16.2894 12.7019 0.113194
    endloop
  endfacet
  facet normal 0.707106 -0.707107 -4.41429e-08
    outer loop
      vertex -16.5286 12.4628 -0.259999
      vertex -15.9983 12.9931 -0.259999
      vertex -15.9996 12.9918 -0.223243
    endloop
  endfacet
  facet normal 0.707107 -0.707107 0
    outer loop
      vertex -16.5273 12.464 -0.223243
      vertex -15.9996 12.9918 -0.223243
      vertex -16.0034 12.988 -0.186841
    endloop
  endfacet
  facet normal 0.707106 -0.707107 4.41429e-08
    outer loop
      vertex -15.9983 12.9931 -0.259999
      vertex -16.5286 12.4628 -0.259999
      vertex -15.9996 12.9918 -0.296756
    endloop
  endfacet
  facet normal 0.707107 -0.707107 0
    outer loop
      vertex -16.5235 12.4679 -0.186841
      vertex -16.0034 12.988 -0.186841
      vertex -16.0097 12.9817 -0.151143
    endloop
  endfacet
  facet normal 0.707107 -0.707107 1.83464e-05
    outer loop
      vertex -16.5273 12.464 -0.296756
      vertex -15.9996 12.9918 -0.296756
      vertex -16.5286 12.4628 -0.259999
    endloop
  endfacet
  facet normal 0.707107 -0.707107 0
    outer loop
      vertex -16.5172 12.4742 -0.151143
      vertex -16.0097 12.9817 -0.151143
      vertex -16.0185 12.9729 -0.116493
    endloop
  endfacet
  facet normal 0.707107 -0.707107 0
    outer loop
      vertex -15.9996 12.9918 -0.296756
      vertex -16.5273 12.464 -0.296756
      vertex -16.0034 12.988 -0.333158
    endloop
  endfacet
  facet normal 0.707107 -0.707107 -2.02708e-05
    outer loop
      vertex -16.5084 12.4829 -0.116493
      vertex -16.0185 12.9729 -0.116493
      vertex -16.0296 12.9618 -0.0832262
    endloop
  endfacet
  facet normal 0.707107 -0.707107 0
    outer loop
      vertex -16.5235 12.4679 -0.333158
      vertex -16.0034 12.988 -0.333158
      vertex -16.5273 12.464 -0.296756
    endloop
  endfacet
  facet normal 0.707105 -0.707108 2.01413e-05
    outer loop
      vertex -16.4973 12.4941 -0.0832262
      vertex -16.0296 12.9618 -0.0832262
      vertex -16.043 12.9484 -0.0516605
    endloop
  endfacet
  facet normal 0.707107 -0.707107 0
    outer loop
      vertex -16.0034 12.988 -0.333158
      vertex -16.5235 12.4679 -0.333158
      vertex -16.0097 12.9817 -0.368856
    endloop
  endfacet
  facet normal 0.707107 -0.707107 -2.28143e-05
    outer loop
      vertex -16.4839 12.5074 -0.0516605
      vertex -16.043 12.9484 -0.0516605
      vertex -16.0585 12.9329 -0.0221024
    endloop
  endfacet
  facet normal 0.707107 -0.707107 0
    outer loop
      vertex -16.5172 12.4742 -0.368856
      vertex -16.0097 12.9817 -0.368856
      vertex -16.5235 12.4679 -0.333158
    endloop
  endfacet
  facet normal 0.707106 -0.707108 4.84093e-05
    outer loop
      vertex -16.4684 12.5229 -0.0221024
      vertex -16.0585 12.9329 -0.0221024
      vertex -16.076 12.9154 0.00516415
    endloop
  endfacet
  facet normal 0.707107 -0.707107 0
    outer loop
      vertex -16.0097 12.9817 -0.368856
      vertex -16.5172 12.4742 -0.368856
      vertex -16.0185 12.9729 -0.403506
    endloop
  endfacet
  facet normal 0.707107 -0.707107 -5.45712e-05
    outer loop
      vertex -16.451 12.5404 0.00516415
      vertex -16.076 12.9154 0.00516415
      vertex -16.0952 12.8961 0.0298786
    endloop
  endfacet
  facet normal 0.707107 -0.707107 0
    outer loop
      vertex -16.5084 12.4829 -0.403506
      vertex -16.0185 12.9729 -0.403506
      vertex -16.5172 12.4742 -0.368856
    endloop
  endfacet
  facet normal 0.707105 -0.707109 5.77002e-05
    outer loop
      vertex -16.4317 12.5597 0.0298786
      vertex -16.0952 12.8961 0.0298786
      vertex -16.1161 12.8752 0.0518007
    endloop
  endfacet
  facet normal 0.707107 -0.707107 2.02708e-05
    outer loop
      vertex -16.0185 12.9729 -0.403506
      vertex -16.5084 12.4829 -0.403506
      vertex -16.0296 12.9618 -0.436773
    endloop
  endfacet
  facet normal 0.707107 -0.707107 0
    outer loop
      vertex -16.4108 12.5806 0.0518007
      vertex -16.1161 12.8752 0.0518007
      vertex -16.1385 12.8529 0.0707197
    endloop
  endfacet
  facet normal 0.707105 -0.707108 -2.12352e-05
    outer loop
      vertex -16.4973 12.4941 -0.436773
      vertex -16.0296 12.9618 -0.436773
      vertex -16.5084 12.4829 -0.403506
    endloop
  endfacet
  facet normal 0.707109 -0.707104 8.06537e-06
    outer loop
      vertex -16.3885 12.6029 0.0707197
      vertex -16.1385 12.8529 0.0707197
      vertex -16.162 12.8294 0.0864544
    endloop
  endfacet
  facet normal 0.707105 -0.707108 -2.01419e-05
    outer loop
      vertex -16.0296 12.9618 -0.436773
      vertex -16.4973 12.4941 -0.436773
      vertex -16.043 12.9484 -0.468338
    endloop
  endfacet
  facet normal 0.707113 -0.707101 -8.53041e-05
    outer loop
      vertex -16.3885 12.6029 0.0707197
      vertex -16.162 12.8294 0.0864544
      vertex -16.1865 12.8049 0.0988522
    endloop
  endfacet
  facet normal 0.707107 -0.707107 2.1364e-05
    outer loop
      vertex -16.4839 12.5074 -0.468338
      vertex -16.043 12.9484 -0.468338
      vertex -16.4973 12.4941 -0.436773
    endloop
  endfacet
  facet normal 0.707099 -0.707114 0.000108262
    outer loop
      vertex -16.3885 12.6029 0.0707197
      vertex -16.1865 12.8049 0.0988522
      vertex -16.2117 12.7797 0.107794
    endloop
  endfacet
  facet normal 0.707107 -0.707107 2.28136e-05
    outer loop
      vertex -16.043 12.9484 -0.468338
      vertex -16.4839 12.5074 -0.468338
      vertex -16.0585 12.9329 -0.497897
    endloop
  endfacet
  facet normal 0.707115 -0.707098 -4.42534e-05
    outer loop
      vertex -16.3885 12.6029 0.0707197
      vertex -16.2117 12.7797 0.107794
      vertex -16.2375 12.7539 0.113194
    endloop
  endfacet
  facet normal 0.707106 -0.707108 -8.62623e-07
    outer loop
      vertex -16.4684 12.5229 -0.497897
      vertex -16.0585 12.9329 -0.497897
      vertex -16.4839 12.5074 -0.468338
    endloop
  endfacet
  facet normal 0.707097 -0.707117 8.66924e-05
    outer loop
      vertex -16.3885 12.6029 0.0707197
      vertex -16.2375 12.7539 0.113194
      vertex -16.2635 12.7279 0.115
    endloop
  endfacet
  facet normal 0.707106 -0.707108 -4.84076e-05
    outer loop
      vertex -16.0585 12.9329 -0.497897
      vertex -16.4684 12.5229 -0.497897
      vertex -16.076 12.9154 -0.525165
    endloop
  endfacet
  facet normal 0.707122 -0.707092 -5.32279e-05
    outer loop
      vertex -16.3885 12.6029 0.0707197
      vertex -16.2635 12.7279 0.115
      vertex -16.2894 12.7019 0.113194
    endloop
  endfacet
  facet normal 0.707107 -0.707107 -2.47309e-05
    outer loop
      vertex -16.451 12.5404 -0.525165
      vertex -16.076 12.9154 -0.525165
      vertex -16.4684 12.5229 -0.497897
    endloop
  endfacet
  facet normal 0.707078 -0.707136 0.000150567
    outer loop
      vertex -16.3885 12.6029 0.0707197
      vertex -16.2894 12.7019 0.113194
      vertex -16.3152 12.6762 0.107794
    endloop
  endfacet
  facet normal 0.707107 -0.707107 -1.83464e-05
    outer loop
      vertex -15.9996 12.9918 -0.223243
      vertex -16.5273 12.464 -0.223243
      vertex -16.5286 12.4628 -0.259999
    endloop
  endfacet
  facet normal 0.707085 -0.707128 0.000121282
    outer loop
      vertex -16.3885 12.6029 0.0707197
      vertex -16.3152 12.6762 0.107794
      vertex -16.3404 12.6509 0.0988522
    endloop
  endfacet
  facet normal 0.707107 -0.707107 5.45733e-05
    outer loop
      vertex -16.076 12.9154 -0.525165
      vertex -16.451 12.5404 -0.525165
      vertex -16.0952 12.8961 -0.549878
    endloop
  endfacet
  facet normal 0.70722 -0.706994 -0.000337955
    outer loop
      vertex -16.3885 12.6029 0.0707197
      vertex -16.3404 12.6509 0.0988522
      vertex -16.3649 12.6264 0.0864544
    endloop
  endfacet
  facet normal 0.707105 -0.707109 -3.12762e-06
    outer loop
      vertex -16.4317 12.5597 -0.549878
      vertex -16.0952 12.8961 -0.549878
      vertex -16.451 12.5404 -0.525165
    endloop
  endfacet
  facet normal 0.707109 -0.707104 -7.7653e-05
    outer loop
      vertex -16.1385 12.8529 0.0707197
      vertex -16.3885 12.6029 0.0707197
      vertex -16.4108 12.5806 0.0518007
    endloop
  endfacet
  facet normal 0.707105 -0.707109 -5.77002e-05
    outer loop
      vertex -16.0952 12.8961 -0.549878
      vertex -16.4317 12.5597 -0.549878
      vertex -16.1161 12.8752 -0.5718
    endloop
  endfacet
  facet normal 0.707107 -0.707107 0
    outer loop
      vertex -16.1161 12.8752 0.0518007
      vertex -16.4108 12.5806 0.0518007
      vertex -16.4317 12.5597 0.0298786
    endloop
  endfacet
  facet normal 0.707107 -0.707107 0
    outer loop
      vertex -16.4108 12.5806 -0.5718
      vertex -16.1161 12.8752 -0.5718
      vertex -16.4317 12.5597 -0.549878
    endloop
  endfacet
  facet normal 0.707105 -0.707109 3.1275e-06
    outer loop
      vertex -16.0952 12.8961 0.0298786
      vertex -16.4317 12.5597 0.0298786
      vertex -16.451 12.5404 0.00516415
    endloop
  endfacet
  facet normal 0.707107 -0.707107 0
    outer loop
      vertex -16.1161 12.8752 -0.5718
      vertex -16.4108 12.5806 -0.5718
      vertex -16.1385 12.8529 -0.59072
    endloop
  endfacet
  facet normal 0.707107 -0.707107 2.47318e-05
    outer loop
      vertex -16.076 12.9154 0.00516415
      vertex -16.451 12.5404 0.00516415
      vertex -16.4684 12.5229 -0.0221024
    endloop
  endfacet
  facet normal 0.707107 -0.707107 0
    outer loop
      vertex -16.0034 12.988 -0.186841
      vertex -16.5235 12.4679 -0.186841
      vertex -16.5273 12.464 -0.223243
    endloop
  endfacet
  facet normal 0.707106 -0.707108 8.62651e-07
    outer loop
      vertex -16.0585 12.9329 -0.0221024
      vertex -16.4684 12.5229 -0.0221024
      vertex -16.4839 12.5074 -0.0516605
    endloop
  endfacet
  facet normal 0.707109 -0.707104 -8.06586e-06
    outer loop
      vertex -16.1385 12.8529 -0.59072
      vertex -16.3885 12.6029 -0.59072
      vertex -16.162 12.8294 -0.606454
    endloop
  endfacet
  facet normal 0.707107 -0.707107 -2.13634e-05
    outer loop
      vertex -16.043 12.9484 -0.0516605
      vertex -16.4839 12.5074 -0.0516605
      vertex -16.4973 12.4941 -0.0832262
    endloop
  endfacet
  facet normal 0.707105 -0.707108 2.12352e-05
    outer loop
      vertex -16.0296 12.9618 -0.0832262
      vertex -16.4973 12.4941 -0.0832262
      vertex -16.5084 12.4829 -0.116493
    endloop
  endfacet
  facet normal 0.707107 -0.707107 0
    outer loop
      vertex -16.0185 12.9729 -0.116493
      vertex -16.5084 12.4829 -0.116493
      vertex -16.5172 12.4742 -0.151143
    endloop
  endfacet
  facet normal 0.70722 -0.706994 0.00033812
    outer loop
      vertex -16.3404 12.6509 -0.618853
      vertex -16.3885 12.6029 -0.59072
      vertex -16.3649 12.6264 -0.606454
    endloop
  endfacet
  facet normal 0.707107 -0.707107 0
    outer loop
      vertex -16.0097 12.9817 -0.151143
      vertex -16.5172 12.4742 -0.151143
      vertex -16.5235 12.4679 -0.186841
    endloop
  endfacet
  facet normal 0.707085 -0.707128 -0.000121282
    outer loop
      vertex -16.3152 12.6762 -0.627794
      vertex -16.3885 12.6029 -0.59072
      vertex -16.3404 12.6509 -0.618853
    endloop
  endfacet
  facet normal 0.707113 -0.707101 8.5299e-05
    outer loop
      vertex -16.162 12.8294 -0.606454
      vertex -16.3885 12.6029 -0.59072
      vertex -16.1865 12.8049 -0.618853
    endloop
  endfacet
  facet normal 0.707078 -0.707136 -0.000150567
    outer loop
      vertex -16.2894 12.7019 -0.633194
      vertex -16.3885 12.6029 -0.59072
      vertex -16.3152 12.6762 -0.627794
    endloop
  endfacet
  facet normal 0.707097 -0.707117 -8.67014e-05
    outer loop
      vertex -16.2375 12.7539 -0.633194
      vertex -16.3885 12.6029 -0.59072
      vertex -16.2635 12.7279 -0.634999
    endloop
  endfacet
  facet normal 0.707122 -0.707092 5.32224e-05
    outer loop
      vertex -16.2635 12.7279 -0.634999
      vertex -16.3885 12.6029 -0.59072
      vertex -16.2894 12.7019 -0.633194
    endloop
  endfacet
  facet normal 0.707115 -0.707098 4.42534e-05
    outer loop
      vertex -16.2117 12.7797 -0.627794
      vertex -16.3885 12.6029 -0.59072
      vertex -16.2375 12.7539 -0.633194
    endloop
  endfacet
  facet normal 0.707099 -0.707114 -0.000108262
    outer loop
      vertex -16.1865 12.8049 -0.618853
      vertex -16.3885 12.6029 -0.59072
      vertex -16.2117 12.7797 -0.627794
    endloop
  endfacet
  facet normal 0.707109 -0.707104 7.76491e-05
    outer loop
      vertex -16.3885 12.6029 -0.59072
      vertex -16.1385 12.8529 -0.59072
      vertex -16.4108 12.5806 -0.5718
    endloop
  endfacet
  facet normal -0.706255 -0.706257 -0.0490359
    outer loop
      vertex -15.6447 12.6395 -0.259999
      vertex -15.9996 12.9918 -0.223243
      vertex -15.9983 12.9931 -0.259999
    endloop
  endfacet
  facet normal -0.706256 -0.706254 -0.0490725
    outer loop
      vertex -15.9996 12.9918 -0.223243
      vertex -15.6447 12.6395 -0.259999
      vertex -15.646 12.6383 -0.223243
    endloop
  endfacet
  facet normal 0.685916 0.685916 0.24298
    outer loop
      vertex -16.5235 12.4679 -0.333158
      vertex -16.1636 12.1206 -0.368856
      vertex -16.5172 12.4742 -0.368856
    endloop
  endfacet
  facet normal 0.685916 0.685916 0.24298
    outer loop
      vertex -16.1636 12.1206 -0.368856
      vertex -16.5235 12.4679 -0.333158
      vertex -16.17 12.1143 -0.333158
    endloop
  endfacet
  facet normal 0.302321 0.30232 0.903994
    outer loop
      vertex -16.3649 12.6264 -0.606454
      vertex -16.0349 12.2494 -0.59072
      vertex -16.0114 12.2729 -0.606454
    endloop
  endfacet
  facet normal 0.302321 0.30232 0.903994
    outer loop
      vertex -16.0349 12.2494 -0.59072
      vertex -16.3649 12.6264 -0.606454
      vertex -16.3885 12.6029 -0.59072
    endloop
  endfacet
  facet normal 0.421227 0.421227 0.803203
    outer loop
      vertex -16.4108 12.5806 -0.5718
      vertex -16.0781 12.2062 -0.549878
      vertex -16.0572 12.2271 -0.5718
    endloop
  endfacet
  facet normal 0.421227 0.421227 0.803203
    outer loop
      vertex -16.0781 12.2062 -0.549878
      vertex -16.4108 12.5806 -0.5718
      vertex -16.4317 12.5597 -0.549878
    endloop
  endfacet
  facet normal -0.103752 -0.103752 0.989177
    outer loop
      vertex -16.2117 12.7797 -0.627794
      vertex -15.8839 12.4004 -0.633194
      vertex -15.8582 12.4261 -0.627794
    endloop
  endfacet
  facet normal -0.103754 -0.103753 0.989177
    outer loop
      vertex -15.8839 12.4004 -0.633194
      vertex -16.2117 12.7797 -0.627794
      vertex -16.2375 12.7539 -0.633194
    endloop
  endfacet
  facet normal -0.363522 -0.363524 0.857731
    outer loop
      vertex -16.1161 12.8752 -0.5718
      vertex -15.7849 12.4994 -0.59072
      vertex -15.7626 12.5217 -0.5718
    endloop
  endfacet
  facet normal -0.363535 -0.363535 0.857721
    outer loop
      vertex -15.7849 12.4994 -0.59072
      vertex -16.1161 12.8752 -0.5718
      vertex -16.1385 12.8529 -0.59072
    endloop
  endfacet
  facet normal -0.639214 -0.639213 0.427566
    outer loop
      vertex -16.0296 12.9618 -0.436773
      vertex -15.6649 12.6193 -0.403506
      vertex -16.0185 12.9729 -0.403506
    endloop
  endfacet
  facet normal -0.639218 -0.639218 0.427551
    outer loop
      vertex -15.6649 12.6193 -0.403506
      vertex -16.0296 12.9618 -0.436773
      vertex -15.676 12.6082 -0.436773
    endloop
  endfacet
  facet normal -0.567962 -0.56796 0.595685
    outer loop
      vertex -16.043 12.9484 -0.468338
      vertex -15.7049 12.5793 -0.497897
      vertex -15.6894 12.5948 -0.468338
    endloop
  endfacet
  facet normal -0.567955 -0.567955 0.595697
    outer loop
      vertex -15.7049 12.5793 -0.497897
      vertex -16.043 12.9484 -0.468338
      vertex -16.0585 12.9329 -0.497897
    endloop
  endfacet
  facet normal -0.474869 -0.474869 0.740945
    outer loop
      vertex -16.076 12.9154 -0.525165
      vertex -15.7417 12.5426 -0.549878
      vertex -15.7224 12.5619 -0.525165
    endloop
  endfacet
  facet normal -0.474869 -0.474869 0.740945
    outer loop
      vertex -15.7417 12.5426 -0.549878
      vertex -16.076 12.9154 -0.525165
      vertex -16.0952 12.8961 -0.549878
    endloop
  endfacet
  facet normal 0.639213 0.639213 0.427566
    outer loop
      vertex -16.5084 12.4829 -0.403506
      vertex -16.1438 12.1405 -0.436773
      vertex -16.4973 12.4941 -0.436773
    endloop
  endfacet
  facet normal 0.639213 0.639213 0.427566
    outer loop
      vertex -16.1438 12.1405 -0.436773
      vertex -16.5084 12.4829 -0.403506
      vertex -16.1549 12.1294 -0.403506
    endloop
  endfacet
endsolid OpenSCAD_Model
