solid OpenSCAD_Model
  facet normal 0.707107 -0.707107 0
    outer loop
      vertex -3.44715 -3.44715 0.23999
      vertex -3.97748 -3.97748 0.23999
      vertex -3.44715 -3.44715 0
    endloop
  endfacet
  facet normal 0.707107 -0.707107 0
    outer loop
      vertex -2.38649 -2.38649 0.23999
      vertex -2.91682 -2.91682 0.23999
      vertex -2.38649 -2.38649 0
    endloop
  endfacet
  facet normal 0.707107 -0.707107 0
    outer loop
      vertex -1.32583 -1.32583 0.23999
      vertex -1.85616 -1.85616 0.23999
      vertex -1.32583 -1.32583 0
    endloop
  endfacet
  facet normal 0.707107 -0.707107 0
    outer loop
      vertex -0.265165 -0.265165 0.23999
      vertex -0.795495 -0.795495 0.23999
      vertex -0.265165 -0.265165 0
    endloop
  endfacet
  facet normal 0.707107 -0.707107 0
    outer loop
      vertex 0.795495 0.795495 0.23999
      vertex 0.265165 0.265165 0.23999
      vertex 0.795495 0.795495 0
    endloop
  endfacet
  facet normal 0.707107 -0.707107 0
    outer loop
      vertex 1.85616 1.85616 0.23999
      vertex 1.32583 1.32583 0.23999
      vertex 1.85616 1.85616 0
    endloop
  endfacet
  facet normal 0.707107 -0.707107 0
    outer loop
      vertex 2.91682 2.91682 0.23999
      vertex 2.38649 2.38649 0.23999
      vertex 2.91682 2.91682 0
    endloop
  endfacet
  facet normal 0.707107 -0.707107 0
    outer loop
      vertex 3.97748 3.97748 0.23999
      vertex 3.44715 3.44715 0.23999
      vertex 3.97748 3.97748 0
    endloop
  endfacet
  facet normal 0.707107 -0.707107 0
    outer loop
      vertex 4.50781 4.50781 0
      vertex 5.03814 5.03814 0
      vertex 5.03814 5.03814 0.23999
    endloop
  endfacet
  facet normal 0.707107 -0.707107 0
    outer loop
      vertex 4.50781 4.50781 0
      vertex 5.03814 5.03814 0.23999
      vertex 4.50781 4.50781 0.23999
    endloop
  endfacet
  facet normal 0.707107 -0.707107 0
    outer loop
      vertex 5.03814 5.03814 0
      vertex 4.50781 4.50781 0
      vertex 4.59619 4.59619 -1
    endloop
  endfacet
  facet normal 0.707107 -0.707107 0
    outer loop
      vertex 3.97748 3.97748 0
      vertex 4.59619 4.59619 -1
      vertex 4.50781 4.50781 0
    endloop
  endfacet
  facet normal 0.707107 -0.707107 0
    outer loop
      vertex 3.44715 3.44715 0
      vertex 3.97748 3.97748 0
      vertex 3.44715 3.44715 0.23999
    endloop
  endfacet
  facet normal 0.707107 -0.707107 0
    outer loop
      vertex 3.97748 3.97748 0
      vertex 3.44715 3.44715 0
      vertex 4.59619 4.59619 -1
    endloop
  endfacet
  facet normal 0.707107 -0.707107 0
    outer loop
      vertex 2.91682 2.91682 0
      vertex 4.59619 4.59619 -1
      vertex 3.44715 3.44715 0
    endloop
  endfacet
  facet normal 0.707107 -0.707107 0
    outer loop
      vertex 2.38649 2.38649 0
      vertex 2.91682 2.91682 0
      vertex 2.38649 2.38649 0.23999
    endloop
  endfacet
  facet normal 0.707107 -0.707107 0
    outer loop
      vertex 2.91682 2.91682 0
      vertex 2.38649 2.38649 0
      vertex 4.59619 4.59619 -1
    endloop
  endfacet
  facet normal 0.707107 -0.707107 0
    outer loop
      vertex 1.85616 1.85616 0
      vertex 4.59619 4.59619 -1
      vertex 2.38649 2.38649 0
    endloop
  endfacet
  facet normal 0.707107 -0.707107 0
    outer loop
      vertex 1.32583 1.32583 0
      vertex 1.85616 1.85616 0
      vertex 1.32583 1.32583 0.23999
    endloop
  endfacet
  facet normal 0.707107 -0.707107 0
    outer loop
      vertex 1.32583 1.32583 0
      vertex 4.59619 4.59619 -1
      vertex 1.85616 1.85616 0
    endloop
  endfacet
  facet normal 0.707107 -0.707107 0
    outer loop
      vertex 0.795495 0.795495 0
      vertex 4.59619 4.59619 -1
      vertex 1.32583 1.32583 0
    endloop
  endfacet
  facet normal 0.707107 -0.707107 0
    outer loop
      vertex 0.265165 0.265165 0
      vertex 0.795495 0.795495 0
      vertex 0.265165 0.265165 0.23999
    endloop
  endfacet
  facet normal 0.707107 -0.707107 0
    outer loop
      vertex 0.265165 0.265165 0
      vertex 4.59619 4.59619 -1
      vertex 0.795495 0.795495 0
    endloop
  endfacet
  facet normal 0.707107 -0.707107 0
    outer loop
      vertex -0.265165 -0.265165 0
      vertex 4.59619 4.59619 -1
      vertex 0.265165 0.265165 0
    endloop
  endfacet
  facet normal 0.707107 -0.707107 0
    outer loop
      vertex -0.795495 -0.795495 0
      vertex -0.265165 -0.265165 0
      vertex -0.795495 -0.795495 0.23999
    endloop
  endfacet
  facet normal 0.707107 -0.707107 0
    outer loop
      vertex -4.59619 -4.59619 -1
      vertex -0.265165 -0.265165 0
      vertex -0.795495 -0.795495 0
    endloop
  endfacet
  facet normal 0.707107 -0.707107 0
    outer loop
      vertex -4.59619 -4.59619 -1
      vertex -0.795495 -0.795495 0
      vertex -1.32583 -1.32583 0
    endloop
  endfacet
  facet normal 0.707107 -0.707107 0
    outer loop
      vertex -1.85616 -1.85616 0
      vertex -1.32583 -1.32583 0
      vertex -1.85616 -1.85616 0.23999
    endloop
  endfacet
  facet normal 0.707107 -0.707107 0
    outer loop
      vertex -4.59619 -4.59619 -1
      vertex -1.32583 -1.32583 0
      vertex -1.85616 -1.85616 0
    endloop
  endfacet
  facet normal 0.707107 -0.707107 0
    outer loop
      vertex -4.59619 -4.59619 -1
      vertex -1.85616 -1.85616 0
      vertex -2.38649 -2.38649 0
    endloop
  endfacet
  facet normal 0.707107 -0.707107 0
    outer loop
      vertex -2.91682 -2.91682 0
      vertex -2.38649 -2.38649 0
      vertex -2.91682 -2.91682 0.23999
    endloop
  endfacet
  facet normal 0.707107 -0.707107 0
    outer loop
      vertex -4.59619 -4.59619 -1
      vertex -2.38649 -2.38649 0
      vertex -2.91682 -2.91682 0
    endloop
  endfacet
  facet normal 0.707107 -0.707107 0
    outer loop
      vertex -4.59619 -4.59619 -1
      vertex -2.91682 -2.91682 0
      vertex -3.44715 -3.44715 0
    endloop
  endfacet
  facet normal 0.707107 -0.707107 0
    outer loop
      vertex -3.97748 -3.97748 0
      vertex -3.44715 -3.44715 0
      vertex -3.97748 -3.97748 0.23999
    endloop
  endfacet
  facet normal 0.707107 -0.707107 0
    outer loop
      vertex -4.59619 -4.59619 -1
      vertex -3.44715 -3.44715 0
      vertex -3.97748 -3.97748 0
    endloop
  endfacet
  facet normal 0.707107 -0.707107 0
    outer loop
      vertex -4.59619 -4.59619 -1
      vertex -3.97748 -3.97748 0
      vertex -4.50781 -4.50781 0
    endloop
  endfacet
  facet normal 0.707107 -0.707107 0
    outer loop
      vertex -0.265165 -0.265165 0
      vertex -4.59619 -4.59619 -1
      vertex 4.59619 4.59619 -1
    endloop
  endfacet
  facet normal 0.707107 -0.707107 0
    outer loop
      vertex 5.3033 5.3033 0
      vertex 5.03814 5.03814 0
      vertex 4.59619 4.59619 -1
    endloop
  endfacet
  facet normal 0.707107 -0.707107 0
    outer loop
      vertex -5.03814 -5.03814 0
      vertex -4.50781 -4.50781 0
      vertex -4.50781 -4.50781 0.23999
    endloop
  endfacet
  facet normal 0.707107 -0.707107 0
    outer loop
      vertex -5.03814 -5.03814 0
      vertex -4.50781 -4.50781 0.23999
      vertex -5.03814 -5.03814 0.23999
    endloop
  endfacet
  facet normal 0.707107 -0.707107 0
    outer loop
      vertex -4.50781 -4.50781 0
      vertex -5.03814 -5.03814 0
      vertex -4.59619 -4.59619 -1
    endloop
  endfacet
  facet normal 0.707107 -0.707107 0
    outer loop
      vertex -4.59619 -4.59619 -1
      vertex -5.03814 -5.03814 0
      vertex -5.3033 -5.3033 0
    endloop
  endfacet
  facet normal 4.32979e-17 -4.32977e-17 1
    outer loop
      vertex -21.5467 10.9401 1.40661e-15
      vertex -5.03814 -5.03814 0
      vertex -21.4405 11.3642 1.42037e-15
    endloop
  endfacet
  facet normal 4.32978e-17 -4.32978e-17 1
    outer loop
      vertex -5.03814 -5.03814 0
      vertex -21.5467 10.9401 1.40661e-15
      vertex -5.3033 -5.3033 0
    endloop
  endfacet
  facet normal -0.707107 -0.707107 0
    outer loop
      vertex -5.03814 -5.03814 0
      vertex -21.4405 11.3642 0.23999
      vertex -21.4405 11.3642 1.42037e-15
    endloop
  endfacet
  facet normal -0.707107 -0.707107 0
    outer loop
      vertex -21.4405 11.3642 0.23999
      vertex -5.03814 -5.03814 0
      vertex -5.03814 -5.03814 0.23999
    endloop
  endfacet
  facet normal -0 0 1
    outer loop
      vertex -21.4405 11.3642 0.23999
      vertex -4.50781 -4.50781 0.23999
      vertex -21.1658 12.1502 0.23999
    endloop
  endfacet
  facet normal 0 0 1
    outer loop
      vertex -21.4405 11.3642 0.23999
      vertex -21.1658 12.1502 0.23999
      vertex -21.4252 11.4253 0.23999
    endloop
  endfacet
  facet normal 0 0 1
    outer loop
      vertex -4.50781 -4.50781 0.23999
      vertex -21.4405 11.3642 0.23999
      vertex -5.03814 -5.03814 0.23999
    endloop
  endfacet
  facet normal 0.707107 0.707107 0
    outer loop
      vertex -4.50781 -4.50781 0.23999
      vertex -21.1658 12.1502 1.44251e-15
      vertex -21.1658 12.1502 0.23999
    endloop
  endfacet
  facet normal 0.707107 0.707107 0
    outer loop
      vertex -21.1658 12.1502 1.44251e-15
      vertex -4.50781 -4.50781 0.23999
      vertex -4.50781 -4.50781 0
    endloop
  endfacet
  facet normal 4.32978e-17 -4.32978e-17 1
    outer loop
      vertex -21.1658 12.1502 1.44251e-15
      vertex -3.97748 -3.97748 0
      vertex -20.8769 12.922 1.46342e-15
    endloop
  endfacet
  facet normal 4.33012e-17 -4.3299e-17 1
    outer loop
      vertex -21.1658 12.1502 1.44251e-15
      vertex -20.8769 12.922 1.46342e-15
      vertex -20.9293 12.8113 1.46089e-15
    endloop
  endfacet
  facet normal 4.32978e-17 -4.32978e-17 1
    outer loop
      vertex -3.97748 -3.97748 0
      vertex -21.1658 12.1502 1.44251e-15
      vertex -4.50781 -4.50781 0
    endloop
  endfacet
  facet normal -0.707107 -0.707107 0
    outer loop
      vertex -3.97748 -3.97748 0
      vertex -20.8769 12.922 0.23999
      vertex -20.8769 12.922 1.46342e-15
    endloop
  endfacet
  facet normal -0.707107 -0.707107 0
    outer loop
      vertex -20.8769 12.922 0.23999
      vertex -3.97748 -3.97748 0
      vertex -3.97748 -3.97748 0.23999
    endloop
  endfacet
  facet normal -0 0 1
    outer loop
      vertex -20.8769 12.922 0.23999
      vertex -3.44715 -3.44715 0.23999
      vertex -20.5364 13.6421 0.23999
    endloop
  endfacet
  facet normal 0 0 1
    outer loop
      vertex -3.44715 -3.44715 0.23999
      vertex -20.8769 12.922 0.23999
      vertex -3.97748 -3.97748 0.23999
    endloop
  endfacet
  facet normal 0.707107 0.707107 0
    outer loop
      vertex -3.44715 -3.44715 0.23999
      vertex -20.5364 13.6421 1.47985e-15
      vertex -20.5364 13.6421 0.23999
    endloop
  endfacet
  facet normal 0.707107 0.707107 0
    outer loop
      vertex -20.5364 13.6421 1.47985e-15
      vertex -3.44715 -3.44715 0.23999
      vertex -3.44715 -3.44715 0
    endloop
  endfacet
  facet normal 4.32978e-17 -4.32978e-17 1
    outer loop
      vertex -20.5364 13.6421 1.47985e-15
      vertex -2.91682 -2.91682 0
      vertex -20.1784 14.3447 1.49478e-15
    endloop
  endfacet
  facet normal 4.32947e-17 -4.32962e-17 1
    outer loop
      vertex -20.5364 13.6421 1.47985e-15
      vertex -20.1784 14.3447 1.49478e-15
      vertex -20.2999 14.142 1.49126e-15
    endloop
  endfacet
  facet normal 4.32978e-17 -4.32978e-17 1
    outer loop
      vertex -2.91682 -2.91682 0
      vertex -20.5364 13.6421 1.47985e-15
      vertex -3.44715 -3.44715 0
    endloop
  endfacet
  facet normal -0.707107 -0.707107 0
    outer loop
      vertex -20.1784 14.3447 1.49478e-15
      vertex -2.91682 -2.91682 0.23999
      vertex -20.1784 14.3447 0.23999
    endloop
  endfacet
  facet normal -0.707107 -0.707107 -0
    outer loop
      vertex -2.91682 -2.91682 0.23999
      vertex -20.1784 14.3447 1.49478e-15
      vertex -2.91682 -2.91682 0
    endloop
  endfacet
  facet normal -0 0 1
    outer loop
      vertex -20.1784 14.3447 0.23999
      vertex -2.38649 -2.38649 0.23999
      vertex -19.7809 15.0079 0.23999
    endloop
  endfacet
  facet normal 0 0 1
    outer loop
      vertex -2.38649 -2.38649 0.23999
      vertex -20.1784 14.3447 0.23999
      vertex -2.91682 -2.91682 0.23999
    endloop
  endfacet
  facet normal 0.707107 0.707107 0
    outer loop
      vertex -2.38649 -2.38649 0.23999
      vertex -19.7809 15.0079 1.50628e-15
      vertex -19.7809 15.0079 0.23999
    endloop
  endfacet
  facet normal 0.707107 0.707107 0
    outer loop
      vertex -19.7809 15.0079 1.50628e-15
      vertex -2.38649 -2.38649 0.23999
      vertex -2.38649 -2.38649 0
    endloop
  endfacet
  facet normal 4.32979e-17 -4.32977e-17 1
    outer loop
      vertex -19.7809 15.0079 1.50628e-15
      vertex -1.85616 -1.85616 0
      vertex -19.3616 15.6493 1.5159e-15
    endloop
  endfacet
  facet normal 4.32969e-17 -4.32971e-17 1
    outer loop
      vertex -19.7809 15.0079 1.50628e-15
      vertex -19.3616 15.6493 1.5159e-15
      vertex -19.5431 15.4046 1.51316e-15
    endloop
  endfacet
  facet normal 4.32978e-17 -4.32978e-17 1
    outer loop
      vertex -1.85616 -1.85616 0
      vertex -19.7809 15.0079 1.50628e-15
      vertex -2.38649 -2.38649 0
    endloop
  endfacet
  facet normal -0.707107 -0.707107 0
    outer loop
      vertex -19.3616 15.6493 1.5159e-15
      vertex -1.85616 -1.85616 0.23999
      vertex -19.3616 15.6493 0.23999
    endloop
  endfacet
  facet normal -0.707107 -0.707107 -0
    outer loop
      vertex -1.85616 -1.85616 0.23999
      vertex -19.3616 15.6493 1.5159e-15
      vertex -1.85616 -1.85616 0
    endloop
  endfacet
  facet normal -0 0 1
    outer loop
      vertex -19.3616 15.6493 0.23999
      vertex -1.32583 -1.32583 0.23999
      vertex -18.91 16.2583 0.23999
    endloop
  endfacet
  facet normal 0 0 1
    outer loop
      vertex -1.32583 -1.32583 0.23999
      vertex -19.3616 15.6493 0.23999
      vertex -1.85616 -1.85616 0.23999
    endloop
  endfacet
  facet normal 0.707107 0.707107 0
    outer loop
      vertex -1.32583 -1.32583 0.23999
      vertex -18.91 16.2583 1.52271e-15
      vertex -18.91 16.2583 0.23999
    endloop
  endfacet
  facet normal 0.707107 0.707107 0
    outer loop
      vertex -18.91 16.2583 1.52271e-15
      vertex -1.32583 -1.32583 0.23999
      vertex -1.32583 -1.32583 0
    endloop
  endfacet
  facet normal 4.32977e-17 -4.32979e-17 1
    outer loop
      vertex -18.91 16.2583 1.52271e-15
      vertex -0.795495 -0.795495 0
      vertex -18.4341 16.8431 1.52742e-15
    endloop
  endfacet
  facet normal 4.33e-17 -4.32998e-17 1
    outer loop
      vertex -18.91 16.2583 1.52271e-15
      vertex -18.4341 16.8431 1.52742e-15
      vertex -18.6662 16.587 1.52639e-15
    endloop
  endfacet
  facet normal 4.32978e-17 -4.32978e-17 1
    outer loop
      vertex -0.795495 -0.795495 0
      vertex -18.91 16.2583 1.52271e-15
      vertex -1.32583 -1.32583 0
    endloop
  endfacet
  facet normal -0.707107 -0.707107 0
    outer loop
      vertex -0.795495 -0.795495 0
      vertex -18.4341 16.8431 0.23999
      vertex -18.4341 16.8431 1.52742e-15
    endloop
  endfacet
  facet normal -0.707107 -0.707107 0
    outer loop
      vertex -18.4341 16.8431 0.23999
      vertex -0.795495 -0.795495 0
      vertex -0.795495 -0.795495 0.23999
    endloop
  endfacet
  facet normal -0 0 1
    outer loop
      vertex -18.4341 16.8431 0.23999
      vertex -0.265165 -0.265165 0.23999
      vertex -17.9298 17.3995 0.23999
    endloop
  endfacet
  facet normal 0 0 1
    outer loop
      vertex -0.265165 -0.265165 0.23999
      vertex -18.4341 16.8431 0.23999
      vertex -0.795495 -0.795495 0.23999
    endloop
  endfacet
  facet normal 0.707107 0.707107 0
    outer loop
      vertex -0.265165 -0.265165 0.23999
      vertex -17.9298 17.3995 1.52968e-15
      vertex -17.9298 17.3995 0.23999
    endloop
  endfacet
  facet normal 0.707107 0.707107 0
    outer loop
      vertex -17.9298 17.3995 1.52968e-15
      vertex -0.265165 -0.265165 0.23999
      vertex -0.265165 -0.265165 0
    endloop
  endfacet
  facet normal 4.32978e-17 -4.32978e-17 1
    outer loop
      vertex -17.3995 17.9298 1.52968e-15
      vertex -0.265165 -0.265165 0
      vertex 0.265165 0.265165 0
    endloop
  endfacet
  facet normal 4.32954e-17 -4.32954e-17 1
    outer loop
      vertex -17.9298 17.3995 1.52968e-15
      vertex -17.3995 17.9298 1.52968e-15
      vertex -17.6777 17.6777 1.53081e-15
    endloop
  endfacet
  facet normal 4.32978e-17 -4.32978e-17 1
    outer loop
      vertex -17.3995 17.9298 1.52968e-15
      vertex -17.9298 17.3995 1.52968e-15
      vertex -0.265165 -0.265165 0
    endloop
  endfacet
  facet normal -0.707107 -0.707107 0
    outer loop
      vertex 0.265165 0.265165 0
      vertex -17.3995 17.9298 0.23999
      vertex -17.3995 17.9298 1.52968e-15
    endloop
  endfacet
  facet normal -0.707107 -0.707107 0
    outer loop
      vertex -17.3995 17.9298 0.23999
      vertex 0.265165 0.265165 0
      vertex 0.265165 0.265165 0.23999
    endloop
  endfacet
  facet normal 0 0 1
    outer loop
      vertex -16.8431 18.4341 0.23999
      vertex 0.265165 0.265165 0.23999
      vertex 0.795495 0.795495 0.23999
    endloop
  endfacet
  facet normal 0 0 1
    outer loop
      vertex 0.265165 0.265165 0.23999
      vertex -16.8431 18.4341 0.23999
      vertex -17.3995 17.9298 0.23999
    endloop
  endfacet
  facet normal 0.707107 0.707107 0
    outer loop
      vertex 0.795495 0.795495 0.23999
      vertex -16.8431 18.4341 1.52742e-15
      vertex -16.8431 18.4341 0.23999
    endloop
  endfacet
  facet normal 0.707107 0.707107 0
    outer loop
      vertex -16.8431 18.4341 1.52742e-15
      vertex 0.795495 0.795495 0.23999
      vertex 0.795495 0.795495 0
    endloop
  endfacet
  facet normal 4.32978e-17 -4.32978e-17 1
    outer loop
      vertex -16.2583 18.91 1.52271e-15
      vertex 0.795495 0.795495 0
      vertex 1.32583 1.32583 0
    endloop
  endfacet
  facet normal 4.32998e-17 -4.33e-17 1
    outer loop
      vertex -16.8431 18.4341 1.52742e-15
      vertex -16.2583 18.91 1.52271e-15
      vertex -16.587 18.6662 1.52639e-15
    endloop
  endfacet
  facet normal 4.32979e-17 -4.32977e-17 1
    outer loop
      vertex -16.2583 18.91 1.52271e-15
      vertex -16.8431 18.4341 1.52742e-15
      vertex 0.795495 0.795495 0
    endloop
  endfacet
  facet normal -0.707107 -0.707107 0
    outer loop
      vertex 1.32583 1.32583 0
      vertex -16.2583 18.91 0.23999
      vertex -16.2583 18.91 1.52271e-15
    endloop
  endfacet
  facet normal -0.707107 -0.707107 0
    outer loop
      vertex -16.2583 18.91 0.23999
      vertex 1.32583 1.32583 0
      vertex 1.32583 1.32583 0.23999
    endloop
  endfacet
  facet normal 0 0 1
    outer loop
      vertex -15.6493 19.3616 0.23999
      vertex 1.32583 1.32583 0.23999
      vertex 1.85616 1.85616 0.23999
    endloop
  endfacet
  facet normal 0 0 1
    outer loop
      vertex 1.32583 1.32583 0.23999
      vertex -15.6493 19.3616 0.23999
      vertex -16.2583 18.91 0.23999
    endloop
  endfacet
  facet normal 0.707107 0.707107 0
    outer loop
      vertex 1.85616 1.85616 0.23999
      vertex -15.6493 19.3616 1.5159e-15
      vertex -15.6493 19.3616 0.23999
    endloop
  endfacet
  facet normal 0.707107 0.707107 0
    outer loop
      vertex -15.6493 19.3616 1.5159e-15
      vertex 1.85616 1.85616 0.23999
      vertex 1.85616 1.85616 0
    endloop
  endfacet
  facet normal 4.32978e-17 -4.32978e-17 1
    outer loop
      vertex -15.0079 19.7809 1.50628e-15
      vertex 1.85616 1.85616 0
      vertex 2.38649 2.38649 0
    endloop
  endfacet
  facet normal 4.32971e-17 -4.32969e-17 1
    outer loop
      vertex -15.6493 19.3616 1.5159e-15
      vertex -15.0079 19.7809 1.50628e-15
      vertex -15.4046 19.5431 1.51316e-15
    endloop
  endfacet
  facet normal 4.32977e-17 -4.32979e-17 1
    outer loop
      vertex -15.0079 19.7809 1.50628e-15
      vertex -15.6493 19.3616 1.5159e-15
      vertex 1.85616 1.85616 0
    endloop
  endfacet
  facet normal -0.707107 -0.707107 0
    outer loop
      vertex 2.38649 2.38649 0
      vertex -15.0079 19.7809 0.23999
      vertex -15.0079 19.7809 1.50628e-15
    endloop
  endfacet
  facet normal -0.707107 -0.707107 0
    outer loop
      vertex -15.0079 19.7809 0.23999
      vertex 2.38649 2.38649 0
      vertex 2.38649 2.38649 0.23999
    endloop
  endfacet
  facet normal 0 0 1
    outer loop
      vertex -14.3447 20.1784 0.23999
      vertex 2.38649 2.38649 0.23999
      vertex 2.91682 2.91682 0.23999
    endloop
  endfacet
  facet normal 0 0 1
    outer loop
      vertex 2.38649 2.38649 0.23999
      vertex -14.3447 20.1784 0.23999
      vertex -15.0079 19.7809 0.23999
    endloop
  endfacet
  facet normal 0.707107 0.707107 0
    outer loop
      vertex 2.91682 2.91682 0.23999
      vertex -14.3447 20.1784 1.49478e-15
      vertex -14.3447 20.1784 0.23999
    endloop
  endfacet
  facet normal 0.707107 0.707107 0
    outer loop
      vertex -14.3447 20.1784 1.49478e-15
      vertex 2.91682 2.91682 0.23999
      vertex 2.91682 2.91682 0
    endloop
  endfacet
  facet normal 4.32978e-17 -4.32978e-17 1
    outer loop
      vertex -13.6421 20.5364 1.47985e-15
      vertex 2.91682 2.91682 0
      vertex 3.44715 3.44715 0
    endloop
  endfacet
  facet normal 4.32962e-17 -4.32947e-17 1
    outer loop
      vertex -14.3447 20.1784 1.49478e-15
      vertex -13.6421 20.5364 1.47985e-15
      vertex -14.142 20.2999 1.49126e-15
    endloop
  endfacet
  facet normal 4.32978e-17 -4.32978e-17 1
    outer loop
      vertex -13.6421 20.5364 1.47985e-15
      vertex -14.3447 20.1784 1.49478e-15
      vertex 2.91682 2.91682 0
    endloop
  endfacet
  facet normal -0.707107 -0.707107 0
    outer loop
      vertex 3.44715 3.44715 0
      vertex -13.6421 20.5364 0.23999
      vertex -13.6421 20.5364 1.47985e-15
    endloop
  endfacet
  facet normal -0.707107 -0.707107 0
    outer loop
      vertex -13.6421 20.5364 0.23999
      vertex 3.44715 3.44715 0
      vertex 3.44715 3.44715 0.23999
    endloop
  endfacet
  facet normal 0 0 1
    outer loop
      vertex -12.922 20.8769 0.23999
      vertex 3.44715 3.44715 0.23999
      vertex 3.97748 3.97748 0.23999
    endloop
  endfacet
  facet normal 0 0 1
    outer loop
      vertex 3.44715 3.44715 0.23999
      vertex -12.922 20.8769 0.23999
      vertex -13.6421 20.5364 0.23999
    endloop
  endfacet
  facet normal 0.707107 0.707107 0
    outer loop
      vertex 3.97748 3.97748 0.23999
      vertex -12.922 20.8769 1.46342e-15
      vertex -12.922 20.8769 0.23999
    endloop
  endfacet
  facet normal 0.707107 0.707107 0
    outer loop
      vertex -12.922 20.8769 1.46342e-15
      vertex 3.97748 3.97748 0.23999
      vertex 3.97748 3.97748 0
    endloop
  endfacet
  facet normal 4.32978e-17 -4.32978e-17 1
    outer loop
      vertex -12.1502 21.1658 1.44251e-15
      vertex 3.97748 3.97748 0
      vertex 4.50781 4.50781 0
    endloop
  endfacet
  facet normal 4.3299e-17 -4.33012e-17 1
    outer loop
      vertex -12.922 20.8769 1.46342e-15
      vertex -12.1502 21.1658 1.44251e-15
      vertex -12.8113 20.9293 1.46089e-15
    endloop
  endfacet
  facet normal 4.32978e-17 -4.32978e-17 1
    outer loop
      vertex -12.1502 21.1658 1.44251e-15
      vertex -12.922 20.8769 1.46342e-15
      vertex 3.97748 3.97748 0
    endloop
  endfacet
  facet normal -0.707107 -0.707107 0
    outer loop
      vertex -12.1502 21.1658 1.44251e-15
      vertex 4.50781 4.50781 0.23999
      vertex -12.1502 21.1658 0.23999
    endloop
  endfacet
  facet normal -0.707107 -0.707107 -0
    outer loop
      vertex 4.50781 4.50781 0.23999
      vertex -12.1502 21.1658 1.44251e-15
      vertex 4.50781 4.50781 0
    endloop
  endfacet
  facet normal 0 0 1
    outer loop
      vertex -11.3642 21.4405 0.23999
      vertex 4.50781 4.50781 0.23999
      vertex 5.03814 5.03814 0.23999
    endloop
  endfacet
  facet normal 0 0 1
    outer loop
      vertex -12.1502 21.1658 0.23999
      vertex -11.3642 21.4405 0.23999
      vertex -11.4253 21.4252 0.23999
    endloop
  endfacet
  facet normal 0 0 1
    outer loop
      vertex -11.3642 21.4405 0.23999
      vertex -12.1502 21.1658 0.23999
      vertex 4.50781 4.50781 0.23999
    endloop
  endfacet
  facet normal 0.707107 0.707107 0
    outer loop
      vertex 5.03814 5.03814 0.23999
      vertex -11.3642 21.4405 1.42037e-15
      vertex -11.3642 21.4405 0.23999
    endloop
  endfacet
  facet normal 0.707107 0.707107 0
    outer loop
      vertex -11.3642 21.4405 1.42037e-15
      vertex 5.03814 5.03814 0.23999
      vertex 5.03814 5.03814 0
    endloop
  endfacet
  facet normal 4.32978e-17 -4.32978e-17 1
    outer loop
      vertex -10.9401 21.5467 1.40661e-15
      vertex 5.03814 5.03814 0
      vertex 5.3033 5.3033 0
    endloop
  endfacet
  facet normal 4.32977e-17 -4.32979e-17 1
    outer loop
      vertex 5.03814 5.03814 0
      vertex -10.9401 21.5467 1.40661e-15
      vertex -11.3642 21.4405 1.42037e-15
    endloop
  endfacet
  facet normal 0.5 0.5 -0.707107
    outer loop
      vertex 4.59619 4.59619 -1
      vertex -10.9401 21.5467 1.40661e-15
      vertex 5.3033 5.3033 0
    endloop
  endfacet
  facet normal 0.5 0.5 -0.707107
    outer loop
      vertex -12.02 21.2124 -1
      vertex -10.9401 21.5467 1.40661e-15
      vertex 4.59619 4.59619 -1
    endloop
  endfacet
  facet normal 0.499998 0.500003 -0.707106
    outer loop
      vertex -10.9401 21.5467 1.40661e-15
      vertex -12.02 21.2124 -1
      vertex -11.4253 21.4252 -0.429049
    endloop
  endfacet
  facet normal 0 0 -1
    outer loop
      vertex -16.587 18.6662 -1
      vertex 4.59619 4.59619 -1
      vertex -4.59619 -4.59619 -1
    endloop
  endfacet
  facet normal 0 0 -1
    outer loop
      vertex 4.59619 4.59619 -1
      vertex -14.142 20.2999 -1
      vertex -12.02 21.2124 -1
    endloop
  endfacet
  facet normal 0 0 -1
    outer loop
      vertex -12.02 21.2124 -1
      vertex -14.142 20.2999 -1
      vertex -12.8113 20.9293 -1
    endloop
  endfacet
  facet normal 0 0 -1
    outer loop
      vertex 4.59619 4.59619 -1
      vertex -15.4046 19.5431 -1
      vertex -14.142 20.2999 -1
    endloop
  endfacet
  facet normal 0 0 -1
    outer loop
      vertex 4.59619 4.59619 -1
      vertex -16.587 18.6662 -1
      vertex -15.4046 19.5431 -1
    endloop
  endfacet
  facet normal 0 0 -1
    outer loop
      vertex -4.59619 -4.59619 -1
      vertex -17.6777 17.6777 -1
      vertex -16.587 18.6662 -1
    endloop
  endfacet
  facet normal 0 0 -1
    outer loop
      vertex -4.59619 -4.59619 -1
      vertex -18.6662 16.587 -1
      vertex -17.6777 17.6777 -1
    endloop
  endfacet
  facet normal 0 0 -1
    outer loop
      vertex -4.59619 -4.59619 -1
      vertex -19.5431 15.4046 -1
      vertex -18.6662 16.587 -1
    endloop
  endfacet
  facet normal 0 0 -1
    outer loop
      vertex -4.59619 -4.59619 -1
      vertex -20.2999 14.142 -1
      vertex -19.5431 15.4046 -1
    endloop
  endfacet
  facet normal 0 0 -1
    outer loop
      vertex -21.2124 12.02 -1
      vertex -20.2999 14.142 -1
      vertex -4.59619 -4.59619 -1
    endloop
  endfacet
  facet normal 0 0 -1
    outer loop
      vertex -20.2999 14.142 -1
      vertex -21.2124 12.02 -1
      vertex -20.9293 12.8113 -1
    endloop
  endfacet
  facet normal -0.5 -0.5 -0.707107
    outer loop
      vertex -21.5467 10.9401 1.40661e-15
      vertex -4.59619 -4.59619 -1
      vertex -5.3033 -5.3033 0
    endloop
  endfacet
  facet normal -0.5 -0.5 -0.707107
    outer loop
      vertex -4.59619 -4.59619 -1
      vertex -21.5467 10.9401 1.40661e-15
      vertex -21.2124 12.02 -1
    endloop
  endfacet
  facet normal -0.500003 -0.499998 -0.707106
    outer loop
      vertex -21.2124 12.02 -1
      vertex -21.5467 10.9401 1.40661e-15
      vertex -21.4252 11.4253 -0.429049
    endloop
  endfacet
  facet normal -0.671559 0.740951 0
    outer loop
      vertex -16.8431 18.4341 0.23999
      vertex -17.3995 17.9298 1.52968e-15
      vertex -17.3995 17.9298 0.23999
    endloop
  endfacet
  facet normal -0.671559 0.740951 0
    outer loop
      vertex -17.3995 17.9298 1.52968e-15
      vertex -16.8431 18.4341 0.23999
      vertex -16.8431 18.4341 1.52742e-15
    endloop
  endfacet
  facet normal -0.671559 0.740951 1.09085e-07
    outer loop
      vertex -16.587 18.6662 -1
      vertex -17.3995 17.9298 1.52968e-15
      vertex -16.8431 18.4341 1.52742e-15
    endloop
  endfacet
  facet normal -0.671559 0.740951 0
    outer loop
      vertex -16.587 18.6662 -1
      vertex -16.8431 18.4341 1.52742e-15
      vertex -16.587 18.6662 1.52639e-15
    endloop
  endfacet
  facet normal -0.671559 0.740951 5.0492e-07
    outer loop
      vertex -17.3995 17.9298 1.52968e-15
      vertex -16.587 18.6662 -1
      vertex -17.6777 17.6777 -1
    endloop
  endfacet
  facet normal -0.671558 0.740952 0
    outer loop
      vertex -17.3995 17.9298 1.52968e-15
      vertex -17.6777 17.6777 -1
      vertex -17.6777 17.6777 1.53081e-15
    endloop
  endfacet
  facet normal -0.242963 0.970036 0
    outer loop
      vertex -11.3642 21.4405 1.42037e-15
      vertex -11.4253 21.4252 0.23999
      vertex -11.3642 21.4405 0.23999
    endloop
  endfacet
  facet normal -0.242963 0.970036 0
    outer loop
      vertex -11.3642 21.4405 1.42037e-15
      vertex -11.4253 21.4252 -0.429049
      vertex -11.4253 21.4252 0.23999
    endloop
  endfacet
  facet normal -0.242981 0.970031 2.75316e-06
    outer loop
      vertex -11.4253 21.4252 -0.429049
      vertex -11.3642 21.4405 1.42037e-15
      vertex -10.9401 21.5467 1.40661e-15
    endloop
  endfacet
  facet normal -0.90399 0.427555 0
    outer loop
      vertex -20.2999 14.142 -1
      vertex -20.5364 13.6421 1.47985e-15
      vertex -20.2999 14.142 1.49126e-15
    endloop
  endfacet
  facet normal -0.90399 0.427554 0
    outer loop
      vertex -20.5364 13.6421 1.47985e-15
      vertex -20.8769 12.922 1.46342e-15
      vertex -20.5364 13.6421 0.23999
    endloop
  endfacet
  facet normal -0.903989 0.427555 9.74115e-08
    outer loop
      vertex -20.9293 12.8113 -1
      vertex -20.5364 13.6421 1.47985e-15
      vertex -20.2999 14.142 -1
    endloop
  endfacet
  facet normal -0.90399 0.427554 4.08492e-07
    outer loop
      vertex -20.5364 13.6421 1.47985e-15
      vertex -20.9293 12.8113 -1
      vertex -20.8769 12.922 1.46342e-15
    endloop
  endfacet
  facet normal -0.903988 0.427557 0
    outer loop
      vertex -20.8769 12.922 1.46342e-15
      vertex -20.9293 12.8113 -1
      vertex -20.9293 12.8113 1.46089e-15
    endloop
  endfacet
  facet normal -0.90399 0.427554 0
    outer loop
      vertex -20.5364 13.6421 0.23999
      vertex -20.8769 12.922 1.46342e-15
      vertex -20.8769 12.922 0.23999
    endloop
  endfacet
  facet normal -0.514103 0.857728 0
    outer loop
      vertex -14.3447 20.1784 0.23999
      vertex -15.0079 19.7809 1.50628e-15
      vertex -15.0079 19.7809 0.23999
    endloop
  endfacet
  facet normal -0.514103 0.857728 0
    outer loop
      vertex -15.0079 19.7809 1.50628e-15
      vertex -14.3447 20.1784 0.23999
      vertex -14.3447 20.1784 1.49478e-15
    endloop
  endfacet
  facet normal -0.514103 0.857728 -2.87398e-08
    outer loop
      vertex -14.142 20.2999 -1
      vertex -15.0079 19.7809 1.50628e-15
      vertex -14.3447 20.1784 1.49478e-15
    endloop
  endfacet
  facet normal -0.514103 0.857729 0
    outer loop
      vertex -14.142 20.2999 -1
      vertex -14.3447 20.1784 1.49478e-15
      vertex -14.142 20.2999 1.49126e-15
    endloop
  endfacet
  facet normal -0.514103 0.857728 -1.90817e-08
    outer loop
      vertex -15.0079 19.7809 1.50628e-15
      vertex -14.142 20.2999 -1
      vertex -15.4046 19.5431 -1
    endloop
  endfacet
  facet normal -0.514103 0.857728 0
    outer loop
      vertex -15.0079 19.7809 1.50628e-15
      vertex -15.4046 19.5431 -1
      vertex -15.4046 19.5431 1.51316e-15
    endloop
  endfacet
  facet normal -0.970036 0.242963 0
    outer loop
      vertex -21.4252 11.4253 -0.429049
      vertex -21.4405 11.3642 1.42037e-15
      vertex -21.4252 11.4253 0.23999
    endloop
  endfacet
  facet normal -0.970031 0.242981 2.75316e-06
    outer loop
      vertex -21.4405 11.3642 1.42037e-15
      vertex -21.4252 11.4253 -0.429049
      vertex -21.5467 10.9401 1.40661e-15
    endloop
  endfacet
  facet normal -0.970036 0.242963 0
    outer loop
      vertex -21.4252 11.4253 0.23999
      vertex -21.4405 11.3642 1.42037e-15
      vertex -21.4405 11.3642 0.23999
    endloop
  endfacet
  facet normal -0.595699 0.803207 0
    outer loop
      vertex -15.6493 19.3616 0.23999
      vertex -16.2583 18.91 1.52271e-15
      vertex -16.2583 18.91 0.23999
    endloop
  endfacet
  facet normal -0.595699 0.803207 0
    outer loop
      vertex -16.2583 18.91 1.52271e-15
      vertex -15.6493 19.3616 0.23999
      vertex -15.6493 19.3616 1.5159e-15
    endloop
  endfacet
  facet normal -0.595698 0.803208 0
    outer loop
      vertex -15.4046 19.5431 -1
      vertex -15.6493 19.3616 1.5159e-15
      vertex -15.4046 19.5431 1.51316e-15
    endloop
  endfacet
  facet normal -0.595699 0.803207 -3.26709e-07
    outer loop
      vertex -15.4046 19.5431 -1
      vertex -16.2583 18.91 1.52271e-15
      vertex -15.6493 19.3616 1.5159e-15
    endloop
  endfacet
  facet normal -0.5957 0.803207 -5.38978e-07
    outer loop
      vertex -16.587 18.6662 -1
      vertex -16.2583 18.91 1.52271e-15
      vertex -15.4046 19.5431 -1
    endloop
  endfacet
  facet normal -0.595701 0.803207 0
    outer loop
      vertex -16.2583 18.91 1.52271e-15
      vertex -16.587 18.6662 -1
      vertex -16.587 18.6662 1.52639e-15
    endloop
  endfacet
  facet normal -0.803207 0.595701 0
    outer loop
      vertex -18.6662 16.587 -1
      vertex -18.91 16.2583 1.52271e-15
      vertex -18.6662 16.587 1.52639e-15
    endloop
  endfacet
  facet normal -0.803207 0.595699 0
    outer loop
      vertex -18.91 16.2583 1.52271e-15
      vertex -19.3616 15.6493 1.5159e-15
      vertex -18.91 16.2583 0.23999
    endloop
  endfacet
  facet normal -0.803207 0.5957 -5.38978e-07
    outer loop
      vertex -19.5431 15.4046 -1
      vertex -18.91 16.2583 1.52271e-15
      vertex -18.6662 16.587 -1
    endloop
  endfacet
  facet normal -0.803207 0.595699 -3.26709e-07
    outer loop
      vertex -18.91 16.2583 1.52271e-15
      vertex -19.5431 15.4046 -1
      vertex -19.3616 15.6493 1.5159e-15
    endloop
  endfacet
  facet normal -0.803208 0.595698 0
    outer loop
      vertex -19.3616 15.6493 1.5159e-15
      vertex -19.5431 15.4046 -1
      vertex -19.5431 15.4046 1.51316e-15
    endloop
  endfacet
  facet normal -0.803207 0.595699 0
    outer loop
      vertex -18.91 16.2583 0.23999
      vertex -19.3616 15.6493 1.5159e-15
      vertex -19.3616 15.6493 0.23999
    endloop
  endfacet
  facet normal -0.857728 0.514103 0
    outer loop
      vertex -19.5431 15.4046 -1
      vertex -19.7809 15.0079 1.50628e-15
      vertex -19.5431 15.4046 1.51316e-15
    endloop
  endfacet
  facet normal -0.857728 0.514103 0
    outer loop
      vertex -19.7809 15.0079 1.50628e-15
      vertex -20.1784 14.3447 1.49478e-15
      vertex -19.7809 15.0079 0.23999
    endloop
  endfacet
  facet normal -0.857728 0.514103 -1.90817e-08
    outer loop
      vertex -20.2999 14.142 -1
      vertex -19.7809 15.0079 1.50628e-15
      vertex -19.5431 15.4046 -1
    endloop
  endfacet
  facet normal -0.857728 0.514103 -2.87398e-08
    outer loop
      vertex -19.7809 15.0079 1.50628e-15
      vertex -20.2999 14.142 -1
      vertex -20.1784 14.3447 1.49478e-15
    endloop
  endfacet
  facet normal -0.857729 0.514103 0
    outer loop
      vertex -20.1784 14.3447 1.49478e-15
      vertex -20.2999 14.142 -1
      vertex -20.2999 14.142 1.49126e-15
    endloop
  endfacet
  facet normal -0.857728 0.514103 0
    outer loop
      vertex -19.7809 15.0079 0.23999
      vertex -20.1784 14.3447 1.49478e-15
      vertex -20.1784 14.3447 0.23999
    endloop
  endfacet
  facet normal -0.427554 0.90399 0
    outer loop
      vertex -12.922 20.8769 0.23999
      vertex -13.6421 20.5364 1.47985e-15
      vertex -13.6421 20.5364 0.23999
    endloop
  endfacet
  facet normal -0.427554 0.90399 0
    outer loop
      vertex -13.6421 20.5364 1.47985e-15
      vertex -12.922 20.8769 0.23999
      vertex -12.922 20.8769 1.46342e-15
    endloop
  endfacet
  facet normal -0.427554 0.90399 4.08492e-07
    outer loop
      vertex -12.8113 20.9293 -1
      vertex -13.6421 20.5364 1.47985e-15
      vertex -12.922 20.8769 1.46342e-15
    endloop
  endfacet
  facet normal -0.427557 0.903988 0
    outer loop
      vertex -12.8113 20.9293 -1
      vertex -12.922 20.8769 1.46342e-15
      vertex -12.8113 20.9293 1.46089e-15
    endloop
  endfacet
  facet normal -0.427555 0.903989 9.74115e-08
    outer loop
      vertex -13.6421 20.5364 1.47985e-15
      vertex -12.8113 20.9293 -1
      vertex -14.142 20.2999 -1
    endloop
  endfacet
  facet normal -0.427555 0.90399 0
    outer loop
      vertex -13.6421 20.5364 1.47985e-15
      vertex -14.142 20.2999 -1
      vertex -14.142 20.2999 1.49126e-15
    endloop
  endfacet
  facet normal -0.740952 0.671558 0
    outer loop
      vertex -17.6777 17.6777 -1
      vertex -17.9298 17.3995 1.52968e-15
      vertex -17.6777 17.6777 1.53081e-15
    endloop
  endfacet
  facet normal -0.740951 0.671559 0
    outer loop
      vertex -17.9298 17.3995 1.52968e-15
      vertex -18.4341 16.8431 1.52742e-15
      vertex -17.9298 17.3995 0.23999
    endloop
  endfacet
  facet normal -0.740951 0.671559 5.0492e-07
    outer loop
      vertex -18.6662 16.587 -1
      vertex -17.9298 17.3995 1.52968e-15
      vertex -17.6777 17.6777 -1
    endloop
  endfacet
  facet normal -0.740951 0.671559 1.09085e-07
    outer loop
      vertex -17.9298 17.3995 1.52968e-15
      vertex -18.6662 16.587 -1
      vertex -18.4341 16.8431 1.52742e-15
    endloop
  endfacet
  facet normal -0.740951 0.671559 0
    outer loop
      vertex -18.4341 16.8431 1.52742e-15
      vertex -18.6662 16.587 -1
      vertex -18.6662 16.587 1.52639e-15
    endloop
  endfacet
  facet normal -0.740951 0.671559 0
    outer loop
      vertex -17.9298 17.3995 0.23999
      vertex -18.4341 16.8431 1.52742e-15
      vertex -18.4341 16.8431 0.23999
    endloop
  endfacet
  facet normal -0.941544 0.336889 0
    outer loop
      vertex -20.9293 12.8113 -1
      vertex -21.1658 12.1502 1.44251e-15
      vertex -20.9293 12.8113 1.46089e-15
    endloop
  endfacet
  facet normal -0.941544 0.336891 1.18591e-06
    outer loop
      vertex -21.2124 12.02 -1
      vertex -21.1658 12.1502 1.44251e-15
      vertex -20.9293 12.8113 -1
    endloop
  endfacet
  facet normal -0.941544 0.336891 1.12971e-06
    outer loop
      vertex -21.4252 11.4253 -0.429049
      vertex -21.1658 12.1502 1.44251e-15
      vertex -21.2124 12.02 -1
    endloop
  endfacet
  facet normal -0.941543 0.336892 0
    outer loop
      vertex -21.4252 11.4253 0.23999
      vertex -21.1658 12.1502 1.44251e-15
      vertex -21.4252 11.4253 -0.429049
    endloop
  endfacet
  facet normal -0.941543 0.336892 0
    outer loop
      vertex -21.1658 12.1502 1.44251e-15
      vertex -21.4252 11.4253 0.23999
      vertex -21.1658 12.1502 0.23999
    endloop
  endfacet
  facet normal -0.336892 0.941543 0
    outer loop
      vertex -11.4253 21.4252 0.23999
      vertex -12.1502 21.1658 1.44251e-15
      vertex -12.1502 21.1658 0.23999
    endloop
  endfacet
  facet normal -0.336892 0.941543 0
    outer loop
      vertex -12.1502 21.1658 1.44251e-15
      vertex -11.4253 21.4252 0.23999
      vertex -11.4253 21.4252 -0.429049
    endloop
  endfacet
  facet normal -0.336891 0.941544 1.12971e-06
    outer loop
      vertex -12.02 21.2124 -1
      vertex -12.1502 21.1658 1.44251e-15
      vertex -11.4253 21.4252 -0.429049
    endloop
  endfacet
  facet normal -0.336891 0.941544 1.18591e-06
    outer loop
      vertex -12.8113 20.9293 -1
      vertex -12.1502 21.1658 1.44251e-15
      vertex -12.02 21.2124 -1
    endloop
  endfacet
  facet normal -0.336889 0.941544 0
    outer loop
      vertex -12.1502 21.1658 1.44251e-15
      vertex -12.8113 20.9293 -1
      vertex -12.8113 20.9293 1.46089e-15
    endloop
  endfacet
endsolid OpenSCAD_Model
