solid OpenSCAD_Model
  facet normal 0.707107 -0.707107 0
    outer loop
      vertex 3.0052 3.0052 0.48
      vertex 2.47487 2.47487 0.48
      vertex 3.0052 3.0052 0
    endloop
  endfacet
  facet normal 0.707107 -0.707107 0
    outer loop
      vertex 3.44715 3.44715 0
      vertex 3.97748 3.97748 0
      vertex 3.97748 3.97748 0.23999
    endloop
  endfacet
  facet normal 0.707107 -0.707107 0
    outer loop
      vertex 3.44715 3.44715 0
      vertex 3.97748 3.97748 0.23999
      vertex 3.44715 3.44715 0.23999
    endloop
  endfacet
  facet normal 0.707107 -0.707107 0
    outer loop
      vertex 3.97748 3.97748 0
      vertex 3.44715 3.44715 0
      vertex 3.88909 3.88909 -1
    endloop
  endfacet
  facet normal 0.707107 -0.707107 0
    outer loop
      vertex 3.0052 3.0052 0
      vertex 3.88909 3.88909 -1
      vertex 3.44715 3.44715 0
    endloop
  endfacet
  facet normal 0.707107 -0.707107 0
    outer loop
      vertex 2.47487 2.47487 -1
      vertex 3.0052 3.0052 0
      vertex 2.47487 2.47487 0.48
    endloop
  endfacet
  facet normal 0.707107 -0.707107 0
    outer loop
      vertex 3.0052 3.0052 0
      vertex 2.47487 2.47487 -1
      vertex 3.88909 3.88909 -1
    endloop
  endfacet
  facet normal 0.707107 -0.707107 0
    outer loop
      vertex 4.59619 4.59619 0
      vertex 3.97748 3.97748 0
      vertex 3.88909 3.88909 -1
    endloop
  endfacet
  facet normal 0.707107 -0.707107 0
    outer loop
      vertex -3.97748 -3.97748 0
      vertex -3.44715 -3.44715 0
      vertex -3.44715 -3.44715 0.23999
    endloop
  endfacet
  facet normal 0.707107 -0.707107 0
    outer loop
      vertex -3.97748 -3.97748 0
      vertex -3.44715 -3.44715 0.23999
      vertex -3.97748 -3.97748 0.23999
    endloop
  endfacet
  facet normal 0.707107 -0.707107 0
    outer loop
      vertex -3.44715 -3.44715 0
      vertex -3.97748 -3.97748 0
      vertex -3.88909 -3.88909 -1
    endloop
  endfacet
  facet normal 0.707107 -0.707107 0
    outer loop
      vertex -3.88909 -3.88909 -1
      vertex -3.97748 -3.97748 0
      vertex -4.59619 -4.59619 0
    endloop
  endfacet
  facet normal 0.707107 -0.707107 0
    outer loop
      vertex -3.0052 -3.0052 0
      vertex -2.47487 -2.47487 0.48
      vertex -3.0052 -3.0052 0.48
    endloop
  endfacet
  facet normal 0.707107 -0.707107 0
    outer loop
      vertex -2.47487 -2.47487 0.48
      vertex -3.0052 -3.0052 0
      vertex -2.47487 -2.47487 -1
    endloop
  endfacet
  facet normal 0.707107 -0.707107 0
    outer loop
      vertex -3.88909 -3.88909 -1
      vertex -3.0052 -3.0052 0
      vertex -3.44715 -3.44715 0
    endloop
  endfacet
  facet normal 0.707107 -0.707107 0
    outer loop
      vertex -3.0052 -3.0052 0
      vertex -3.88909 -3.88909 -1
      vertex -2.47487 -2.47487 -1
    endloop
  endfacet
  facet normal 4.32978e-17 -4.32978e-17 1
    outer loop
      vertex -17.6769 8.48447 1.13273e-15
      vertex -3.97748 -3.97748 0
      vertex -17.3414 9.38644 1.15726e-15
    endloop
  endfacet
  facet normal 4.32927e-17 -4.3296e-17 1
    outer loop
      vertex -17.6769 8.48447 1.13273e-15
      vertex -17.3414 9.38644 1.15726e-15
      vertex -17.3937 9.27579 1.15473e-15
    endloop
  endfacet
  facet normal 4.32978e-17 -4.32978e-17 1
    outer loop
      vertex -3.97748 -3.97748 0
      vertex -17.6769 8.48447 1.13273e-15
      vertex -4.59619 -4.59619 0
    endloop
  endfacet
  facet normal -0.707107 -0.707107 0
    outer loop
      vertex -3.97748 -3.97748 0
      vertex -17.3414 9.38644 0.23999
      vertex -17.3414 9.38644 1.15726e-15
    endloop
  endfacet
  facet normal -0.707107 -0.707107 0
    outer loop
      vertex -17.3414 9.38644 0.23999
      vertex -3.97748 -3.97748 0
      vertex -3.97748 -3.97748 0.23999
    endloop
  endfacet
  facet normal -0 0 1
    outer loop
      vertex -17.3414 9.38644 0.23999
      vertex -3.44715 -3.44715 0.23999
      vertex -17.0008 10.1065 0.23999
    endloop
  endfacet
  facet normal 0 0 1
    outer loop
      vertex -3.44715 -3.44715 0.23999
      vertex -17.3414 9.38644 0.23999
      vertex -3.97748 -3.97748 0.23999
    endloop
  endfacet
  facet normal 0.707107 0.707107 0
    outer loop
      vertex -3.44715 -3.44715 0.23999
      vertex -17.0008 10.1065 1.17369e-15
      vertex -17.0008 10.1065 0.23999
    endloop
  endfacet
  facet normal 0.707107 0.707107 0
    outer loop
      vertex -17.0008 10.1065 1.17369e-15
      vertex -3.44715 -3.44715 0.23999
      vertex -3.44715 -3.44715 0
    endloop
  endfacet
  facet normal 4.32976e-17 -4.3298e-17 1
    outer loop
      vertex -16.7644 10.6065 1.1851e-15
      vertex -14.0537 8.22012 9.64409e-16
      vertex -16.6428 10.8092 1.18861e-15
    endloop
  endfacet
  facet normal 4.32978e-17 -4.32978e-17 1
    outer loop
      vertex -14.1421 8.13173 9.64409e-16
      vertex -3.44715 -3.44715 0
      vertex -3.0052 -3.0052 0
    endloop
  endfacet
  facet normal 4.32979e-17 -4.32977e-17 1
    outer loop
      vertex -17.0008 10.1065 1.17369e-15
      vertex -14.0537 8.22012 9.64409e-16
      vertex -16.7644 10.6065 1.1851e-15
    endloop
  endfacet
  facet normal 4.32978e-17 -4.32978e-17 1
    outer loop
      vertex -14.0537 8.22012 9.64409e-16
      vertex -17.0008 10.1065 1.17369e-15
      vertex -14.1421 8.13173 9.64409e-16
    endloop
  endfacet
  facet normal 4.32978e-17 -4.32978e-17 1
    outer loop
      vertex -14.1421 8.13173 9.64409e-16
      vertex -17.0008 10.1065 1.17369e-15
      vertex -3.44715 -3.44715 0
    endloop
  endfacet
  facet normal -0.707107 -0.707107 0
    outer loop
      vertex -16.6428 10.8092 1.18861e-15
      vertex -14.0537 8.22012 0.23999
      vertex -16.6428 10.8092 0.23999
    endloop
  endfacet
  facet normal -0.707107 -0.707107 -0
    outer loop
      vertex -14.0537 8.22012 0.23999
      vertex -16.6428 10.8092 1.18861e-15
      vertex -14.0537 8.22012 9.64409e-16
    endloop
  endfacet
  facet normal -0 0 1
    outer loop
      vertex -16.6428 10.8092 0.23999
      vertex -13.5234 8.75045 0.23999
      vertex -16.2454 11.4724 0.23999
    endloop
  endfacet
  facet normal 0 0 1
    outer loop
      vertex -13.5234 8.75045 0.23999
      vertex -16.6428 10.8092 0.23999
      vertex -14.0537 8.22012 0.23999
    endloop
  endfacet
  facet normal 0.707107 0.707107 0
    outer loop
      vertex -13.5234 8.75045 0.23999
      vertex -16.2454 11.4724 1.20012e-15
      vertex -16.2454 11.4724 0.23999
    endloop
  endfacet
  facet normal 0.707107 0.707107 0
    outer loop
      vertex -16.2454 11.4724 1.20012e-15
      vertex -13.5234 8.75045 0.23999
      vertex -13.5234 8.75045 9.64409e-16
    endloop
  endfacet
  facet normal 4.32977e-17 -4.32979e-17 1
    outer loop
      vertex -16.0076 11.8691 1.207e-15
      vertex -12.9931 9.28078 9.64409e-16
      vertex -15.8261 12.1138 1.20974e-15
    endloop
  endfacet
  facet normal 4.32978e-17 -4.32978e-17 1
    outer loop
      vertex -16.2454 11.4724 1.20012e-15
      vertex -12.9931 9.28078 9.64409e-16
      vertex -16.0076 11.8691 1.207e-15
    endloop
  endfacet
  facet normal 4.32978e-17 -4.32978e-17 1
    outer loop
      vertex -12.9931 9.28078 9.64409e-16
      vertex -16.2454 11.4724 1.20012e-15
      vertex -13.5234 8.75045 9.64409e-16
    endloop
  endfacet
  facet normal -0.707107 -0.707107 0
    outer loop
      vertex -15.8261 12.1138 1.20974e-15
      vertex -12.9931 9.28078 0.23999
      vertex -15.8261 12.1138 0.23999
    endloop
  endfacet
  facet normal -0.707107 -0.707107 -0
    outer loop
      vertex -12.9931 9.28078 0.23999
      vertex -15.8261 12.1138 1.20974e-15
      vertex -12.9931 9.28078 9.64409e-16
    endloop
  endfacet
  facet normal -0 0 1
    outer loop
      vertex -15.8261 12.1138 0.23999
      vertex -12.4628 9.81111 0.23999
      vertex -15.3744 12.7228 0.23999
    endloop
  endfacet
  facet normal 0 0 1
    outer loop
      vertex -12.4628 9.81111 0.23999
      vertex -15.8261 12.1138 0.23999
      vertex -12.9931 9.28078 0.23999
    endloop
  endfacet
  facet normal 0.707107 0.707107 0
    outer loop
      vertex -12.4628 9.81111 0.23999
      vertex -15.3744 12.7228 1.21655e-15
      vertex -15.3744 12.7228 0.23999
    endloop
  endfacet
  facet normal 0.707107 0.707107 0
    outer loop
      vertex -15.3744 12.7228 1.21655e-15
      vertex -12.4628 9.81111 0.23999
      vertex -12.4628 9.81111 9.64409e-16
    endloop
  endfacet
  facet normal 4.32977e-17 -4.32979e-17 1
    outer loop
      vertex -15.1307 13.0514 1.22022e-15
      vertex -11.9324 10.3414 9.64409e-16
      vertex -14.8986 13.3076 1.22126e-15
    endloop
  endfacet
  facet normal 4.32979e-17 -4.32976e-17 1
    outer loop
      vertex -15.3744 12.7228 1.21655e-15
      vertex -11.9324 10.3414 9.64409e-16
      vertex -15.1307 13.0514 1.22022e-15
    endloop
  endfacet
  facet normal 4.32978e-17 -4.32978e-17 1
    outer loop
      vertex -11.9324 10.3414 9.64409e-16
      vertex -15.3744 12.7228 1.21655e-15
      vertex -12.4628 9.81111 9.64409e-16
    endloop
  endfacet
  facet normal -0.707107 -0.707107 0
    outer loop
      vertex -11.9324 10.3414 9.64409e-16
      vertex -14.8986 13.3076 0.23999
      vertex -14.8986 13.3076 1.22126e-15
    endloop
  endfacet
  facet normal -0.707107 -0.707107 0
    outer loop
      vertex -14.8986 13.3076 0.23999
      vertex -11.9324 10.3414 9.64409e-16
      vertex -11.9324 10.3414 0.23999
    endloop
  endfacet
  facet normal -0 0 1
    outer loop
      vertex -14.8986 13.3076 0.23999
      vertex -11.4021 10.8718 0.23999
      vertex -14.3943 13.8639 0.23999
    endloop
  endfacet
  facet normal 0 0 1
    outer loop
      vertex -11.4021 10.8718 0.23999
      vertex -14.8986 13.3076 0.23999
      vertex -11.9324 10.3414 0.23999
    endloop
  endfacet
  facet normal 0.707107 0.707107 0
    outer loop
      vertex -11.4021 10.8718 0.23999
      vertex -14.3943 13.8639 1.22352e-15
      vertex -14.3943 13.8639 0.23999
    endloop
  endfacet
  facet normal 0.707107 0.707107 0
    outer loop
      vertex -14.3943 13.8639 1.22352e-15
      vertex -11.4021 10.8718 0.23999
      vertex -11.4021 10.8718 9.64409e-16
    endloop
  endfacet
  facet normal 4.32978e-17 -4.32978e-17 1
    outer loop
      vertex -14.1421 14.1421 1.22465e-15
      vertex -10.8718 11.4021 9.64409e-16
      vertex -13.8639 14.3943 1.22352e-15
    endloop
  endfacet
  facet normal 4.32978e-17 -4.32978e-17 1
    outer loop
      vertex -10.8718 11.4021 9.64409e-16
      vertex -14.1421 14.1421 1.22465e-15
      vertex -11.4021 10.8718 9.64409e-16
    endloop
  endfacet
  facet normal 4.32978e-17 -4.32978e-17 1
    outer loop
      vertex -11.4021 10.8718 9.64409e-16
      vertex -14.1421 14.1421 1.22465e-15
      vertex -14.3943 13.8639 1.22352e-15
    endloop
  endfacet
  facet normal -0.707107 -0.707107 0
    outer loop
      vertex -10.8718 11.4021 9.64409e-16
      vertex -13.8639 14.3943 0.23999
      vertex -13.8639 14.3943 1.22352e-15
    endloop
  endfacet
  facet normal -0.707107 -0.707107 0
    outer loop
      vertex -13.8639 14.3943 0.23999
      vertex -10.8718 11.4021 9.64409e-16
      vertex -10.8718 11.4021 0.23999
    endloop
  endfacet
  facet normal 0 0 1
    outer loop
      vertex -13.3076 14.8986 0.23999
      vertex -10.8718 11.4021 0.23999
      vertex -10.3414 11.9324 0.23999
    endloop
  endfacet
  facet normal 0 0 1
    outer loop
      vertex -10.8718 11.4021 0.23999
      vertex -13.3076 14.8986 0.23999
      vertex -13.8639 14.3943 0.23999
    endloop
  endfacet
  facet normal 0.707107 0.707107 0
    outer loop
      vertex -10.3414 11.9324 0.23999
      vertex -13.3076 14.8986 1.22126e-15
      vertex -13.3076 14.8986 0.23999
    endloop
  endfacet
  facet normal 0.707107 0.707107 0
    outer loop
      vertex -13.3076 14.8986 1.22126e-15
      vertex -10.3414 11.9324 0.23999
      vertex -10.3414 11.9324 9.64409e-16
    endloop
  endfacet
  facet normal 4.32978e-17 -4.32978e-17 1
    outer loop
      vertex -12.7228 15.3744 1.21655e-15
      vertex -10.3414 11.9324 9.64409e-16
      vertex -9.81111 12.4628 9.64409e-16
    endloop
  endfacet
  facet normal 4.32976e-17 -4.32979e-17 1
    outer loop
      vertex -13.0514 15.1307 1.22022e-15
      vertex -10.3414 11.9324 9.64409e-16
      vertex -12.7228 15.3744 1.21655e-15
    endloop
  endfacet
  facet normal 4.32979e-17 -4.32977e-17 1
    outer loop
      vertex -10.3414 11.9324 9.64409e-16
      vertex -13.0514 15.1307 1.22022e-15
      vertex -13.3076 14.8986 1.22126e-15
    endloop
  endfacet
  facet normal -0.707107 -0.707107 0
    outer loop
      vertex -9.81111 12.4628 9.64409e-16
      vertex -12.7228 15.3744 0.23999
      vertex -12.7228 15.3744 1.21655e-15
    endloop
  endfacet
  facet normal -0.707107 -0.707107 0
    outer loop
      vertex -12.7228 15.3744 0.23999
      vertex -9.81111 12.4628 9.64409e-16
      vertex -9.81111 12.4628 0.23999
    endloop
  endfacet
  facet normal 0 0 1
    outer loop
      vertex -12.1138 15.8261 0.23999
      vertex -9.81111 12.4628 0.23999
      vertex -9.28078 12.9931 0.23999
    endloop
  endfacet
  facet normal 0 0 1
    outer loop
      vertex -9.81111 12.4628 0.23999
      vertex -12.1138 15.8261 0.23999
      vertex -12.7228 15.3744 0.23999
    endloop
  endfacet
  facet normal 0.707107 0.707107 0
    outer loop
      vertex -9.28078 12.9931 0.23999
      vertex -12.1138 15.8261 1.20974e-15
      vertex -12.1138 15.8261 0.23999
    endloop
  endfacet
  facet normal 0.707107 0.707107 0
    outer loop
      vertex -12.1138 15.8261 1.20974e-15
      vertex -9.28078 12.9931 0.23999
      vertex -9.28078 12.9931 9.64409e-16
    endloop
  endfacet
  facet normal 4.32978e-17 -4.32978e-17 1
    outer loop
      vertex -11.4724 16.2454 1.20012e-15
      vertex -9.28078 12.9931 9.64409e-16
      vertex -8.75045 13.5234 9.64409e-16
    endloop
  endfacet
  facet normal 4.32978e-17 -4.32978e-17 1
    outer loop
      vertex -11.8691 16.0076 1.207e-15
      vertex -9.28078 12.9931 9.64409e-16
      vertex -11.4724 16.2454 1.20012e-15
    endloop
  endfacet
  facet normal 4.32979e-17 -4.32977e-17 1
    outer loop
      vertex -9.28078 12.9931 9.64409e-16
      vertex -11.8691 16.0076 1.207e-15
      vertex -12.1138 15.8261 1.20974e-15
    endloop
  endfacet
  facet normal -0.707107 -0.707107 0
    outer loop
      vertex -8.75045 13.5234 9.64409e-16
      vertex -11.4724 16.2454 0.23999
      vertex -11.4724 16.2454 1.20012e-15
    endloop
  endfacet
  facet normal -0.707107 -0.707107 0
    outer loop
      vertex -11.4724 16.2454 0.23999
      vertex -8.75045 13.5234 9.64409e-16
      vertex -8.75045 13.5234 0.23999
    endloop
  endfacet
  facet normal 0 0 1
    outer loop
      vertex -10.8092 16.6428 0.23999
      vertex -8.75045 13.5234 0.23999
      vertex -8.22012 14.0537 0.23999
    endloop
  endfacet
  facet normal 0 0 1
    outer loop
      vertex -8.75045 13.5234 0.23999
      vertex -10.8092 16.6428 0.23999
      vertex -11.4724 16.2454 0.23999
    endloop
  endfacet
  facet normal 0.707107 0.707107 0
    outer loop
      vertex -8.22012 14.0537 0.23999
      vertex -10.8092 16.6428 1.18861e-15
      vertex -10.8092 16.6428 0.23999
    endloop
  endfacet
  facet normal 0.707107 0.707107 0
    outer loop
      vertex -10.8092 16.6428 1.18861e-15
      vertex -8.22012 14.0537 0.23999
      vertex -8.22012 14.0537 9.64409e-16
    endloop
  endfacet
  facet normal 4.32978e-17 -4.32978e-17 1
    outer loop
      vertex 3.44715 3.44715 0
      vertex -8.13173 14.1421 9.64409e-16
      vertex 3.0052 3.0052 0
    endloop
  endfacet
  facet normal 4.32978e-17 -4.32978e-17 1
    outer loop
      vertex -10.1065 17.0008 1.17369e-15
      vertex -8.13173 14.1421 9.64409e-16
      vertex 3.44715 3.44715 0
    endloop
  endfacet
  facet normal 4.32978e-17 -4.32978e-17 1
    outer loop
      vertex -10.1065 17.0008 1.17369e-15
      vertex -8.22012 14.0537 9.64409e-16
      vertex -8.13173 14.1421 9.64409e-16
    endloop
  endfacet
  facet normal 4.32977e-17 -4.32979e-17 1
    outer loop
      vertex -10.6065 16.7644 1.1851e-15
      vertex -8.22012 14.0537 9.64409e-16
      vertex -10.1065 17.0008 1.17369e-15
    endloop
  endfacet
  facet normal 4.3298e-17 -4.32976e-17 1
    outer loop
      vertex -8.22012 14.0537 9.64409e-16
      vertex -10.6065 16.7644 1.1851e-15
      vertex -10.8092 16.6428 1.18861e-15
    endloop
  endfacet
  facet normal -0.707107 -0.707107 0
    outer loop
      vertex 3.44715 3.44715 0
      vertex -10.1065 17.0008 0.23999
      vertex -10.1065 17.0008 1.17369e-15
    endloop
  endfacet
  facet normal -0.707107 -0.707107 0
    outer loop
      vertex -10.1065 17.0008 0.23999
      vertex 3.44715 3.44715 0
      vertex 3.44715 3.44715 0.23999
    endloop
  endfacet
  facet normal 0 0 1
    outer loop
      vertex -9.38644 17.3414 0.23999
      vertex 3.44715 3.44715 0.23999
      vertex 3.97748 3.97748 0.23999
    endloop
  endfacet
  facet normal 0 0 1
    outer loop
      vertex 3.44715 3.44715 0.23999
      vertex -9.38644 17.3414 0.23999
      vertex -10.1065 17.0008 0.23999
    endloop
  endfacet
  facet normal 0.707107 0.707107 0
    outer loop
      vertex 3.97748 3.97748 0.23999
      vertex -9.38644 17.3414 1.15726e-15
      vertex -9.38644 17.3414 0.23999
    endloop
  endfacet
  facet normal 0.707107 0.707107 0
    outer loop
      vertex -9.38644 17.3414 1.15726e-15
      vertex 3.97748 3.97748 0.23999
      vertex 3.97748 3.97748 0
    endloop
  endfacet
  facet normal 4.32978e-17 -4.32978e-17 1
    outer loop
      vertex -8.48447 17.6769 1.13273e-15
      vertex 3.97748 3.97748 0
      vertex 4.59619 4.59619 0
    endloop
  endfacet
  facet normal 4.3296e-17 -4.32927e-17 1
    outer loop
      vertex -9.38644 17.3414 1.15726e-15
      vertex -8.48447 17.6769 1.13273e-15
      vertex -9.27579 17.3937 1.15473e-15
    endloop
  endfacet
  facet normal 4.32978e-17 -4.32978e-17 1
    outer loop
      vertex -8.48447 17.6769 1.13273e-15
      vertex -9.38644 17.3414 1.15726e-15
      vertex 3.97748 3.97748 0
    endloop
  endfacet
  facet normal 0.5 0.5 -0.707107
    outer loop
      vertex 3.88909 3.88909 -1
      vertex -8.48447 17.6769 1.13273e-15
      vertex 4.59619 4.59619 0
    endloop
  endfacet
  facet normal 0.5 0.5 -0.707107
    outer loop
      vertex -9.50645 17.2846 -1
      vertex -8.48447 17.6769 1.13273e-15
      vertex 3.88909 3.88909 -1
    endloop
  endfacet
  facet normal 0.500009 0.499985 -0.707111
    outer loop
      vertex -8.48447 17.6769 1.13273e-15
      vertex -9.50645 17.2846 -1
      vertex -9.27579 17.3937 -0.759749
    endloop
  endfacet
  facet normal 0 0 -1
    outer loop
      vertex -3.88909 -3.88909 -1
      vertex -13.0815 8.13173 -1
      vertex -2.47487 -2.47487 -1
    endloop
  endfacet
  facet normal 0 0 -1
    outer loop
      vertex -13.0815 8.13173 -1
      vertex -15.1307 13.0514 -1
      vertex -14.1421 14.1421 -1
    endloop
  endfacet
  facet normal 0 0 -1
    outer loop
      vertex -13.0815 8.13173 -1
      vertex -16.0076 11.8691 -1
      vertex -15.1307 13.0514 -1
    endloop
  endfacet
  facet normal 0 0 -1
    outer loop
      vertex -17.2846 9.50645 -1
      vertex -13.0815 8.13173 -1
      vertex -3.88909 -3.88909 -1
    endloop
  endfacet
  facet normal 0 0 -1
    outer loop
      vertex -13.0815 8.13173 -1
      vertex -16.7644 10.6065 -1
      vertex -16.0076 11.8691 -1
    endloop
  endfacet
  facet normal 0 0 -1
    outer loop
      vertex -13.0815 8.13173 -1
      vertex -17.2846 9.50645 -1
      vertex -16.7644 10.6065 -1
    endloop
  endfacet
  facet normal 0 0 -1
    outer loop
      vertex -8.13173 13.0815 -1
      vertex 3.88909 3.88909 -1
      vertex 2.47487 2.47487 -1
    endloop
  endfacet
  facet normal 0 0 -1
    outer loop
      vertex -8.13173 13.0815 -1
      vertex -9.50645 17.2846 -1
      vertex 3.88909 3.88909 -1
    endloop
  endfacet
  facet normal 0 0 -1
    outer loop
      vertex -8.13173 13.0815 -1
      vertex -10.6065 16.7644 -1
      vertex -9.50645 17.2846 -1
    endloop
  endfacet
  facet normal 0 0 -1
    outer loop
      vertex -8.13173 13.0815 -1
      vertex -11.8691 16.0076 -1
      vertex -10.6065 16.7644 -1
    endloop
  endfacet
  facet normal 0 0 -1
    outer loop
      vertex -8.13173 13.0815 -1
      vertex -13.0514 15.1307 -1
      vertex -11.8691 16.0076 -1
    endloop
  endfacet
  facet normal 0 0 -1
    outer loop
      vertex -14.1421 14.1421 -1
      vertex -8.13173 13.0815 -1
      vertex -13.0815 8.13173 -1
    endloop
  endfacet
  facet normal 0 0 -1
    outer loop
      vertex -8.13173 13.0815 -1
      vertex -14.1421 14.1421 -1
      vertex -13.0514 15.1307 -1
    endloop
  endfacet
  facet normal -0.5 -0.5 -0.707107
    outer loop
      vertex -17.6769 8.48447 1.13273e-15
      vertex -3.88909 -3.88909 -1
      vertex -4.59619 -4.59619 0
    endloop
  endfacet
  facet normal -0.5 -0.5 -0.707107
    outer loop
      vertex -3.88909 -3.88909 -1
      vertex -17.6769 8.48447 1.13273e-15
      vertex -17.2846 9.50645 -1
    endloop
  endfacet
  facet normal -0.499985 -0.500009 -0.707111
    outer loop
      vertex -17.2846 9.50645 -1
      vertex -17.6769 8.48447 1.13273e-15
      vertex -17.3937 9.27579 -0.759749
    endloop
  endfacet
  facet normal -0.90399 0.427554 5.37667e-07
    outer loop
      vertex -17.0008 10.1065 1.17369e-15
      vertex -17.3937 9.27579 -0.759749
      vertex -17.3414 9.38644 1.15726e-15
    endloop
  endfacet
  facet normal -0.903988 0.427557 0
    outer loop
      vertex -17.3414 9.38644 1.15726e-15
      vertex -17.3937 9.27579 -0.759749
      vertex -17.3937 9.27579 1.15473e-15
    endloop
  endfacet
  facet normal -0.90399 0.427555 0
    outer loop
      vertex -16.7644 10.6065 -1
      vertex -17.0008 10.1065 1.17369e-15
      vertex -16.7644 10.6065 1.1851e-15
    endloop
  endfacet
  facet normal -0.90399 0.427554 -1.79598e-07
    outer loop
      vertex -17.2846 9.50645 -1
      vertex -17.0008 10.1065 1.17369e-15
      vertex -16.7644 10.6065 -1
    endloop
  endfacet
  facet normal -0.903989 0.427556 -1.29084e-06
    outer loop
      vertex -17.3937 9.27579 -0.759749
      vertex -17.0008 10.1065 1.17369e-15
      vertex -17.2846 9.50645 -1
    endloop
  endfacet
  facet normal -0.90399 0.427554 0
    outer loop
      vertex -17.0008 10.1065 1.17369e-15
      vertex -17.3414 9.38644 1.15726e-15
      vertex -17.0008 10.1065 0.23999
    endloop
  endfacet
  facet normal -0.90399 0.427554 0
    outer loop
      vertex -17.0008 10.1065 0.23999
      vertex -17.3414 9.38644 1.15726e-15
      vertex -17.3414 9.38644 0.23999
    endloop
  endfacet
  facet normal -0.803209 0.595698 0
    outer loop
      vertex -15.1307 13.0514 -1
      vertex -15.3744 12.7228 1.21655e-15
      vertex -15.1307 13.0514 1.22022e-15
    endloop
  endfacet
  facet normal -0.803208 0.595699 0
    outer loop
      vertex -15.3744 12.7228 1.21655e-15
      vertex -15.8261 12.1138 1.20974e-15
      vertex -15.3744 12.7228 0.23999
    endloop
  endfacet
  facet normal -0.803208 0.595699 5.82204e-07
    outer loop
      vertex -16.0076 11.8691 -1
      vertex -15.3744 12.7228 1.21655e-15
      vertex -15.1307 13.0514 -1
    endloop
  endfacet
  facet normal -0.803208 0.595699 5.18805e-07
    outer loop
      vertex -15.3744 12.7228 1.21655e-15
      vertex -16.0076 11.8691 -1
      vertex -15.8261 12.1138 1.20974e-15
    endloop
  endfacet
  facet normal -0.803207 0.595701 0
    outer loop
      vertex -15.8261 12.1138 1.20974e-15
      vertex -16.0076 11.8691 -1
      vertex -16.0076 11.8691 1.207e-15
    endloop
  endfacet
  facet normal -0.803208 0.595699 0
    outer loop
      vertex -15.3744 12.7228 0.23999
      vertex -15.8261 12.1138 1.20974e-15
      vertex -15.8261 12.1138 0.23999
    endloop
  endfacet
  facet normal -0.514103 0.857728 0
    outer loop
      vertex -10.8092 16.6428 0.23999
      vertex -11.4724 16.2454 1.20012e-15
      vertex -11.4724 16.2454 0.23999
    endloop
  endfacet
  facet normal -0.514103 0.857728 0
    outer loop
      vertex -11.4724 16.2454 1.20012e-15
      vertex -10.8092 16.6428 0.23999
      vertex -10.8092 16.6428 1.18861e-15
    endloop
  endfacet
  facet normal -0.514103 0.857729 0
    outer loop
      vertex -10.6065 16.7644 -1
      vertex -10.8092 16.6428 1.18861e-15
      vertex -10.6065 16.7644 1.1851e-15
    endloop
  endfacet
  facet normal -0.514103 0.857728 -2.87398e-08
    outer loop
      vertex -10.8092 16.6428 1.18861e-15
      vertex -10.6065 16.7644 -1
      vertex -11.4724 16.2454 1.20012e-15
    endloop
  endfacet
  facet normal -0.514103 0.857728 -1.90817e-08
    outer loop
      vertex -11.8691 16.0076 -1
      vertex -11.4724 16.2454 1.20012e-15
      vertex -10.6065 16.7644 -1
    endloop
  endfacet
  facet normal -0.514103 0.857728 0
    outer loop
      vertex -11.4724 16.2454 1.20012e-15
      vertex -11.8691 16.0076 -1
      vertex -11.8691 16.0076 1.207e-15
    endloop
  endfacet
  facet normal -0.740951 0.671559 0
    outer loop
      vertex -14.1421 14.1421 -1
      vertex -14.3943 13.8639 1.22352e-15
      vertex -14.1421 14.1421 1.22465e-15
    endloop
  endfacet
  facet normal -0.740952 0.671558 0
    outer loop
      vertex -14.3943 13.8639 1.22352e-15
      vertex -14.8986 13.3076 1.22126e-15
      vertex -14.3943 13.8639 0.23999
    endloop
  endfacet
  facet normal -0.740951 0.671559 4.47021e-08
    outer loop
      vertex -15.1307 13.0514 -1
      vertex -14.3943 13.8639 1.22352e-15
      vertex -14.1421 14.1421 -1
    endloop
  endfacet
  facet normal -0.740952 0.671558 1.11054e-06
    outer loop
      vertex -14.3943 13.8639 1.22352e-15
      vertex -15.1307 13.0514 -1
      vertex -14.8986 13.3076 1.22126e-15
    endloop
  endfacet
  facet normal -0.74095 0.671561 0
    outer loop
      vertex -14.8986 13.3076 1.22126e-15
      vertex -15.1307 13.0514 -1
      vertex -15.1307 13.0514 1.22022e-15
    endloop
  endfacet
  facet normal -0.740952 0.671558 0
    outer loop
      vertex -14.3943 13.8639 0.23999
      vertex -14.8986 13.3076 1.22126e-15
      vertex -14.8986 13.3076 0.23999
    endloop
  endfacet
  facet normal -0.671558 0.740952 0
    outer loop
      vertex -13.3076 14.8986 0.23999
      vertex -13.8639 14.3943 1.22352e-15
      vertex -13.8639 14.3943 0.23999
    endloop
  endfacet
  facet normal -0.671558 0.740952 0
    outer loop
      vertex -13.8639 14.3943 1.22352e-15
      vertex -13.3076 14.8986 0.23999
      vertex -13.3076 14.8986 1.22126e-15
    endloop
  endfacet
  facet normal -0.671558 0.740952 1.11054e-06
    outer loop
      vertex -13.0514 15.1307 -1
      vertex -13.8639 14.3943 1.22352e-15
      vertex -13.3076 14.8986 1.22126e-15
    endloop
  endfacet
  facet normal -0.671561 0.74095 0
    outer loop
      vertex -13.0514 15.1307 -1
      vertex -13.3076 14.8986 1.22126e-15
      vertex -13.0514 15.1307 1.22022e-15
    endloop
  endfacet
  facet normal -0.671559 0.740951 4.47021e-08
    outer loop
      vertex -13.8639 14.3943 1.22352e-15
      vertex -13.0514 15.1307 -1
      vertex -14.1421 14.1421 -1
    endloop
  endfacet
  facet normal -0.671559 0.740951 0
    outer loop
      vertex -13.8639 14.3943 1.22352e-15
      vertex -14.1421 14.1421 -1
      vertex -14.1421 14.1421 1.22465e-15
    endloop
  endfacet
  facet normal -0.427554 0.90399 0
    outer loop
      vertex -9.38644 17.3414 0.23999
      vertex -10.1065 17.0008 1.17369e-15
      vertex -10.1065 17.0008 0.23999
    endloop
  endfacet
  facet normal -0.427554 0.90399 0
    outer loop
      vertex -10.1065 17.0008 1.17369e-15
      vertex -9.38644 17.3414 0.23999
      vertex -9.38644 17.3414 1.15726e-15
    endloop
  endfacet
  facet normal -0.427554 0.90399 5.37667e-07
    outer loop
      vertex -9.27579 17.3937 -0.759749
      vertex -10.1065 17.0008 1.17369e-15
      vertex -9.38644 17.3414 1.15726e-15
    endloop
  endfacet
  facet normal -0.427557 0.903988 0
    outer loop
      vertex -9.27579 17.3937 -0.759749
      vertex -9.38644 17.3414 1.15726e-15
      vertex -9.27579 17.3937 1.15473e-15
    endloop
  endfacet
  facet normal -0.427556 0.903989 -1.29084e-06
    outer loop
      vertex -10.1065 17.0008 1.17369e-15
      vertex -9.27579 17.3937 -0.759749
      vertex -9.50645 17.2846 -1
    endloop
  endfacet
  facet normal -0.427554 0.90399 -1.79598e-07
    outer loop
      vertex -10.6065 16.7644 -1
      vertex -10.1065 17.0008 1.17369e-15
      vertex -9.50645 17.2846 -1
    endloop
  endfacet
  facet normal -0.427555 0.90399 0
    outer loop
      vertex -10.1065 17.0008 1.17369e-15
      vertex -10.6065 16.7644 -1
      vertex -10.6065 16.7644 1.1851e-15
    endloop
  endfacet
  facet normal -0.857728 0.514103 0
    outer loop
      vertex -16.0076 11.8691 -1
      vertex -16.2454 11.4724 1.20012e-15
      vertex -16.0076 11.8691 1.207e-15
    endloop
  endfacet
  facet normal -0.857728 0.514103 0
    outer loop
      vertex -16.2454 11.4724 1.20012e-15
      vertex -16.6428 10.8092 1.18861e-15
      vertex -16.2454 11.4724 0.23999
    endloop
  endfacet
  facet normal -0.857728 0.514103 -1.90817e-08
    outer loop
      vertex -16.7644 10.6065 -1
      vertex -16.2454 11.4724 1.20012e-15
      vertex -16.0076 11.8691 -1
    endloop
  endfacet
  facet normal -0.857728 0.514103 -2.87398e-08
    outer loop
      vertex -16.2454 11.4724 1.20012e-15
      vertex -16.7644 10.6065 -1
      vertex -16.6428 10.8092 1.18861e-15
    endloop
  endfacet
  facet normal -0.857729 0.514103 0
    outer loop
      vertex -16.6428 10.8092 1.18861e-15
      vertex -16.7644 10.6065 -1
      vertex -16.7644 10.6065 1.1851e-15
    endloop
  endfacet
  facet normal -0.857728 0.514103 0
    outer loop
      vertex -16.2454 11.4724 0.23999
      vertex -16.6428 10.8092 1.18861e-15
      vertex -16.6428 10.8092 0.23999
    endloop
  endfacet
  facet normal -0.941544 0.336891 0
    outer loop
      vertex -17.3937 9.27579 1.15473e-15
      vertex -17.3937 9.27579 -0.759749
      vertex -17.6769 8.48447 1.13273e-15
    endloop
  endfacet
  facet normal -0.595699 0.803208 0
    outer loop
      vertex -12.1138 15.8261 0.23999
      vertex -12.7228 15.3744 1.21655e-15
      vertex -12.7228 15.3744 0.23999
    endloop
  endfacet
  facet normal -0.595699 0.803208 0
    outer loop
      vertex -12.7228 15.3744 1.21655e-15
      vertex -12.1138 15.8261 0.23999
      vertex -12.1138 15.8261 1.20974e-15
    endloop
  endfacet
  facet normal -0.595699 0.803208 5.18805e-07
    outer loop
      vertex -11.8691 16.0076 -1
      vertex -12.7228 15.3744 1.21655e-15
      vertex -12.1138 15.8261 1.20974e-15
    endloop
  endfacet
  facet normal -0.595701 0.803207 0
    outer loop
      vertex -11.8691 16.0076 -1
      vertex -12.1138 15.8261 1.20974e-15
      vertex -11.8691 16.0076 1.207e-15
    endloop
  endfacet
  facet normal -0.595699 0.803208 5.82204e-07
    outer loop
      vertex -12.7228 15.3744 1.21655e-15
      vertex -11.8691 16.0076 -1
      vertex -13.0514 15.1307 -1
    endloop
  endfacet
  facet normal -0.595698 0.803209 0
    outer loop
      vertex -12.7228 15.3744 1.21655e-15
      vertex -13.0514 15.1307 -1
      vertex -13.0514 15.1307 1.22022e-15
    endloop
  endfacet
  facet normal -0.336891 0.941544 0
    outer loop
      vertex -9.27579 17.3937 1.15473e-15
      vertex -8.48447 17.6769 1.13273e-15
      vertex -9.27579 17.3937 -0.759749
    endloop
  endfacet
  facet normal 0.707107 0.707107 0
    outer loop
      vertex 3.0052 3.0052 0.48
      vertex -8.13173 14.1421 9.64409e-16
      vertex -8.13173 14.1421 0.48
    endloop
  endfacet
  facet normal 0.707107 0.707107 0
    outer loop
      vertex -8.13173 14.1421 9.64409e-16
      vertex 3.0052 3.0052 0.48
      vertex 3.0052 3.0052 0
    endloop
  endfacet
  facet normal -0.707107 0.707107 0
    outer loop
      vertex -14.0537 8.22012 9.64409e-16
      vertex -14.1421 8.13173 9.64409e-16
      vertex -14.0537 8.22012 0.23999
    endloop
  endfacet
  facet normal -0.707107 0.707107 0
    outer loop
      vertex -12.9931 9.28078 9.64409e-16
      vertex -13.5234 8.75045 9.64409e-16
      vertex -12.9931 9.28078 0.23999
    endloop
  endfacet
  facet normal -0.707107 0.707107 0
    outer loop
      vertex -11.9324 10.3414 9.64409e-16
      vertex -12.4628 9.81111 9.64409e-16
      vertex -11.9324 10.3414 0.23999
    endloop
  endfacet
  facet normal -0.707107 0.707107 0
    outer loop
      vertex -10.8718 11.4021 9.64409e-16
      vertex -11.4021 10.8718 9.64409e-16
      vertex -10.8718 11.4021 0.23999
    endloop
  endfacet
  facet normal -0.707107 0.707107 0
    outer loop
      vertex -9.81111 12.4628 9.64409e-16
      vertex -10.3414 11.9324 9.64409e-16
      vertex -9.81111 12.4628 0.23999
    endloop
  endfacet
  facet normal -0.707107 0.707107 0
    outer loop
      vertex -8.75045 13.5234 9.64409e-16
      vertex -9.28078 12.9931 9.64409e-16
      vertex -8.75045 13.5234 0.23999
    endloop
  endfacet
  facet normal -0.707107 0.707107 0
    outer loop
      vertex -8.22012 14.0537 0.23999
      vertex -8.13173 14.1421 9.64409e-16
      vertex -8.22012 14.0537 9.64409e-16
    endloop
  endfacet
  facet normal -0.707107 0.707107 0
    outer loop
      vertex -8.13173 14.1421 9.64409e-16
      vertex -8.22012 14.0537 0.23999
      vertex -8.13173 14.1421 0.48
    endloop
  endfacet
  facet normal -0.707107 0.707107 0
    outer loop
      vertex -8.75045 13.5234 0.23999
      vertex -8.13173 14.1421 0.48
      vertex -8.22012 14.0537 0.23999
    endloop
  endfacet
  facet normal -0.707107 0.707107 0
    outer loop
      vertex -9.28078 12.9931 0.23999
      vertex -8.75045 13.5234 0.23999
      vertex -9.28078 12.9931 9.64409e-16
    endloop
  endfacet
  facet normal -0.707107 0.707107 0
    outer loop
      vertex -9.28078 12.9931 0.23999
      vertex -8.13173 14.1421 0.48
      vertex -8.75045 13.5234 0.23999
    endloop
  endfacet
  facet normal -0.707107 0.707107 0
    outer loop
      vertex -9.81111 12.4628 0.23999
      vertex -8.13173 14.1421 0.48
      vertex -9.28078 12.9931 0.23999
    endloop
  endfacet
  facet normal -0.707107 0.707107 0
    outer loop
      vertex -10.3414 11.9324 0.23999
      vertex -9.81111 12.4628 0.23999
      vertex -10.3414 11.9324 9.64409e-16
    endloop
  endfacet
  facet normal -0.707107 0.707107 0
    outer loop
      vertex -10.3414 11.9324 0.23999
      vertex -8.13173 14.1421 0.48
      vertex -9.81111 12.4628 0.23999
    endloop
  endfacet
  facet normal -0.707107 0.707107 0
    outer loop
      vertex -10.8718 11.4021 0.23999
      vertex -8.13173 14.1421 0.48
      vertex -10.3414 11.9324 0.23999
    endloop
  endfacet
  facet normal -0.707107 0.707107 0
    outer loop
      vertex -11.4021 10.8718 0.23999
      vertex -10.8718 11.4021 0.23999
      vertex -11.4021 10.8718 9.64409e-16
    endloop
  endfacet
  facet normal -0.707107 0.707107 0
    outer loop
      vertex -11.4021 10.8718 0.23999
      vertex -8.13173 14.1421 0.48
      vertex -10.8718 11.4021 0.23999
    endloop
  endfacet
  facet normal -0.707107 0.707107 0
    outer loop
      vertex -14.1421 8.13173 0.48
      vertex -11.4021 10.8718 0.23999
      vertex -11.9324 10.3414 0.23999
    endloop
  endfacet
  facet normal -0.707107 0.707107 0
    outer loop
      vertex -12.4628 9.81111 0.23999
      vertex -11.9324 10.3414 0.23999
      vertex -12.4628 9.81111 9.64409e-16
    endloop
  endfacet
  facet normal -0.707107 0.707107 0
    outer loop
      vertex -14.1421 8.13173 0.48
      vertex -11.9324 10.3414 0.23999
      vertex -12.4628 9.81111 0.23999
    endloop
  endfacet
  facet normal -0.707107 0.707107 0
    outer loop
      vertex -14.1421 8.13173 0.48
      vertex -12.4628 9.81111 0.23999
      vertex -12.9931 9.28078 0.23999
    endloop
  endfacet
  facet normal -0.707107 0.707107 0
    outer loop
      vertex -13.5234 8.75045 0.23999
      vertex -12.9931 9.28078 0.23999
      vertex -13.5234 8.75045 9.64409e-16
    endloop
  endfacet
  facet normal -0.707107 0.707107 0
    outer loop
      vertex -14.1421 8.13173 0.48
      vertex -12.9931 9.28078 0.23999
      vertex -13.5234 8.75045 0.23999
    endloop
  endfacet
  facet normal -0.707107 0.707107 0
    outer loop
      vertex -14.1421 8.13173 0.48
      vertex -13.5234 8.75045 0.23999
      vertex -14.0537 8.22012 0.23999
    endloop
  endfacet
  facet normal -0.707107 0.707107 0
    outer loop
      vertex -11.4021 10.8718 0.23999
      vertex -14.1421 8.13173 0.48
      vertex -8.13173 14.1421 0.48
    endloop
  endfacet
  facet normal -0.707107 0.707107 0
    outer loop
      vertex -14.1421 8.13173 0.48
      vertex -14.0537 8.22012 0.23999
      vertex -14.1421 8.13173 9.64409e-16
    endloop
  endfacet
  facet normal -0.707107 -0.707107 0
    outer loop
      vertex -3.0052 -3.0052 0
      vertex -14.1421 8.13173 0.48
      vertex -14.1421 8.13173 9.64409e-16
    endloop
  endfacet
  facet normal -0.707107 -0.707107 0
    outer loop
      vertex -14.1421 8.13173 0.48
      vertex -3.0052 -3.0052 0
      vertex -3.0052 -3.0052 0.48
    endloop
  endfacet
  facet normal -0 0 1
    outer loop
      vertex -8.13173 13.0815 0.48
      vertex 3.0052 3.0052 0.48
      vertex -8.13173 14.1421 0.48
    endloop
  endfacet
  facet normal 0 0 1
    outer loop
      vertex 3.0052 3.0052 0.48
      vertex -8.13173 13.0815 0.48
      vertex 2.47487 2.47487 0.48
    endloop
  endfacet
  facet normal 0 0 1
    outer loop
      vertex -8.13173 14.1421 0.48
      vertex -13.0815 8.13173 0.48
      vertex -8.13173 13.0815 0.48
    endloop
  endfacet
  facet normal 0 -0 1
    outer loop
      vertex -13.0815 8.13173 0.48
      vertex -8.13173 14.1421 0.48
      vertex -14.1421 8.13173 0.48
    endloop
  endfacet
  facet normal 0 0 1
    outer loop
      vertex -13.0815 8.13173 0.48
      vertex -3.0052 -3.0052 0.48
      vertex -2.47487 -2.47487 0.48
    endloop
  endfacet
  facet normal 0 0 1
    outer loop
      vertex -3.0052 -3.0052 0.48
      vertex -13.0815 8.13173 0.48
      vertex -14.1421 8.13173 0.48
    endloop
  endfacet
  facet normal -0.707107 -0.707107 0
    outer loop
      vertex 2.47487 2.47487 -1
      vertex -8.13173 13.0815 0.48
      vertex -8.13173 13.0815 -1
    endloop
  endfacet
  facet normal -0.707107 -0.707107 0
    outer loop
      vertex -8.13173 13.0815 0.48
      vertex 2.47487 2.47487 -1
      vertex 2.47487 2.47487 0.48
    endloop
  endfacet
  facet normal 0.707107 -0.707107 0
    outer loop
      vertex -8.13173 13.0815 0.48
      vertex -12.1092 9.104 -0.259999
      vertex -8.13173 13.0815 -1
    endloop
  endfacet
  facet normal 0.707107 -0.707107 0
    outer loop
      vertex -8.13173 13.0815 0.48
      vertex -12.1105 9.10272 -0.223243
      vertex -12.1092 9.104 -0.259999
    endloop
  endfacet
  facet normal 0.707107 -0.707107 0
    outer loop
      vertex -8.13173 13.0815 0.48
      vertex -12.1143 9.09891 -0.186841
      vertex -12.1105 9.10272 -0.223243
    endloop
  endfacet
  facet normal 0.707107 -0.707107 0
    outer loop
      vertex -8.13173 13.0815 0.48
      vertex -12.1206 9.09258 -0.151143
      vertex -12.1143 9.09891 -0.186841
    endloop
  endfacet
  facet normal 0.707107 -0.707107 0
    outer loop
      vertex -8.13173 13.0815 0.48
      vertex -12.1294 9.08382 -0.116493
      vertex -12.1206 9.09258 -0.151143
    endloop
  endfacet
  facet normal 0.707107 -0.707107 0
    outer loop
      vertex -8.13173 13.0815 0.48
      vertex -12.1405 9.07269 -0.0832262
      vertex -12.1294 9.08382 -0.116493
    endloop
  endfacet
  facet normal 0.707107 -0.707107 0
    outer loop
      vertex -8.13173 13.0815 0.48
      vertex -12.1539 9.05931 -0.0516605
      vertex -12.1405 9.07269 -0.0832262
    endloop
  endfacet
  facet normal 0.707107 -0.707107 0
    outer loop
      vertex -8.13173 13.0815 0.48
      vertex -12.1694 9.04381 -0.0221024
      vertex -12.1539 9.05931 -0.0516605
    endloop
  endfacet
  facet normal 0.707107 -0.707107 0
    outer loop
      vertex -8.13173 13.0815 0.48
      vertex -12.1869 9.02633 0.00516415
      vertex -12.1694 9.04381 -0.0221024
    endloop
  endfacet
  facet normal 0.707107 -0.707107 0
    outer loop
      vertex -8.13173 13.0815 0.48
      vertex -12.2061 9.00705 0.0298786
      vertex -12.1869 9.02633 0.00516415
    endloop
  endfacet
  facet normal 0.707107 -0.707107 0
    outer loop
      vertex -8.13173 13.0815 0.48
      vertex -12.227 8.98615 0.0518007
      vertex -12.2061 9.00705 0.0298786
    endloop
  endfacet
  facet normal 0.707107 -0.707107 0
    outer loop
      vertex -8.13173 13.0815 0.48
      vertex -12.2494 8.96383 0.0707197
      vertex -12.227 8.98615 0.0518007
    endloop
  endfacet
  facet normal 0.707107 -0.707107 0
    outer loop
      vertex -8.13173 13.0815 0.48
      vertex -12.2729 8.94031 0.0864544
      vertex -12.2494 8.96383 0.0707197
    endloop
  endfacet
  facet normal 0.707107 -0.707107 0
    outer loop
      vertex -8.13173 13.0815 0.48
      vertex -12.2974 8.91581 0.0988522
      vertex -12.2729 8.94031 0.0864544
    endloop
  endfacet
  facet normal 0.707107 -0.707107 0
    outer loop
      vertex -13.0815 8.13173 0.48
      vertex -12.2974 8.91581 0.0988522
      vertex -8.13173 13.0815 0.48
    endloop
  endfacet
  facet normal 0.707107 -0.707107 0
    outer loop
      vertex -12.2974 8.91581 0.0988522
      vertex -13.0815 8.13173 0.48
      vertex -12.3226 8.89057 0.107794
    endloop
  endfacet
  facet normal 0.707107 -0.707107 0
    outer loop
      vertex -12.3226 8.89057 0.107794
      vertex -13.0815 8.13173 0.48
      vertex -12.3484 8.86483 0.113194
    endloop
  endfacet
  facet normal 0.707107 -0.707107 0
    outer loop
      vertex -12.3484 8.86483 0.113194
      vertex -13.0815 8.13173 0.48
      vertex -12.3744 8.83883 0.115
    endloop
  endfacet
  facet normal 0.707107 -0.707107 0
    outer loop
      vertex -12.6383 8.57495 -0.223243
      vertex -13.0815 8.13173 0.48
      vertex -12.6395 8.57367 -0.259999
    endloop
  endfacet
  facet normal 0.707107 -0.707107 0
    outer loop
      vertex -12.6344 8.57876 -0.186841
      vertex -13.0815 8.13173 0.48
      vertex -12.6383 8.57495 -0.223243
    endloop
  endfacet
  facet normal 0.707107 -0.707107 0
    outer loop
      vertex -12.6281 8.58509 -0.151143
      vertex -13.0815 8.13173 0.48
      vertex -12.6344 8.57876 -0.186841
    endloop
  endfacet
  facet normal 0.707107 -0.707107 0
    outer loop
      vertex -12.6193 8.59385 -0.116493
      vertex -13.0815 8.13173 0.48
      vertex -12.6281 8.58509 -0.151143
    endloop
  endfacet
  facet normal 0.707107 -0.707107 0
    outer loop
      vertex -12.6082 8.60498 -0.0832262
      vertex -13.0815 8.13173 0.48
      vertex -12.6193 8.59385 -0.116493
    endloop
  endfacet
  facet normal 0.707107 -0.707107 0
    outer loop
      vertex -12.5948 8.61836 -0.0516605
      vertex -13.0815 8.13173 0.48
      vertex -12.6082 8.60498 -0.0832262
    endloop
  endfacet
  facet normal 0.707107 -0.707107 0
    outer loop
      vertex -12.5793 8.63386 -0.0221024
      vertex -13.0815 8.13173 0.48
      vertex -12.5948 8.61836 -0.0516605
    endloop
  endfacet
  facet normal 0.707107 -0.707107 0
    outer loop
      vertex -12.5619 8.65133 0.00516415
      vertex -13.0815 8.13173 0.48
      vertex -12.5793 8.63386 -0.0221024
    endloop
  endfacet
  facet normal 0.707107 -0.707107 0
    outer loop
      vertex -12.5426 8.67062 0.0298786
      vertex -13.0815 8.13173 0.48
      vertex -12.5619 8.65133 0.00516415
    endloop
  endfacet
  facet normal 0.707107 -0.707107 0
    outer loop
      vertex -12.5217 8.69152 0.0518007
      vertex -13.0815 8.13173 0.48
      vertex -12.5426 8.67062 0.0298786
    endloop
  endfacet
  facet normal 0.707107 -0.707107 0
    outer loop
      vertex -12.4994 8.71384 0.0707197
      vertex -13.0815 8.13173 0.48
      vertex -12.5217 8.69152 0.0518007
    endloop
  endfacet
  facet normal 0.707107 -0.707107 0
    outer loop
      vertex -12.4758 8.73736 0.0864544
      vertex -13.0815 8.13173 0.48
      vertex -12.4994 8.71384 0.0707197
    endloop
  endfacet
  facet normal 0.707107 -0.707107 0
    outer loop
      vertex -12.4513 8.76186 0.0988522
      vertex -13.0815 8.13173 0.48
      vertex -12.4758 8.73736 0.0864544
    endloop
  endfacet
  facet normal 0.707107 -0.707107 0
    outer loop
      vertex -12.4261 8.7871 0.107794
      vertex -13.0815 8.13173 0.48
      vertex -12.4513 8.76186 0.0988522
    endloop
  endfacet
  facet normal 0.707107 -0.707107 0
    outer loop
      vertex -12.4004 8.81284 0.113194
      vertex -13.0815 8.13173 0.48
      vertex -12.4261 8.7871 0.107794
    endloop
  endfacet
  facet normal 0.707107 -0.707107 0
    outer loop
      vertex -12.3744 8.83883 0.115
      vertex -13.0815 8.13173 0.48
      vertex -12.4004 8.81284 0.113194
    endloop
  endfacet
  facet normal 0.707107 -0.707107 0
    outer loop
      vertex -12.1105 9.10272 -0.296756
      vertex -8.13173 13.0815 -1
      vertex -12.1092 9.104 -0.259999
    endloop
  endfacet
  facet normal 0.707107 -0.707107 0
    outer loop
      vertex -12.1143 9.09891 -0.333158
      vertex -8.13173 13.0815 -1
      vertex -12.1105 9.10272 -0.296756
    endloop
  endfacet
  facet normal 0.707107 -0.707107 0
    outer loop
      vertex -12.1206 9.09258 -0.368856
      vertex -8.13173 13.0815 -1
      vertex -12.1143 9.09891 -0.333158
    endloop
  endfacet
  facet normal 0.707107 -0.707107 0
    outer loop
      vertex -12.1294 9.08382 -0.403506
      vertex -8.13173 13.0815 -1
      vertex -12.1206 9.09258 -0.368856
    endloop
  endfacet
  facet normal 0.707107 -0.707107 0
    outer loop
      vertex -12.1405 9.07269 -0.436773
      vertex -8.13173 13.0815 -1
      vertex -12.1294 9.08382 -0.403506
    endloop
  endfacet
  facet normal 0.707107 -0.707107 0
    outer loop
      vertex -12.1539 9.05931 -0.468338
      vertex -8.13173 13.0815 -1
      vertex -12.1405 9.07269 -0.436773
    endloop
  endfacet
  facet normal 0.707107 -0.707107 0
    outer loop
      vertex -12.1694 9.04381 -0.497897
      vertex -8.13173 13.0815 -1
      vertex -12.1539 9.05931 -0.468338
    endloop
  endfacet
  facet normal 0.707107 -0.707107 0
    outer loop
      vertex -12.1869 9.02633 -0.525165
      vertex -8.13173 13.0815 -1
      vertex -12.1694 9.04381 -0.497897
    endloop
  endfacet
  facet normal 0.707107 -0.707107 0
    outer loop
      vertex -12.2061 9.00705 -0.549878
      vertex -8.13173 13.0815 -1
      vertex -12.1869 9.02633 -0.525165
    endloop
  endfacet
  facet normal 0.707107 -0.707107 0
    outer loop
      vertex -12.227 8.98615 -0.5718
      vertex -8.13173 13.0815 -1
      vertex -12.2061 9.00705 -0.549878
    endloop
  endfacet
  facet normal 0.707107 -0.707107 0
    outer loop
      vertex -12.2494 8.96383 -0.59072
      vertex -8.13173 13.0815 -1
      vertex -12.227 8.98615 -0.5718
    endloop
  endfacet
  facet normal 0.707107 -0.707107 0
    outer loop
      vertex -12.2729 8.94031 -0.606454
      vertex -8.13173 13.0815 -1
      vertex -12.2494 8.96383 -0.59072
    endloop
  endfacet
  facet normal 0.707107 -0.707107 0
    outer loop
      vertex -12.2974 8.91581 -0.618853
      vertex -8.13173 13.0815 -1
      vertex -12.2729 8.94031 -0.606454
    endloop
  endfacet
  facet normal 0.707107 -0.707107 0
    outer loop
      vertex -13.0815 8.13173 -1
      vertex -12.2974 8.91581 -0.618853
      vertex -12.3226 8.89057 -0.627794
    endloop
  endfacet
  facet normal 0.707107 -0.707107 0
    outer loop
      vertex -13.0815 8.13173 -1
      vertex -12.3226 8.89057 -0.627794
      vertex -12.3484 8.86483 -0.633194
    endloop
  endfacet
  facet normal 0.707107 -0.707107 0
    outer loop
      vertex -13.0815 8.13173 -1
      vertex -12.3484 8.86483 -0.633194
      vertex -12.3744 8.83883 -0.634999
    endloop
  endfacet
  facet normal 0.707107 -0.707107 0
    outer loop
      vertex -13.0815 8.13173 -1
      vertex -12.3744 8.83883 -0.634999
      vertex -12.4004 8.81284 -0.633194
    endloop
  endfacet
  facet normal 0.707107 -0.707107 0
    outer loop
      vertex -13.0815 8.13173 -1
      vertex -12.6395 8.57367 -0.259999
      vertex -13.0815 8.13173 0.48
    endloop
  endfacet
  facet normal 0.707107 -0.707107 0
    outer loop
      vertex -12.6395 8.57367 -0.259999
      vertex -13.0815 8.13173 -1
      vertex -12.6383 8.57495 -0.296756
    endloop
  endfacet
  facet normal 0.707107 -0.707107 0
    outer loop
      vertex -12.6383 8.57495 -0.296756
      vertex -13.0815 8.13173 -1
      vertex -12.6344 8.57876 -0.333158
    endloop
  endfacet
  facet normal 0.707107 -0.707107 0
    outer loop
      vertex -12.6344 8.57876 -0.333158
      vertex -13.0815 8.13173 -1
      vertex -12.6281 8.58509 -0.368856
    endloop
  endfacet
  facet normal 0.707107 -0.707107 0
    outer loop
      vertex -12.6281 8.58509 -0.368856
      vertex -13.0815 8.13173 -1
      vertex -12.6193 8.59385 -0.403506
    endloop
  endfacet
  facet normal 0.707107 -0.707107 0
    outer loop
      vertex -12.6193 8.59385 -0.403506
      vertex -13.0815 8.13173 -1
      vertex -12.6082 8.60498 -0.436773
    endloop
  endfacet
  facet normal 0.707107 -0.707107 0
    outer loop
      vertex -12.2974 8.91581 -0.618853
      vertex -13.0815 8.13173 -1
      vertex -8.13173 13.0815 -1
    endloop
  endfacet
  facet normal 0.707107 -0.707107 0
    outer loop
      vertex -12.4261 8.7871 -0.627794
      vertex -13.0815 8.13173 -1
      vertex -12.4004 8.81284 -0.633194
    endloop
  endfacet
  facet normal 0.707107 -0.707107 0
    outer loop
      vertex -12.4513 8.76186 -0.618853
      vertex -13.0815 8.13173 -1
      vertex -12.4261 8.7871 -0.627794
    endloop
  endfacet
  facet normal 0.707107 -0.707107 0
    outer loop
      vertex -12.4758 8.73736 -0.606454
      vertex -13.0815 8.13173 -1
      vertex -12.4513 8.76186 -0.618853
    endloop
  endfacet
  facet normal 0.707107 -0.707107 0
    outer loop
      vertex -12.4994 8.71384 -0.59072
      vertex -13.0815 8.13173 -1
      vertex -12.4758 8.73736 -0.606454
    endloop
  endfacet
  facet normal 0.707107 -0.707107 0
    outer loop
      vertex -12.5217 8.69152 -0.5718
      vertex -13.0815 8.13173 -1
      vertex -12.4994 8.71384 -0.59072
    endloop
  endfacet
  facet normal 0.707107 -0.707107 0
    outer loop
      vertex -12.5426 8.67062 -0.549878
      vertex -13.0815 8.13173 -1
      vertex -12.5217 8.69152 -0.5718
    endloop
  endfacet
  facet normal 0.707107 -0.707107 0
    outer loop
      vertex -12.5619 8.65133 -0.525165
      vertex -13.0815 8.13173 -1
      vertex -12.5426 8.67062 -0.549878
    endloop
  endfacet
  facet normal 0.707107 -0.707107 0
    outer loop
      vertex -12.5793 8.63386 -0.497897
      vertex -13.0815 8.13173 -1
      vertex -12.5619 8.65133 -0.525165
    endloop
  endfacet
  facet normal 0.707107 -0.707107 0
    outer loop
      vertex -12.5948 8.61836 -0.468338
      vertex -13.0815 8.13173 -1
      vertex -12.5793 8.63386 -0.497897
    endloop
  endfacet
  facet normal 0.707107 -0.707107 0
    outer loop
      vertex -12.6082 8.60498 -0.436773
      vertex -13.0815 8.13173 -1
      vertex -12.5948 8.61836 -0.468338
    endloop
  endfacet
  facet normal 0.707107 0.707107 0
    outer loop
      vertex -2.47487 -2.47487 0.48
      vertex -13.0815 8.13173 -1
      vertex -13.0815 8.13173 0.48
    endloop
  endfacet
  facet normal 0.707107 0.707107 0
    outer loop
      vertex -13.0815 8.13173 -1
      vertex -2.47487 -2.47487 0.48
      vertex -2.47487 -2.47487 -1
    endloop
  endfacet
  facet normal 0.706254 0.706256 -0.0490725
    outer loop
      vertex -12.6383 8.57495 -0.223243
      vertex -12.9931 8.92722 -0.259999
      vertex -12.9918 8.9285 -0.223243
    endloop
  endfacet
  facet normal 0.706255 0.706253 -0.049109
    outer loop
      vertex -12.9931 8.92722 -0.259999
      vertex -12.6383 8.57495 -0.223243
      vertex -12.6395 8.57367 -0.259999
    endloop
  endfacet
  facet normal -0.0347066 -0.0347065 -0.998795
    outer loop
      vertex -12.3744 8.83883 0.115
      vertex -12.7019 9.21838 0.113194
      vertex -12.3484 8.86483 0.113194
    endloop
  endfacet
  facet normal -0.034706 -0.034706 -0.998795
    outer loop
      vertex -12.7019 9.21838 0.113194
      vertex -12.3744 8.83883 0.115
      vertex -12.7279 9.19239 0.115
    endloop
  endfacet
  facet normal 0.0346883 0.0346883 0.998796
    outer loop
      vertex -12.7279 9.19239 -0.634999
      vertex -12.4004 8.81284 -0.633194
      vertex -12.3744 8.83883 -0.634999
    endloop
  endfacet
  facet normal 0.034689 0.0346889 0.998796
    outer loop
      vertex -12.4004 8.81284 -0.633194
      vertex -12.7279 9.19239 -0.634999
      vertex -12.7539 9.1664 -0.633194
    endloop
  endfacet
  facet normal 0.474866 0.474866 -0.740948
    outer loop
      vertex -12.5619 8.65133 0.00516415
      vertex -12.8961 9.02417 0.0298786
      vertex -12.5426 8.67062 0.0298786
    endloop
  endfacet
  facet normal 0.474873 0.474872 -0.74094
    outer loop
      vertex -12.8961 9.02417 0.0298786
      vertex -12.5619 8.65133 0.00516415
      vertex -12.9154 9.00489 0.00516415
    endloop
  endfacet
  facet normal -0.523912 -0.523913 -0.671589
    outer loop
      vertex -12.1869 9.02633 0.00516415
      vertex -12.5229 9.39736 -0.0221024
      vertex -12.1694 9.04381 -0.0221024
    endloop
  endfacet
  facet normal -0.523926 -0.523925 -0.671569
    outer loop
      vertex -12.5229 9.39736 -0.0221024
      vertex -12.1869 9.02633 0.00516415
      vertex -12.5404 9.37989 0.00516415
    endloop
  endfacet
  facet normal -0.302336 -0.302336 -0.903984
    outer loop
      vertex -12.2729 8.94031 0.0864544
      vertex -12.6029 9.31739 0.0707197
      vertex -12.2494 8.96383 0.0707197
    endloop
  endfacet
  facet normal -0.302336 -0.302336 -0.903984
    outer loop
      vertex -12.6029 9.31739 0.0707197
      vertex -12.2729 8.94031 0.0864544
      vertex -12.6264 9.29386 0.0864544
    endloop
  endfacet
  facet normal 0.639213 0.639213 -0.427566
    outer loop
      vertex -12.6082 8.60498 -0.0832262
      vertex -12.9729 8.94741 -0.116493
      vertex -12.9618 8.95853 -0.0832262
    endloop
  endfacet
  facet normal 0.639209 0.639208 -0.42758
    outer loop
      vertex -12.9729 8.94741 -0.116493
      vertex -12.6082 8.60498 -0.0832262
      vertex -12.6193 8.59385 -0.116493
    endloop
  endfacet
  facet normal 0.238217 0.238217 -0.941544
    outer loop
      vertex -12.4758 8.73736 0.0864544
      vertex -12.8049 9.11542 0.0988522
      vertex -12.4513 8.76186 0.0988522
    endloop
  endfacet
  facet normal 0.238213 0.238213 -0.941546
    outer loop
      vertex -12.8049 9.11542 0.0988522
      vertex -12.4758 8.73736 0.0864544
      vertex -12.8294 9.09091 0.0864544
    endloop
  endfacet
  facet normal 0.363509 0.36351 -0.857742
    outer loop
      vertex -12.5217 8.69152 0.0518007
      vertex -12.8529 9.06739 0.0707197
      vertex -12.4994 8.71384 0.0707197
    endloop
  endfacet
  facet normal 0.363522 0.363521 -0.857732
    outer loop
      vertex -12.8529 9.06739 0.0707197
      vertex -12.5217 8.69152 0.0518007
      vertex -12.8752 9.04507 0.0518007
    endloop
  endfacet
  facet normal -0.665775 -0.665777 -0.336874
    outer loop
      vertex -12.1206 9.09258 -0.151143
      vertex -12.4829 9.43737 -0.116493
      vertex -12.4742 9.44614 -0.151143
    endloop
  endfacet
  facet normal -0.665769 -0.665767 -0.336906
    outer loop
      vertex -12.4829 9.43737 -0.116493
      vertex -12.1206 9.09258 -0.151143
      vertex -12.1294 9.08382 -0.116493
    endloop
  endfacet
  facet normal -0.171805 -0.171806 -0.970034
    outer loop
      vertex -12.3226 8.89057 0.107794
      vertex -12.6509 9.26936 0.0988522
      vertex -12.2974 8.91581 0.0988522
    endloop
  endfacet
  facet normal -0.171812 -0.171811 -0.970032
    outer loop
      vertex -12.6509 9.26936 0.0988522
      vertex -12.3226 8.89057 0.107794
      vertex -12.6762 9.24412 0.107794
    endloop
  endfacet
  facet normal 0.685919 0.685919 0.242963
    outer loop
      vertex -12.988 8.93232 -0.333158
      vertex -12.6281 8.58509 -0.368856
      vertex -12.9817 8.93864 -0.368856
    endloop
  endfacet
  facet normal 0.685917 0.685915 0.24298
    outer loop
      vertex -12.6281 8.58509 -0.368856
      vertex -12.988 8.93232 -0.333158
      vertex -12.6344 8.57876 -0.333158
    endloop
  endfacet
  facet normal -0.474869 -0.474868 0.740945
    outer loop
      vertex -12.5404 9.37989 -0.525165
      vertex -12.2061 9.00705 -0.549878
      vertex -12.1869 9.02633 -0.525165
    endloop
  endfacet
  facet normal -0.474855 -0.474857 0.740961
    outer loop
      vertex -12.2061 9.00705 -0.549878
      vertex -12.5404 9.37989 -0.525165
      vertex -12.5597 9.36061 -0.549878
    endloop
  endfacet
  facet normal -0.639209 -0.639208 0.42758
    outer loop
      vertex -12.4941 9.42624 -0.436773
      vertex -12.1294 9.08382 -0.403506
      vertex -12.4829 9.43737 -0.403506
    endloop
  endfacet
  facet normal -0.639218 -0.639219 0.427551
    outer loop
      vertex -12.1294 9.08382 -0.403506
      vertex -12.4941 9.42624 -0.436773
      vertex -12.1405 9.07269 -0.436773
    endloop
  endfacet
  facet normal 0.685919 0.685919 -0.242963
    outer loop
      vertex -12.6281 8.58509 -0.151143
      vertex -12.988 8.93232 -0.186841
      vertex -12.9817 8.93864 -0.151143
    endloop
  endfacet
  facet normal 0.685917 0.685915 -0.24298
    outer loop
      vertex -12.988 8.93232 -0.186841
      vertex -12.6281 8.58509 -0.151143
      vertex -12.6344 8.57876 -0.186841
    endloop
  endfacet
  facet normal 0.699453 0.699451 -0.146744
    outer loop
      vertex -12.6344 8.57876 -0.186841
      vertex -12.9918 8.9285 -0.223243
      vertex -12.988 8.93232 -0.186841
    endloop
  endfacet
  facet normal 0.699455 0.699457 -0.146708
    outer loop
      vertex -12.9918 8.9285 -0.223243
      vertex -12.6344 8.57876 -0.186841
      vertex -12.6383 8.57495 -0.223243
    endloop
  endfacet
  facet normal 0.665773 0.665771 -0.33689
    outer loop
      vertex -12.6193 8.59385 -0.116493
      vertex -12.9817 8.93864 -0.151143
      vertex -12.9729 8.94741 -0.116493
    endloop
  endfacet
  facet normal 0.665776 0.665776 -0.336874
    outer loop
      vertex -12.9817 8.93864 -0.151143
      vertex -12.6193 8.59385 -0.116493
      vertex -12.6281 8.58509 -0.151143
    endloop
  endfacet
  facet normal 0.567954 0.567955 -0.595698
    outer loop
      vertex -12.5948 8.61836 -0.0516605
      vertex -12.9329 8.98741 -0.0221024
      vertex -12.5793 8.63386 -0.0221024
    endloop
  endfacet
  facet normal 0.567954 0.567955 -0.595698
    outer loop
      vertex -12.9329 8.98741 -0.0221024
      vertex -12.5948 8.61836 -0.0516605
      vertex -12.9484 8.97191 -0.0516605
    endloop
  endfacet
  facet normal 0.523926 0.523925 -0.671569
    outer loop
      vertex -12.5793 8.63386 -0.0221024
      vertex -12.9154 9.00489 0.00516415
      vertex -12.5619 8.65133 0.00516415
    endloop
  endfacet
  facet normal 0.523912 0.523913 -0.671589
    outer loop
      vertex -12.9154 9.00489 0.00516415
      vertex -12.5793 8.63386 -0.0221024
      vertex -12.9329 8.98741 -0.0221024
    endloop
  endfacet
  facet normal 0.606506 0.606508 -0.514099
    outer loop
      vertex -12.6082 8.60498 -0.0832262
      vertex -12.9484 8.97191 -0.0516605
      vertex -12.5948 8.61836 -0.0516605
    endloop
  endfacet
  facet normal 0.606513 0.606513 -0.514086
    outer loop
      vertex -12.9484 8.97191 -0.0516605
      vertex -12.6082 8.60498 -0.0832262
      vertex -12.9618 8.95853 -0.0832262
    endloop
  endfacet
  facet normal 0.103752 0.103751 -0.989177
    outer loop
      vertex -12.4261 8.7871 0.107794
      vertex -12.7539 9.1664 0.113194
      vertex -12.4004 8.81284 0.113194
    endloop
  endfacet
  facet normal 0.103752 0.103751 -0.989177
    outer loop
      vertex -12.7539 9.1664 0.113194
      vertex -12.4261 8.7871 0.107794
      vertex -12.7797 9.14066 0.107794
    endloop
  endfacet
  facet normal 0.171812 0.171811 -0.970032
    outer loop
      vertex -12.4513 8.76186 0.0988522
      vertex -12.7797 9.14066 0.107794
      vertex -12.4261 8.7871 0.107794
    endloop
  endfacet
  facet normal 0.171809 0.171809 -0.970033
    outer loop
      vertex -12.7797 9.14066 0.107794
      vertex -12.4513 8.76186 0.0988522
      vertex -12.8049 9.11542 0.0988522
    endloop
  endfacet
  facet normal 0.0347066 0.0347066 -0.998795
    outer loop
      vertex -12.4004 8.81284 0.113194
      vertex -12.7279 9.19239 0.115
      vertex -12.3744 8.83883 0.115
    endloop
  endfacet
  facet normal 0.0347073 0.0347072 -0.998795
    outer loop
      vertex -12.7279 9.19239 0.115
      vertex -12.4004 8.81284 0.113194
      vertex -12.7539 9.1664 0.113194
    endloop
  endfacet
  facet normal 0.302335 0.302336 -0.903984
    outer loop
      vertex -12.4994 8.71384 0.0707197
      vertex -12.8294 9.09091 0.0864544
      vertex -12.4758 8.73736 0.0864544
    endloop
  endfacet
  facet normal 0.302335 0.302336 -0.903984
    outer loop
      vertex -12.8294 9.09091 0.0864544
      vertex -12.4994 8.71384 0.0707197
      vertex -12.8529 9.06739 0.0707197
    endloop
  endfacet
  facet normal 0.421228 0.421227 -0.803203
    outer loop
      vertex -12.5426 8.67062 0.0298786
      vertex -12.8752 9.04507 0.0518007
      vertex -12.5217 8.69152 0.0518007
    endloop
  endfacet
  facet normal 0.421221 0.421221 -0.80321
    outer loop
      vertex -12.8752 9.04507 0.0518007
      vertex -12.5426 8.67062 0.0298786
      vertex -12.8961 9.02417 0.0298786
    endloop
  endfacet
  facet normal -0.699453 -0.699451 -0.146744
    outer loop
      vertex -12.1105 9.10272 -0.223243
      vertex -12.4679 9.45246 -0.186841
      vertex -12.464 9.45628 -0.223243
    endloop
  endfacet
  facet normal -0.699455 -0.699457 -0.146708
    outer loop
      vertex -12.4679 9.45246 -0.186841
      vertex -12.1105 9.10272 -0.223243
      vertex -12.1143 9.09891 -0.186841
    endloop
  endfacet
  facet normal -0.606518 -0.606519 -0.514072
    outer loop
      vertex -12.1405 9.07269 -0.0832262
      vertex -12.5074 9.41287 -0.0516605
      vertex -12.4941 9.42624 -0.0832262
    endloop
  endfacet
  facet normal -0.606508 -0.606506 -0.514099
    outer loop
      vertex -12.5074 9.41287 -0.0516605
      vertex -12.1405 9.07269 -0.0832262
      vertex -12.1539 9.05931 -0.0516605
    endloop
  endfacet
  facet normal -0.567955 -0.567954 -0.595698
    outer loop
      vertex -12.1694 9.04381 -0.0221024
      vertex -12.5074 9.41287 -0.0516605
      vertex -12.1539 9.05931 -0.0516605
    endloop
  endfacet
  facet normal -0.567941 -0.567943 -0.595721
    outer loop
      vertex -12.5074 9.41287 -0.0516605
      vertex -12.1694 9.04381 -0.0221024
      vertex -12.5229 9.39736 -0.0221024
    endloop
  endfacet
  facet normal -0.639209 -0.639208 -0.42758
    outer loop
      vertex -12.1294 9.08382 -0.116493
      vertex -12.4941 9.42624 -0.0832262
      vertex -12.4829 9.43737 -0.116493
    endloop
  endfacet
  facet normal -0.639218 -0.639219 -0.427551
    outer loop
      vertex -12.4941 9.42624 -0.0832262
      vertex -12.1294 9.08382 -0.116493
      vertex -12.1405 9.07269 -0.0832262
    endloop
  endfacet
  facet normal -0.685915 -0.685917 -0.24298
    outer loop
      vertex -12.4679 9.45246 -0.186841
      vertex -12.1206 9.09258 -0.151143
      vertex -12.4742 9.44614 -0.151143
    endloop
  endfacet
  facet normal -0.685915 -0.685917 -0.24298
    outer loop
      vertex -12.1206 9.09258 -0.151143
      vertex -12.4679 9.45246 -0.186841
      vertex -12.1143 9.09891 -0.186841
    endloop
  endfacet
  facet normal -0.706255 -0.706257 -0.0490359
    outer loop
      vertex -12.1092 9.104 -0.259999
      vertex -12.464 9.45628 -0.223243
      vertex -12.4628 9.45755 -0.259999
    endloop
  endfacet
  facet normal -0.706256 -0.706254 -0.0490725
    outer loop
      vertex -12.464 9.45628 -0.223243
      vertex -12.1092 9.104 -0.259999
      vertex -12.1105 9.10272 -0.223243
    endloop
  endfacet
  facet normal 0.707107 -0.707107 0
    outer loop
      vertex -12.9931 8.92722 -0.259999
      vertex -12.4628 9.45755 -0.259999
      vertex -12.464 9.45628 -0.223243
    endloop
  endfacet
  facet normal 0.707107 -0.707107 0
    outer loop
      vertex -12.9918 8.9285 -0.223243
      vertex -12.464 9.45628 -0.223243
      vertex -12.4679 9.45246 -0.186841
    endloop
  endfacet
  facet normal 0.707107 -0.707107 0
    outer loop
      vertex -12.4628 9.45755 -0.259999
      vertex -12.9931 8.92722 -0.259999
      vertex -12.464 9.45628 -0.296756
    endloop
  endfacet
  facet normal 0.707107 -0.707107 0
    outer loop
      vertex -12.988 8.93232 -0.186841
      vertex -12.4679 9.45246 -0.186841
      vertex -12.4742 9.44614 -0.151143
    endloop
  endfacet
  facet normal 0.707107 -0.707107 0
    outer loop
      vertex -12.9918 8.9285 -0.296756
      vertex -12.464 9.45628 -0.296756
      vertex -12.9931 8.92722 -0.259999
    endloop
  endfacet
  facet normal 0.707106 -0.707107 -3.36173e-07
    outer loop
      vertex -12.9817 8.93864 -0.151143
      vertex -12.4742 9.44614 -0.151143
      vertex -12.4829 9.43737 -0.116493
    endloop
  endfacet
  facet normal 0.707107 -0.707107 0
    outer loop
      vertex -12.464 9.45628 -0.296756
      vertex -12.9918 8.9285 -0.296756
      vertex -12.4679 9.45246 -0.333158
    endloop
  endfacet
  facet normal 0.707107 -0.707107 0
    outer loop
      vertex -12.9729 8.94741 -0.116493
      vertex -12.4829 9.43737 -0.116493
      vertex -12.4941 9.42624 -0.0832262
    endloop
  endfacet
  facet normal 0.707107 -0.707107 0
    outer loop
      vertex -12.988 8.93232 -0.333158
      vertex -12.4679 9.45246 -0.333158
      vertex -12.9918 8.9285 -0.296756
    endloop
  endfacet
  facet normal 0.707106 -0.707108 -6.11025e-07
    outer loop
      vertex -12.9618 8.95853 -0.0832262
      vertex -12.4941 9.42624 -0.0832262
      vertex -12.5074 9.41287 -0.0516605
    endloop
  endfacet
  facet normal 0.707107 -0.707107 0
    outer loop
      vertex -12.4679 9.45246 -0.333158
      vertex -12.988 8.93232 -0.333158
      vertex -12.4742 9.44614 -0.368856
    endloop
  endfacet
  facet normal 0.707107 -0.707107 0
    outer loop
      vertex -12.9484 8.97191 -0.0516605
      vertex -12.5074 9.41287 -0.0516605
      vertex -12.5229 9.39736 -0.0221024
    endloop
  endfacet
  facet normal 0.707106 -0.707107 -1.91258e-05
    outer loop
      vertex -12.9817 8.93864 -0.368856
      vertex -12.4742 9.44614 -0.368856
      vertex -12.988 8.93232 -0.333158
    endloop
  endfacet
  facet normal 0.707107 -0.707107 0
    outer loop
      vertex -12.9329 8.98741 -0.0221024
      vertex -12.5229 9.39736 -0.0221024
      vertex -12.5404 9.37989 0.00516415
    endloop
  endfacet
  facet normal 0.707106 -0.707107 3.36173e-07
    outer loop
      vertex -12.4742 9.44614 -0.368856
      vertex -12.9817 8.93864 -0.368856
      vertex -12.4829 9.43737 -0.403506
    endloop
  endfacet
  facet normal 0.707107 -0.707107 0
    outer loop
      vertex -12.9154 9.00489 0.00516415
      vertex -12.5404 9.37989 0.00516415
      vertex -12.5597 9.36061 0.0298786
    endloop
  endfacet
  facet normal 0.707107 -0.707107 1.94618e-05
    outer loop
      vertex -12.9729 8.94741 -0.403506
      vertex -12.4829 9.43737 -0.403506
      vertex -12.9817 8.93864 -0.368856
    endloop
  endfacet
  facet normal 0.707106 -0.707108 -1.91099e-06
    outer loop
      vertex -12.8961 9.02417 0.0298786
      vertex -12.5597 9.36061 0.0298786
      vertex -12.5806 9.33971 0.0518007
    endloop
  endfacet
  facet normal 0.707107 -0.707107 0
    outer loop
      vertex -12.4829 9.43737 -0.403506
      vertex -12.9729 8.94741 -0.403506
      vertex -12.4941 9.42624 -0.436773
    endloop
  endfacet
  facet normal 0.707107 -0.707107 3.56441e-05
    outer loop
      vertex -12.8752 9.04507 0.0518007
      vertex -12.5806 9.33971 0.0518007
      vertex -12.6029 9.31739 0.0707197
    endloop
  endfacet
  facet normal 0.707106 -0.707108 -2.0753e-05
    outer loop
      vertex -12.9618 8.95853 -0.436773
      vertex -12.4941 9.42624 -0.436773
      vertex -12.9729 8.94741 -0.403506
    endloop
  endfacet
  facet normal 0.707108 -0.707105 4.03268e-06
    outer loop
      vertex -12.8529 9.06739 0.0707197
      vertex -12.6029 9.31739 0.0707197
      vertex -12.6264 9.29386 0.0864544
    endloop
  endfacet
  facet normal 0.707106 -0.707108 6.11044e-07
    outer loop
      vertex -12.4941 9.42624 -0.436773
      vertex -12.9618 8.95853 -0.436773
      vertex -12.5074 9.41287 -0.468338
    endloop
  endfacet
  facet normal 0.70711 -0.707104 -4.26519e-05
    outer loop
      vertex -12.8529 9.06739 0.0707197
      vertex -12.6264 9.29386 0.0864544
      vertex -12.6509 9.26936 0.0988522
    endloop
  endfacet
  facet normal 0.707107 -0.707107 2.1364e-05
    outer loop
      vertex -12.9484 8.97191 -0.468338
      vertex -12.5074 9.41287 -0.468338
      vertex -12.9618 8.95853 -0.436773
    endloop
  endfacet
  facet normal 0.707107 -0.707107 0
    outer loop
      vertex -12.8529 9.06739 0.0707197
      vertex -12.6509 9.26936 0.0988522
      vertex -12.6762 9.24412 0.107794
    endloop
  endfacet
  facet normal 0.707107 -0.707107 0
    outer loop
      vertex -12.5074 9.41287 -0.468338
      vertex -12.9484 8.97191 -0.468338
      vertex -12.5229 9.39736 -0.497897
    endloop
  endfacet
  facet normal 0.707107 -0.707107 0
    outer loop
      vertex -12.8529 9.06739 0.0707197
      vertex -12.6762 9.24412 0.107794
      vertex -12.7019 9.21838 0.113194
    endloop
  endfacet
  facet normal 0.707107 -0.707107 0
    outer loop
      vertex -12.9329 8.98741 -0.497897
      vertex -12.5229 9.39736 -0.497897
      vertex -12.9484 8.97191 -0.468338
    endloop
  endfacet
  facet normal 0.707096 -0.707117 7.3961e-05
    outer loop
      vertex -12.8529 9.06739 0.0707197
      vertex -12.7019 9.21838 0.113194
      vertex -12.7279 9.19239 0.115
    endloop
  endfacet
  facet normal 0.707107 -0.707107 0
    outer loop
      vertex -12.5229 9.39736 -0.497897
      vertex -12.9329 8.98741 -0.497897
      vertex -12.5404 9.37989 -0.525165
    endloop
  endfacet
  facet normal 0.707122 -0.707091 -7.21744e-05
    outer loop
      vertex -12.8529 9.06739 0.0707197
      vertex -12.7279 9.19239 0.115
      vertex -12.7539 9.1664 0.113194
    endloop
  endfacet
  facet normal 0.707107 -0.707107 0
    outer loop
      vertex -12.9154 9.00489 -0.525165
      vertex -12.5404 9.37989 -0.525165
      vertex -12.9329 8.98741 -0.497897
    endloop
  endfacet
  facet normal 0.707107 -0.707107 0
    outer loop
      vertex -12.8529 9.06739 0.0707197
      vertex -12.7539 9.1664 0.113194
      vertex -12.7797 9.14066 0.107794
    endloop
  endfacet
  facet normal 0.707107 -0.707107 0
    outer loop
      vertex -12.464 9.45628 -0.223243
      vertex -12.9918 8.9285 -0.223243
      vertex -12.9931 8.92722 -0.259999
    endloop
  endfacet
  facet normal 0.707062 -0.707151 0.00017601
    outer loop
      vertex -12.8529 9.06739 0.0707197
      vertex -12.7797 9.14066 0.107794
      vertex -12.8049 9.11542 0.0988522
    endloop
  endfacet
  facet normal 0.707107 -0.707107 0
    outer loop
      vertex -12.5404 9.37989 -0.525165
      vertex -12.9154 9.00489 -0.525165
      vertex -12.5597 9.36061 -0.549878
    endloop
  endfacet
  facet normal 0.707163 -0.70705 -0.000168964
    outer loop
      vertex -12.8529 9.06739 0.0707197
      vertex -12.8049 9.11542 0.0988522
      vertex -12.8294 9.09091 0.0864544
    endloop
  endfacet
  facet normal 0.707106 -0.707108 -2.88504e-05
    outer loop
      vertex -12.8961 9.02417 -0.549878
      vertex -12.5597 9.36061 -0.549878
      vertex -12.9154 9.00489 -0.525165
    endloop
  endfacet
  facet normal 0.707108 -0.707105 -3.18233e-06
    outer loop
      vertex -12.6029 9.31739 0.0707197
      vertex -12.8529 9.06739 0.0707197
      vertex -12.8752 9.04507 0.0518007
    endloop
  endfacet
  facet normal 0.707106 -0.707108 1.91099e-06
    outer loop
      vertex -12.5597 9.36061 -0.549878
      vertex -12.8961 9.02417 -0.549878
      vertex -12.5806 9.33971 -0.5718
    endloop
  endfacet
  facet normal 0.707107 -0.707107 -3.07612e-05
    outer loop
      vertex -12.5806 9.33971 0.0518007
      vertex -12.8752 9.04507 0.0518007
      vertex -12.8961 9.02417 0.0298786
    endloop
  endfacet
  facet normal 0.707107 -0.707107 3.07612e-05
    outer loop
      vertex -12.8752 9.04507 -0.5718
      vertex -12.5806 9.33971 -0.5718
      vertex -12.8961 9.02417 -0.549878
    endloop
  endfacet
  facet normal 0.707106 -0.707108 2.88493e-05
    outer loop
      vertex -12.5597 9.36061 0.0298786
      vertex -12.8961 9.02417 0.0298786
      vertex -12.9154 9.00489 0.00516415
    endloop
  endfacet
  facet normal 0.707107 -0.707107 -3.56423e-05
    outer loop
      vertex -12.5806 9.33971 -0.5718
      vertex -12.8752 9.04507 -0.5718
      vertex -12.6029 9.31739 -0.59072
    endloop
  endfacet
  facet normal 0.707107 -0.707107 0
    outer loop
      vertex -12.5404 9.37989 0.00516415
      vertex -12.9154 9.00489 0.00516415
      vertex -12.9329 8.98741 -0.0221024
    endloop
  endfacet
  facet normal 0.707107 -0.707107 0
    outer loop
      vertex -12.4679 9.45246 -0.186841
      vertex -12.988 8.93232 -0.186841
      vertex -12.9918 8.9285 -0.223243
    endloop
  endfacet
  facet normal 0.707107 -0.707107 0
    outer loop
      vertex -12.5229 9.39736 -0.0221024
      vertex -12.9329 8.98741 -0.0221024
      vertex -12.9484 8.97191 -0.0516605
    endloop
  endfacet
  facet normal 0.707108 -0.707105 -4.03292e-06
    outer loop
      vertex -12.6029 9.31739 -0.59072
      vertex -12.8529 9.06739 -0.59072
      vertex -12.6264 9.29386 -0.606454
    endloop
  endfacet
  facet normal 0.707107 -0.707107 -2.13634e-05
    outer loop
      vertex -12.5074 9.41287 -0.0516605
      vertex -12.9484 8.97191 -0.0516605
      vertex -12.9618 8.95853 -0.0832262
    endloop
  endfacet
  facet normal 0.707106 -0.707108 2.0753e-05
    outer loop
      vertex -12.4941 9.42624 -0.0832262
      vertex -12.9618 8.95853 -0.0832262
      vertex -12.9729 8.94741 -0.116493
    endloop
  endfacet
  facet normal 0.707107 -0.707107 -1.94618e-05
    outer loop
      vertex -12.4829 9.43737 -0.116493
      vertex -12.9729 8.94741 -0.116493
      vertex -12.9817 8.93864 -0.151143
    endloop
  endfacet
  facet normal 0.707163 -0.70705 0.000169047
    outer loop
      vertex -12.8049 9.11542 -0.618853
      vertex -12.8529 9.06739 -0.59072
      vertex -12.8294 9.09091 -0.606454
    endloop
  endfacet
  facet normal 0.707106 -0.707107 1.91258e-05
    outer loop
      vertex -12.4742 9.44614 -0.151143
      vertex -12.9817 8.93864 -0.151143
      vertex -12.988 8.93232 -0.186841
    endloop
  endfacet
  facet normal 0.707062 -0.707151 -0.00017601
    outer loop
      vertex -12.7797 9.14066 -0.627794
      vertex -12.8529 9.06739 -0.59072
      vertex -12.8049 9.11542 -0.618853
    endloop
  endfacet
  facet normal 0.70711 -0.707104 4.26493e-05
    outer loop
      vertex -12.6264 9.29386 -0.606454
      vertex -12.8529 9.06739 -0.59072
      vertex -12.6509 9.26936 -0.618853
    endloop
  endfacet
  facet normal 0.707107 -0.707107 0
    outer loop
      vertex -12.7539 9.1664 -0.633194
      vertex -12.8529 9.06739 -0.59072
      vertex -12.7797 9.14066 -0.627794
    endloop
  endfacet
  facet normal 0.707096 -0.707117 -7.39687e-05
    outer loop
      vertex -12.7019 9.21838 -0.633194
      vertex -12.8529 9.06739 -0.59072
      vertex -12.7279 9.19239 -0.634999
    endloop
  endfacet
  facet normal 0.707122 -0.707091 7.21671e-05
    outer loop
      vertex -12.7279 9.19239 -0.634999
      vertex -12.8529 9.06739 -0.59072
      vertex -12.7539 9.1664 -0.633194
    endloop
  endfacet
  facet normal 0.707107 -0.707107 0
    outer loop
      vertex -12.6762 9.24412 -0.627794
      vertex -12.8529 9.06739 -0.59072
      vertex -12.7019 9.21838 -0.633194
    endloop
  endfacet
  facet normal 0.707107 -0.707107 0
    outer loop
      vertex -12.6509 9.26936 -0.618853
      vertex -12.8529 9.06739 -0.59072
      vertex -12.6762 9.24412 -0.627794
    endloop
  endfacet
  facet normal 0.707108 -0.707105 3.18217e-06
    outer loop
      vertex -12.8529 9.06739 -0.59072
      vertex -12.6029 9.31739 -0.59072
      vertex -12.8752 9.04507 -0.5718
    endloop
  endfacet
  facet normal -0.421227 -0.421228 -0.803203
    outer loop
      vertex -12.227 8.98615 0.0518007
      vertex -12.5597 9.36061 0.0298786
      vertex -12.2061 9.00705 0.0298786
    endloop
  endfacet
  facet normal -0.421227 -0.421228 -0.803203
    outer loop
      vertex -12.5597 9.36061 0.0298786
      vertex -12.227 8.98615 0.0518007
      vertex -12.5806 9.33971 0.0518007
    endloop
  endfacet
  facet normal -0.363509 -0.36351 -0.857742
    outer loop
      vertex -12.2494 8.96383 0.0707197
      vertex -12.5806 9.33971 0.0518007
      vertex -12.227 8.98615 0.0518007
    endloop
  endfacet
  facet normal -0.363515 -0.363515 -0.857737
    outer loop
      vertex -12.5806 9.33971 0.0518007
      vertex -12.2494 8.96383 0.0707197
      vertex -12.6029 9.31739 0.0707197
    endloop
  endfacet
  facet normal -0.474879 -0.474878 -0.740932
    outer loop
      vertex -12.2061 9.00705 0.0298786
      vertex -12.5404 9.37989 0.00516415
      vertex -12.1869 9.02633 0.00516415
    endloop
  endfacet
  facet normal -0.474865 -0.474867 -0.740948
    outer loop
      vertex -12.5404 9.37989 0.00516415
      vertex -12.2061 9.00705 0.0298786
      vertex -12.5597 9.36061 0.0298786
    endloop
  endfacet
  facet normal -0.238217 -0.238217 -0.941544
    outer loop
      vertex -12.2974 8.91581 0.0988522
      vertex -12.6264 9.29386 0.0864544
      vertex -12.2729 8.94031 0.0864544
    endloop
  endfacet
  facet normal -0.238213 -0.238213 -0.941546
    outer loop
      vertex -12.6264 9.29386 0.0864544
      vertex -12.2974 8.91581 0.0988522
      vertex -12.6509 9.26936 0.0988522
    endloop
  endfacet
  facet normal -0.103752 -0.103751 -0.989177
    outer loop
      vertex -12.3484 8.86483 0.113194
      vertex -12.6762 9.24412 0.107794
      vertex -12.3226 8.89057 0.107794
    endloop
  endfacet
  facet normal -0.103752 -0.103751 -0.989177
    outer loop
      vertex -12.6762 9.24412 0.107794
      vertex -12.3484 8.86483 0.113194
      vertex -12.7019 9.21838 0.113194
    endloop
  endfacet
  facet normal 0.103752 0.103751 0.989177
    outer loop
      vertex -12.7539 9.1664 -0.633194
      vertex -12.4261 8.7871 -0.627794
      vertex -12.4004 8.81284 -0.633194
    endloop
  endfacet
  facet normal 0.103752 0.103751 0.989177
    outer loop
      vertex -12.4261 8.7871 -0.627794
      vertex -12.7539 9.1664 -0.633194
      vertex -12.7797 9.14066 -0.627794
    endloop
  endfacet
  facet normal 0.238233 0.238233 0.941536
    outer loop
      vertex -12.8049 9.11542 -0.618853
      vertex -12.4758 8.73736 -0.606454
      vertex -12.4513 8.76186 -0.618853
    endloop
  endfacet
  facet normal 0.238229 0.23823 0.941538
    outer loop
      vertex -12.4758 8.73736 -0.606454
      vertex -12.8049 9.11542 -0.618853
      vertex -12.8294 9.09091 -0.606454
    endloop
  endfacet
  facet normal 0.474856 0.474856 0.740961
    outer loop
      vertex -12.8961 9.02417 -0.549878
      vertex -12.5619 8.65133 -0.525165
      vertex -12.5426 8.67062 -0.549878
    endloop
  endfacet
  facet normal 0.474863 0.474862 0.740953
    outer loop
      vertex -12.5619 8.65133 -0.525165
      vertex -12.8961 9.02417 -0.549878
      vertex -12.9154 9.00489 -0.525165
    endloop
  endfacet
  facet normal 0.363523 0.363524 0.857731
    outer loop
      vertex -12.8529 9.06739 -0.59072
      vertex -12.5217 8.69152 -0.5718
      vertex -12.4994 8.71384 -0.59072
    endloop
  endfacet
  facet normal 0.363535 0.363534 0.857721
    outer loop
      vertex -12.5217 8.69152 -0.5718
      vertex -12.8529 9.06739 -0.59072
      vertex -12.8752 9.04507 -0.5718
    endloop
  endfacet
  facet normal 0.56796 0.567962 0.595685
    outer loop
      vertex -12.9329 8.98741 -0.497897
      vertex -12.5948 8.61836 -0.468338
      vertex -12.5793 8.63386 -0.497897
    endloop
  endfacet
  facet normal 0.56796 0.567962 0.595685
    outer loop
      vertex -12.5948 8.61836 -0.468338
      vertex -12.9329 8.98741 -0.497897
      vertex -12.9484 8.97191 -0.468338
    endloop
  endfacet
  facet normal 0.639213 0.639213 0.427566
    outer loop
      vertex -12.9729 8.94741 -0.403506
      vertex -12.6082 8.60498 -0.436773
      vertex -12.9618 8.95853 -0.436773
    endloop
  endfacet
  facet normal 0.639209 0.639208 0.42758
    outer loop
      vertex -12.6082 8.60498 -0.436773
      vertex -12.9729 8.94741 -0.403506
      vertex -12.6193 8.59385 -0.403506
    endloop
  endfacet
  facet normal -0.421227 -0.421228 0.803203
    outer loop
      vertex -12.5597 9.36061 -0.549878
      vertex -12.227 8.98615 -0.5718
      vertex -12.2061 9.00705 -0.549878
    endloop
  endfacet
  facet normal -0.421227 -0.421228 0.803203
    outer loop
      vertex -12.227 8.98615 -0.5718
      vertex -12.5597 9.36061 -0.549878
      vertex -12.5806 9.33971 -0.5718
    endloop
  endfacet
  facet normal -0.302321 -0.302321 0.903994
    outer loop
      vertex -12.6029 9.31739 -0.59072
      vertex -12.2729 8.94031 -0.606454
      vertex -12.2494 8.96383 -0.59072
    endloop
  endfacet
  facet normal -0.302321 -0.302321 0.903994
    outer loop
      vertex -12.2729 8.94031 -0.606454
      vertex -12.6029 9.31739 -0.59072
      vertex -12.6264 9.29386 -0.606454
    endloop
  endfacet
  facet normal -0.171805 -0.171806 0.970034
    outer loop
      vertex -12.6509 9.26936 -0.618853
      vertex -12.3226 8.89057 -0.627794
      vertex -12.2974 8.91581 -0.618853
    endloop
  endfacet
  facet normal -0.171812 -0.171811 0.970032
    outer loop
      vertex -12.3226 8.89057 -0.627794
      vertex -12.6509 9.26936 -0.618853
      vertex -12.6762 9.24412 -0.627794
    endloop
  endfacet
  facet normal -0.0346884 -0.0346883 0.998796
    outer loop
      vertex -12.7019 9.21838 -0.633194
      vertex -12.3744 8.83883 -0.634999
      vertex -12.3484 8.86483 -0.633194
    endloop
  endfacet
  facet normal -0.0346877 -0.0346877 0.998796
    outer loop
      vertex -12.3744 8.83883 -0.634999
      vertex -12.7019 9.21838 -0.633194
      vertex -12.7279 9.19239 -0.634999
    endloop
  endfacet
  facet normal -0.567962 -0.56796 0.595685
    outer loop
      vertex -12.5074 9.41287 -0.468338
      vertex -12.1694 9.04381 -0.497897
      vertex -12.1539 9.05931 -0.468338
    endloop
  endfacet
  facet normal -0.567948 -0.567949 0.595709
    outer loop
      vertex -12.1694 9.04381 -0.497897
      vertex -12.5074 9.41287 -0.468338
      vertex -12.5229 9.39736 -0.497897
    endloop
  endfacet
  facet normal -0.606513 -0.606515 0.514084
    outer loop
      vertex -12.5074 9.41287 -0.468338
      vertex -12.1405 9.07269 -0.436773
      vertex -12.4941 9.42624 -0.436773
    endloop
  endfacet
  facet normal -0.606503 -0.606502 0.514111
    outer loop
      vertex -12.1405 9.07269 -0.436773
      vertex -12.5074 9.41287 -0.468338
      vertex -12.1539 9.05931 -0.468338
    endloop
  endfacet
  facet normal -0.52392 -0.523921 0.671576
    outer loop
      vertex -12.5229 9.39736 -0.497897
      vertex -12.1869 9.02633 -0.525165
      vertex -12.1694 9.04381 -0.497897
    endloop
  endfacet
  facet normal -0.523934 -0.523933 0.671556
    outer loop
      vertex -12.1869 9.02633 -0.525165
      vertex -12.5229 9.39736 -0.497897
      vertex -12.5404 9.37989 -0.525165
    endloop
  endfacet
  facet normal -0.699453 -0.699451 0.14674
    outer loop
      vertex -12.4679 9.45246 -0.333158
      vertex -12.1105 9.10272 -0.296756
      vertex -12.464 9.45628 -0.296756
    endloop
  endfacet
  facet normal -0.699455 -0.699457 0.146704
    outer loop
      vertex -12.1105 9.10272 -0.296756
      vertex -12.4679 9.45246 -0.333158
      vertex -12.1143 9.09891 -0.333158
    endloop
  endfacet
  facet normal -0.665775 -0.665777 0.336874
    outer loop
      vertex -12.4829 9.43737 -0.403506
      vertex -12.1206 9.09258 -0.368856
      vertex -12.4742 9.44614 -0.368856
    endloop
  endfacet
  facet normal -0.665769 -0.665767 0.336906
    outer loop
      vertex -12.1206 9.09258 -0.368856
      vertex -12.4829 9.43737 -0.403506
      vertex -12.1294 9.08382 -0.403506
    endloop
  endfacet
  facet normal -0.706255 -0.706257 0.0490359
    outer loop
      vertex -12.464 9.45628 -0.296756
      vertex -12.1092 9.104 -0.259999
      vertex -12.4628 9.45755 -0.259999
    endloop
  endfacet
  facet normal -0.706256 -0.706254 0.0490725
    outer loop
      vertex -12.1092 9.104 -0.259999
      vertex -12.464 9.45628 -0.296756
      vertex -12.1105 9.10272 -0.296756
    endloop
  endfacet
  facet normal 0.171812 0.171811 0.970032
    outer loop
      vertex -12.7797 9.14066 -0.627794
      vertex -12.4513 8.76186 -0.618853
      vertex -12.4261 8.7871 -0.627794
    endloop
  endfacet
  facet normal 0.171809 0.171809 0.970033
    outer loop
      vertex -12.4513 8.76186 -0.618853
      vertex -12.7797 9.14066 -0.627794
      vertex -12.8049 9.11542 -0.618853
    endloop
  endfacet
  facet normal 0.30232 0.302321 0.903994
    outer loop
      vertex -12.8294 9.09091 -0.606454
      vertex -12.4994 8.71384 -0.59072
      vertex -12.4758 8.73736 -0.606454
    endloop
  endfacet
  facet normal 0.30232 0.302321 0.903994
    outer loop
      vertex -12.4994 8.71384 -0.59072
      vertex -12.8294 9.09091 -0.606454
      vertex -12.8529 9.06739 -0.59072
    endloop
  endfacet
  facet normal 0.523934 0.523933 0.671556
    outer loop
      vertex -12.9154 9.00489 -0.525165
      vertex -12.5793 8.63386 -0.497897
      vertex -12.5619 8.65133 -0.525165
    endloop
  endfacet
  facet normal 0.52392 0.523921 0.671576
    outer loop
      vertex -12.5793 8.63386 -0.497897
      vertex -12.9154 9.00489 -0.525165
      vertex -12.9329 8.98741 -0.497897
    endloop
  endfacet
  facet normal 0.421228 0.421227 0.803203
    outer loop
      vertex -12.8752 9.04507 -0.5718
      vertex -12.5426 8.67062 -0.549878
      vertex -12.5217 8.69152 -0.5718
    endloop
  endfacet
  facet normal 0.421221 0.421221 0.80321
    outer loop
      vertex -12.5426 8.67062 -0.549878
      vertex -12.8752 9.04507 -0.5718
      vertex -12.8961 9.02417 -0.549878
    endloop
  endfacet
  facet normal 0.606507 0.606509 0.514097
    outer loop
      vertex -12.9618 8.95853 -0.436773
      vertex -12.5948 8.61836 -0.468338
      vertex -12.9484 8.97191 -0.468338
    endloop
  endfacet
  facet normal 0.606502 0.606502 0.514111
    outer loop
      vertex -12.5948 8.61836 -0.468338
      vertex -12.9618 8.95853 -0.436773
      vertex -12.6082 8.60498 -0.436773
    endloop
  endfacet
  facet normal 0.665773 0.665771 0.33689
    outer loop
      vertex -12.9817 8.93864 -0.368856
      vertex -12.6193 8.59385 -0.403506
      vertex -12.9729 8.94741 -0.403506
    endloop
  endfacet
  facet normal 0.665776 0.665776 0.336874
    outer loop
      vertex -12.6193 8.59385 -0.403506
      vertex -12.9817 8.93864 -0.368856
      vertex -12.6281 8.58509 -0.368856
    endloop
  endfacet
  facet normal 0.699453 0.699451 0.14674
    outer loop
      vertex -12.9918 8.9285 -0.296756
      vertex -12.6344 8.57876 -0.333158
      vertex -12.988 8.93232 -0.333158
    endloop
  endfacet
  facet normal 0.699455 0.699457 0.146704
    outer loop
      vertex -12.6344 8.57876 -0.333158
      vertex -12.9918 8.9285 -0.296756
      vertex -12.6383 8.57495 -0.296756
    endloop
  endfacet
  facet normal 0.706254 0.706256 0.0490725
    outer loop
      vertex -12.9931 8.92722 -0.259999
      vertex -12.6383 8.57495 -0.296756
      vertex -12.9918 8.9285 -0.296756
    endloop
  endfacet
  facet normal 0.706255 0.706253 0.049109
    outer loop
      vertex -12.6383 8.57495 -0.296756
      vertex -12.9931 8.92722 -0.259999
      vertex -12.6395 8.57367 -0.259999
    endloop
  endfacet
  facet normal -0.363523 -0.363524 0.857731
    outer loop
      vertex -12.5806 9.33971 -0.5718
      vertex -12.2494 8.96383 -0.59072
      vertex -12.227 8.98615 -0.5718
    endloop
  endfacet
  facet normal -0.363529 -0.363529 0.857726
    outer loop
      vertex -12.2494 8.96383 -0.59072
      vertex -12.5806 9.33971 -0.5718
      vertex -12.6029 9.31739 -0.59072
    endloop
  endfacet
  facet normal -0.238233 -0.238233 0.941536
    outer loop
      vertex -12.6264 9.29386 -0.606454
      vertex -12.2974 8.91581 -0.618853
      vertex -12.2729 8.94031 -0.606454
    endloop
  endfacet
  facet normal -0.238229 -0.23823 0.941538
    outer loop
      vertex -12.2974 8.91581 -0.618853
      vertex -12.6264 9.29386 -0.606454
      vertex -12.6509 9.26936 -0.618853
    endloop
  endfacet
  facet normal -0.103752 -0.103751 0.989177
    outer loop
      vertex -12.6762 9.24412 -0.627794
      vertex -12.3484 8.86483 -0.633194
      vertex -12.3226 8.89057 -0.627794
    endloop
  endfacet
  facet normal -0.103752 -0.103751 0.989177
    outer loop
      vertex -12.3484 8.86483 -0.633194
      vertex -12.6762 9.24412 -0.627794
      vertex -12.7019 9.21838 -0.633194
    endloop
  endfacet
  facet normal -0.685915 -0.685917 0.24298
    outer loop
      vertex -12.1206 9.09258 -0.368856
      vertex -12.4679 9.45246 -0.333158
      vertex -12.4742 9.44614 -0.368856
    endloop
  endfacet
  facet normal -0.685915 -0.685917 0.24298
    outer loop
      vertex -12.4679 9.45246 -0.333158
      vertex -12.1206 9.09258 -0.368856
      vertex -12.1143 9.09891 -0.333158
    endloop
  endfacet
endsolid OpenSCAD_Model
