solid OpenSCAD_Model
  facet normal -1 0 0
    outer loop
      vertex -6.4 5.9 0
      vertex -6.4 5.8 1
      vertex -6.4 5.9 1
    endloop
  endfacet
  facet normal -1 0 0
    outer loop
      vertex -6.4 5.8 1
      vertex -6.4 1.3 1
      vertex -6.4 5.8 6
    endloop
  endfacet
  facet normal -1 0 0
    outer loop
      vertex -6.4 5.9 0
      vertex -6.4 1.3 1
      vertex -6.4 5.8 1
    endloop
  endfacet
  facet normal -1 0 0
    outer loop
      vertex -6.4 -5.9 0
      vertex -6.4 1.3 1
      vertex -6.4 5.9 0
    endloop
  endfacet
  facet normal -1 -0 0
    outer loop
      vertex -6.4 1.3 1
      vertex -6.4 -5.9 0
      vertex -6.4 -5.9 1
    endloop
  endfacet
  facet normal -1 -0 0
    outer loop
      vertex -6.4 5.8 6
      vertex -6.4 1.3 1
      vertex -6.4 1.3 6
    endloop
  endfacet
  facet normal 0 0 1
    outer loop
      vertex 6.4 1.3 1
      vertex 6.05086 -4.73181 1
      vertex 6.4 -5.21236 1
    endloop
  endfacet
  facet normal 0 0 1
    outer loop
      vertex 6.4 1.3 1
      vertex 5.32414 -4.96794 1
      vertex 6.05086 -4.73181 1
    endloop
  endfacet
  facet normal 0 0 1
    outer loop
      vertex 5.32414 -4.96794 1
      vertex 3.9 -5.9 1
      vertex 5.32414 -5.73206 1
    endloop
  endfacet
  facet normal 0 0 1
    outer loop
      vertex 6.4 1.3 1
      vertex 3.9 -5.9 1
      vertex 5.32414 -4.96794 1
    endloop
  endfacet
  facet normal 0 0 1
    outer loop
      vertex 3.9 -5.9 1
      vertex -1.85 -6.74 1
      vertex 3.9 -8.48 1
    endloop
  endfacet
  facet normal 0 0 1
    outer loop
      vertex -2.29914 -6.12181 1
      vertex 3.9 -5.9 1
      vertex 6.4 1.3 1
    endloop
  endfacet
  facet normal 0 0 1
    outer loop
      vertex 3.9 -5.9 1
      vertex -2.29914 -6.12181 1
      vertex -1.85 -6.74 1
    endloop
  endfacet
  facet normal -0 0 1
    outer loop
      vertex -6.4 1.3 1
      vertex -2.29914 -6.12181 1
      vertex 6.4 1.3 1
    endloop
  endfacet
  facet normal 0 0 1
    outer loop
      vertex -3.02586 -6.35794 1
      vertex -3.9 -5.9 1
      vertex -3.02586 -7.12206 1
    endloop
  endfacet
  facet normal -0 -0 1
    outer loop
      vertex -3.9 -5.9 1
      vertex -2.29914 -6.12181 1
      vertex -6.4 1.3 1
    endloop
  endfacet
  facet normal 0 0 1
    outer loop
      vertex -2.29914 -6.12181 1
      vertex -3.9 -5.9 1
      vertex -3.02586 -6.35794 1
    endloop
  endfacet
  facet normal 0 0 1
    outer loop
      vertex -3.9 -5.9 1
      vertex -6.4 1.3 1
      vertex -6.4 -5.9 1
    endloop
  endfacet
  facet normal 0 0 1
    outer loop
      vertex 5.841 -5.9 1
      vertex 5.32414 -5.73206 1
      vertex 3.9 -5.9 1
    endloop
  endfacet
  facet normal -0 0 1
    outer loop
      vertex -2.29914 -7.35819 1
      vertex 3.9 -8.48 1
      vertex -1.85 -6.74 1
    endloop
  endfacet
  facet normal 0 0 1
    outer loop
      vertex -2.29914 -7.35819 1
      vertex -3.9 -8.48 1
      vertex 3.9 -8.48 1
    endloop
  endfacet
  facet normal 0 0 1
    outer loop
      vertex -3.02586 -7.12206 1
      vertex -3.9 -8.48 1
      vertex -2.29914 -7.35819 1
    endloop
  endfacet
  facet normal 0 0 1
    outer loop
      vertex -3.9 -8.48 1
      vertex -3.02586 -7.12206 1
      vertex -3.9 -5.9 1
    endloop
  endfacet
  facet normal 0 0 1
    outer loop
      vertex 6.4 -5.48764 1
      vertex 6.1004 -5.9 1
      vertex 6.4 -5.9 1
    endloop
  endfacet
  facet normal 0 0 1
    outer loop
      vertex 6.4 5.9 1
      vertex 6.17306 5.8 1
      vertex 6.4 5.8 1
    endloop
  endfacet
  facet normal 0 -0 1
    outer loop
      vertex 6.17306 5.8 1
      vertex 6.4 5.9 1
      vertex 6.1004 5.9 1
    endloop
  endfacet
  facet normal -0 0 1
    outer loop
      vertex -6.4 5.9 1
      vertex -6.16676 5.8 1
      vertex -5.85899 5.9 1
    endloop
  endfacet
  facet normal 0 0 1
    outer loop
      vertex -6.16676 5.8 1
      vertex -6.4 5.9 1
      vertex -6.4 5.8 1
    endloop
  endfacet
  facet normal -0 0 1
    outer loop
      vertex -5.5996 5.9 1
      vertex 5.53324 5.8 1
      vertex 5.841 5.9 1
    endloop
  endfacet
  facet normal 0 0 1
    outer loop
      vertex 5.53324 5.8 1
      vertex -5.5996 5.9 1
      vertex -5.52694 5.8 1
    endloop
  endfacet
  facet normal 1 -0 0
    outer loop
      vertex 6.4 -5.9 1
      vertex 6.4 -5.48764 0
      vertex 6.4 -5.48764 1
    endloop
  endfacet
  facet normal 1 0 0
    outer loop
      vertex 6.4 -5.48764 0
      vertex 6.4 -5.9 1
      vertex 6.4 -5.9 0
    endloop
  endfacet
  facet normal 1 0 0
    outer loop
      vertex 6.4 5.8 6
      vertex 6.4 5.48764 6
      vertex 6.4 5.8 1
    endloop
  endfacet
  facet normal 1 -0 0
    outer loop
      vertex 6.4 5.8 1
      vertex 6.4 5.9 0
      vertex 6.4 5.9 1
    endloop
  endfacet
  facet normal 1 0 0
    outer loop
      vertex 6.4 5.8 1
      vertex 6.4 5.48764 0
      vertex 6.4 5.9 0
    endloop
  endfacet
  facet normal 1 0 0
    outer loop
      vertex 6.4 5.48764 0
      vertex 6.4 5.8 1
      vertex 6.4 5.48764 6
    endloop
  endfacet
  facet normal 1 0 0
    outer loop
      vertex 6.4 1.3 1
      vertex 6.4 5.21236 6
      vertex 6.4 1.3 6
    endloop
  endfacet
  facet normal 1 0 0
    outer loop
      vertex 6.4 5.21236 6
      vertex 6.4 1.3 1
      vertex 6.4 5.21236 0
    endloop
  endfacet
  facet normal 1 0 0
    outer loop
      vertex 6.4 -5.21236 0
      vertex 6.4 1.3 1
      vertex 6.4 -5.21236 1
    endloop
  endfacet
  facet normal 1 0 0
    outer loop
      vertex 6.4 1.3 1
      vertex 6.4 -5.21236 0
      vertex 6.4 5.21236 0
    endloop
  endfacet
  facet normal 0 1 -0
    outer loop
      vertex 6.4 5.9 0
      vertex 6.1004 5.9 1
      vertex 6.4 5.9 1
    endloop
  endfacet
  facet normal 0 1 0
    outer loop
      vertex 6.1004 5.9 1
      vertex 6.4 5.9 0
      vertex 6.1004 5.9 0
    endloop
  endfacet
  facet normal 0 1 -0
    outer loop
      vertex -5.85899 5.9 0
      vertex -6.4 5.9 1
      vertex -5.85899 5.9 1
    endloop
  endfacet
  facet normal 0 1 0
    outer loop
      vertex -6.4 5.9 1
      vertex -5.85899 5.9 0
      vertex -6.4 5.9 0
    endloop
  endfacet
  facet normal 0 1 -0
    outer loop
      vertex 5.841 5.9 0
      vertex -5.5996 5.9 1
      vertex 5.841 5.9 1
    endloop
  endfacet
  facet normal 0 1 0
    outer loop
      vertex -5.5996 5.9 1
      vertex 5.841 5.9 0
      vertex -5.5996 5.9 0
    endloop
  endfacet
  facet normal 0 0 1
    outer loop
      vertex -3.9 -5.9 0
      vertex -5.2 -7.48 0
      vertex -3.9 -8.48 0
    endloop
  endfacet
  facet normal -0 0 1
    outer loop
      vertex -6.4 -5.9 0
      vertex -5.2 -7.48 0
      vertex -3.9 -5.9 0
    endloop
  endfacet
  facet normal 0 0 1
    outer loop
      vertex -6.4 -5.9 0
      vertex -7.98 -7.48 0
      vertex -5.2 -7.48 0
    endloop
  endfacet
  facet normal 0 0 1
    outer loop
      vertex -7.98 -7.48 0
      vertex -6.4 -5.9 0
      vertex -7.98 7.48 0
    endloop
  endfacet
  facet normal -0 0 1
    outer loop
      vertex 6.4 5.21236 0
      vertex 6.5 -5.35 0
      vertex 6.5 5.35 0
    endloop
  endfacet
  facet normal 0 0 1
    outer loop
      vertex 6.5 -5.35 0
      vertex 6.4 5.21236 0
      vertex 6.4 -5.21236 0
    endloop
  endfacet
  facet normal 0 0 1
    outer loop
      vertex 7.98 7.48 0
      vertex 6.5 5.35 0
      vertex 7.98 -7.48 0
    endloop
  endfacet
  facet normal 0 0 1
    outer loop
      vertex 7.98 7.48 0
      vertex 6.4 5.9 0
      vertex 6.5 5.35 0
    endloop
  endfacet
  facet normal -0 0 1
    outer loop
      vertex 6.05086 5.96819 0
      vertex 6.4 5.9 0
      vertex 7.98 7.48 0
    endloop
  endfacet
  facet normal 0 0 1
    outer loop
      vertex 6.4 5.9 0
      vertex 6.05086 5.96819 0
      vertex 6.1004 5.9 0
    endloop
  endfacet
  facet normal 0 0 1
    outer loop
      vertex 7.98 7.48 0
      vertex 5.841 5.9 0
      vertex 6.05086 5.96819 0
    endloop
  endfacet
  facet normal -0 0 1
    outer loop
      vertex -5.64914 5.96819 0
      vertex 5.841 5.9 0
      vertex 7.98 7.48 0
    endloop
  endfacet
  facet normal 0 0 1
    outer loop
      vertex 5.841 5.9 0
      vertex -5.64914 5.96819 0
      vertex -5.5996 5.9 0
    endloop
  endfacet
  facet normal 0 0 1
    outer loop
      vertex -5.64914 5.96819 0
      vertex -6.4 5.9 0
      vertex -5.85899 5.9 0
    endloop
  endfacet
  facet normal -0 0 1
    outer loop
      vertex -7.98 7.48 0
      vertex -5.64914 5.96819 0
      vertex 7.98 7.48 0
    endloop
  endfacet
  facet normal 0 0 1
    outer loop
      vertex -6.4 5.9 0
      vertex -7.98 7.48 0
      vertex -6.4 -5.9 0
    endloop
  endfacet
  facet normal 0 0 1
    outer loop
      vertex -5.64914 5.96819 0
      vertex -7.98 7.48 0
      vertex -6.4 5.9 0
    endloop
  endfacet
  facet normal -0 0 1
    outer loop
      vertex 6.5 -5.35 0
      vertex 7.98 -7.48 0
      vertex 6.5 5.35 0
    endloop
  endfacet
  facet normal 0 0 1
    outer loop
      vertex 6.4 -5.9 0
      vertex 6.5 -5.35 0
      vertex 6.4 -5.48764 0
    endloop
  endfacet
  facet normal 0 0 1
    outer loop
      vertex 6.5 -5.35 0
      vertex 6.4 -5.9 0
      vertex 7.98 -7.48 0
    endloop
  endfacet
  facet normal 0 0 1
    outer loop
      vertex 6.05086 -5.96819 0
      vertex 6.4 -5.9 0
      vertex 6.1004 -5.9 0
    endloop
  endfacet
  facet normal 0 0 1
    outer loop
      vertex 5.2 -7.48 0
      vertex 6.4 -5.9 0
      vertex 6.05086 -5.96819 0
    endloop
  endfacet
  facet normal 0 0 1
    outer loop
      vertex 5.2 -7.48 0
      vertex 6.05086 -5.96819 0
      vertex 5.841 -5.9 0
    endloop
  endfacet
  facet normal 0 0 1
    outer loop
      vertex 6.4 -5.9 0
      vertex 5.2 -7.48 0
      vertex 7.98 -7.48 0
    endloop
  endfacet
  facet normal -0 0 1
    outer loop
      vertex 3.9 -5.9 0
      vertex 5.2 -7.48 0
      vertex 5.841 -5.9 0
    endloop
  endfacet
  facet normal 0 0 1
    outer loop
      vertex 3.9 -8.48 0
      vertex 5.2 -7.48 0
      vertex 3.9 -5.9 0
    endloop
  endfacet
  facet normal 0 0 1
    outer loop
      vertex 5.2 -7.48 0
      vertex 3.9 -8.48 0
      vertex 5.2 -14 0
    endloop
  endfacet
  facet normal -0 0 1
    outer loop
      vertex -3.9 -8.48 0
      vertex 5.2 -14 0
      vertex 3.9 -8.48 0
    endloop
  endfacet
  facet normal 0 0 1
    outer loop
      vertex -3.9 -8.48 0
      vertex -5.2 -14 0
      vertex 5.2 -14 0
    endloop
  endfacet
  facet normal 0 0 1
    outer loop
      vertex -5.2 -14 0
      vertex -3.9 -8.48 0
      vertex -5.2 -7.48 0
    endloop
  endfacet
  facet normal 0 0 1
    outer loop
      vertex 6.5 5.35 0
      vertex 6.4 5.9 0
      vertex 6.4 5.48764 0
    endloop
  endfacet
  facet normal 0 -1 0
    outer loop
      vertex 6.1004 -5.9 0
      vertex 6.4 -5.9 1
      vertex 6.1004 -5.9 1
    endloop
  endfacet
  facet normal 0 -1 -0
    outer loop
      vertex 6.4 -5.9 1
      vertex 6.1004 -5.9 0
      vertex 6.4 -5.9 0
    endloop
  endfacet
  facet normal 0 -1 0
    outer loop
      vertex -6.4 -5.9 0
      vertex -3.9 -5.9 1
      vertex -6.4 -5.9 1
    endloop
  endfacet
  facet normal 0 -1 -0
    outer loop
      vertex -3.9 -5.9 1
      vertex -6.4 -5.9 0
      vertex -3.9 -5.9 0
    endloop
  endfacet
  facet normal 0 -1 0
    outer loop
      vertex 3.9 -5.9 0
      vertex 5.841 -5.9 1
      vertex 3.9 -5.9 1
    endloop
  endfacet
  facet normal 0 -1 -0
    outer loop
      vertex 5.841 -5.9 1
      vertex 3.9 -5.9 0
      vertex 5.841 -5.9 0
    endloop
  endfacet
  facet normal -1 0 0
    outer loop
      vertex -3.9 -8.48 0
      vertex -3.9 -5.9 1
      vertex -3.9 -5.9 0
    endloop
  endfacet
  facet normal -1 -0 0
    outer loop
      vertex -3.9 -5.9 1
      vertex -3.9 -8.48 0
      vertex -3.9 -8.48 1
    endloop
  endfacet
  facet normal 1 -0 0
    outer loop
      vertex 3.9 -8.48 1
      vertex 3.9 -5.9 0
      vertex 3.9 -5.9 1
    endloop
  endfacet
  facet normal 1 0 0
    outer loop
      vertex 3.9 -5.9 0
      vertex 3.9 -8.48 1
      vertex 3.9 -8.48 0
    endloop
  endfacet
  facet normal 0 -1 0
    outer loop
      vertex -3.9 -8.48 0
      vertex 3.9 -8.48 1
      vertex -3.9 -8.48 1
    endloop
  endfacet
  facet normal 0 -1 -0
    outer loop
      vertex 3.9 -8.48 1
      vertex -3.9 -8.48 0
      vertex 3.9 -8.48 0
    endloop
  endfacet
  facet normal 0 0 1
    outer loop
      vertex -6.37586 5.73206 6
      vertex -6.4 5.8 6
      vertex -6.37586 4.96794 6
    endloop
  endfacet
  facet normal -0 0 1
    outer loop
      vertex -6.4 5.8 6
      vertex -6.37586 5.73206 6
      vertex -6.16676 5.8 6
    endloop
  endfacet
  facet normal 0 0 1
    outer loop
      vertex 5.32414 5.73206 6
      vertex -5.2 5.35 6
      vertex 5.32414 4.96794 6
    endloop
  endfacet
  facet normal -0 0 1
    outer loop
      vertex -5.52694 5.8 6
      vertex 5.32414 5.73206 6
      vertex 5.53324 5.8 6
    endloop
  endfacet
  facet normal 0 0 1
    outer loop
      vertex 5.32414 5.73206 6
      vertex -5.52694 5.8 6
      vertex -5.2 5.35 6
    endloop
  endfacet
  facet normal -0 0 1
    outer loop
      vertex 6.05086 4.73181 6
      vertex 6.4 1.3 6
      vertex 6.4 5.21236 6
    endloop
  endfacet
  facet normal 0 0 1
    outer loop
      vertex 5.32414 4.96794 6
      vertex 6.4 1.3 6
      vertex 6.05086 4.73181 6
    endloop
  endfacet
  facet normal 0 0 1
    outer loop
      vertex -6.4 1.3 6
      vertex 5.32414 4.96794 6
      vertex -5.2 5.35 6
    endloop
  endfacet
  facet normal 0 0 1
    outer loop
      vertex -6.4 1.3 6
      vertex -5.2 5.35 6
      vertex -5.64914 4.73181 6
    endloop
  endfacet
  facet normal 0 0 1
    outer loop
      vertex 5.32414 4.96794 6
      vertex -6.4 1.3 6
      vertex 6.4 1.3 6
    endloop
  endfacet
  facet normal 0 0 1
    outer loop
      vertex -6.37586 4.96794 6
      vertex -6.4 1.3 6
      vertex -5.64914 4.73181 6
    endloop
  endfacet
  facet normal 0 0 1
    outer loop
      vertex -6.4 1.3 6
      vertex -6.37586 4.96794 6
      vertex -6.4 5.8 6
    endloop
  endfacet
  facet normal 0 0 1
    outer loop
      vertex 6.4 5.8 6
      vertex 6.17306 5.8 6
      vertex 6.4 5.48764 6
    endloop
  endfacet
  facet normal 0 -1 0
    outer loop
      vertex -6.4 1.3 1
      vertex 6.4 1.3 6
      vertex -6.4 1.3 6
    endloop
  endfacet
  facet normal 0 -1 -0
    outer loop
      vertex 6.4 1.3 6
      vertex -6.4 1.3 1
      vertex 6.4 1.3 1
    endloop
  endfacet
  facet normal 0 1 -0
    outer loop
      vertex 6.4 5.8 1
      vertex 6.17306 5.8 6
      vertex 6.4 5.8 6
    endloop
  endfacet
  facet normal 0 1 0
    outer loop
      vertex 6.17306 5.8 6
      vertex 6.4 5.8 1
      vertex 6.17306 5.8 1
    endloop
  endfacet
  facet normal 0 1 -0
    outer loop
      vertex -6.16676 5.8 1
      vertex -6.4 5.8 6
      vertex -6.16676 5.8 6
    endloop
  endfacet
  facet normal 0 1 0
    outer loop
      vertex -6.4 5.8 6
      vertex -6.16676 5.8 1
      vertex -6.4 5.8 1
    endloop
  endfacet
  facet normal 0 1 -0
    outer loop
      vertex 5.53324 5.8 1
      vertex -5.52694 5.8 6
      vertex 5.53324 5.8 6
    endloop
  endfacet
  facet normal 0 1 0
    outer loop
      vertex -5.52694 5.8 6
      vertex 5.53324 5.8 1
      vertex -5.52694 5.8 1
    endloop
  endfacet
  facet normal -1 0 0
    outer loop
      vertex -7.98 -7.48 -0.799999
      vertex -7.98 7.48 0
      vertex -7.98 7.48 -0.799999
    endloop
  endfacet
  facet normal -1 -0 0
    outer loop
      vertex -7.98 7.48 0
      vertex -7.98 -7.48 -0.799999
      vertex -7.98 -7.48 0
    endloop
  endfacet
  facet normal 1 -0 0
    outer loop
      vertex 7.98 -7.48 0
      vertex 7.98 7.48 -0.799999
      vertex 7.98 7.48 0
    endloop
  endfacet
  facet normal 1 0 0
    outer loop
      vertex 7.98 7.48 -0.799999
      vertex 7.98 -7.48 0
      vertex 7.98 -7.48 -0.799999
    endloop
  endfacet
  facet normal -0 0 -1
    outer loop
      vertex 5.32414 4.96794 -0.799999
      vertex -5.64914 4.73181 -0.799999
      vertex -5.2 5.35 -0.799999
    endloop
  endfacet
  facet normal -0 0 -1
    outer loop
      vertex -3.02586 -6.35794 -0.799999
      vertex -7.98 -7.48 -0.799999
      vertex -5.64914 4.73181 -0.799999
    endloop
  endfacet
  facet normal 0 0 -1
    outer loop
      vertex -7.98 7.48 -0.799999
      vertex -6.37586 4.96794 -0.799999
      vertex -7.98 -7.48 -0.799999
    endloop
  endfacet
  facet normal -0 0 -1
    outer loop
      vertex -5.64914 4.73181 -0.799999
      vertex -7.98 -7.48 -0.799999
      vertex -6.37586 4.96794 -0.799999
    endloop
  endfacet
  facet normal 0 0 -1
    outer loop
      vertex -2.29914 -7.35819 -0.799999
      vertex 5.2 -7.48 -0.799999
      vertex 5.2 -14 -0.799999
    endloop
  endfacet
  facet normal 0 0 -1
    outer loop
      vertex 5.2 -7.48 -0.799999
      vertex -2.29914 -7.35819 -0.799999
      vertex -1.85 -6.74 -0.799999
    endloop
  endfacet
  facet normal 0 0 -1
    outer loop
      vertex -5.2 -14 -0.799999
      vertex -2.29914 -7.35819 -0.799999
      vertex 5.2 -14 -0.799999
    endloop
  endfacet
  facet normal -0 0 -1
    outer loop
      vertex -2.29914 -7.35819 -0.799999
      vertex -5.2 -7.48 -0.799999
      vertex -3.02586 -7.12206 -0.799999
    endloop
  endfacet
  facet normal 0 0 -1
    outer loop
      vertex -5.2 -7.48 -0.799999
      vertex -2.29914 -7.35819 -0.799999
      vertex -5.2 -14 -0.799999
    endloop
  endfacet
  facet normal 0 0 -1
    outer loop
      vertex 6.05086 -4.73181 -0.799999
      vertex 6.5 5.35 -0.799999
      vertex 6.5 -5.35 -0.799999
    endloop
  endfacet
  facet normal 0 0 -1
    outer loop
      vertex 6.05086 -4.73181 -0.799999
      vertex 6.05086 4.73181 -0.799999
      vertex 6.5 5.35 -0.799999
    endloop
  endfacet
  facet normal 0 0 -1
    outer loop
      vertex 5.32414 -4.96794 -0.799999
      vertex 6.05086 4.73181 -0.799999
      vertex 6.05086 -4.73181 -0.799999
    endloop
  endfacet
  facet normal -0 0 -1
    outer loop
      vertex 6.05086 4.73181 -0.799999
      vertex 5.32414 -4.96794 -0.799999
      vertex 5.32414 4.96794 -0.799999
    endloop
  endfacet
  facet normal 0 0 -1
    outer loop
      vertex 7.98 -7.48 -0.799999
      vertex 6.5 -5.35 -0.799999
      vertex 7.98 7.48 -0.799999
    endloop
  endfacet
  facet normal 0 0 -1
    outer loop
      vertex 7.98 -7.48 -0.799999
      vertex 6.05086 -5.96819 -0.799999
      vertex 6.5 -5.35 -0.799999
    endloop
  endfacet
  facet normal 0 0 -1
    outer loop
      vertex 5.2 -7.48 -0.799999
      vertex 6.05086 -5.96819 -0.799999
      vertex 7.98 -7.48 -0.799999
    endloop
  endfacet
  facet normal 0 0 -1
    outer loop
      vertex -1.85 -6.74 -0.799999
      vertex 5.32414 -4.96794 -0.799999
      vertex 5.32414 -5.73206 -0.799999
    endloop
  endfacet
  facet normal -0 0 -1
    outer loop
      vertex 5.32414 -4.96794 -0.799999
      vertex -2.29914 -6.12181 -0.799999
      vertex 5.32414 4.96794 -0.799999
    endloop
  endfacet
  facet normal 0 0 -1
    outer loop
      vertex -1.85 -6.74 -0.799999
      vertex 5.32414 -5.73206 -0.799999
      vertex 5.2 -7.48 -0.799999
    endloop
  endfacet
  facet normal -0 0 -1
    outer loop
      vertex 6.05086 -5.96819 -0.799999
      vertex 5.2 -7.48 -0.799999
      vertex 5.32414 -5.73206 -0.799999
    endloop
  endfacet
  facet normal 0 0 -1
    outer loop
      vertex 6.5 5.35 -0.799999
      vertex 7.98 7.48 -0.799999
      vertex 6.5 -5.35 -0.799999
    endloop
  endfacet
  facet normal 0 0 -1
    outer loop
      vertex 6.05086 5.96819 -0.799999
      vertex 7.98 7.48 -0.799999
      vertex 6.5 5.35 -0.799999
    endloop
  endfacet
  facet normal 0 0 -1
    outer loop
      vertex 5.32414 5.73206 -0.799999
      vertex 7.98 7.48 -0.799999
      vertex 6.05086 5.96819 -0.799999
    endloop
  endfacet
  facet normal 0 0 -1
    outer loop
      vertex 5.32414 -4.96794 -0.799999
      vertex -1.85 -6.74 -0.799999
      vertex -2.29914 -6.12181 -0.799999
    endloop
  endfacet
  facet normal 0 0 -1
    outer loop
      vertex -5.64914 4.73181 -0.799999
      vertex 5.32414 4.96794 -0.799999
      vertex -2.29914 -6.12181 -0.799999
    endloop
  endfacet
  facet normal 0 0 -1
    outer loop
      vertex -5.64914 4.73181 -0.799999
      vertex -2.29914 -6.12181 -0.799999
      vertex -3.02586 -6.35794 -0.799999
    endloop
  endfacet
  facet normal -0 0 -1
    outer loop
      vertex -3.02586 -7.12206 -0.799999
      vertex -5.2 -7.48 -0.799999
      vertex -3.02586 -6.35794 -0.799999
    endloop
  endfacet
  facet normal 0 0 -1
    outer loop
      vertex -7.98 -7.48 -0.799999
      vertex -3.02586 -6.35794 -0.799999
      vertex -5.2 -7.48 -0.799999
    endloop
  endfacet
  facet normal 0 0 -1
    outer loop
      vertex 5.32414 4.96794 -0.799999
      vertex -5.2 5.35 -0.799999
      vertex 5.32414 5.73206 -0.799999
    endloop
  endfacet
  facet normal 0 0 -1
    outer loop
      vertex -5.64914 5.96819 -0.799999
      vertex 5.32414 5.73206 -0.799999
      vertex -5.2 5.35 -0.799999
    endloop
  endfacet
  facet normal 0 0 -1
    outer loop
      vertex 5.32414 5.73206 -0.799999
      vertex -5.64914 5.96819 -0.799999
      vertex 7.98 7.48 -0.799999
    endloop
  endfacet
  facet normal 0 0 -1
    outer loop
      vertex -5.64914 5.96819 -0.799999
      vertex -7.98 7.48 -0.799999
      vertex 7.98 7.48 -0.799999
    endloop
  endfacet
  facet normal 0 0 -1
    outer loop
      vertex -6.37586 5.73206 -0.799999
      vertex -7.98 7.48 -0.799999
      vertex -5.64914 5.96819 -0.799999
    endloop
  endfacet
  facet normal 0 0 -1
    outer loop
      vertex -6.37586 4.96794 -0.799999
      vertex -7.98 7.48 -0.799999
      vertex -6.37586 5.73206 -0.799999
    endloop
  endfacet
  facet normal 0 -1 0
    outer loop
      vertex 5.2 -7.48 -0.799999
      vertex 7.98 -7.48 0
      vertex 5.2 -7.48 0
    endloop
  endfacet
  facet normal 0 -1 -0
    outer loop
      vertex 7.98 -7.48 0
      vertex 5.2 -7.48 -0.799999
      vertex 7.98 -7.48 -0.799999
    endloop
  endfacet
  facet normal 0 -1 0
    outer loop
      vertex -7.98 -7.48 -0.799999
      vertex -5.2 -7.48 0
      vertex -7.98 -7.48 0
    endloop
  endfacet
  facet normal 0 -1 -0
    outer loop
      vertex -5.2 -7.48 0
      vertex -7.98 -7.48 -0.799999
      vertex -5.2 -7.48 -0.799999
    endloop
  endfacet
  facet normal 0 1 -0
    outer loop
      vertex 7.98 7.48 -0.799999
      vertex -7.98 7.48 0
      vertex 7.98 7.48 0
    endloop
  endfacet
  facet normal 0 1 0
    outer loop
      vertex -7.98 7.48 0
      vertex 7.98 7.48 -0.799999
      vertex -7.98 7.48 -0.799999
    endloop
  endfacet
  facet normal -1 0 0
    outer loop
      vertex -5.2 -14 -0.799999
      vertex -5.2 -7.48 0
      vertex -5.2 -7.48 -0.799999
    endloop
  endfacet
  facet normal -1 -0 0
    outer loop
      vertex -5.2 -7.48 0
      vertex -5.2 -14 -0.799999
      vertex -5.2 -14 0
    endloop
  endfacet
  facet normal 1 -0 0
    outer loop
      vertex 5.2 -14 0
      vertex 5.2 -7.48 -0.799999
      vertex 5.2 -7.48 0
    endloop
  endfacet
  facet normal 1 0 0
    outer loop
      vertex 5.2 -7.48 -0.799999
      vertex 5.2 -14 0
      vertex 5.2 -14 -0.799999
    endloop
  endfacet
  facet normal 0 -1 0
    outer loop
      vertex -5.2 -14 -0.799999
      vertex 5.2 -14 0
      vertex -5.2 -14 0
    endloop
  endfacet
  facet normal 0 -1 -0
    outer loop
      vertex 5.2 -14 0
      vertex -5.2 -14 -0.799999
      vertex 5.2 -14 -0.799999
    endloop
  endfacet
  facet normal -0.809018 0.587784 0
    outer loop
      vertex -2.29914 -7.35819 -0.799999
      vertex -1.85 -6.74 1
      vertex -1.85 -6.74 -0.799999
    endloop
  endfacet
  facet normal -0.809018 0.587784 0
    outer loop
      vertex -1.85 -6.74 1
      vertex -2.29914 -7.35819 -0.799999
      vertex -2.29914 -7.35819 1
    endloop
  endfacet
  facet normal 0.309022 -0.951055 0
    outer loop
      vertex -3.02586 -6.35794 -0.799999
      vertex -2.29914 -6.12181 1
      vertex -3.02586 -6.35794 1
    endloop
  endfacet
  facet normal 0.309022 -0.951055 0
    outer loop
      vertex -2.29914 -6.12181 1
      vertex -3.02586 -6.35794 -0.799999
      vertex -2.29914 -6.12181 -0.799999
    endloop
  endfacet
  facet normal 1 -0 0
    outer loop
      vertex -3.02586 -7.12206 1
      vertex -3.02586 -6.35794 -0.799999
      vertex -3.02586 -6.35794 1
    endloop
  endfacet
  facet normal 1 0 0
    outer loop
      vertex -3.02586 -6.35794 -0.799999
      vertex -3.02586 -7.12206 1
      vertex -3.02586 -7.12206 -0.799999
    endloop
  endfacet
  facet normal 0.309022 0.951055 -0
    outer loop
      vertex -2.29914 -7.35819 -0.799999
      vertex -3.02586 -7.12206 1
      vertex -2.29914 -7.35819 1
    endloop
  endfacet
  facet normal 0.309022 0.951055 0
    outer loop
      vertex -3.02586 -7.12206 1
      vertex -2.29914 -7.35819 -0.799999
      vertex -3.02586 -7.12206 -0.799999
    endloop
  endfacet
  facet normal -0.809018 -0.587784 0
    outer loop
      vertex -1.85 -6.74 -0.799999
      vertex -2.29914 -6.12181 1
      vertex -2.29914 -6.12181 -0.799999
    endloop
  endfacet
  facet normal -0.809018 -0.587784 0
    outer loop
      vertex -2.29914 -6.12181 1
      vertex -1.85 -6.74 -0.799999
      vertex -1.85 -6.74 1
    endloop
  endfacet
  facet normal -0.809021 0.58778 0
    outer loop
      vertex 6.5 -5.35 -0.799999
      vertex 6.4 -5.48764 0
      vertex 6.5 -5.35 0
    endloop
  endfacet
  facet normal -0.809014 0.587789 0
    outer loop
      vertex 6.4 -5.48764 0
      vertex 6.1004 -5.9 0
      vertex 6.4 -5.48764 1
    endloop
  endfacet
  facet normal -0.809018 0.587784 1.02994e-06
    outer loop
      vertex 6.05086 -5.96819 -0.799999
      vertex 6.4 -5.48764 0
      vertex 6.5 -5.35 -0.799999
    endloop
  endfacet
  facet normal -0.809014 0.587789 -3.45689e-06
    outer loop
      vertex 6.4 -5.48764 0
      vertex 6.05086 -5.96819 -0.799999
      vertex 6.1004 -5.9 0
    endloop
  endfacet
  facet normal -0.809034 0.587762 0
    outer loop
      vertex 6.1004 -5.9 0
      vertex 6.05086 -5.96819 -0.799999
      vertex 6.05086 -5.96819 0
    endloop
  endfacet
  facet normal -0.809014 0.587789 0
    outer loop
      vertex 6.4 -5.48764 1
      vertex 6.1004 -5.9 0
      vertex 6.1004 -5.9 1
    endloop
  endfacet
  facet normal 0.309022 -0.951055 0
    outer loop
      vertex 5.32414 -4.96794 -0.799999
      vertex 6.05086 -4.73181 1
      vertex 5.32414 -4.96794 1
    endloop
  endfacet
  facet normal 0.309022 -0.951055 0
    outer loop
      vertex 6.05086 -4.73181 1
      vertex 5.32414 -4.96794 -0.799999
      vertex 6.05086 -4.73181 -0.799999
    endloop
  endfacet
  facet normal 1 -0 0
    outer loop
      vertex 5.32414 -5.73206 1
      vertex 5.32414 -4.96794 -0.799999
      vertex 5.32414 -4.96794 1
    endloop
  endfacet
  facet normal 1 0 0
    outer loop
      vertex 5.32414 -4.96794 -0.799999
      vertex 5.32414 -5.73206 1
      vertex 5.32414 -5.73206 -0.799999
    endloop
  endfacet
  facet normal 0.309027 0.951053 0
    outer loop
      vertex 6.05086 -5.96819 0
      vertex 6.05086 -5.96819 -0.799999
      vertex 5.841 -5.9 0
    endloop
  endfacet
  facet normal 0.30902 0.951055 -0
    outer loop
      vertex 5.841 -5.9 0
      vertex 5.32414 -5.73206 1
      vertex 5.841 -5.9 1
    endloop
  endfacet
  facet normal 0.309022 0.951055 -1.30052e-06
    outer loop
      vertex 5.32414 -5.73206 -0.799999
      vertex 5.841 -5.9 0
      vertex 6.05086 -5.96819 -0.799999
    endloop
  endfacet
  facet normal 0.30902 0.951055 0
    outer loop
      vertex 5.841 -5.9 0
      vertex 5.32414 -5.73206 -0.799999
      vertex 5.32414 -5.73206 1
    endloop
  endfacet
  facet normal -0.809017 -0.587785 0
    outer loop
      vertex 6.05086 -4.73181 -0.799999
      vertex 6.4 -5.21236 0
      vertex 6.05086 -4.73181 1
    endloop
  endfacet
  facet normal -0.809018 -0.587784 1.02994e-06
    outer loop
      vertex 6.5 -5.35 -0.799999
      vertex 6.4 -5.21236 0
      vertex 6.05086 -4.73181 -0.799999
    endloop
  endfacet
  facet normal -0.809021 -0.58778 0
    outer loop
      vertex 6.4 -5.21236 0
      vertex 6.5 -5.35 -0.799999
      vertex 6.5 -5.35 0
    endloop
  endfacet
  facet normal -0.809017 -0.587785 0
    outer loop
      vertex 6.05086 -4.73181 1
      vertex 6.4 -5.21236 0
      vertex 6.4 -5.21236 1
    endloop
  endfacet
  facet normal 0.309022 0.951055 -0
    outer loop
      vertex 6.05086 4.73181 -0.799999
      vertex 5.32414 4.96794 6
      vertex 6.05086 4.73181 6
    endloop
  endfacet
  facet normal 0.309022 0.951055 0
    outer loop
      vertex 5.32414 4.96794 6
      vertex 6.05086 4.73181 -0.799999
      vertex 5.32414 4.96794 -0.799999
    endloop
  endfacet
  facet normal -0.809021 0.58778 0
    outer loop
      vertex 6.5 5.35 -0.799999
      vertex 6.4 5.21236 0
      vertex 6.5 5.35 0
    endloop
  endfacet
  facet normal -0.809018 0.587784 1.02994e-06
    outer loop
      vertex 6.05086 4.73181 -0.799999
      vertex 6.4 5.21236 0
      vertex 6.5 5.35 -0.799999
    endloop
  endfacet
  facet normal -0.809017 0.587785 0
    outer loop
      vertex 6.05086 4.73181 6
      vertex 6.4 5.21236 0
      vertex 6.05086 4.73181 -0.799999
    endloop
  endfacet
  facet normal -0.809017 0.587785 0
    outer loop
      vertex 6.4 5.21236 0
      vertex 6.05086 4.73181 6
      vertex 6.4 5.21236 6
    endloop
  endfacet
  facet normal 0.309014 -0.951057 0
    outer loop
      vertex 5.32414 5.73206 6
      vertex 5.53324 5.8 1
      vertex 5.53324 5.8 6
    endloop
  endfacet
  facet normal 0.309025 -0.951054 0
    outer loop
      vertex 5.53324 5.8 1
      vertex 5.841 5.9 0
      vertex 5.841 5.9 1
    endloop
  endfacet
  facet normal 0.309014 -0.951057 0
    outer loop
      vertex 5.32414 5.73206 -0.799999
      vertex 5.53324 5.8 1
      vertex 5.32414 5.73206 6
    endloop
  endfacet
  facet normal 0.309022 -0.951055 -9.79138e-07
    outer loop
      vertex 5.32414 5.73206 -0.799999
      vertex 5.841 5.9 0
      vertex 5.53324 5.8 1
    endloop
  endfacet
  facet normal 0.309022 -0.951055 -1.30052e-06
    outer loop
      vertex 6.05086 5.96819 -0.799999
      vertex 5.841 5.9 0
      vertex 5.32414 5.73206 -0.799999
    endloop
  endfacet
  facet normal 0.309027 -0.951053 0
    outer loop
      vertex 5.841 5.9 0
      vertex 6.05086 5.96819 -0.799999
      vertex 6.05086 5.96819 0
    endloop
  endfacet
  facet normal 1 -0 0
    outer loop
      vertex 5.32414 4.96794 6
      vertex 5.32414 5.73206 -0.799999
      vertex 5.32414 5.73206 6
    endloop
  endfacet
  facet normal 1 0 0
    outer loop
      vertex 5.32414 5.73206 -0.799999
      vertex 5.32414 4.96794 6
      vertex 5.32414 4.96794 -0.799999
    endloop
  endfacet
  facet normal -0.809034 -0.587762 0
    outer loop
      vertex 6.05086 5.96819 -0.799999
      vertex 6.1004 5.9 0
      vertex 6.05086 5.96819 0
    endloop
  endfacet
  facet normal -0.808995 -0.587816 0
    outer loop
      vertex 6.1004 5.9 0
      vertex 6.17306 5.8 1
      vertex 6.1004 5.9 1
    endloop
  endfacet
  facet normal -0.809014 -0.587789 -3.45689e-06
    outer loop
      vertex 6.4 5.48764 0
      vertex 6.1004 5.9 0
      vertex 6.05086 5.96819 -0.799999
    endloop
  endfacet
  facet normal -0.80902 -0.58778 -0
    outer loop
      vertex 6.4 5.48764 6
      vertex 6.17306 5.8 1
      vertex 6.4 5.48764 0
    endloop
  endfacet
  facet normal -0.809014 -0.587789 4.07607e-06
    outer loop
      vertex 6.1004 5.9 0
      vertex 6.4 5.48764 0
      vertex 6.17306 5.8 1
    endloop
  endfacet
  facet normal -0.809018 -0.587784 1.02994e-06
    outer loop
      vertex 6.5 5.35 -0.799999
      vertex 6.4 5.48764 0
      vertex 6.05086 5.96819 -0.799999
    endloop
  endfacet
  facet normal -0.809021 -0.58778 0
    outer loop
      vertex 6.4 5.48764 0
      vertex 6.5 5.35 -0.799999
      vertex 6.5 5.35 0
    endloop
  endfacet
  facet normal -0.80902 -0.58778 0
    outer loop
      vertex 6.17306 5.8 1
      vertex 6.4 5.48764 6
      vertex 6.17306 5.8 6
    endloop
  endfacet
  facet normal -0.809018 0.587784 0
    outer loop
      vertex -5.64914 4.73181 -0.799999
      vertex -5.2 5.35 6
      vertex -5.2 5.35 -0.799999
    endloop
  endfacet
  facet normal -0.809018 0.587784 0
    outer loop
      vertex -5.2 5.35 6
      vertex -5.64914 4.73181 -0.799999
      vertex -5.64914 4.73181 6
    endloop
  endfacet
  facet normal -0.809034 -0.587762 0
    outer loop
      vertex -5.64914 5.96819 -0.799999
      vertex -5.5996 5.9 0
      vertex -5.64914 5.96819 0
    endloop
  endfacet
  facet normal -0.808995 -0.587816 0
    outer loop
      vertex -5.5996 5.9 0
      vertex -5.52694 5.8 1
      vertex -5.5996 5.9 1
    endloop
  endfacet
  facet normal -0.809018 -0.587784 -2.82023e-06
    outer loop
      vertex -5.2 5.35 -0.799999
      vertex -5.5996 5.9 0
      vertex -5.64914 5.96819 -0.799999
    endloop
  endfacet
  facet normal -0.809013 -0.58779 3.85244e-06
    outer loop
      vertex -5.5996 5.9 0
      vertex -5.2 5.35 -0.799999
      vertex -5.52694 5.8 1
    endloop
  endfacet
  facet normal -0.809021 -0.58778 -0
    outer loop
      vertex -5.2 5.35 6
      vertex -5.52694 5.8 1
      vertex -5.2 5.35 -0.799999
    endloop
  endfacet
  facet normal -0.809021 -0.58778 0
    outer loop
      vertex -5.52694 5.8 1
      vertex -5.2 5.35 6
      vertex -5.52694 5.8 6
    endloop
  endfacet
  facet normal 0.309014 -0.951057 0
    outer loop
      vertex -6.37586 5.73206 6
      vertex -6.16676 5.8 1
      vertex -6.16676 5.8 6
    endloop
  endfacet
  facet normal 0.309015 -0.951057 0
    outer loop
      vertex -6.16676 5.8 1
      vertex -5.85899 5.9 0
      vertex -5.85899 5.9 1
    endloop
  endfacet
  facet normal 0.309014 -0.951057 0
    outer loop
      vertex -6.37586 5.73206 -0.799999
      vertex -6.16676 5.8 1
      vertex -6.37586 5.73206 6
    endloop
  endfacet
  facet normal 0.309015 -0.951057 -1.3236e-07
    outer loop
      vertex -6.37586 5.73206 -0.799999
      vertex -5.85899 5.9 0
      vertex -6.16676 5.8 1
    endloop
  endfacet
  facet normal 0.309022 -0.951055 -5.1633e-06
    outer loop
      vertex -5.64914 5.96819 -0.799999
      vertex -5.85899 5.9 0
      vertex -6.37586 5.73206 -0.799999
    endloop
  endfacet
  facet normal 0.30904 -0.951049 0
    outer loop
      vertex -5.85899 5.9 0
      vertex -5.64914 5.96819 -0.799999
      vertex -5.64914 5.96819 0
    endloop
  endfacet
  facet normal 1 -0 0
    outer loop
      vertex -6.37586 4.96794 6
      vertex -6.37586 5.73206 -0.799999
      vertex -6.37586 5.73206 6
    endloop
  endfacet
  facet normal 1 0 0
    outer loop
      vertex -6.37586 5.73206 -0.799999
      vertex -6.37586 4.96794 6
      vertex -6.37586 4.96794 -0.799999
    endloop
  endfacet
  facet normal 0.309022 0.951055 -0
    outer loop
      vertex -5.64914 4.73181 -0.799999
      vertex -6.37586 4.96794 6
      vertex -5.64914 4.73181 6
    endloop
  endfacet
  facet normal 0.309022 0.951055 0
    outer loop
      vertex -6.37586 4.96794 6
      vertex -5.64914 4.73181 -0.799999
      vertex -6.37586 4.96794 -0.799999
    endloop
  endfacet
endsolid OpenSCAD_Model
