solid OpenSCAD_Model
  facet normal -0 0 1
    outer loop
      vertex -26.5 -13.14 7.1
      vertex -12.5 -17.34 7.1
      vertex -12.5 -13.14 7.1
    endloop
  endfacet
  facet normal 0 0 1
    outer loop
      vertex -12.5 -17.34 7.1
      vertex -26.5 -13.14 7.1
      vertex -26.5 -17.34 7.1
    endloop
  endfacet
  facet normal -0 0 1
    outer loop
      vertex -26.5 14.86 7.1
      vertex -12.5 10.26 7.1
      vertex -12.5 14.86 7.1
    endloop
  endfacet
  facet normal 0 0 1
    outer loop
      vertex -12.5 10.26 7.1
      vertex -26.5 14.86 7.1
      vertex -26.5 10.26 7.1
    endloop
  endfacet
  facet normal 1 0 0
    outer loop
      vertex -12.5 -13.14 7.1
      vertex -12.5 -14.14 2.5
      vertex -12.5 -13.14 -3.6
    endloop
  endfacet
  facet normal 1 0 0
    outer loop
      vertex -12.5 -13.14 7.1
      vertex -12.5 -14.1631 2.73411
      vertex -12.5 -14.14 2.5
    endloop
  endfacet
  facet normal 1 0 0
    outer loop
      vertex -12.5 -13.14 7.1
      vertex -12.5 -14.2313 2.95922
      vertex -12.5 -14.1631 2.73411
    endloop
  endfacet
  facet normal 1 0 0
    outer loop
      vertex -12.5 -13.14 7.1
      vertex -12.5 -14.3422 3.16668
      vertex -12.5 -14.2313 2.95922
    endloop
  endfacet
  facet normal 1 0 0
    outer loop
      vertex -12.5 -13.14 7.1
      vertex -12.5 -14.4915 3.34853
      vertex -12.5 -14.3422 3.16668
    endloop
  endfacet
  facet normal 1 0 0
    outer loop
      vertex -12.5 -13.14 7.1
      vertex -12.5 -14.6733 3.49776
      vertex -12.5 -14.4915 3.34853
    endloop
  endfacet
  facet normal 1 0 0
    outer loop
      vertex -12.5 -13.14 7.1
      vertex -12.5 -14.8808 3.60865
      vertex -12.5 -14.6733 3.49776
    endloop
  endfacet
  facet normal 1 0 0
    outer loop
      vertex -12.5 -13.14 7.1
      vertex -12.5 -15.1059 3.67694
      vertex -12.5 -14.8808 3.60865
    endloop
  endfacet
  facet normal 1 0 0
    outer loop
      vertex -12.5 -13.14 7.1
      vertex -12.5 -15.34 3.7
      vertex -12.5 -15.1059 3.67694
    endloop
  endfacet
  facet normal 1 -0 0
    outer loop
      vertex -12.5 -17.34 7.1
      vertex -12.5 -15.34 3.7
      vertex -12.5 -13.14 7.1
    endloop
  endfacet
  facet normal 1 0 0
    outer loop
      vertex -12.5 -15.34 3.7
      vertex -12.5 -17.34 7.1
      vertex -12.5 -15.5741 3.67694
    endloop
  endfacet
  facet normal 1 0 0
    outer loop
      vertex -12.5 -15.5741 3.67694
      vertex -12.5 -17.34 7.1
      vertex -12.5 -15.7992 3.60865
    endloop
  endfacet
  facet normal 1 0 0
    outer loop
      vertex -12.5 -15.7992 3.60865
      vertex -12.5 -17.34 7.1
      vertex -12.5 -16.0067 3.49776
    endloop
  endfacet
  facet normal 1 0 0
    outer loop
      vertex -12.5 -16.0067 3.49776
      vertex -12.5 -17.34 7.1
      vertex -12.5 -16.1885 3.34853
    endloop
  endfacet
  facet normal 1 0 0
    outer loop
      vertex -12.5 -16.5169 2.73411
      vertex -12.5 -17.34 7.1
      vertex -12.5 -16.54 2.5
    endloop
  endfacet
  facet normal 1 0 0
    outer loop
      vertex -12.5 -16.4487 2.95922
      vertex -12.5 -17.34 7.1
      vertex -12.5 -16.5169 2.73411
    endloop
  endfacet
  facet normal 1 0 0
    outer loop
      vertex -12.5 -16.3378 3.16668
      vertex -12.5 -17.34 7.1
      vertex -12.5 -16.4487 2.95922
    endloop
  endfacet
  facet normal 1 0 0
    outer loop
      vertex -12.5 -16.1885 3.34853
      vertex -12.5 -17.34 7.1
      vertex -12.5 -16.3378 3.16668
    endloop
  endfacet
  facet normal 1 -0 0
    outer loop
      vertex -12.5 -13.14 -3.6
      vertex -12.5 -12.24 -8.1
      vertex -12.5 -12.24 -3.6
    endloop
  endfacet
  facet normal 1 -0 0
    outer loop
      vertex -12.5 -14.1631 2.26589
      vertex -12.5 -13.14 -3.6
      vertex -12.5 -14.14 2.5
    endloop
  endfacet
  facet normal 1 -0 0
    outer loop
      vertex -12.5 -14.2313 2.04078
      vertex -12.5 -13.14 -3.6
      vertex -12.5 -14.1631 2.26589
    endloop
  endfacet
  facet normal 1 -0 0
    outer loop
      vertex -12.5 -14.3422 1.83332
      vertex -12.5 -13.14 -3.6
      vertex -12.5 -14.2313 2.04078
    endloop
  endfacet
  facet normal 1 -0 0
    outer loop
      vertex -12.5 -14.4915 1.65147
      vertex -12.5 -13.14 -3.6
      vertex -12.5 -14.3422 1.83332
    endloop
  endfacet
  facet normal 1 -0 0
    outer loop
      vertex -12.5 -14.6733 1.50224
      vertex -12.5 -13.14 -3.6
      vertex -12.5 -14.4915 1.65147
    endloop
  endfacet
  facet normal 1 -0 0
    outer loop
      vertex -12.5 -14.8808 1.39135
      vertex -12.5 -13.14 -3.6
      vertex -12.5 -14.6733 1.50224
    endloop
  endfacet
  facet normal 1 -0 0
    outer loop
      vertex -12.5 -15.1059 1.32306
      vertex -12.5 -13.14 -3.6
      vertex -12.5 -14.8808 1.39135
    endloop
  endfacet
  facet normal 1 -0 0
    outer loop
      vertex -12.5 -15.34 1.3
      vertex -12.5 -13.14 -3.6
      vertex -12.5 -15.1059 1.32306
    endloop
  endfacet
  facet normal 1 0 0
    outer loop
      vertex -12.5 -15.5741 1.32306
      vertex -12.5 -13.14 -3.6
      vertex -12.5 -15.34 1.3
    endloop
  endfacet
  facet normal 1 0 0
    outer loop
      vertex -12.5 -15.7992 1.39135
      vertex -12.5 -13.14 -3.6
      vertex -12.5 -15.5741 1.32306
    endloop
  endfacet
  facet normal 1 0 0
    outer loop
      vertex -12.5 -13.14 -3.6
      vertex -12.5 -15.7992 1.39135
      vertex -12.5 -17.34 -8.1
    endloop
  endfacet
  facet normal 1 0 0
    outer loop
      vertex -12.5 -17.34 -8.1
      vertex -12.5 -15.7992 1.39135
      vertex -12.5 -16.0067 1.50224
    endloop
  endfacet
  facet normal 1 0 0
    outer loop
      vertex -12.5 -17.34 -8.1
      vertex -12.5 -16.0067 1.50224
      vertex -12.5 -16.1885 1.65147
    endloop
  endfacet
  facet normal 1 0 0
    outer loop
      vertex -12.5 -17.34 -8.1
      vertex -12.5 -16.1885 1.65147
      vertex -12.5 -16.3378 1.83332
    endloop
  endfacet
  facet normal 1 0 0
    outer loop
      vertex -12.5 -17.34 -8.1
      vertex -12.5 -16.3378 1.83332
      vertex -12.5 -16.4487 2.04078
    endloop
  endfacet
  facet normal 1 0 0
    outer loop
      vertex -12.5 -17.34 7.1
      vertex -12.5 -16.5169 2.26589
      vertex -12.5 -16.54 2.5
    endloop
  endfacet
  facet normal 1 0 0
    outer loop
      vertex -12.5 -13.14 -3.6
      vertex -12.5 -17.34 -8.1
      vertex -12.5 -12.24 -8.1
    endloop
  endfacet
  facet normal 1 0 0
    outer loop
      vertex -12.5 -16.5169 2.26589
      vertex -12.5 -17.34 -8.1
      vertex -12.5 -16.4487 2.04078
    endloop
  endfacet
  facet normal 1 0 0
    outer loop
      vertex -12.5 -17.34 -8.1
      vertex -12.5 -16.5169 2.26589
      vertex -12.5 -17.34 7.1
    endloop
  endfacet
  facet normal 1 0 0
    outer loop
      vertex -12.5 13.5369 2.26589
      vertex -12.5 14.86 7.1
      vertex -12.5 13.56 2.5
    endloop
  endfacet
  facet normal 1 0 0
    outer loop
      vertex -12.5 14.86 7.1
      vertex -12.5 13.5369 2.73411
      vertex -12.5 13.56 2.5
    endloop
  endfacet
  facet normal 1 0 0
    outer loop
      vertex -12.5 14.86 7.1
      vertex -12.5 13.4687 2.95922
      vertex -12.5 13.5369 2.73411
    endloop
  endfacet
  facet normal 1 0 0
    outer loop
      vertex -12.5 14.86 7.1
      vertex -12.5 13.3578 3.16668
      vertex -12.5 13.4687 2.95922
    endloop
  endfacet
  facet normal 1 0 0
    outer loop
      vertex -12.5 14.86 7.1
      vertex -12.5 13.2085 3.34853
      vertex -12.5 13.3578 3.16668
    endloop
  endfacet
  facet normal 1 0 0
    outer loop
      vertex -12.5 14.86 7.1
      vertex -12.5 13.0267 3.49776
      vertex -12.5 13.2085 3.34853
    endloop
  endfacet
  facet normal 1 0 0
    outer loop
      vertex -12.5 14.86 7.1
      vertex -12.5 12.8192 3.60865
      vertex -12.5 13.0267 3.49776
    endloop
  endfacet
  facet normal 1 0 0
    outer loop
      vertex -12.5 14.86 7.1
      vertex -12.5 12.5941 3.67694
      vertex -12.5 12.8192 3.60865
    endloop
  endfacet
  facet normal 1 0 0
    outer loop
      vertex -12.5 14.86 7.1
      vertex -12.5 12.36 3.7
      vertex -12.5 12.5941 3.67694
    endloop
  endfacet
  facet normal 1 -0 0
    outer loop
      vertex -12.5 10.26 7.1
      vertex -12.5 12.36 3.7
      vertex -12.5 14.86 7.1
    endloop
  endfacet
  facet normal 1 0 0
    outer loop
      vertex -12.5 12.36 3.7
      vertex -12.5 10.26 7.1
      vertex -12.5 12.1259 3.67694
    endloop
  endfacet
  facet normal 1 0 0
    outer loop
      vertex -12.5 12.1259 3.67694
      vertex -12.5 10.26 7.1
      vertex -12.5 11.9008 3.60865
    endloop
  endfacet
  facet normal 1 0 0
    outer loop
      vertex -12.5 11.9008 3.60865
      vertex -12.5 10.26 7.1
      vertex -12.5 11.6933 3.49776
    endloop
  endfacet
  facet normal 1 0 0
    outer loop
      vertex -12.5 11.1831 2.73411
      vertex -12.5 10.26 7.1
      vertex -12.5 11.16 2.5
    endloop
  endfacet
  facet normal 1 0 0
    outer loop
      vertex -12.5 11.2513 2.95922
      vertex -12.5 10.26 7.1
      vertex -12.5 11.1831 2.73411
    endloop
  endfacet
  facet normal 1 0 0
    outer loop
      vertex -12.5 11.3622 3.16668
      vertex -12.5 10.26 7.1
      vertex -12.5 11.2513 2.95922
    endloop
  endfacet
  facet normal 1 0 0
    outer loop
      vertex -12.5 11.5115 3.34853
      vertex -12.5 10.26 7.1
      vertex -12.5 11.3622 3.16668
    endloop
  endfacet
  facet normal 1 0 0
    outer loop
      vertex -12.5 11.6933 3.49776
      vertex -12.5 10.26 7.1
      vertex -12.5 11.5115 3.34853
    endloop
  endfacet
  facet normal 1 0 0
    outer loop
      vertex -12.5 14.86 7.1
      vertex -12.5 13.5369 2.26589
      vertex -12.5 14.86 -8.1
    endloop
  endfacet
  facet normal 1 -0 0
    outer loop
      vertex -12.5 13.4687 2.04078
      vertex -12.5 14.86 -8.1
      vertex -12.5 13.5369 2.26589
    endloop
  endfacet
  facet normal 1 -0 0
    outer loop
      vertex -12.5 13.3578 1.83332
      vertex -12.5 14.86 -8.1
      vertex -12.5 13.4687 2.04078
    endloop
  endfacet
  facet normal 1 -0 0
    outer loop
      vertex -12.5 13.2085 1.65147
      vertex -12.5 14.86 -8.1
      vertex -12.5 13.3578 1.83332
    endloop
  endfacet
  facet normal 1 -0 0
    outer loop
      vertex -12.5 13.0267 1.50224
      vertex -12.5 14.86 -8.1
      vertex -12.5 13.2085 1.65147
    endloop
  endfacet
  facet normal 1 -0 0
    outer loop
      vertex -12.5 12.8192 1.39135
      vertex -12.5 14.86 -8.1
      vertex -12.5 13.0267 1.50224
    endloop
  endfacet
  facet normal 1 0 0
    outer loop
      vertex -12.5 10.26 -3.6
      vertex -12.5 12.8192 1.39135
      vertex -12.5 12.5941 1.32306
    endloop
  endfacet
  facet normal 1 0 0
    outer loop
      vertex -12.5 10.26 -3.6
      vertex -12.5 12.5941 1.32306
      vertex -12.5 12.36 1.3
    endloop
  endfacet
  facet normal 1 0 0
    outer loop
      vertex -12.5 10.26 -3.6
      vertex -12.5 12.36 1.3
      vertex -12.5 12.1259 1.32306
    endloop
  endfacet
  facet normal 1 0 0
    outer loop
      vertex -12.5 10.26 -3.6
      vertex -12.5 12.1259 1.32306
      vertex -12.5 11.9008 1.39135
    endloop
  endfacet
  facet normal 1 0 0
    outer loop
      vertex -12.5 10.26 -3.6
      vertex -12.5 11.9008 1.39135
      vertex -12.5 11.6933 1.50224
    endloop
  endfacet
  facet normal 1 0 0
    outer loop
      vertex -12.5 10.26 -3.6
      vertex -12.5 11.6933 1.50224
      vertex -12.5 11.5115 1.65147
    endloop
  endfacet
  facet normal 1 0 0
    outer loop
      vertex -12.5 10.26 -3.6
      vertex -12.5 11.5115 1.65147
      vertex -12.5 11.3622 1.83332
    endloop
  endfacet
  facet normal 1 0 0
    outer loop
      vertex -12.5 10.26 -3.6
      vertex -12.5 11.3622 1.83332
      vertex -12.5 11.2513 2.04078
    endloop
  endfacet
  facet normal 1 0 0
    outer loop
      vertex -12.5 10.26 -3.6
      vertex -12.5 11.16 2.5
      vertex -12.5 10.26 7.1
    endloop
  endfacet
  facet normal 1 0 0
    outer loop
      vertex -12.5 11.16 2.5
      vertex -12.5 10.26 -3.6
      vertex -12.5 11.1831 2.26589
    endloop
  endfacet
  facet normal 1 0 0
    outer loop
      vertex -12.5 10.26 -3.6
      vertex -12.5 11.2513 2.04078
      vertex -12.5 11.1831 2.26589
    endloop
  endfacet
  facet normal 1 0 0
    outer loop
      vertex -12.5 12.8192 1.39135
      vertex -12.5 10.26 -3.6
      vertex -12.5 14.86 -8.1
    endloop
  endfacet
  facet normal 1 0 0
    outer loop
      vertex -12.5 8.96595 -4.00562
      vertex -12.5 10.26 -3.6
      vertex -12.5 9.08899 -3.6
    endloop
  endfacet
  facet normal 1 0 0
    outer loop
      vertex -12.5 7.39498 -6.94469
      vertex -12.5 10.26 -3.6
      vertex -12.5 8.96595 -4.00562
    endloop
  endfacet
  facet normal 1 0 0
    outer loop
      vertex -12.5 10.26 -3.6
      vertex -12.5 7.39498 -6.94469
      vertex -12.5 14.86 -8.1
    endloop
  endfacet
  facet normal 1 0 0
    outer loop
      vertex -12.5 14.86 -8.1
      vertex -12.5 7.39498 -6.94469
      vertex -12.5 6.44685 -8.1
    endloop
  endfacet
  facet normal 0 0 -1
    outer loop
      vertex -12.5 -17.34 -8.1
      vertex -18.5 -12.24 -8.1
      vertex -12.5 -12.24 -8.1
    endloop
  endfacet
  facet normal 0 0 -1
    outer loop
      vertex -20.5384 -9.34982 -8.1
      vertex -18.5 -12.24 -8.1
      vertex -20.5 -9.74 -8.1
    endloop
  endfacet
  facet normal 0 0 -1
    outer loop
      vertex -18.5 -12.24 -8.1
      vertex -20.5384 -10.1302 -8.1
      vertex -20.5 -9.74 -8.1
    endloop
  endfacet
  facet normal 0 0 -1
    outer loop
      vertex -18.5 -12.24 -8.1
      vertex -20.6522 -10.5054 -8.1
      vertex -20.5384 -10.1302 -8.1
    endloop
  endfacet
  facet normal 0 0 -1
    outer loop
      vertex -22.5 -11.74 -8.1
      vertex -18.5 -12.24 -8.1
      vertex -12.5 -17.34 -8.1
    endloop
  endfacet
  facet normal 0 0 -1
    outer loop
      vertex -18.5 -12.24 -8.1
      vertex -20.8371 -10.8511 -8.1
      vertex -20.6522 -10.5054 -8.1
    endloop
  endfacet
  facet normal 0 0 -1
    outer loop
      vertex -18.5 -12.24 -8.1
      vertex -21.0858 -11.1542 -8.1
      vertex -20.8371 -10.8511 -8.1
    endloop
  endfacet
  facet normal 0 0 -1
    outer loop
      vertex -18.5 -12.24 -8.1
      vertex -21.3889 -11.4029 -8.1
      vertex -21.0858 -11.1542 -8.1
    endloop
  endfacet
  facet normal 0 0 -1
    outer loop
      vertex -18.5 -12.24 -8.1
      vertex -21.7346 -11.5878 -8.1
      vertex -21.3889 -11.4029 -8.1
    endloop
  endfacet
  facet normal 0 0 -1
    outer loop
      vertex -18.5 -12.24 -8.1
      vertex -22.1098 -11.7016 -8.1
      vertex -21.7346 -11.5878 -8.1
    endloop
  endfacet
  facet normal 0 0 -1
    outer loop
      vertex -18.5 -12.24 -8.1
      vertex -22.5 -11.74 -8.1
      vertex -22.1098 -11.7016 -8.1
    endloop
  endfacet
  facet normal 0 0 -1
    outer loop
      vertex -12.5 -17.34 -8.1
      vertex -22.8902 -11.7016 -8.1
      vertex -22.5 -11.74 -8.1
    endloop
  endfacet
  facet normal 0 0 -1
    outer loop
      vertex -40.5 -17.34 -8.1
      vertex -22.8902 -11.7016 -8.1
      vertex -12.5 -17.34 -8.1
    endloop
  endfacet
  facet normal 0 0 -1
    outer loop
      vertex -34.3 -9.74 -8.1
      vertex -24.5 -9.74 -8.1
      vertex -24.4616 -10.1302 -8.1
    endloop
  endfacet
  facet normal 0 0 -1
    outer loop
      vertex -34.3384 -10.1302 -8.1
      vertex -24.4616 -10.1302 -8.1
      vertex -24.3478 -10.5054 -8.1
    endloop
  endfacet
  facet normal 0 0 -1
    outer loop
      vertex -24.5 -9.74 -8.1
      vertex -34.3 -9.74 -8.1
      vertex -26.5 -5.34 -8.1
    endloop
  endfacet
  facet normal 0 0 -1
    outer loop
      vertex -34.4522 -10.5054 -8.1
      vertex -24.3478 -10.5054 -8.1
      vertex -24.1629 -10.8511 -8.1
    endloop
  endfacet
  facet normal 0 0 -1
    outer loop
      vertex -34.6371 -10.8511 -8.1
      vertex -24.1629 -10.8511 -8.1
      vertex -23.9142 -11.1542 -8.1
    endloop
  endfacet
  facet normal 0 0 -1
    outer loop
      vertex -34.8858 -11.1542 -8.1
      vertex -23.9142 -11.1542 -8.1
      vertex -23.6111 -11.4029 -8.1
    endloop
  endfacet
  facet normal 0 0 -1
    outer loop
      vertex -40.5 -17.34 -8.1
      vertex -23.6111 -11.4029 -8.1
      vertex -23.2654 -11.5878 -8.1
    endloop
  endfacet
  facet normal -0 0 -1
    outer loop
      vertex -22.8902 -11.7016 -8.1
      vertex -40.5 -17.34 -8.1
      vertex -23.2654 -11.5878 -8.1
    endloop
  endfacet
  facet normal 0 0 -1
    outer loop
      vertex -24.4616 -10.1302 -8.1
      vertex -34.3384 -10.1302 -8.1
      vertex -34.3 -9.74 -8.1
    endloop
  endfacet
  facet normal 0 0 -1
    outer loop
      vertex -24.3478 -10.5054 -8.1
      vertex -34.4522 -10.5054 -8.1
      vertex -34.3384 -10.1302 -8.1
    endloop
  endfacet
  facet normal 0 0 -1
    outer loop
      vertex -24.1629 -10.8511 -8.1
      vertex -34.6371 -10.8511 -8.1
      vertex -34.4522 -10.5054 -8.1
    endloop
  endfacet
  facet normal 0 0 -1
    outer loop
      vertex -23.9142 -11.1542 -8.1
      vertex -34.8858 -11.1542 -8.1
      vertex -34.6371 -10.8511 -8.1
    endloop
  endfacet
  facet normal 0 0 -1
    outer loop
      vertex -23.6111 -11.4029 -8.1
      vertex -35.1889 -11.4029 -8.1
      vertex -34.8858 -11.1542 -8.1
    endloop
  endfacet
  facet normal -0 0 -1
    outer loop
      vertex -23.6111 -11.4029 -8.1
      vertex -40.5 -17.34 -8.1
      vertex -35.1889 -11.4029 -8.1
    endloop
  endfacet
  facet normal 0 0 -1
    outer loop
      vertex -35.1889 -11.4029 -8.1
      vertex -40.5 -17.34 -8.1
      vertex -35.5346 -11.5878 -8.1
    endloop
  endfacet
  facet normal 0 0 -1
    outer loop
      vertex -35.5346 -11.5878 -8.1
      vertex -40.5 -17.34 -8.1
      vertex -35.9098 -11.7016 -8.1
    endloop
  endfacet
  facet normal 0 0 -1
    outer loop
      vertex -35.9098 -11.7016 -8.1
      vertex -40.5 -17.34 -8.1
      vertex -36.3 -11.74 -8.1
    endloop
  endfacet
  facet normal 0 0 -1
    outer loop
      vertex -40.5 -5.34 -8.1
      vertex -38.2616 -10.1302 -8.1
      vertex -40.5 -17.34 -8.1
    endloop
  endfacet
  facet normal -0 0 -1
    outer loop
      vertex -38.1478 -10.5054 -8.1
      vertex -40.5 -17.34 -8.1
      vertex -38.2616 -10.1302 -8.1
    endloop
  endfacet
  facet normal -0 0 -1
    outer loop
      vertex -37.9629 -10.8511 -8.1
      vertex -40.5 -17.34 -8.1
      vertex -38.1478 -10.5054 -8.1
    endloop
  endfacet
  facet normal -0 0 -1
    outer loop
      vertex -37.7142 -11.1542 -8.1
      vertex -40.5 -17.34 -8.1
      vertex -37.9629 -10.8511 -8.1
    endloop
  endfacet
  facet normal -0 0 -1
    outer loop
      vertex -37.4111 -11.4029 -8.1
      vertex -40.5 -17.34 -8.1
      vertex -37.7142 -11.1542 -8.1
    endloop
  endfacet
  facet normal -0 0 -1
    outer loop
      vertex -37.0654 -11.5878 -8.1
      vertex -40.5 -17.34 -8.1
      vertex -37.4111 -11.4029 -8.1
    endloop
  endfacet
  facet normal -0 0 -1
    outer loop
      vertex -36.6902 -11.7016 -8.1
      vertex -40.5 -17.34 -8.1
      vertex -37.0654 -11.5878 -8.1
    endloop
  endfacet
  facet normal -0 0 -1
    outer loop
      vertex -36.3 -11.74 -8.1
      vertex -40.5 -17.34 -8.1
      vertex -36.6902 -11.7016 -8.1
    endloop
  endfacet
  facet normal 0 0 -1
    outer loop
      vertex -18.5 6.44685 -8.1
      vertex -12.5 14.86 -8.1
      vertex -12.5 6.44685 -8.1
    endloop
  endfacet
  facet normal 0 0 -1
    outer loop
      vertex -20.6522 -8.97463 -8.1
      vertex -18.5 -12.24 -8.1
      vertex -20.5384 -9.34982 -8.1
    endloop
  endfacet
  facet normal 0 0 -1
    outer loop
      vertex -18.5 -12.24 -8.1
      vertex -20.6522 -8.97463 -8.1
      vertex -18.5 6.44685 -8.1
    endloop
  endfacet
  facet normal 0 0 -1
    outer loop
      vertex -20.8371 -8.62886 -8.1
      vertex -18.5 6.44685 -8.1
      vertex -20.6522 -8.97463 -8.1
    endloop
  endfacet
  facet normal 0 0 -1
    outer loop
      vertex -21.0858 -8.32579 -8.1
      vertex -18.5 6.44685 -8.1
      vertex -20.8371 -8.62886 -8.1
    endloop
  endfacet
  facet normal 0 0 -1
    outer loop
      vertex -21.3889 -8.07706 -8.1
      vertex -18.5 6.44685 -8.1
      vertex -21.0858 -8.32579 -8.1
    endloop
  endfacet
  facet normal 0 0 -1
    outer loop
      vertex -21.7346 -7.89224 -8.1
      vertex -18.5 6.44685 -8.1
      vertex -21.3889 -8.07706 -8.1
    endloop
  endfacet
  facet normal 0 0 -1
    outer loop
      vertex -22.1098 -7.77843 -8.1
      vertex -18.5 6.44685 -8.1
      vertex -21.7346 -7.89224 -8.1
    endloop
  endfacet
  facet normal 0 0 -1
    outer loop
      vertex -26.5 -5.34 -8.1
      vertex -22.1098 -7.77843 -8.1
      vertex -22.5 -7.74 -8.1
    endloop
  endfacet
  facet normal 0 0 -1
    outer loop
      vertex -26.5 -5.34 -8.1
      vertex -22.5 -7.74 -8.1
      vertex -22.8902 -7.77843 -8.1
    endloop
  endfacet
  facet normal 0 0 -1
    outer loop
      vertex -26.5 -5.34 -8.1
      vertex -22.8902 -7.77843 -8.1
      vertex -23.2654 -7.89224 -8.1
    endloop
  endfacet
  facet normal 0 0 -1
    outer loop
      vertex -26.5 -5.34 -8.1
      vertex -23.2654 -7.89224 -8.1
      vertex -23.6111 -8.07706 -8.1
    endloop
  endfacet
  facet normal 0 0 -1
    outer loop
      vertex -26.5 -5.34 -8.1
      vertex -23.6111 -8.07706 -8.1
      vertex -23.9142 -8.32579 -8.1
    endloop
  endfacet
  facet normal 0 0 -1
    outer loop
      vertex -26.5 -5.34 -8.1
      vertex -23.9142 -8.32579 -8.1
      vertex -24.1629 -8.62886 -8.1
    endloop
  endfacet
  facet normal 0 0 -1
    outer loop
      vertex -26.5 -5.34 -8.1
      vertex -24.1629 -8.62886 -8.1
      vertex -24.3478 -8.97463 -8.1
    endloop
  endfacet
  facet normal 0 0 -1
    outer loop
      vertex -26.5 -5.34 -8.1
      vertex -24.4616 -9.34982 -8.1
      vertex -24.5 -9.74 -8.1
    endloop
  endfacet
  facet normal 0 0 -1
    outer loop
      vertex -26.5 -5.34 -8.1
      vertex -24.3478 -8.97463 -8.1
      vertex -24.4616 -9.34982 -8.1
    endloop
  endfacet
  facet normal 0 0 -1
    outer loop
      vertex -22.1098 -7.77843 -8.1
      vertex -26.5 -5.34 -8.1
      vertex -18.5 6.44685 -8.1
    endloop
  endfacet
  facet normal 0 0 -1
    outer loop
      vertex -18.5 6.44685 -8.1
      vertex -26.5 14.86 -8.1
      vertex -12.5 14.86 -8.1
    endloop
  endfacet
  facet normal 0 0 -1
    outer loop
      vertex -26.5 14.86 -8.1
      vertex -18.5 6.44685 -8.1
      vertex -26.5 -5.34 -8.1
    endloop
  endfacet
  facet normal 0 0 -1
    outer loop
      vertex -34.3384 -9.34982 -8.1
      vertex -26.5 -5.34 -8.1
      vertex -34.3 -9.74 -8.1
    endloop
  endfacet
  facet normal 0 0 -1
    outer loop
      vertex -34.4522 -8.97463 -8.1
      vertex -26.5 -5.34 -8.1
      vertex -34.3384 -9.34982 -8.1
    endloop
  endfacet
  facet normal 0 0 -1
    outer loop
      vertex -34.6371 -8.62886 -8.1
      vertex -26.5 -5.34 -8.1
      vertex -34.4522 -8.97463 -8.1
    endloop
  endfacet
  facet normal 0 0 -1
    outer loop
      vertex -34.8858 -8.32579 -8.1
      vertex -26.5 -5.34 -8.1
      vertex -34.6371 -8.62886 -8.1
    endloop
  endfacet
  facet normal 0 0 -1
    outer loop
      vertex -35.1889 -8.07706 -8.1
      vertex -26.5 -5.34 -8.1
      vertex -34.8858 -8.32579 -8.1
    endloop
  endfacet
  facet normal 0 0 -1
    outer loop
      vertex -35.5346 -7.89224 -8.1
      vertex -26.5 -5.34 -8.1
      vertex -35.1889 -8.07706 -8.1
    endloop
  endfacet
  facet normal 0 0 -1
    outer loop
      vertex -35.9098 -7.77843 -8.1
      vertex -26.5 -5.34 -8.1
      vertex -35.5346 -7.89224 -8.1
    endloop
  endfacet
  facet normal 0 0 -1
    outer loop
      vertex -40.5 -5.34 -8.1
      vertex -35.9098 -7.77843 -8.1
      vertex -36.3 -7.74 -8.1
    endloop
  endfacet
  facet normal 0 0 -1
    outer loop
      vertex -40.5 -5.34 -8.1
      vertex -36.3 -7.74 -8.1
      vertex -36.6902 -7.77843 -8.1
    endloop
  endfacet
  facet normal 0 0 -1
    outer loop
      vertex -38.2616 -10.1302 -8.1
      vertex -40.5 -5.34 -8.1
      vertex -38.3 -9.74 -8.1
    endloop
  endfacet
  facet normal 0 0 -1
    outer loop
      vertex -35.9098 -7.77843 -8.1
      vertex -40.5 -5.34 -8.1
      vertex -26.5 -5.34 -8.1
    endloop
  endfacet
  facet normal 0 0 -1
    outer loop
      vertex -37.0654 -7.89224 -8.1
      vertex -40.5 -5.34 -8.1
      vertex -36.6902 -7.77843 -8.1
    endloop
  endfacet
  facet normal 0 0 -1
    outer loop
      vertex -37.4111 -8.07706 -8.1
      vertex -40.5 -5.34 -8.1
      vertex -37.0654 -7.89224 -8.1
    endloop
  endfacet
  facet normal 0 0 -1
    outer loop
      vertex -37.7142 -8.32579 -8.1
      vertex -40.5 -5.34 -8.1
      vertex -37.4111 -8.07706 -8.1
    endloop
  endfacet
  facet normal 0 0 -1
    outer loop
      vertex -37.9629 -8.62886 -8.1
      vertex -40.5 -5.34 -8.1
      vertex -37.7142 -8.32579 -8.1
    endloop
  endfacet
  facet normal 0 0 -1
    outer loop
      vertex -38.1478 -8.97463 -8.1
      vertex -40.5 -5.34 -8.1
      vertex -37.9629 -8.62886 -8.1
    endloop
  endfacet
  facet normal 0 0 -1
    outer loop
      vertex -38.2616 -9.34982 -8.1
      vertex -40.5 -5.34 -8.1
      vertex -38.1478 -8.97463 -8.1
    endloop
  endfacet
  facet normal 0 0 -1
    outer loop
      vertex -38.3 -9.74 -8.1
      vertex -40.5 -5.34 -8.1
      vertex -38.2616 -9.34982 -8.1
    endloop
  endfacet
  facet normal 0 1 -0
    outer loop
      vertex -12.5 14.86 -8.1
      vertex -26.5 14.86 7.1
      vertex -12.5 14.86 7.1
    endloop
  endfacet
  facet normal 0 1 0
    outer loop
      vertex -26.5 14.86 7.1
      vertex -12.5 14.86 -8.1
      vertex -26.5 14.86 -8.1
    endloop
  endfacet
  facet normal -1 0 0
    outer loop
      vertex -26.5 -13.14 -3.6
      vertex -26.5 -14.14 2.5
      vertex -26.5 -13.14 7.1
    endloop
  endfacet
  facet normal -1 0 0
    outer loop
      vertex -26.5 -13.14 -3.6
      vertex -26.5 -14.1631 2.26589
      vertex -26.5 -14.14 2.5
    endloop
  endfacet
  facet normal -1 0 0
    outer loop
      vertex -26.5 -13.14 -3.6
      vertex -26.5 -14.2313 2.04078
      vertex -26.5 -14.1631 2.26589
    endloop
  endfacet
  facet normal -1 0 0
    outer loop
      vertex -26.5 -13.14 -3.6
      vertex -26.5 -14.3422 1.83332
      vertex -26.5 -14.2313 2.04078
    endloop
  endfacet
  facet normal -1 0 0
    outer loop
      vertex -26.5 -13.14 -3.6
      vertex -26.5 -14.4915 1.65147
      vertex -26.5 -14.3422 1.83332
    endloop
  endfacet
  facet normal -1 0 0
    outer loop
      vertex -26.5 -13.14 -3.6
      vertex -26.5 -14.6733 1.50224
      vertex -26.5 -14.4915 1.65147
    endloop
  endfacet
  facet normal -1 0 0
    outer loop
      vertex -26.5 -13.14 -3.6
      vertex -26.5 -14.8808 1.39135
      vertex -26.5 -14.6733 1.50224
    endloop
  endfacet
  facet normal -1 0 0
    outer loop
      vertex -26.5 -13.14 -3.6
      vertex -26.5 -15.1059 1.32306
      vertex -26.5 -14.8808 1.39135
    endloop
  endfacet
  facet normal -1 0 0
    outer loop
      vertex -26.5 -13.14 -3.6
      vertex -26.5 -15.34 1.3
      vertex -26.5 -15.1059 1.32306
    endloop
  endfacet
  facet normal -1 0 0
    outer loop
      vertex -26.5 -17.34 -3.6
      vertex -26.5 -15.34 1.3
      vertex -26.5 -13.14 -3.6
    endloop
  endfacet
  facet normal -1 -0 0
    outer loop
      vertex -26.5 -15.34 1.3
      vertex -26.5 -17.34 -3.6
      vertex -26.5 -15.5741 1.32306
    endloop
  endfacet
  facet normal -1 -0 0
    outer loop
      vertex -26.5 -15.5741 1.32306
      vertex -26.5 -17.34 -3.6
      vertex -26.5 -15.7992 1.39135
    endloop
  endfacet
  facet normal -1 -0 0
    outer loop
      vertex -26.5 -15.7992 1.39135
      vertex -26.5 -17.34 -3.6
      vertex -26.5 -16.0067 1.50224
    endloop
  endfacet
  facet normal -1 -0 0
    outer loop
      vertex -26.5 -16.0067 1.50224
      vertex -26.5 -17.34 -3.6
      vertex -26.5 -16.1885 1.65147
    endloop
  endfacet
  facet normal -1 -0 0
    outer loop
      vertex -26.5 -16.5169 2.26589
      vertex -26.5 -17.34 -3.6
      vertex -26.5 -16.54 2.5
    endloop
  endfacet
  facet normal -1 -0 0
    outer loop
      vertex -26.5 -16.4487 2.04078
      vertex -26.5 -17.34 -3.6
      vertex -26.5 -16.5169 2.26589
    endloop
  endfacet
  facet normal -1 -0 0
    outer loop
      vertex -26.5 -16.3378 1.83332
      vertex -26.5 -17.34 -3.6
      vertex -26.5 -16.4487 2.04078
    endloop
  endfacet
  facet normal -1 -0 0
    outer loop
      vertex -26.5 -16.1885 1.65147
      vertex -26.5 -17.34 -3.6
      vertex -26.5 -16.3378 1.83332
    endloop
  endfacet
  facet normal -1 0 0
    outer loop
      vertex -26.5 -14.1631 2.73411
      vertex -26.5 -13.14 7.1
      vertex -26.5 -14.14 2.5
    endloop
  endfacet
  facet normal -1 0 0
    outer loop
      vertex -26.5 -14.2313 2.95922
      vertex -26.5 -13.14 7.1
      vertex -26.5 -14.1631 2.73411
    endloop
  endfacet
  facet normal -1 0 0
    outer loop
      vertex -26.5 -14.3422 3.16668
      vertex -26.5 -13.14 7.1
      vertex -26.5 -14.2313 2.95922
    endloop
  endfacet
  facet normal -1 0 0
    outer loop
      vertex -26.5 -14.4915 3.34853
      vertex -26.5 -13.14 7.1
      vertex -26.5 -14.3422 3.16668
    endloop
  endfacet
  facet normal -1 0 0
    outer loop
      vertex -26.5 -14.6733 3.49776
      vertex -26.5 -13.14 7.1
      vertex -26.5 -14.4915 3.34853
    endloop
  endfacet
  facet normal -1 0 0
    outer loop
      vertex -26.5 -14.8808 3.60865
      vertex -26.5 -13.14 7.1
      vertex -26.5 -14.6733 3.49776
    endloop
  endfacet
  facet normal -1 0 0
    outer loop
      vertex -26.5 -15.1059 3.67694
      vertex -26.5 -13.14 7.1
      vertex -26.5 -14.8808 3.60865
    endloop
  endfacet
  facet normal -1 0 0
    outer loop
      vertex -26.5 -15.34 3.7
      vertex -26.5 -13.14 7.1
      vertex -26.5 -15.1059 3.67694
    endloop
  endfacet
  facet normal -1 0 0
    outer loop
      vertex -26.5 -17.34 7.1
      vertex -26.5 -15.34 3.7
      vertex -26.5 -15.5741 3.67694
    endloop
  endfacet
  facet normal -1 0 0
    outer loop
      vertex -26.5 -17.34 7.1
      vertex -26.5 -15.5741 3.67694
      vertex -26.5 -15.7992 3.60865
    endloop
  endfacet
  facet normal -1 0 0
    outer loop
      vertex -26.5 -17.34 7.1
      vertex -26.5 -15.7992 3.60865
      vertex -26.5 -16.0067 3.49776
    endloop
  endfacet
  facet normal -1 0 0
    outer loop
      vertex -26.5 -17.34 7.1
      vertex -26.5 -16.0067 3.49776
      vertex -26.5 -16.1885 3.34853
    endloop
  endfacet
  facet normal -1 0 0
    outer loop
      vertex -26.5 -17.34 7.1
      vertex -26.5 -16.1885 3.34853
      vertex -26.5 -16.3378 3.16668
    endloop
  endfacet
  facet normal -1 0 0
    outer loop
      vertex -26.5 -17.34 7.1
      vertex -26.5 -16.54 2.5
      vertex -26.5 -17.34 -3.6
    endloop
  endfacet
  facet normal -1 0 0
    outer loop
      vertex -26.5 -15.34 3.7
      vertex -26.5 -17.34 7.1
      vertex -26.5 -13.14 7.1
    endloop
  endfacet
  facet normal -1 0 0
    outer loop
      vertex -26.5 -16.4487 2.95922
      vertex -26.5 -17.34 7.1
      vertex -26.5 -16.3378 3.16668
    endloop
  endfacet
  facet normal -1 0 0
    outer loop
      vertex -26.5 -16.5169 2.73411
      vertex -26.5 -17.34 7.1
      vertex -26.5 -16.4487 2.95922
    endloop
  endfacet
  facet normal -1 0 0
    outer loop
      vertex -26.5 -16.54 2.5
      vertex -26.5 -17.34 7.1
      vertex -26.5 -16.5169 2.73411
    endloop
  endfacet
  facet normal -1 0 0
    outer loop
      vertex -26.5 13.5369 2.26589
      vertex -26.5 14.86 7.1
      vertex -26.5 14.86 -8.1
    endloop
  endfacet
  facet normal -1 0 0
    outer loop
      vertex -26.5 14.86 7.1
      vertex -26.5 13.5369 2.26589
      vertex -26.5 13.56 2.5
    endloop
  endfacet
  facet normal -1 0 0
    outer loop
      vertex -26.5 14.86 -8.1
      vertex -26.5 13.4687 2.04078
      vertex -26.5 13.5369 2.26589
    endloop
  endfacet
  facet normal -1 0 0
    outer loop
      vertex -26.5 14.86 -8.1
      vertex -26.5 13.3578 1.83332
      vertex -26.5 13.4687 2.04078
    endloop
  endfacet
  facet normal -1 0 0
    outer loop
      vertex -26.5 14.86 -8.1
      vertex -26.5 13.2085 1.65147
      vertex -26.5 13.3578 1.83332
    endloop
  endfacet
  facet normal -1 0 0
    outer loop
      vertex -26.5 14.86 -8.1
      vertex -26.5 13.0267 1.50224
      vertex -26.5 13.2085 1.65147
    endloop
  endfacet
  facet normal -1 0 0
    outer loop
      vertex -26.5 14.86 -8.1
      vertex -26.5 12.8192 1.39135
      vertex -26.5 13.0267 1.50224
    endloop
  endfacet
  facet normal -1 0 0
    outer loop
      vertex -26.5 10.26 -3.6
      vertex -26.5 12.8192 1.39135
      vertex -26.5 14.86 -8.1
    endloop
  endfacet
  facet normal -1 0 0
    outer loop
      vertex -26.5 12.8192 1.39135
      vertex -26.5 10.26 -3.6
      vertex -26.5 12.5941 1.32306
    endloop
  endfacet
  facet normal -1 0 0
    outer loop
      vertex -26.5 12.5941 1.32306
      vertex -26.5 10.26 -3.6
      vertex -26.5 12.36 1.3
    endloop
  endfacet
  facet normal -1 -0 0
    outer loop
      vertex -26.5 12.36 1.3
      vertex -26.5 10.26 -3.6
      vertex -26.5 12.1259 1.32306
    endloop
  endfacet
  facet normal -1 -0 0
    outer loop
      vertex -26.5 12.1259 1.32306
      vertex -26.5 10.26 -3.6
      vertex -26.5 11.9008 1.39135
    endloop
  endfacet
  facet normal -1 -0 0
    outer loop
      vertex -26.5 11.9008 1.39135
      vertex -26.5 10.26 -3.6
      vertex -26.5 11.6933 1.50224
    endloop
  endfacet
  facet normal -1 -0 0
    outer loop
      vertex -26.5 11.6933 1.50224
      vertex -26.5 10.26 -3.6
      vertex -26.5 11.5115 1.65147
    endloop
  endfacet
  facet normal -1 -0 0
    outer loop
      vertex -26.5 11.5115 1.65147
      vertex -26.5 10.26 -3.6
      vertex -26.5 11.3622 1.83332
    endloop
  endfacet
  facet normal -1 -0 0
    outer loop
      vertex -26.5 11.1831 2.26589
      vertex -26.5 10.26 -3.6
      vertex -26.5 11.16 2.5
    endloop
  endfacet
  facet normal -1 -0 0
    outer loop
      vertex -26.5 11.2513 2.04078
      vertex -26.5 10.26 -3.6
      vertex -26.5 11.1831 2.26589
    endloop
  endfacet
  facet normal -1 -0 0
    outer loop
      vertex -26.5 11.3622 1.83332
      vertex -26.5 10.26 -3.6
      vertex -26.5 11.2513 2.04078
    endloop
  endfacet
  facet normal -1 0 0
    outer loop
      vertex -26.5 -5.34 -8.1
      vertex -26.5 10.26 -3.6
      vertex -26.5 14.86 -8.1
    endloop
  endfacet
  facet normal -1 -0 0
    outer loop
      vertex -26.5 10.26 -3.6
      vertex -26.5 -5.34 -8.1
      vertex -26.5 -5.34 -3.6
    endloop
  endfacet
  facet normal -1 0 0
    outer loop
      vertex -26.5 13.5369 2.73411
      vertex -26.5 14.86 7.1
      vertex -26.5 13.56 2.5
    endloop
  endfacet
  facet normal -1 0 0
    outer loop
      vertex -26.5 13.4687 2.95922
      vertex -26.5 14.86 7.1
      vertex -26.5 13.5369 2.73411
    endloop
  endfacet
  facet normal -1 0 0
    outer loop
      vertex -26.5 13.3578 3.16668
      vertex -26.5 14.86 7.1
      vertex -26.5 13.4687 2.95922
    endloop
  endfacet
  facet normal -1 0 0
    outer loop
      vertex -26.5 13.2085 3.34853
      vertex -26.5 14.86 7.1
      vertex -26.5 13.3578 3.16668
    endloop
  endfacet
  facet normal -1 0 0
    outer loop
      vertex -26.5 13.0267 3.49776
      vertex -26.5 14.86 7.1
      vertex -26.5 13.2085 3.34853
    endloop
  endfacet
  facet normal -1 0 0
    outer loop
      vertex -26.5 12.8192 3.60865
      vertex -26.5 14.86 7.1
      vertex -26.5 13.0267 3.49776
    endloop
  endfacet
  facet normal -1 0 0
    outer loop
      vertex -26.5 12.5941 3.67694
      vertex -26.5 14.86 7.1
      vertex -26.5 12.8192 3.60865
    endloop
  endfacet
  facet normal -1 0 0
    outer loop
      vertex -26.5 12.36 3.7
      vertex -26.5 14.86 7.1
      vertex -26.5 12.5941 3.67694
    endloop
  endfacet
  facet normal -1 0 0
    outer loop
      vertex -26.5 10.26 7.1
      vertex -26.5 12.36 3.7
      vertex -26.5 12.1259 3.67694
    endloop
  endfacet
  facet normal -1 0 0
    outer loop
      vertex -26.5 10.26 7.1
      vertex -26.5 12.1259 3.67694
      vertex -26.5 11.9008 3.60865
    endloop
  endfacet
  facet normal -1 0 0
    outer loop
      vertex -26.5 10.26 7.1
      vertex -26.5 11.9008 3.60865
      vertex -26.5 11.6933 3.49776
    endloop
  endfacet
  facet normal -1 0 0
    outer loop
      vertex -26.5 10.26 7.1
      vertex -26.5 11.6933 3.49776
      vertex -26.5 11.5115 3.34853
    endloop
  endfacet
  facet normal -1 0 0
    outer loop
      vertex -26.5 10.26 7.1
      vertex -26.5 11.16 2.5
      vertex -26.5 10.26 -3.6
    endloop
  endfacet
  facet normal -1 0 0
    outer loop
      vertex -26.5 12.36 3.7
      vertex -26.5 10.26 7.1
      vertex -26.5 14.86 7.1
    endloop
  endfacet
  facet normal -1 0 0
    outer loop
      vertex -26.5 11.3622 3.16668
      vertex -26.5 10.26 7.1
      vertex -26.5 11.5115 3.34853
    endloop
  endfacet
  facet normal -1 0 0
    outer loop
      vertex -26.5 11.2513 2.95922
      vertex -26.5 10.26 7.1
      vertex -26.5 11.3622 3.16668
    endloop
  endfacet
  facet normal -1 0 0
    outer loop
      vertex -26.5 11.1831 2.73411
      vertex -26.5 10.26 7.1
      vertex -26.5 11.2513 2.95922
    endloop
  endfacet
  facet normal -1 0 0
    outer loop
      vertex -26.5 11.16 2.5
      vertex -26.5 10.26 7.1
      vertex -26.5 11.1831 2.73411
    endloop
  endfacet
  facet normal 0 -1 0
    outer loop
      vertex -40.5 -17.34 -3.6
      vertex -40.5 -17.34 -8.1
      vertex -26.5 -17.34 -3.6
    endloop
  endfacet
  facet normal 0 -1 0
    outer loop
      vertex -26.5 -17.34 -3.6
      vertex -12.5 -17.34 7.1
      vertex -26.5 -17.34 7.1
    endloop
  endfacet
  facet normal 0 -1 0
    outer loop
      vertex -26.5 -17.34 -3.6
      vertex -12.5 -17.34 -8.1
      vertex -12.5 -17.34 7.1
    endloop
  endfacet
  facet normal 0 -1 0
    outer loop
      vertex -12.5 -17.34 -8.1
      vertex -26.5 -17.34 -3.6
      vertex -40.5 -17.34 -8.1
    endloop
  endfacet
  facet normal 0 0 1
    outer loop
      vertex -26.51 -5.34 -3.6
      vertex -34.3 -9.74 -3.6
      vertex -26.51 -13.14 -3.6
    endloop
  endfacet
  facet normal 0 0 1
    outer loop
      vertex -26.51 -5.34 -3.6
      vertex -34.3384 -9.34982 -3.6
      vertex -34.3 -9.74 -3.6
    endloop
  endfacet
  facet normal 0 0 1
    outer loop
      vertex -26.51 -5.34 -3.6
      vertex -34.4522 -8.97463 -3.6
      vertex -34.3384 -9.34982 -3.6
    endloop
  endfacet
  facet normal 0 0 1
    outer loop
      vertex -26.51 -5.34 -3.6
      vertex -34.6371 -8.62886 -3.6
      vertex -34.4522 -8.97463 -3.6
    endloop
  endfacet
  facet normal 0 0 1
    outer loop
      vertex -26.51 -5.34 -3.6
      vertex -34.8858 -8.32579 -3.6
      vertex -34.6371 -8.62886 -3.6
    endloop
  endfacet
  facet normal 0 0 1
    outer loop
      vertex -26.51 -5.34 -3.6
      vertex -35.1889 -8.07706 -3.6
      vertex -34.8858 -8.32579 -3.6
    endloop
  endfacet
  facet normal 0 0 1
    outer loop
      vertex -26.51 -5.34 -3.6
      vertex -35.5346 -7.89224 -3.6
      vertex -35.1889 -8.07706 -3.6
    endloop
  endfacet
  facet normal 0 0 1
    outer loop
      vertex -26.51 -5.34 -3.6
      vertex -35.9098 -7.77843 -3.6
      vertex -35.5346 -7.89224 -3.6
    endloop
  endfacet
  facet normal -0 0 1
    outer loop
      vertex -40.5 -5.34 -3.6
      vertex -35.9098 -7.77843 -3.6
      vertex -26.51 -5.34 -3.6
    endloop
  endfacet
  facet normal 0 0 1
    outer loop
      vertex -35.9098 -7.77843 -3.6
      vertex -40.5 -5.34 -3.6
      vertex -36.3 -7.74 -3.6
    endloop
  endfacet
  facet normal 0 0 1
    outer loop
      vertex -38.2616 -9.34982 -3.6
      vertex -40.5 -5.34 -3.6
      vertex -38.3 -9.74 -3.6
    endloop
  endfacet
  facet normal 0 0 1
    outer loop
      vertex -38.1478 -8.97463 -3.6
      vertex -40.5 -5.34 -3.6
      vertex -38.2616 -9.34982 -3.6
    endloop
  endfacet
  facet normal 0 0 1
    outer loop
      vertex -37.9629 -8.62886 -3.6
      vertex -40.5 -5.34 -3.6
      vertex -38.1478 -8.97463 -3.6
    endloop
  endfacet
  facet normal 0 0 1
    outer loop
      vertex -37.7142 -8.32579 -3.6
      vertex -40.5 -5.34 -3.6
      vertex -37.9629 -8.62886 -3.6
    endloop
  endfacet
  facet normal 0 0 1
    outer loop
      vertex -37.4111 -8.07706 -3.6
      vertex -40.5 -5.34 -3.6
      vertex -37.7142 -8.32579 -3.6
    endloop
  endfacet
  facet normal 0 0 1
    outer loop
      vertex -37.0654 -7.89224 -3.6
      vertex -40.5 -5.34 -3.6
      vertex -37.4111 -8.07706 -3.6
    endloop
  endfacet
  facet normal 0 0 1
    outer loop
      vertex -36.6902 -7.77843 -3.6
      vertex -40.5 -5.34 -3.6
      vertex -37.0654 -7.89224 -3.6
    endloop
  endfacet
  facet normal 0 0 1
    outer loop
      vertex -36.3 -7.74 -3.6
      vertex -40.5 -5.34 -3.6
      vertex -36.6902 -7.77843 -3.6
    endloop
  endfacet
  facet normal -0 0 1
    outer loop
      vertex -26.51 -13.14 -3.6
      vertex -26.5 -17.34 -3.6
      vertex -26.5 -13.14 -3.6
    endloop
  endfacet
  facet normal -0 0 1
    outer loop
      vertex -34.3384 -10.1302 -3.6
      vertex -26.51 -13.14 -3.6
      vertex -34.3 -9.74 -3.6
    endloop
  endfacet
  facet normal -0 0 1
    outer loop
      vertex -34.4522 -10.5054 -3.6
      vertex -26.51 -13.14 -3.6
      vertex -34.3384 -10.1302 -3.6
    endloop
  endfacet
  facet normal -0 0 1
    outer loop
      vertex -34.6371 -10.8511 -3.6
      vertex -26.51 -13.14 -3.6
      vertex -34.4522 -10.5054 -3.6
    endloop
  endfacet
  facet normal -0 0 1
    outer loop
      vertex -34.8858 -11.1542 -3.6
      vertex -26.51 -13.14 -3.6
      vertex -34.6371 -10.8511 -3.6
    endloop
  endfacet
  facet normal 0 0 1
    outer loop
      vertex -26.51 -13.14 -3.6
      vertex -34.8858 -11.1542 -3.6
      vertex -26.5 -17.34 -3.6
    endloop
  endfacet
  facet normal -0 0 1
    outer loop
      vertex -35.1889 -11.4029 -3.6
      vertex -26.5 -17.34 -3.6
      vertex -34.8858 -11.1542 -3.6
    endloop
  endfacet
  facet normal -0 0 1
    outer loop
      vertex -35.5346 -11.5878 -3.6
      vertex -26.5 -17.34 -3.6
      vertex -35.1889 -11.4029 -3.6
    endloop
  endfacet
  facet normal 0 0 1
    outer loop
      vertex -40.5 -17.34 -3.6
      vertex -35.5346 -11.5878 -3.6
      vertex -35.9098 -11.7016 -3.6
    endloop
  endfacet
  facet normal 0 0 1
    outer loop
      vertex -40.5 -17.34 -3.6
      vertex -35.9098 -11.7016 -3.6
      vertex -36.3 -11.74 -3.6
    endloop
  endfacet
  facet normal 0 0 1
    outer loop
      vertex -40.5 -17.34 -3.6
      vertex -36.3 -11.74 -3.6
      vertex -36.6902 -11.7016 -3.6
    endloop
  endfacet
  facet normal 0 0 1
    outer loop
      vertex -40.5 -17.34 -3.6
      vertex -36.6902 -11.7016 -3.6
      vertex -37.0654 -11.5878 -3.6
    endloop
  endfacet
  facet normal 0 0 1
    outer loop
      vertex -40.5 -17.34 -3.6
      vertex -37.0654 -11.5878 -3.6
      vertex -37.4111 -11.4029 -3.6
    endloop
  endfacet
  facet normal 0 0 1
    outer loop
      vertex -40.5 -5.34 -3.6
      vertex -38.2616 -10.1302 -3.6
      vertex -38.3 -9.74 -3.6
    endloop
  endfacet
  facet normal 0 0 1
    outer loop
      vertex -40.5 -17.34 -3.6
      vertex -38.2616 -10.1302 -3.6
      vertex -40.5 -5.34 -3.6
    endloop
  endfacet
  facet normal 0 0 1
    outer loop
      vertex -35.5346 -11.5878 -3.6
      vertex -40.5 -17.34 -3.6
      vertex -26.5 -17.34 -3.6
    endloop
  endfacet
  facet normal 0 0 1
    outer loop
      vertex -37.7142 -11.1542 -3.6
      vertex -40.5 -17.34 -3.6
      vertex -37.4111 -11.4029 -3.6
    endloop
  endfacet
  facet normal 0 0 1
    outer loop
      vertex -37.9629 -10.8511 -3.6
      vertex -40.5 -17.34 -3.6
      vertex -37.7142 -11.1542 -3.6
    endloop
  endfacet
  facet normal 0 0 1
    outer loop
      vertex -38.1478 -10.5054 -3.6
      vertex -40.5 -17.34 -3.6
      vertex -37.9629 -10.8511 -3.6
    endloop
  endfacet
  facet normal 0 0 1
    outer loop
      vertex -38.2616 -10.1302 -3.6
      vertex -40.5 -17.34 -3.6
      vertex -38.1478 -10.5054 -3.6
    endloop
  endfacet
  facet normal 0 0 1
    outer loop
      vertex -12.5 10.26 -3.6
      vertex -18.5 9.08899 -3.6
      vertex -12.5 9.08899 -3.6
    endloop
  endfacet
  facet normal -0 0 1
    outer loop
      vertex -20.6522 -8.97463 -3.6
      vertex -18.5 -12.24 -3.6
      vertex -18.5 9.08899 -3.6
    endloop
  endfacet
  facet normal 0 0 1
    outer loop
      vertex -18.5 -12.24 -3.6
      vertex -20.5384 -9.34982 -3.6
      vertex -20.5 -9.74 -3.6
    endloop
  endfacet
  facet normal 0 0 1
    outer loop
      vertex -18.5 -12.24 -3.6
      vertex -20.6522 -8.97463 -3.6
      vertex -20.5384 -9.34982 -3.6
    endloop
  endfacet
  facet normal 0 0 1
    outer loop
      vertex -18.5 9.08899 -3.6
      vertex -20.8371 -8.62886 -3.6
      vertex -20.6522 -8.97463 -3.6
    endloop
  endfacet
  facet normal 0 0 1
    outer loop
      vertex -18.5 9.08899 -3.6
      vertex -21.0858 -8.32579 -3.6
      vertex -20.8371 -8.62886 -3.6
    endloop
  endfacet
  facet normal 0 0 1
    outer loop
      vertex -18.5 9.08899 -3.6
      vertex -21.3889 -8.07706 -3.6
      vertex -21.0858 -8.32579 -3.6
    endloop
  endfacet
  facet normal 0 0 1
    outer loop
      vertex -18.5 9.08899 -3.6
      vertex -21.7346 -7.89224 -3.6
      vertex -21.3889 -8.07706 -3.6
    endloop
  endfacet
  facet normal 0 0 1
    outer loop
      vertex -18.5 9.08899 -3.6
      vertex -22.1098 -7.77843 -3.6
      vertex -21.7346 -7.89224 -3.6
    endloop
  endfacet
  facet normal -0 0 1
    outer loop
      vertex -26.5 -5.34 -3.6
      vertex -22.1098 -7.77843 -3.6
      vertex -18.5 9.08899 -3.6
    endloop
  endfacet
  facet normal 0 0 1
    outer loop
      vertex -22.1098 -7.77843 -3.6
      vertex -26.5 -5.34 -3.6
      vertex -22.5 -7.74 -3.6
    endloop
  endfacet
  facet normal 0 0 1
    outer loop
      vertex -22.5 -7.74 -3.6
      vertex -26.5 -5.34 -3.6
      vertex -22.8902 -7.77843 -3.6
    endloop
  endfacet
  facet normal 0 0 1
    outer loop
      vertex -22.8902 -7.77843 -3.6
      vertex -26.5 -5.34 -3.6
      vertex -23.2654 -7.89224 -3.6
    endloop
  endfacet
  facet normal 0 0 1
    outer loop
      vertex -23.2654 -7.89224 -3.6
      vertex -26.5 -5.34 -3.6
      vertex -23.6111 -8.07706 -3.6
    endloop
  endfacet
  facet normal 0 0 1
    outer loop
      vertex -23.6111 -8.07706 -3.6
      vertex -26.5 -5.34 -3.6
      vertex -23.9142 -8.32579 -3.6
    endloop
  endfacet
  facet normal 0 0 1
    outer loop
      vertex -23.9142 -8.32579 -3.6
      vertex -26.5 -5.34 -3.6
      vertex -24.1629 -8.62886 -3.6
    endloop
  endfacet
  facet normal -0 0 1
    outer loop
      vertex -26.51 -5.34 -3.6
      vertex -24.3478 -8.97463 -3.6
      vertex -26.5 -5.34 -3.6
    endloop
  endfacet
  facet normal 0 0 1
    outer loop
      vertex -24.1629 -8.62886 -3.6
      vertex -26.5 -5.34 -3.6
      vertex -24.3478 -8.97463 -3.6
    endloop
  endfacet
  facet normal 0 0 1
    outer loop
      vertex -26.5 -5.34 -3.6
      vertex -18.5 9.08899 -3.6
      vertex -26.5 10.26 -3.6
    endloop
  endfacet
  facet normal -0 0 1
    outer loop
      vertex -26.5 10.26 -3.6
      vertex -18.5 9.08899 -3.6
      vertex -12.5 10.26 -3.6
    endloop
  endfacet
  facet normal -0 0 1
    outer loop
      vertex -18.5 -12.24 -3.6
      vertex -12.5 -13.14 -3.6
      vertex -12.5 -12.24 -3.6
    endloop
  endfacet
  facet normal -0 0 1
    outer loop
      vertex -20.5384 -10.1302 -3.6
      vertex -18.5 -12.24 -3.6
      vertex -20.5 -9.74 -3.6
    endloop
  endfacet
  facet normal -0 0 1
    outer loop
      vertex -20.6522 -10.5054 -3.6
      vertex -18.5 -12.24 -3.6
      vertex -20.5384 -10.1302 -3.6
    endloop
  endfacet
  facet normal -0 0 1
    outer loop
      vertex -20.8371 -10.8511 -3.6
      vertex -18.5 -12.24 -3.6
      vertex -20.6522 -10.5054 -3.6
    endloop
  endfacet
  facet normal -0 0 1
    outer loop
      vertex -21.0858 -11.1542 -3.6
      vertex -18.5 -12.24 -3.6
      vertex -20.8371 -10.8511 -3.6
    endloop
  endfacet
  facet normal -0 0 1
    outer loop
      vertex -21.3889 -11.4029 -3.6
      vertex -18.5 -12.24 -3.6
      vertex -21.0858 -11.1542 -3.6
    endloop
  endfacet
  facet normal -0 0 1
    outer loop
      vertex -21.7346 -11.5878 -3.6
      vertex -18.5 -12.24 -3.6
      vertex -21.3889 -11.4029 -3.6
    endloop
  endfacet
  facet normal -0 0 1
    outer loop
      vertex -22.1098 -11.7016 -3.6
      vertex -18.5 -12.24 -3.6
      vertex -21.7346 -11.5878 -3.6
    endloop
  endfacet
  facet normal -0 0 1
    outer loop
      vertex -22.5 -11.74 -3.6
      vertex -18.5 -12.24 -3.6
      vertex -22.1098 -11.7016 -3.6
    endloop
  endfacet
  facet normal 0 0 1
    outer loop
      vertex -18.5 -12.24 -3.6
      vertex -22.5 -11.74 -3.6
      vertex -26.5 -13.14 -3.6
    endloop
  endfacet
  facet normal 0 0 1
    outer loop
      vertex -26.5 -13.14 -3.6
      vertex -22.5 -11.74 -3.6
      vertex -22.8902 -11.7016 -3.6
    endloop
  endfacet
  facet normal 0 0 1
    outer loop
      vertex -24.3478 -8.97463 -3.6
      vertex -26.51 -5.34 -3.6
      vertex -24.4616 -9.34982 -3.6
    endloop
  endfacet
  facet normal 0 0 1
    outer loop
      vertex -24.4616 -9.34982 -3.6
      vertex -26.51 -5.34 -3.6
      vertex -24.5 -9.74 -3.6
    endloop
  endfacet
  facet normal 0 0 1
    outer loop
      vertex -26.51 -13.14 -3.6
      vertex -24.5 -9.74 -3.6
      vertex -26.51 -5.34 -3.6
    endloop
  endfacet
  facet normal 0 0 1
    outer loop
      vertex -18.5 -12.24 -3.6
      vertex -26.5 -13.14 -3.6
      vertex -12.5 -13.14 -3.6
    endloop
  endfacet
  facet normal 0 0 1
    outer loop
      vertex -23.2654 -11.5878 -3.6
      vertex -26.5 -13.14 -3.6
      vertex -22.8902 -11.7016 -3.6
    endloop
  endfacet
  facet normal 0 0 1
    outer loop
      vertex -23.6111 -11.4029 -3.6
      vertex -26.5 -13.14 -3.6
      vertex -23.2654 -11.5878 -3.6
    endloop
  endfacet
  facet normal 0 0 1
    outer loop
      vertex -23.9142 -11.1542 -3.6
      vertex -26.5 -13.14 -3.6
      vertex -23.6111 -11.4029 -3.6
    endloop
  endfacet
  facet normal 0 0 1
    outer loop
      vertex -24.1629 -10.8511 -3.6
      vertex -26.5 -13.14 -3.6
      vertex -23.9142 -11.1542 -3.6
    endloop
  endfacet
  facet normal 0 0 1
    outer loop
      vertex -24.3478 -10.5054 -3.6
      vertex -26.5 -13.14 -3.6
      vertex -24.1629 -10.8511 -3.6
    endloop
  endfacet
  facet normal 0 0 1
    outer loop
      vertex -24.5 -9.74 -3.6
      vertex -26.51 -13.14 -3.6
      vertex -24.4616 -10.1302 -3.6
    endloop
  endfacet
  facet normal 0 0 1
    outer loop
      vertex -24.4616 -10.1302 -3.6
      vertex -26.51 -13.14 -3.6
      vertex -24.3478 -10.5054 -3.6
    endloop
  endfacet
  facet normal 0 0 1
    outer loop
      vertex -24.3478 -10.5054 -3.6
      vertex -26.51 -13.14 -3.6
      vertex -26.5 -13.14 -3.6
    endloop
  endfacet
  facet normal 0 1 -0
    outer loop
      vertex -26.5 -5.34 -8.1
      vertex -26.51 -5.34 -3.6
      vertex -26.5 -5.34 -3.6
    endloop
  endfacet
  facet normal 0 1 0
    outer loop
      vertex -26.51 -5.34 -3.6
      vertex -26.5 -5.34 -8.1
      vertex -40.5 -5.34 -3.6
    endloop
  endfacet
  facet normal 0 1 0
    outer loop
      vertex -40.5 -5.34 -3.6
      vertex -26.5 -5.34 -8.1
      vertex -40.5 -5.34 -8.1
    endloop
  endfacet
  facet normal -1 0 0
    outer loop
      vertex -40.5 -17.34 -8.1
      vertex -40.5 -5.34 -3.6
      vertex -40.5 -5.34 -8.1
    endloop
  endfacet
  facet normal -1 -0 0
    outer loop
      vertex -40.5 -5.34 -3.6
      vertex -40.5 -17.34 -8.1
      vertex -40.5 -17.34 -3.6
    endloop
  endfacet
  facet normal 0.995192 -0.0979429 0
    outer loop
      vertex -24.5 -9.74 -3.6
      vertex -24.4616 -9.34982 -8.1
      vertex -24.4616 -9.34982 -3.6
    endloop
  endfacet
  facet normal 0.995192 -0.0979429 0
    outer loop
      vertex -24.4616 -9.34982 -8.1
      vertex -24.5 -9.74 -3.6
      vertex -24.5 -9.74 -8.1
    endloop
  endfacet
  facet normal -0.995192 -0.0979429 0
    outer loop
      vertex -20.5 -9.74 -8.1
      vertex -20.5384 -9.34982 -3.6
      vertex -20.5384 -9.34982 -8.1
    endloop
  endfacet
  facet normal -0.995192 -0.0979429 0
    outer loop
      vertex -20.5384 -9.34982 -3.6
      vertex -20.5 -9.74 -8.1
      vertex -20.5 -9.74 -3.6
    endloop
  endfacet
  facet normal -0.0980137 -0.995185 0
    outer loop
      vertex -22.5 -7.74 -8.1
      vertex -22.1098 -7.77843 -3.6
      vertex -22.5 -7.74 -3.6
    endloop
  endfacet
  facet normal -0.0980137 -0.995185 -0
    outer loop
      vertex -22.1098 -7.77843 -3.6
      vertex -22.5 -7.74 -8.1
      vertex -22.1098 -7.77843 -8.1
    endloop
  endfacet
  facet normal -0.097938 0.995193 0
    outer loop
      vertex -22.1098 -11.7016 -8.1
      vertex -22.5 -11.74 -3.6
      vertex -22.1098 -11.7016 -3.6
    endloop
  endfacet
  facet normal -0.097938 0.995193 0
    outer loop
      vertex -22.5 -11.74 -3.6
      vertex -22.1098 -11.7016 -8.1
      vertex -22.5 -11.74 -8.1
    endloop
  endfacet
  facet normal -0.77307 0.634321 0
    outer loop
      vertex -21.0858 -11.1542 -8.1
      vertex -20.8371 -10.8511 -3.6
      vertex -20.8371 -10.8511 -8.1
    endloop
  endfacet
  facet normal -0.77307 0.634321 0
    outer loop
      vertex -20.8371 -10.8511 -3.6
      vertex -21.0858 -11.1542 -8.1
      vertex -21.0858 -11.1542 -3.6
    endloop
  endfacet
  facet normal -0.773039 -0.634358 0
    outer loop
      vertex -20.8371 -8.62886 -8.1
      vertex -21.0858 -8.32579 -3.6
      vertex -21.0858 -8.32579 -8.1
    endloop
  endfacet
  facet normal -0.773039 -0.634358 0
    outer loop
      vertex -21.0858 -8.32579 -3.6
      vertex -20.8371 -8.62886 -8.1
      vertex -20.8371 -8.62886 -3.6
    endloop
  endfacet
  facet normal -0.471475 -0.881879 0
    outer loop
      vertex -21.7346 -7.89224 -8.1
      vertex -21.3889 -8.07706 -3.6
      vertex -21.7346 -7.89224 -3.6
    endloop
  endfacet
  facet normal -0.471475 -0.881879 -0
    outer loop
      vertex -21.3889 -8.07706 -3.6
      vertex -21.7346 -7.89224 -8.1
      vertex -21.3889 -8.07706 -8.1
    endloop
  endfacet
  facet normal 0.956949 -0.290255 0
    outer loop
      vertex -24.4616 -9.34982 -3.6
      vertex -24.3478 -8.97463 -8.1
      vertex -24.3478 -8.97463 -3.6
    endloop
  endfacet
  facet normal 0.956949 -0.290255 0
    outer loop
      vertex -24.3478 -8.97463 -8.1
      vertex -24.4616 -9.34982 -3.6
      vertex -24.4616 -9.34982 -8.1
    endloop
  endfacet
  facet normal 0.773039 -0.634358 0
    outer loop
      vertex -24.1629 -8.62886 -3.6
      vertex -23.9142 -8.32579 -8.1
      vertex -23.9142 -8.32579 -3.6
    endloop
  endfacet
  facet normal 0.773039 -0.634358 0
    outer loop
      vertex -23.9142 -8.32579 -8.1
      vertex -24.1629 -8.62886 -3.6
      vertex -24.1629 -8.62886 -8.1
    endloop
  endfacet
  facet normal 0.0980137 -0.995185 0
    outer loop
      vertex -22.8902 -7.77843 -8.1
      vertex -22.5 -7.74 -3.6
      vertex -22.8902 -7.77843 -3.6
    endloop
  endfacet
  facet normal 0.0980137 -0.995185 0
    outer loop
      vertex -22.5 -7.74 -3.6
      vertex -22.8902 -7.77843 -8.1
      vertex -22.5 -7.74 -8.1
    endloop
  endfacet
  facet normal 0.471475 -0.881879 0
    outer loop
      vertex -23.6111 -8.07706 -8.1
      vertex -23.2654 -7.89224 -3.6
      vertex -23.6111 -8.07706 -3.6
    endloop
  endfacet
  facet normal 0.471475 -0.881879 0
    outer loop
      vertex -23.2654 -7.89224 -3.6
      vertex -23.6111 -8.07706 -8.1
      vertex -23.2654 -7.89224 -8.1
    endloop
  endfacet
  facet normal -0.881834 -0.47156 0
    outer loop
      vertex -20.6522 -8.97463 -8.1
      vertex -20.8371 -8.62886 -3.6
      vertex -20.8371 -8.62886 -8.1
    endloop
  endfacet
  facet normal -0.881834 -0.47156 0
    outer loop
      vertex -20.8371 -8.62886 -3.6
      vertex -20.6522 -8.97463 -8.1
      vertex -20.6522 -8.97463 -3.6
    endloop
  endfacet
  facet normal -0.956949 -0.290255 0
    outer loop
      vertex -20.5384 -9.34982 -8.1
      vertex -20.6522 -8.97463 -3.6
      vertex -20.6522 -8.97463 -8.1
    endloop
  endfacet
  facet normal -0.956949 -0.290255 0
    outer loop
      vertex -20.6522 -8.97463 -3.6
      vertex -20.5384 -9.34982 -8.1
      vertex -20.5384 -9.34982 -3.6
    endloop
  endfacet
  facet normal -0.634366 -0.773033 0
    outer loop
      vertex -21.3889 -8.07706 -8.1
      vertex -21.0858 -8.32579 -3.6
      vertex -21.3889 -8.07706 -3.6
    endloop
  endfacet
  facet normal -0.634366 -0.773033 -0
    outer loop
      vertex -21.0858 -8.32579 -3.6
      vertex -21.3889 -8.07706 -8.1
      vertex -21.0858 -8.32579 -8.1
    endloop
  endfacet
  facet normal -0.290271 -0.956944 0
    outer loop
      vertex -22.1098 -7.77843 -8.1
      vertex -21.7346 -7.89224 -3.6
      vertex -22.1098 -7.77843 -3.6
    endloop
  endfacet
  facet normal -0.290271 -0.956944 -0
    outer loop
      vertex -21.7346 -7.89224 -3.6
      vertex -22.1098 -7.77843 -8.1
      vertex -21.7346 -7.89224 -8.1
    endloop
  endfacet
  facet normal 0.995193 0.097938 0
    outer loop
      vertex -24.4616 -10.1302 -3.6
      vertex -24.5 -9.74 -8.1
      vertex -24.5 -9.74 -3.6
    endloop
  endfacet
  facet normal 0.995193 0.097938 0
    outer loop
      vertex -24.5 -9.74 -8.1
      vertex -24.4616 -10.1302 -3.6
      vertex -24.4616 -10.1302 -8.1
    endloop
  endfacet
  facet normal 0.290248 0.956951 -0
    outer loop
      vertex -22.8902 -11.7016 -8.1
      vertex -23.2654 -11.5878 -3.6
      vertex -22.8902 -11.7016 -3.6
    endloop
  endfacet
  facet normal 0.290248 0.956951 0
    outer loop
      vertex -23.2654 -11.5878 -3.6
      vertex -22.8902 -11.7016 -8.1
      vertex -23.2654 -11.5878 -8.1
    endloop
  endfacet
  facet normal 0.097938 0.995193 -0
    outer loop
      vertex -22.5 -11.74 -8.1
      vertex -22.8902 -11.7016 -3.6
      vertex -22.5 -11.74 -3.6
    endloop
  endfacet
  facet normal 0.097938 0.995193 0
    outer loop
      vertex -22.8902 -11.7016 -3.6
      vertex -22.5 -11.74 -8.1
      vertex -22.8902 -11.7016 -8.1
    endloop
  endfacet
  facet normal 0.634321 0.77307 -0
    outer loop
      vertex -23.6111 -11.4029 -8.1
      vertex -23.9142 -11.1542 -3.6
      vertex -23.6111 -11.4029 -3.6
    endloop
  endfacet
  facet normal 0.634321 0.77307 0
    outer loop
      vertex -23.9142 -11.1542 -3.6
      vertex -23.6111 -11.4029 -8.1
      vertex -23.9142 -11.1542 -8.1
    endloop
  endfacet
  facet normal -0.471634 0.881795 0
    outer loop
      vertex -21.3889 -11.4029 -8.1
      vertex -21.7346 -11.5878 -3.6
      vertex -21.3889 -11.4029 -3.6
    endloop
  endfacet
  facet normal -0.471634 0.881795 0
    outer loop
      vertex -21.7346 -11.5878 -3.6
      vertex -21.3889 -11.4029 -8.1
      vertex -21.7346 -11.5878 -8.1
    endloop
  endfacet
  facet normal -0.634321 0.77307 0
    outer loop
      vertex -21.0858 -11.1542 -8.1
      vertex -21.3889 -11.4029 -3.6
      vertex -21.0858 -11.1542 -3.6
    endloop
  endfacet
  facet normal -0.634321 0.77307 0
    outer loop
      vertex -21.3889 -11.4029 -3.6
      vertex -21.0858 -11.1542 -8.1
      vertex -21.3889 -11.4029 -8.1
    endloop
  endfacet
  facet normal -0.290248 0.956951 0
    outer loop
      vertex -21.7346 -11.5878 -8.1
      vertex -22.1098 -11.7016 -3.6
      vertex -21.7346 -11.5878 -3.6
    endloop
  endfacet
  facet normal -0.290248 0.956951 0
    outer loop
      vertex -22.1098 -11.7016 -3.6
      vertex -21.7346 -11.5878 -8.1
      vertex -22.1098 -11.7016 -8.1
    endloop
  endfacet
  facet normal -0.995193 0.097938 0
    outer loop
      vertex -20.5384 -10.1302 -8.1
      vertex -20.5 -9.74 -3.6
      vertex -20.5 -9.74 -8.1
    endloop
  endfacet
  facet normal -0.995193 0.097938 0
    outer loop
      vertex -20.5 -9.74 -3.6
      vertex -20.5384 -10.1302 -8.1
      vertex -20.5384 -10.1302 -3.6
    endloop
  endfacet
  facet normal -0.956951 0.290248 0
    outer loop
      vertex -20.6522 -10.5054 -8.1
      vertex -20.5384 -10.1302 -3.6
      vertex -20.5384 -10.1302 -8.1
    endloop
  endfacet
  facet normal -0.956951 0.290248 0
    outer loop
      vertex -20.5384 -10.1302 -3.6
      vertex -20.6522 -10.5054 -8.1
      vertex -20.6522 -10.5054 -3.6
    endloop
  endfacet
  facet normal 0.881834 -0.47156 0
    outer loop
      vertex -24.3478 -8.97463 -3.6
      vertex -24.1629 -8.62886 -8.1
      vertex -24.1629 -8.62886 -3.6
    endloop
  endfacet
  facet normal 0.881834 -0.47156 0
    outer loop
      vertex -24.1629 -8.62886 -8.1
      vertex -24.3478 -8.97463 -3.6
      vertex -24.3478 -8.97463 -8.1
    endloop
  endfacet
  facet normal 0.634366 -0.773033 0
    outer loop
      vertex -23.9142 -8.32579 -8.1
      vertex -23.6111 -8.07706 -3.6
      vertex -23.9142 -8.32579 -3.6
    endloop
  endfacet
  facet normal 0.634366 -0.773033 0
    outer loop
      vertex -23.6111 -8.07706 -3.6
      vertex -23.9142 -8.32579 -8.1
      vertex -23.6111 -8.07706 -8.1
    endloop
  endfacet
  facet normal 0.290271 -0.956944 0
    outer loop
      vertex -23.2654 -7.89224 -8.1
      vertex -22.8902 -7.77843 -3.6
      vertex -23.2654 -7.89224 -3.6
    endloop
  endfacet
  facet normal 0.290271 -0.956944 0
    outer loop
      vertex -22.8902 -7.77843 -3.6
      vertex -23.2654 -7.89224 -8.1
      vertex -22.8902 -7.77843 -8.1
    endloop
  endfacet
  facet normal 0.77307 0.634321 0
    outer loop
      vertex -23.9142 -11.1542 -3.6
      vertex -24.1629 -10.8511 -8.1
      vertex -24.1629 -10.8511 -3.6
    endloop
  endfacet
  facet normal 0.77307 0.634321 0
    outer loop
      vertex -24.1629 -10.8511 -8.1
      vertex -23.9142 -11.1542 -3.6
      vertex -23.9142 -11.1542 -8.1
    endloop
  endfacet
  facet normal 0.956951 0.290248 0
    outer loop
      vertex -24.3478 -10.5054 -3.6
      vertex -24.4616 -10.1302 -8.1
      vertex -24.4616 -10.1302 -3.6
    endloop
  endfacet
  facet normal 0.956951 0.290248 0
    outer loop
      vertex -24.4616 -10.1302 -8.1
      vertex -24.3478 -10.5054 -3.6
      vertex -24.3478 -10.5054 -8.1
    endloop
  endfacet
  facet normal 0.881795 0.471634 0
    outer loop
      vertex -24.1629 -10.8511 -3.6
      vertex -24.3478 -10.5054 -8.1
      vertex -24.3478 -10.5054 -3.6
    endloop
  endfacet
  facet normal 0.881795 0.471634 0
    outer loop
      vertex -24.3478 -10.5054 -8.1
      vertex -24.1629 -10.8511 -3.6
      vertex -24.1629 -10.8511 -8.1
    endloop
  endfacet
  facet normal -0.881795 0.471634 0
    outer loop
      vertex -20.8371 -10.8511 -8.1
      vertex -20.6522 -10.5054 -3.6
      vertex -20.6522 -10.5054 -8.1
    endloop
  endfacet
  facet normal -0.881795 0.471634 0
    outer loop
      vertex -20.6522 -10.5054 -3.6
      vertex -20.8371 -10.8511 -8.1
      vertex -20.8371 -10.8511 -3.6
    endloop
  endfacet
  facet normal 0.471634 0.881795 -0
    outer loop
      vertex -23.2654 -11.5878 -8.1
      vertex -23.6111 -11.4029 -3.6
      vertex -23.2654 -11.5878 -3.6
    endloop
  endfacet
  facet normal 0.471634 0.881795 0
    outer loop
      vertex -23.6111 -11.4029 -3.6
      vertex -23.2654 -11.5878 -8.1
      vertex -23.6111 -11.4029 -8.1
    endloop
  endfacet
  facet normal 0.995192 -0.0979429 0
    outer loop
      vertex -38.3 -9.74 -3.6
      vertex -38.2616 -9.34982 -8.1
      vertex -38.2616 -9.34982 -3.6
    endloop
  endfacet
  facet normal 0.995192 -0.0979429 0
    outer loop
      vertex -38.2616 -9.34982 -8.1
      vertex -38.3 -9.74 -3.6
      vertex -38.3 -9.74 -8.1
    endloop
  endfacet
  facet normal -0.995192 -0.0979429 0
    outer loop
      vertex -34.3 -9.74 -8.1
      vertex -34.3384 -9.34982 -3.6
      vertex -34.3384 -9.34982 -8.1
    endloop
  endfacet
  facet normal -0.995192 -0.0979429 0
    outer loop
      vertex -34.3384 -9.34982 -3.6
      vertex -34.3 -9.74 -8.1
      vertex -34.3 -9.74 -3.6
    endloop
  endfacet
  facet normal -0.0980137 -0.995185 0
    outer loop
      vertex -36.3 -7.74 -8.1
      vertex -35.9098 -7.77843 -3.6
      vertex -36.3 -7.74 -3.6
    endloop
  endfacet
  facet normal -0.0980137 -0.995185 -0
    outer loop
      vertex -35.9098 -7.77843 -3.6
      vertex -36.3 -7.74 -8.1
      vertex -35.9098 -7.77843 -8.1
    endloop
  endfacet
  facet normal -0.097938 0.995193 0
    outer loop
      vertex -35.9098 -11.7016 -8.1
      vertex -36.3 -11.74 -3.6
      vertex -35.9098 -11.7016 -3.6
    endloop
  endfacet
  facet normal -0.097938 0.995193 0
    outer loop
      vertex -36.3 -11.74 -3.6
      vertex -35.9098 -11.7016 -8.1
      vertex -36.3 -11.74 -8.1
    endloop
  endfacet
  facet normal -0.77307 0.634321 0
    outer loop
      vertex -34.8858 -11.1542 -8.1
      vertex -34.6371 -10.8511 -3.6
      vertex -34.6371 -10.8511 -8.1
    endloop
  endfacet
  facet normal -0.77307 0.634321 0
    outer loop
      vertex -34.6371 -10.8511 -3.6
      vertex -34.8858 -11.1542 -8.1
      vertex -34.8858 -11.1542 -3.6
    endloop
  endfacet
  facet normal -0.773039 -0.634358 0
    outer loop
      vertex -34.6371 -8.62886 -8.1
      vertex -34.8858 -8.32579 -3.6
      vertex -34.8858 -8.32579 -8.1
    endloop
  endfacet
  facet normal -0.773039 -0.634358 0
    outer loop
      vertex -34.8858 -8.32579 -3.6
      vertex -34.6371 -8.62886 -8.1
      vertex -34.6371 -8.62886 -3.6
    endloop
  endfacet
  facet normal -0.471475 -0.881879 0
    outer loop
      vertex -35.5346 -7.89224 -8.1
      vertex -35.1889 -8.07706 -3.6
      vertex -35.5346 -7.89224 -3.6
    endloop
  endfacet
  facet normal -0.471475 -0.881879 -0
    outer loop
      vertex -35.1889 -8.07706 -3.6
      vertex -35.5346 -7.89224 -8.1
      vertex -35.1889 -8.07706 -8.1
    endloop
  endfacet
  facet normal 0.956949 -0.290255 0
    outer loop
      vertex -38.2616 -9.34982 -3.6
      vertex -38.1478 -8.97463 -8.1
      vertex -38.1478 -8.97463 -3.6
    endloop
  endfacet
  facet normal 0.956949 -0.290255 0
    outer loop
      vertex -38.1478 -8.97463 -8.1
      vertex -38.2616 -9.34982 -3.6
      vertex -38.2616 -9.34982 -8.1
    endloop
  endfacet
  facet normal 0.773039 -0.634358 0
    outer loop
      vertex -37.9629 -8.62886 -3.6
      vertex -37.7142 -8.32579 -8.1
      vertex -37.7142 -8.32579 -3.6
    endloop
  endfacet
  facet normal 0.773039 -0.634358 0
    outer loop
      vertex -37.7142 -8.32579 -8.1
      vertex -37.9629 -8.62886 -3.6
      vertex -37.9629 -8.62886 -8.1
    endloop
  endfacet
  facet normal 0.0980137 -0.995185 0
    outer loop
      vertex -36.6902 -7.77843 -8.1
      vertex -36.3 -7.74 -3.6
      vertex -36.6902 -7.77843 -3.6
    endloop
  endfacet
  facet normal 0.0980137 -0.995185 0
    outer loop
      vertex -36.3 -7.74 -3.6
      vertex -36.6902 -7.77843 -8.1
      vertex -36.3 -7.74 -8.1
    endloop
  endfacet
  facet normal 0.471475 -0.881879 0
    outer loop
      vertex -37.4111 -8.07706 -8.1
      vertex -37.0654 -7.89224 -3.6
      vertex -37.4111 -8.07706 -3.6
    endloop
  endfacet
  facet normal 0.471475 -0.881879 0
    outer loop
      vertex -37.0654 -7.89224 -3.6
      vertex -37.4111 -8.07706 -8.1
      vertex -37.0654 -7.89224 -8.1
    endloop
  endfacet
  facet normal -0.881834 -0.47156 0
    outer loop
      vertex -34.4522 -8.97463 -8.1
      vertex -34.6371 -8.62886 -3.6
      vertex -34.6371 -8.62886 -8.1
    endloop
  endfacet
  facet normal -0.881834 -0.47156 0
    outer loop
      vertex -34.6371 -8.62886 -3.6
      vertex -34.4522 -8.97463 -8.1
      vertex -34.4522 -8.97463 -3.6
    endloop
  endfacet
  facet normal -0.956949 -0.290255 0
    outer loop
      vertex -34.3384 -9.34982 -8.1
      vertex -34.4522 -8.97463 -3.6
      vertex -34.4522 -8.97463 -8.1
    endloop
  endfacet
  facet normal -0.956949 -0.290255 0
    outer loop
      vertex -34.4522 -8.97463 -3.6
      vertex -34.3384 -9.34982 -8.1
      vertex -34.3384 -9.34982 -3.6
    endloop
  endfacet
  facet normal -0.634366 -0.773033 0
    outer loop
      vertex -35.1889 -8.07706 -8.1
      vertex -34.8858 -8.32579 -3.6
      vertex -35.1889 -8.07706 -3.6
    endloop
  endfacet
  facet normal -0.634366 -0.773033 -0
    outer loop
      vertex -34.8858 -8.32579 -3.6
      vertex -35.1889 -8.07706 -8.1
      vertex -34.8858 -8.32579 -8.1
    endloop
  endfacet
  facet normal -0.290271 -0.956944 0
    outer loop
      vertex -35.9098 -7.77843 -8.1
      vertex -35.5346 -7.89224 -3.6
      vertex -35.9098 -7.77843 -3.6
    endloop
  endfacet
  facet normal -0.290271 -0.956944 -0
    outer loop
      vertex -35.5346 -7.89224 -3.6
      vertex -35.9098 -7.77843 -8.1
      vertex -35.5346 -7.89224 -8.1
    endloop
  endfacet
  facet normal 0.097938 0.995193 -0
    outer loop
      vertex -36.3 -11.74 -8.1
      vertex -36.6902 -11.7016 -3.6
      vertex -36.3 -11.74 -3.6
    endloop
  endfacet
  facet normal 0.097938 0.995193 0
    outer loop
      vertex -36.6902 -11.7016 -3.6
      vertex -36.3 -11.74 -8.1
      vertex -36.6902 -11.7016 -8.1
    endloop
  endfacet
  facet normal 0.471634 0.881795 -0
    outer loop
      vertex -37.0654 -11.5878 -8.1
      vertex -37.4111 -11.4029 -3.6
      vertex -37.0654 -11.5878 -3.6
    endloop
  endfacet
  facet normal 0.471634 0.881795 0
    outer loop
      vertex -37.4111 -11.4029 -3.6
      vertex -37.0654 -11.5878 -8.1
      vertex -37.4111 -11.4029 -8.1
    endloop
  endfacet
  facet normal 0.77307 0.634321 0
    outer loop
      vertex -37.7142 -11.1542 -3.6
      vertex -37.9629 -10.8511 -8.1
      vertex -37.9629 -10.8511 -3.6
    endloop
  endfacet
  facet normal 0.77307 0.634321 0
    outer loop
      vertex -37.9629 -10.8511 -8.1
      vertex -37.7142 -11.1542 -3.6
      vertex -37.7142 -11.1542 -8.1
    endloop
  endfacet
  facet normal -0.471634 0.881795 0
    outer loop
      vertex -35.1889 -11.4029 -8.1
      vertex -35.5346 -11.5878 -3.6
      vertex -35.1889 -11.4029 -3.6
    endloop
  endfacet
  facet normal -0.471634 0.881795 0
    outer loop
      vertex -35.5346 -11.5878 -3.6
      vertex -35.1889 -11.4029 -8.1
      vertex -35.5346 -11.5878 -8.1
    endloop
  endfacet
  facet normal -0.634321 0.77307 0
    outer loop
      vertex -34.8858 -11.1542 -8.1
      vertex -35.1889 -11.4029 -3.6
      vertex -34.8858 -11.1542 -3.6
    endloop
  endfacet
  facet normal -0.634321 0.77307 0
    outer loop
      vertex -35.1889 -11.4029 -3.6
      vertex -34.8858 -11.1542 -8.1
      vertex -35.1889 -11.4029 -8.1
    endloop
  endfacet
  facet normal -0.290248 0.956951 0
    outer loop
      vertex -35.5346 -11.5878 -8.1
      vertex -35.9098 -11.7016 -3.6
      vertex -35.5346 -11.5878 -3.6
    endloop
  endfacet
  facet normal -0.290248 0.956951 0
    outer loop
      vertex -35.9098 -11.7016 -3.6
      vertex -35.5346 -11.5878 -8.1
      vertex -35.9098 -11.7016 -8.1
    endloop
  endfacet
  facet normal -0.995193 0.097938 0
    outer loop
      vertex -34.3384 -10.1302 -8.1
      vertex -34.3 -9.74 -3.6
      vertex -34.3 -9.74 -8.1
    endloop
  endfacet
  facet normal -0.995193 0.097938 0
    outer loop
      vertex -34.3 -9.74 -3.6
      vertex -34.3384 -10.1302 -8.1
      vertex -34.3384 -10.1302 -3.6
    endloop
  endfacet
  facet normal -0.956951 0.290248 0
    outer loop
      vertex -34.4522 -10.5054 -8.1
      vertex -34.3384 -10.1302 -3.6
      vertex -34.3384 -10.1302 -8.1
    endloop
  endfacet
  facet normal -0.956951 0.290248 0
    outer loop
      vertex -34.3384 -10.1302 -3.6
      vertex -34.4522 -10.5054 -8.1
      vertex -34.4522 -10.5054 -3.6
    endloop
  endfacet
  facet normal 0.881834 -0.47156 0
    outer loop
      vertex -38.1478 -8.97463 -3.6
      vertex -37.9629 -8.62886 -8.1
      vertex -37.9629 -8.62886 -3.6
    endloop
  endfacet
  facet normal 0.881834 -0.47156 0
    outer loop
      vertex -37.9629 -8.62886 -8.1
      vertex -38.1478 -8.97463 -3.6
      vertex -38.1478 -8.97463 -8.1
    endloop
  endfacet
  facet normal 0.634366 -0.773033 0
    outer loop
      vertex -37.7142 -8.32579 -8.1
      vertex -37.4111 -8.07706 -3.6
      vertex -37.7142 -8.32579 -3.6
    endloop
  endfacet
  facet normal 0.634366 -0.773033 0
    outer loop
      vertex -37.4111 -8.07706 -3.6
      vertex -37.7142 -8.32579 -8.1
      vertex -37.4111 -8.07706 -8.1
    endloop
  endfacet
  facet normal 0.290271 -0.956944 0
    outer loop
      vertex -37.0654 -7.89224 -8.1
      vertex -36.6902 -7.77843 -3.6
      vertex -37.0654 -7.89224 -3.6
    endloop
  endfacet
  facet normal 0.290271 -0.956944 0
    outer loop
      vertex -36.6902 -7.77843 -3.6
      vertex -37.0654 -7.89224 -8.1
      vertex -36.6902 -7.77843 -8.1
    endloop
  endfacet
  facet normal 0.290248 0.956951 -0
    outer loop
      vertex -36.6902 -11.7016 -8.1
      vertex -37.0654 -11.5878 -3.6
      vertex -36.6902 -11.7016 -3.6
    endloop
  endfacet
  facet normal 0.290248 0.956951 0
    outer loop
      vertex -37.0654 -11.5878 -3.6
      vertex -36.6902 -11.7016 -8.1
      vertex -37.0654 -11.5878 -8.1
    endloop
  endfacet
  facet normal 0.634321 0.77307 -0
    outer loop
      vertex -37.4111 -11.4029 -8.1
      vertex -37.7142 -11.1542 -3.6
      vertex -37.4111 -11.4029 -3.6
    endloop
  endfacet
  facet normal 0.634321 0.77307 0
    outer loop
      vertex -37.7142 -11.1542 -3.6
      vertex -37.4111 -11.4029 -8.1
      vertex -37.7142 -11.1542 -8.1
    endloop
  endfacet
  facet normal 0.956951 0.290248 0
    outer loop
      vertex -38.1478 -10.5054 -3.6
      vertex -38.2616 -10.1302 -8.1
      vertex -38.2616 -10.1302 -3.6
    endloop
  endfacet
  facet normal 0.956951 0.290248 0
    outer loop
      vertex -38.2616 -10.1302 -8.1
      vertex -38.1478 -10.5054 -3.6
      vertex -38.1478 -10.5054 -8.1
    endloop
  endfacet
  facet normal 0.881795 0.471634 0
    outer loop
      vertex -37.9629 -10.8511 -3.6
      vertex -38.1478 -10.5054 -8.1
      vertex -38.1478 -10.5054 -3.6
    endloop
  endfacet
  facet normal 0.881795 0.471634 0
    outer loop
      vertex -38.1478 -10.5054 -8.1
      vertex -37.9629 -10.8511 -3.6
      vertex -37.9629 -10.8511 -8.1
    endloop
  endfacet
  facet normal -0.881795 0.471634 0
    outer loop
      vertex -34.6371 -10.8511 -8.1
      vertex -34.4522 -10.5054 -3.6
      vertex -34.4522 -10.5054 -8.1
    endloop
  endfacet
  facet normal -0.881795 0.471634 0
    outer loop
      vertex -34.4522 -10.5054 -3.6
      vertex -34.6371 -10.8511 -8.1
      vertex -34.6371 -10.8511 -3.6
    endloop
  endfacet
  facet normal 0.995193 0.097938 0
    outer loop
      vertex -38.2616 -10.1302 -3.6
      vertex -38.3 -9.74 -8.1
      vertex -38.3 -9.74 -3.6
    endloop
  endfacet
  facet normal 0.995193 0.097938 0
    outer loop
      vertex -38.3 -9.74 -8.1
      vertex -38.2616 -10.1302 -3.6
      vertex -38.2616 -10.1302 -8.1
    endloop
  endfacet
  facet normal 0 -0.773013 0.63439
    outer loop
      vertex -18.5 6.44685 -8.1
      vertex -12.5 7.39498 -6.94469
      vertex -18.5 7.39498 -6.94469
    endloop
  endfacet
  facet normal 0 -0.773013 0.63439
    outer loop
      vertex -12.5 7.39498 -6.94469
      vertex -18.5 6.44685 -8.1
      vertex -12.5 6.44685 -8.1
    endloop
  endfacet
  facet normal 0 -0.881921 0.471398
    outer loop
      vertex -18.5 7.39498 -6.94469
      vertex -12.5 8.96595 -4.00562
      vertex -18.5 8.96595 -4.00562
    endloop
  endfacet
  facet normal 0 -0.881921 0.471398
    outer loop
      vertex -12.5 8.96595 -4.00562
      vertex -18.5 7.39498 -6.94469
      vertex -12.5 7.39498 -6.94469
    endloop
  endfacet
  facet normal 1 0 0
    outer loop
      vertex -18.5 9.08899 -3.6
      vertex -18.5 7.39498 -6.94469
      vertex -18.5 8.96595 -4.00562
    endloop
  endfacet
  facet normal 1 -0 0
    outer loop
      vertex -18.5 -12.24 -3.6
      vertex -18.5 7.39498 -6.94469
      vertex -18.5 9.08899 -3.6
    endloop
  endfacet
  facet normal 1 0 0
    outer loop
      vertex -18.5 7.39498 -6.94469
      vertex -18.5 -12.24 -3.6
      vertex -18.5 6.44685 -8.1
    endloop
  endfacet
  facet normal 1 0 0
    outer loop
      vertex -18.5 6.44685 -8.1
      vertex -18.5 -12.24 -3.6
      vertex -18.5 -12.24 -8.1
    endloop
  endfacet
  facet normal 0 -0.956943 0.290277
    outer loop
      vertex -18.5 8.96595 -4.00562
      vertex -12.5 9.08899 -3.6
      vertex -18.5 9.08899 -3.6
    endloop
  endfacet
  facet normal 0 -0.956943 0.290277
    outer loop
      vertex -12.5 9.08899 -3.6
      vertex -18.5 8.96595 -4.00562
      vertex -12.5 8.96595 -4.00562
    endloop
  endfacet
  facet normal 0 1 -0
    outer loop
      vertex -12.5 -12.24 -8.1
      vertex -18.5 -12.24 -3.6
      vertex -12.5 -12.24 -3.6
    endloop
  endfacet
  facet normal 0 1 0
    outer loop
      vertex -18.5 -12.24 -3.6
      vertex -12.5 -12.24 -8.1
      vertex -18.5 -12.24 -8.1
    endloop
  endfacet
  facet normal 0 1 -0
    outer loop
      vertex -12.5 -13.14 -3.6
      vertex -26.5 -13.14 7.1
      vertex -12.5 -13.14 7.1
    endloop
  endfacet
  facet normal 0 1 0
    outer loop
      vertex -26.5 -13.14 7.1
      vertex -12.5 -13.14 -3.6
      vertex -26.5 -13.14 -3.6
    endloop
  endfacet
  facet normal 0 -1 0
    outer loop
      vertex -26.5 10.26 -3.6
      vertex -12.5 10.26 7.1
      vertex -26.5 10.26 7.1
    endloop
  endfacet
  facet normal 0 -1 -0
    outer loop
      vertex -12.5 10.26 7.1
      vertex -26.5 10.26 -3.6
      vertex -12.5 10.26 -3.6
    endloop
  endfacet
  facet normal 0 -0.0980305 0.995183
    outer loop
      vertex -26.5 -15.1059 1.32306
      vertex -12.5 -15.34 1.3
      vertex -12.5 -15.1059 1.32306
    endloop
  endfacet
  facet normal 0 -0.0980305 0.995183
    outer loop
      vertex -12.5 -15.34 1.3
      vertex -26.5 -15.1059 1.32306
      vertex -26.5 -15.34 1.3
    endloop
  endfacet
  facet normal 0 -0.995167 -0.0981947
    outer loop
      vertex -26.5 -14.14 2.5
      vertex -12.5 -14.1631 2.73411
      vertex -26.5 -14.1631 2.73411
    endloop
  endfacet
  facet normal 0 -0.995167 -0.0981947
    outer loop
      vertex -12.5 -14.1631 2.73411
      vertex -26.5 -14.14 2.5
      vertex -12.5 -14.14 2.5
    endloop
  endfacet
  facet normal 0 -0.772886 0.634545
    outer loop
      vertex -26.5 -14.4915 1.65147
      vertex -12.5 -14.3422 1.83332
      vertex -26.5 -14.3422 1.83332
    endloop
  endfacet
  facet normal 0 -0.772886 0.634545
    outer loop
      vertex -12.5 -14.3422 1.83332
      vertex -26.5 -14.4915 1.65147
      vertex -12.5 -14.4915 1.65147
    endloop
  endfacet
  facet normal 0 -0.634471 -0.772947
    outer loop
      vertex -26.5 -14.6733 3.49776
      vertex -12.5 -14.4915 3.34853
      vertex -12.5 -14.6733 3.49776
    endloop
  endfacet
  facet normal -0 -0.634471 -0.772947
    outer loop
      vertex -12.5 -14.4915 3.34853
      vertex -26.5 -14.6733 3.49776
      vertex -26.5 -14.4915 3.34853
    endloop
  endfacet
  facet normal 0 -0.881903 -0.471431
    outer loop
      vertex -26.5 -14.2313 2.95922
      vertex -12.5 -14.3422 3.16668
      vertex -26.5 -14.3422 3.16668
    endloop
  endfacet
  facet normal 0 -0.881903 -0.471431
    outer loop
      vertex -12.5 -14.3422 3.16668
      vertex -26.5 -14.2313 2.95922
      vertex -12.5 -14.2313 2.95922
    endloop
  endfacet
  facet normal -0 0.634471 0.772947
    outer loop
      vertex -26.5 -16.0067 1.50224
      vertex -12.5 -16.1885 1.65147
      vertex -12.5 -16.0067 1.50224
    endloop
  endfacet
  facet normal 0 0.634471 0.772947
    outer loop
      vertex -12.5 -16.1885 1.65147
      vertex -26.5 -16.0067 1.50224
      vertex -26.5 -16.1885 1.65147
    endloop
  endfacet
  facet normal 0 0.772886 -0.634545
    outer loop
      vertex -12.5 -16.3378 3.16668
      vertex -26.5 -16.1885 3.34853
      vertex -12.5 -16.1885 3.34853
    endloop
  endfacet
  facet normal 0 0.772886 -0.634545
    outer loop
      vertex -26.5 -16.1885 3.34853
      vertex -12.5 -16.3378 3.16668
      vertex -26.5 -16.3378 3.16668
    endloop
  endfacet
  facet normal 0 -0.471327 0.881958
    outer loop
      vertex -26.5 -14.6733 1.50224
      vertex -12.5 -14.8808 1.39135
      vertex -12.5 -14.6733 1.50224
    endloop
  endfacet
  facet normal 0 -0.471327 0.881958
    outer loop
      vertex -12.5 -14.8808 1.39135
      vertex -26.5 -14.6733 1.50224
      vertex -26.5 -14.8808 1.39135
    endloop
  endfacet
  facet normal 0 -0.290311 0.956932
    outer loop
      vertex -26.5 -14.8808 1.39135
      vertex -12.5 -15.1059 1.32306
      vertex -12.5 -14.8808 1.39135
    endloop
  endfacet
  facet normal 0 -0.290311 0.956932
    outer loop
      vertex -12.5 -15.1059 1.32306
      vertex -26.5 -14.8808 1.39135
      vertex -26.5 -15.1059 1.32306
    endloop
  endfacet
  facet normal 0 -0.634471 0.772947
    outer loop
      vertex -26.5 -14.4915 1.65147
      vertex -12.5 -14.6733 1.50224
      vertex -12.5 -14.4915 1.65147
    endloop
  endfacet
  facet normal 0 -0.634471 0.772947
    outer loop
      vertex -12.5 -14.6733 1.50224
      vertex -26.5 -14.4915 1.65147
      vertex -26.5 -14.6733 1.50224
    endloop
  endfacet
  facet normal 0 -0.957042 0.289948
    outer loop
      vertex -26.5 -14.2313 2.04078
      vertex -12.5 -14.1631 2.26589
      vertex -26.5 -14.1631 2.26589
    endloop
  endfacet
  facet normal 0 -0.957042 0.289948
    outer loop
      vertex -12.5 -14.1631 2.26589
      vertex -26.5 -14.2313 2.04078
      vertex -12.5 -14.2313 2.04078
    endloop
  endfacet
  facet normal 0 -0.995167 0.0981947
    outer loop
      vertex -26.5 -14.1631 2.26589
      vertex -12.5 -14.14 2.5
      vertex -26.5 -14.14 2.5
    endloop
  endfacet
  facet normal 0 -0.995167 0.0981947
    outer loop
      vertex -12.5 -14.14 2.5
      vertex -26.5 -14.1631 2.26589
      vertex -12.5 -14.1631 2.26589
    endloop
  endfacet
  facet normal 0 -0.881903 0.471431
    outer loop
      vertex -26.5 -14.3422 1.83332
      vertex -12.5 -14.2313 2.04078
      vertex -26.5 -14.2313 2.04078
    endloop
  endfacet
  facet normal 0 -0.881903 0.471431
    outer loop
      vertex -12.5 -14.2313 2.04078
      vertex -26.5 -14.3422 1.83332
      vertex -12.5 -14.3422 1.83332
    endloop
  endfacet
  facet normal 0 -0.290311 -0.956932
    outer loop
      vertex -26.5 -15.1059 3.67694
      vertex -12.5 -14.8808 3.60865
      vertex -12.5 -15.1059 3.67694
    endloop
  endfacet
  facet normal -0 -0.290311 -0.956932
    outer loop
      vertex -12.5 -14.8808 3.60865
      vertex -26.5 -15.1059 3.67694
      vertex -26.5 -14.8808 3.60865
    endloop
  endfacet
  facet normal 0 -0.471327 -0.881958
    outer loop
      vertex -26.5 -14.8808 3.60865
      vertex -12.5 -14.6733 3.49776
      vertex -12.5 -14.8808 3.60865
    endloop
  endfacet
  facet normal -0 -0.471327 -0.881958
    outer loop
      vertex -12.5 -14.6733 3.49776
      vertex -26.5 -14.8808 3.60865
      vertex -26.5 -14.6733 3.49776
    endloop
  endfacet
  facet normal 0 -0.0980305 -0.995183
    outer loop
      vertex -26.5 -15.34 3.7
      vertex -12.5 -15.1059 3.67694
      vertex -12.5 -15.34 3.7
    endloop
  endfacet
  facet normal -0 -0.0980305 -0.995183
    outer loop
      vertex -12.5 -15.1059 3.67694
      vertex -26.5 -15.34 3.7
      vertex -26.5 -15.1059 3.67694
    endloop
  endfacet
  facet normal 0 -0.772886 -0.634545
    outer loop
      vertex -26.5 -14.3422 3.16668
      vertex -12.5 -14.4915 3.34853
      vertex -26.5 -14.4915 3.34853
    endloop
  endfacet
  facet normal 0 -0.772886 -0.634545
    outer loop
      vertex -12.5 -14.4915 3.34853
      vertex -26.5 -14.3422 3.16668
      vertex -12.5 -14.3422 3.16668
    endloop
  endfacet
  facet normal 0 -0.957042 -0.289948
    outer loop
      vertex -26.5 -14.1631 2.73411
      vertex -12.5 -14.2313 2.95922
      vertex -26.5 -14.2313 2.95922
    endloop
  endfacet
  facet normal 0 -0.957042 -0.289948
    outer loop
      vertex -12.5 -14.2313 2.95922
      vertex -26.5 -14.1631 2.73411
      vertex -12.5 -14.1631 2.73411
    endloop
  endfacet
  facet normal -0 0.0980305 0.995183
    outer loop
      vertex -26.5 -15.34 1.3
      vertex -12.5 -15.5741 1.32306
      vertex -12.5 -15.34 1.3
    endloop
  endfacet
  facet normal 0 0.0980305 0.995183
    outer loop
      vertex -12.5 -15.5741 1.32306
      vertex -26.5 -15.34 1.3
      vertex -26.5 -15.5741 1.32306
    endloop
  endfacet
  facet normal 0 0.957042 0.289948
    outer loop
      vertex -12.5 -16.4487 2.04078
      vertex -26.5 -16.5169 2.26589
      vertex -12.5 -16.5169 2.26589
    endloop
  endfacet
  facet normal 0 0.957042 0.289948
    outer loop
      vertex -26.5 -16.5169 2.26589
      vertex -12.5 -16.4487 2.04078
      vertex -26.5 -16.4487 2.04078
    endloop
  endfacet
  facet normal 0 0.772886 0.634545
    outer loop
      vertex -12.5 -16.1885 1.65147
      vertex -26.5 -16.3378 1.83332
      vertex -12.5 -16.3378 1.83332
    endloop
  endfacet
  facet normal 0 0.772886 0.634545
    outer loop
      vertex -26.5 -16.3378 1.83332
      vertex -12.5 -16.1885 1.65147
      vertex -26.5 -16.1885 1.65147
    endloop
  endfacet
  facet normal 0 0.881903 -0.471431
    outer loop
      vertex -12.5 -16.4487 2.95922
      vertex -26.5 -16.3378 3.16668
      vertex -12.5 -16.3378 3.16668
    endloop
  endfacet
  facet normal 0 0.881903 -0.471431
    outer loop
      vertex -26.5 -16.3378 3.16668
      vertex -12.5 -16.4487 2.95922
      vertex -26.5 -16.4487 2.95922
    endloop
  endfacet
  facet normal 0 0.995167 -0.0981947
    outer loop
      vertex -12.5 -16.54 2.5
      vertex -26.5 -16.5169 2.73411
      vertex -12.5 -16.5169 2.73411
    endloop
  endfacet
  facet normal 0 0.995167 -0.0981947
    outer loop
      vertex -26.5 -16.5169 2.73411
      vertex -12.5 -16.54 2.5
      vertex -26.5 -16.54 2.5
    endloop
  endfacet
  facet normal 0 0.290311 -0.956932
    outer loop
      vertex -26.5 -15.7992 3.60865
      vertex -12.5 -15.5741 3.67694
      vertex -12.5 -15.7992 3.60865
    endloop
  endfacet
  facet normal 0 0.290311 -0.956932
    outer loop
      vertex -12.5 -15.5741 3.67694
      vertex -26.5 -15.7992 3.60865
      vertex -26.5 -15.5741 3.67694
    endloop
  endfacet
  facet normal 0 0.634471 -0.772947
    outer loop
      vertex -26.5 -16.1885 3.34853
      vertex -12.5 -16.0067 3.49776
      vertex -12.5 -16.1885 3.34853
    endloop
  endfacet
  facet normal 0 0.634471 -0.772947
    outer loop
      vertex -12.5 -16.0067 3.49776
      vertex -26.5 -16.1885 3.34853
      vertex -26.5 -16.0067 3.49776
    endloop
  endfacet
  facet normal 0 0.471327 -0.881958
    outer loop
      vertex -26.5 -16.0067 3.49776
      vertex -12.5 -15.7992 3.60865
      vertex -12.5 -16.0067 3.49776
    endloop
  endfacet
  facet normal 0 0.471327 -0.881958
    outer loop
      vertex -12.5 -15.7992 3.60865
      vertex -26.5 -16.0067 3.49776
      vertex -26.5 -15.7992 3.60865
    endloop
  endfacet
  facet normal 0 0.0980305 -0.995183
    outer loop
      vertex -26.5 -15.5741 3.67694
      vertex -12.5 -15.34 3.7
      vertex -12.5 -15.5741 3.67694
    endloop
  endfacet
  facet normal 0 0.0980305 -0.995183
    outer loop
      vertex -12.5 -15.34 3.7
      vertex -26.5 -15.5741 3.67694
      vertex -26.5 -15.34 3.7
    endloop
  endfacet
  facet normal 0 0.881903 0.471431
    outer loop
      vertex -12.5 -16.3378 1.83332
      vertex -26.5 -16.4487 2.04078
      vertex -12.5 -16.4487 2.04078
    endloop
  endfacet
  facet normal 0 0.881903 0.471431
    outer loop
      vertex -26.5 -16.4487 2.04078
      vertex -12.5 -16.3378 1.83332
      vertex -26.5 -16.3378 1.83332
    endloop
  endfacet
  facet normal -0 0.290311 0.956932
    outer loop
      vertex -26.5 -15.5741 1.32306
      vertex -12.5 -15.7992 1.39135
      vertex -12.5 -15.5741 1.32306
    endloop
  endfacet
  facet normal 0 0.290311 0.956932
    outer loop
      vertex -12.5 -15.7992 1.39135
      vertex -26.5 -15.5741 1.32306
      vertex -26.5 -15.7992 1.39135
    endloop
  endfacet
  facet normal -0 0.471327 0.881958
    outer loop
      vertex -26.5 -15.7992 1.39135
      vertex -12.5 -16.0067 1.50224
      vertex -12.5 -15.7992 1.39135
    endloop
  endfacet
  facet normal 0 0.471327 0.881958
    outer loop
      vertex -12.5 -16.0067 1.50224
      vertex -26.5 -15.7992 1.39135
      vertex -26.5 -16.0067 1.50224
    endloop
  endfacet
  facet normal 0 0.957042 -0.289948
    outer loop
      vertex -12.5 -16.5169 2.73411
      vertex -26.5 -16.4487 2.95922
      vertex -12.5 -16.4487 2.95922
    endloop
  endfacet
  facet normal 0 0.957042 -0.289948
    outer loop
      vertex -26.5 -16.4487 2.95922
      vertex -12.5 -16.5169 2.73411
      vertex -26.5 -16.5169 2.73411
    endloop
  endfacet
  facet normal 0 0.995167 0.0981947
    outer loop
      vertex -12.5 -16.5169 2.26589
      vertex -26.5 -16.54 2.5
      vertex -12.5 -16.54 2.5
    endloop
  endfacet
  facet normal 0 0.995167 0.0981947
    outer loop
      vertex -26.5 -16.54 2.5
      vertex -12.5 -16.5169 2.26589
      vertex -26.5 -16.5169 2.26589
    endloop
  endfacet
  facet normal 0 -0.0980305 0.995183
    outer loop
      vertex -26.5 12.5941 1.32306
      vertex -12.5 12.36 1.3
      vertex -12.5 12.5941 1.32306
    endloop
  endfacet
  facet normal 0 -0.0980305 0.995183
    outer loop
      vertex -12.5 12.36 1.3
      vertex -26.5 12.5941 1.32306
      vertex -26.5 12.36 1.3
    endloop
  endfacet
  facet normal 0 -0.0980305 -0.995183
    outer loop
      vertex -26.5 12.36 3.7
      vertex -12.5 12.5941 3.67694
      vertex -12.5 12.36 3.7
    endloop
  endfacet
  facet normal -0 -0.0980305 -0.995183
    outer loop
      vertex -12.5 12.5941 3.67694
      vertex -26.5 12.36 3.7
      vertex -26.5 12.5941 3.67694
    endloop
  endfacet
  facet normal 0 -0.995167 -0.0981947
    outer loop
      vertex -26.5 13.56 2.5
      vertex -12.5 13.5369 2.73411
      vertex -26.5 13.5369 2.73411
    endloop
  endfacet
  facet normal 0 -0.995167 -0.0981947
    outer loop
      vertex -12.5 13.5369 2.73411
      vertex -26.5 13.56 2.5
      vertex -12.5 13.56 2.5
    endloop
  endfacet
  facet normal 0 -0.772886 0.634545
    outer loop
      vertex -26.5 13.2085 1.65147
      vertex -12.5 13.3578 1.83332
      vertex -26.5 13.3578 1.83332
    endloop
  endfacet
  facet normal 0 -0.772886 0.634545
    outer loop
      vertex -12.5 13.3578 1.83332
      vertex -26.5 13.2085 1.65147
      vertex -12.5 13.2085 1.65147
    endloop
  endfacet
  facet normal 0 -0.772886 -0.634545
    outer loop
      vertex -26.5 13.3578 3.16668
      vertex -12.5 13.2085 3.34853
      vertex -26.5 13.2085 3.34853
    endloop
  endfacet
  facet normal 0 -0.772886 -0.634545
    outer loop
      vertex -12.5 13.2085 3.34853
      vertex -26.5 13.3578 3.16668
      vertex -12.5 13.3578 3.16668
    endloop
  endfacet
  facet normal 0 -0.957042 -0.289948
    outer loop
      vertex -26.5 13.5369 2.73411
      vertex -12.5 13.4687 2.95922
      vertex -26.5 13.4687 2.95922
    endloop
  endfacet
  facet normal 0 -0.957042 -0.289948
    outer loop
      vertex -12.5 13.4687 2.95922
      vertex -26.5 13.5369 2.73411
      vertex -12.5 13.5369 2.73411
    endloop
  endfacet
  facet normal 0 0.634471 -0.772947
    outer loop
      vertex -26.5 11.5115 3.34853
      vertex -12.5 11.6933 3.49776
      vertex -12.5 11.5115 3.34853
    endloop
  endfacet
  facet normal 0 0.634471 -0.772947
    outer loop
      vertex -12.5 11.6933 3.49776
      vertex -26.5 11.5115 3.34853
      vertex -26.5 11.6933 3.49776
    endloop
  endfacet
  facet normal 0 -0.471327 0.881958
    outer loop
      vertex -26.5 13.0267 1.50224
      vertex -12.5 12.8192 1.39135
      vertex -12.5 13.0267 1.50224
    endloop
  endfacet
  facet normal 0 -0.471327 0.881958
    outer loop
      vertex -12.5 12.8192 1.39135
      vertex -26.5 13.0267 1.50224
      vertex -26.5 12.8192 1.39135
    endloop
  endfacet
  facet normal 0 -0.290311 0.956932
    outer loop
      vertex -26.5 12.8192 1.39135
      vertex -12.5 12.5941 1.32306
      vertex -12.5 12.8192 1.39135
    endloop
  endfacet
  facet normal 0 -0.290311 0.956932
    outer loop
      vertex -12.5 12.5941 1.32306
      vertex -26.5 12.8192 1.39135
      vertex -26.5 12.5941 1.32306
    endloop
  endfacet
  facet normal 0 -0.634471 0.772947
    outer loop
      vertex -26.5 13.2085 1.65147
      vertex -12.5 13.0267 1.50224
      vertex -12.5 13.2085 1.65147
    endloop
  endfacet
  facet normal 0 -0.634471 0.772947
    outer loop
      vertex -12.5 13.0267 1.50224
      vertex -26.5 13.2085 1.65147
      vertex -26.5 13.0267 1.50224
    endloop
  endfacet
  facet normal 0 -0.957042 0.289948
    outer loop
      vertex -26.5 13.4687 2.04078
      vertex -12.5 13.5369 2.26589
      vertex -26.5 13.5369 2.26589
    endloop
  endfacet
  facet normal 0 -0.957042 0.289948
    outer loop
      vertex -12.5 13.5369 2.26589
      vertex -26.5 13.4687 2.04078
      vertex -12.5 13.4687 2.04078
    endloop
  endfacet
  facet normal 0 -0.995167 0.0981947
    outer loop
      vertex -26.5 13.5369 2.26589
      vertex -12.5 13.56 2.5
      vertex -26.5 13.56 2.5
    endloop
  endfacet
  facet normal 0 -0.995167 0.0981947
    outer loop
      vertex -12.5 13.56 2.5
      vertex -26.5 13.5369 2.26589
      vertex -12.5 13.5369 2.26589
    endloop
  endfacet
  facet normal 0 -0.881903 0.471431
    outer loop
      vertex -26.5 13.3578 1.83332
      vertex -12.5 13.4687 2.04078
      vertex -26.5 13.4687 2.04078
    endloop
  endfacet
  facet normal 0 -0.881903 0.471431
    outer loop
      vertex -12.5 13.4687 2.04078
      vertex -26.5 13.3578 1.83332
      vertex -12.5 13.3578 1.83332
    endloop
  endfacet
  facet normal 0 -0.471327 -0.881958
    outer loop
      vertex -26.5 12.8192 3.60865
      vertex -12.5 13.0267 3.49776
      vertex -12.5 12.8192 3.60865
    endloop
  endfacet
  facet normal -0 -0.471327 -0.881958
    outer loop
      vertex -12.5 13.0267 3.49776
      vertex -26.5 12.8192 3.60865
      vertex -26.5 13.0267 3.49776
    endloop
  endfacet
  facet normal 0 -0.634471 -0.772947
    outer loop
      vertex -26.5 13.0267 3.49776
      vertex -12.5 13.2085 3.34853
      vertex -12.5 13.0267 3.49776
    endloop
  endfacet
  facet normal -0 -0.634471 -0.772947
    outer loop
      vertex -12.5 13.2085 3.34853
      vertex -26.5 13.0267 3.49776
      vertex -26.5 13.2085 3.34853
    endloop
  endfacet
  facet normal 0 -0.290311 -0.956932
    outer loop
      vertex -26.5 12.5941 3.67694
      vertex -12.5 12.8192 3.60865
      vertex -12.5 12.5941 3.67694
    endloop
  endfacet
  facet normal -0 -0.290311 -0.956932
    outer loop
      vertex -12.5 12.8192 3.60865
      vertex -26.5 12.5941 3.67694
      vertex -26.5 12.8192 3.60865
    endloop
  endfacet
  facet normal 0 -0.881903 -0.471431
    outer loop
      vertex -26.5 13.4687 2.95922
      vertex -12.5 13.3578 3.16668
      vertex -26.5 13.3578 3.16668
    endloop
  endfacet
  facet normal 0 -0.881903 -0.471431
    outer loop
      vertex -12.5 13.3578 3.16668
      vertex -26.5 13.4687 2.95922
      vertex -12.5 13.4687 2.95922
    endloop
  endfacet
  facet normal 0 0.995167 0.0981947
    outer loop
      vertex -12.5 11.1831 2.26589
      vertex -26.5 11.16 2.5
      vertex -12.5 11.16 2.5
    endloop
  endfacet
  facet normal 0 0.995167 0.0981947
    outer loop
      vertex -26.5 11.16 2.5
      vertex -12.5 11.1831 2.26589
      vertex -26.5 11.1831 2.26589
    endloop
  endfacet
  facet normal 0 0.881903 0.471431
    outer loop
      vertex -12.5 11.3622 1.83332
      vertex -26.5 11.2513 2.04078
      vertex -12.5 11.2513 2.04078
    endloop
  endfacet
  facet normal 0 0.881903 0.471431
    outer loop
      vertex -26.5 11.2513 2.04078
      vertex -12.5 11.3622 1.83332
      vertex -26.5 11.3622 1.83332
    endloop
  endfacet
  facet normal -0 0.0980305 0.995183
    outer loop
      vertex -26.5 12.36 1.3
      vertex -12.5 12.1259 1.32306
      vertex -12.5 12.36 1.3
    endloop
  endfacet
  facet normal 0 0.0980305 0.995183
    outer loop
      vertex -12.5 12.1259 1.32306
      vertex -26.5 12.36 1.3
      vertex -26.5 12.1259 1.32306
    endloop
  endfacet
  facet normal 0 0.772886 -0.634545
    outer loop
      vertex -12.5 11.3622 3.16668
      vertex -26.5 11.5115 3.34853
      vertex -12.5 11.5115 3.34853
    endloop
  endfacet
  facet normal 0 0.772886 -0.634545
    outer loop
      vertex -26.5 11.5115 3.34853
      vertex -12.5 11.3622 3.16668
      vertex -26.5 11.3622 3.16668
    endloop
  endfacet
  facet normal 0 0.957042 -0.289948
    outer loop
      vertex -12.5 11.1831 2.73411
      vertex -26.5 11.2513 2.95922
      vertex -12.5 11.2513 2.95922
    endloop
  endfacet
  facet normal 0 0.957042 -0.289948
    outer loop
      vertex -26.5 11.2513 2.95922
      vertex -12.5 11.1831 2.73411
      vertex -26.5 11.1831 2.73411
    endloop
  endfacet
  facet normal 0 0.0980305 -0.995183
    outer loop
      vertex -26.5 12.1259 3.67694
      vertex -12.5 12.36 3.7
      vertex -12.5 12.1259 3.67694
    endloop
  endfacet
  facet normal 0 0.0980305 -0.995183
    outer loop
      vertex -12.5 12.36 3.7
      vertex -26.5 12.1259 3.67694
      vertex -26.5 12.36 3.7
    endloop
  endfacet
  facet normal 0 0.471327 -0.881958
    outer loop
      vertex -26.5 11.6933 3.49776
      vertex -12.5 11.9008 3.60865
      vertex -12.5 11.6933 3.49776
    endloop
  endfacet
  facet normal 0 0.471327 -0.881958
    outer loop
      vertex -12.5 11.9008 3.60865
      vertex -26.5 11.6933 3.49776
      vertex -26.5 11.9008 3.60865
    endloop
  endfacet
  facet normal 0 0.290311 -0.956932
    outer loop
      vertex -26.5 11.9008 3.60865
      vertex -12.5 12.1259 3.67694
      vertex -12.5 11.9008 3.60865
    endloop
  endfacet
  facet normal 0 0.290311 -0.956932
    outer loop
      vertex -12.5 12.1259 3.67694
      vertex -26.5 11.9008 3.60865
      vertex -26.5 12.1259 3.67694
    endloop
  endfacet
  facet normal 0 0.957042 0.289948
    outer loop
      vertex -12.5 11.2513 2.04078
      vertex -26.5 11.1831 2.26589
      vertex -12.5 11.1831 2.26589
    endloop
  endfacet
  facet normal 0 0.957042 0.289948
    outer loop
      vertex -26.5 11.1831 2.26589
      vertex -12.5 11.2513 2.04078
      vertex -26.5 11.2513 2.04078
    endloop
  endfacet
  facet normal 0 0.772886 0.634545
    outer loop
      vertex -12.5 11.5115 1.65147
      vertex -26.5 11.3622 1.83332
      vertex -12.5 11.3622 1.83332
    endloop
  endfacet
  facet normal 0 0.772886 0.634545
    outer loop
      vertex -26.5 11.3622 1.83332
      vertex -12.5 11.5115 1.65147
      vertex -26.5 11.5115 1.65147
    endloop
  endfacet
  facet normal -0 0.471327 0.881958
    outer loop
      vertex -26.5 11.9008 1.39135
      vertex -12.5 11.6933 1.50224
      vertex -12.5 11.9008 1.39135
    endloop
  endfacet
  facet normal 0 0.471327 0.881958
    outer loop
      vertex -12.5 11.6933 1.50224
      vertex -26.5 11.9008 1.39135
      vertex -26.5 11.6933 1.50224
    endloop
  endfacet
  facet normal -0 0.634471 0.772947
    outer loop
      vertex -26.5 11.6933 1.50224
      vertex -12.5 11.5115 1.65147
      vertex -12.5 11.6933 1.50224
    endloop
  endfacet
  facet normal 0 0.634471 0.772947
    outer loop
      vertex -12.5 11.5115 1.65147
      vertex -26.5 11.6933 1.50224
      vertex -26.5 11.5115 1.65147
    endloop
  endfacet
  facet normal -0 0.290311 0.956932
    outer loop
      vertex -26.5 12.1259 1.32306
      vertex -12.5 11.9008 1.39135
      vertex -12.5 12.1259 1.32306
    endloop
  endfacet
  facet normal 0 0.290311 0.956932
    outer loop
      vertex -12.5 11.9008 1.39135
      vertex -26.5 12.1259 1.32306
      vertex -26.5 11.9008 1.39135
    endloop
  endfacet
  facet normal 0 0.881903 -0.471431
    outer loop
      vertex -12.5 11.2513 2.95922
      vertex -26.5 11.3622 3.16668
      vertex -12.5 11.3622 3.16668
    endloop
  endfacet
  facet normal 0 0.881903 -0.471431
    outer loop
      vertex -26.5 11.3622 3.16668
      vertex -12.5 11.2513 2.95922
      vertex -26.5 11.2513 2.95922
    endloop
  endfacet
  facet normal 0 0.995167 -0.0981947
    outer loop
      vertex -12.5 11.16 2.5
      vertex -26.5 11.1831 2.73411
      vertex -12.5 11.1831 2.73411
    endloop
  endfacet
  facet normal 0 0.995167 -0.0981947
    outer loop
      vertex -26.5 11.1831 2.73411
      vertex -12.5 11.16 2.5
      vertex -26.5 11.16 2.5
    endloop
  endfacet
endsolid OpenSCAD_Model
